<?xml version="1.0" standalone="no"?>
<!DOCTYPE svg PUBLIC "-//W3C//DTD SVG 1.1//EN" "http://www.w3.org/Graphics/SVG/1.1/DTD/svg11.dtd" >
<svg xmlns="http://www.w3.org/2000/svg">
<metadata>
This is a custom SVG webfont generated by Font Squirrel.
Copyright   : Copyright  2007 Canada Type All rights reserved
Designer    : Rebecca Alaccari
Foundry     : Canada Type
Foundry URL : httpwwwcanadatypecom
</metadata>
<defs>
<font id="webfontJGiBnDn0" horiz-adv-x="819" >
<font-face units-per-em="2048" ascent="1638" descent="-410" />
<missing-glyph horiz-adv-x="409" />
<glyph unicode=" "  horiz-adv-x="409" />
<glyph unicode="&#x09;" horiz-adv-x="409" />
<glyph unicode="&#xa0;" horiz-adv-x="409" />
<glyph unicode="!" horiz-adv-x="499" d="M227 258l265 821h149l-373 -821h-41zM129 49q0 33 24.5 63.5t59.5 30.5q25 0 41 -17t16 -42q0 -33 -24.5 -63.5t-57.5 -30.5q-25 0 -42 17t-17 42z" />
<glyph unicode="&#x22;" horiz-adv-x="344" d="M115 694l100 449h88l-160 -449h-28zM299 694l100 449h88l-159 -449h-29z" />
<glyph unicode="#" horiz-adv-x="2650" d="M2028 829q121 23 215 68l43 98l43 103l50 119q32 74 70.5 142t82.5 118.5t87 50.5q47 0 70 -45t23 -99q0 -61 -32 -130.5t-90.5 -137t-141.5 -128t-185 -105.5q-39 -82 -63 -140l-46 -103q-20 -46 -41 -87l-51 -93l-70 -122l-104 -172q-12 -20 -38 -57l-53 -75 q-28 -38 -55.5 -70t-41.5 -42q-10 -8 -25 -8q-23 0 -22 18q0 10 6 23l35 90q23 59 46 146.5t40.5 199t19.5 246.5q2 117 18.5 246t40 251.5t52 227t57.5 172.5q-37 -49 -81 -134t-88 -181l-87 -193q-43 -96 -78 -166q-111 -225 -239.5 -408.5t-275 -312.5t-310.5 -199.5 t-344 -70.5q-86 0 -170 22.5t-149.5 69.5t-105.5 120t-40 173q0 117 52 208t134 155.5t184.5 98.5t204.5 34q57 0 120 -11.5t113 -38t83 -72.5t33 -116q0 -84 -49.5 -150.5t-124 -112.5t-161.5 -70.5t-161 -24.5q-23 0 -47.5 2t-52.5 6l4 20q43 -6 80 -6q72 0 157.5 22.5 t160.5 68.5t125 114t50 158q0 68 -77.5 119t-219.5 51q-90 0 -191.5 -39t-188.5 -104.5t-144 -151.5t-57 -183q0 -88 38.5 -152.5t103 -106.5t146.5 -62.5t166 -20.5q129 0 246 38t221.5 104.5t196.5 157t172 192.5t145.5 211.5t118.5 216.5l42 93l69 151l83 176 q44 92 87 170t79.5 131t61.5 61q12 4 18 4q14 0 15 -10q-12 -29 -25.5 -72t-24 -96t-17.5 -112.5t-7 -118.5q0 -27 -2 -85.5t-7 -139t-14.5 -176t-26 -194.5t-41 -194.5t-56.5 -175.5q-23 -57 -60 -131t-61 -131q20 14 53 53t64 84l60 85q28 40 38 59q88 152 168 307 t153 321q-47 -18 -99 -32.5t-108 -24.5zM2517 784q37 0 63.5 -16t45 -43t26.5 -60.5t8 -70.5q0 -59 -18.5 -114.5t-48 -99.5t-68.5 -70.5t-80 -26.5q-70 0 -121 59t-51 152q0 55 20.5 108t54.5 93t78 64.5t91 24.5zM2529 750q-37 0 -69.5 -36t-57 -86t-39 -103.5 t-14.5 -88.5q0 -53 24.5 -87t63.5 -34q43 0 78 26t61.5 68t41 93t14.5 102q0 72 -31 109t-72 37zM2277 913q100 51 176 120t126.5 137.5t75 129t24.5 97.5q0 14 -1 33.5t-5 37t-15.5 28.5t-29.5 11q-43 0 -80 -42t-74 -113.5t-76 -166.5t-88 -202zM2214 125h375l-17 -49 h-374z" />
<glyph unicode="$" horiz-adv-x="802" d="M98 -422q-51 12 -96 40t-79 69t-53.5 98t-19.5 131q0 59 34 96t85 37q66 0 91.5 -28.5t25.5 -57.5q0 -23 -12.5 -39t-28.5 -16q-23 0 -47.5 18.5t-40.5 53.5q-37 0 -54.5 -19.5t-17.5 -54.5q0 -129 64.5 -206t154.5 -99l289 852l-64 149q-32 76 -57.5 152.5t-41 156.5 t-15.5 160q0 109 41 193t106.5 141t147.5 87t164 30q45 0 80 -9l39 115h36l-43 -123q102 -29 171 -111.5t69 -226.5q0 -59 -34 -96t-85 -37q-59 0 -89 31t-30 61q0 20 12.5 35t37.5 15q35 0 50 -15.5t32 -56.5q37 0 54 19.5t17 54.5q0 123 -61.5 200.5t-149.5 106.5 l-305 -897l63 -145q32 -73 57.5 -146.5t41.5 -150t16 -156.5q0 -102 -41 -181t-105.5 -132.5t-145 -82t-162.5 -28.5q-37 0 -70 6l-33 -96h-33zM336 1096q0 -123 36 -237t83 -226l290 860q-31 8 -67 8q-63 0 -124.5 -24.5t-110 -73.5t-78 -126t-29.5 -181zM532 -20 q0 104 -35.5 209.5t-82.5 218.5l-279 -814q12 -2 24.5 -3t24.5 -1q63 0 126 25t112 73t79.5 121t30.5 171z" />
<glyph unicode="%" horiz-adv-x="958" d="M229 -51l578 1177h47l-580 -1177h-45zM772 469q37 0 63.5 -16.5t45 -43t26.5 -60.5t8 -70q0 -59 -18 -114.5t-48 -100t-69 -71t-80 -26.5q-70 0 -121 59.5t-51 151.5q0 55 20.5 108.5t54.5 93.5t78 64.5t91 24.5zM784 434q-37 0 -69.5 -36t-57 -86t-39 -103t-14.5 -88 q0 -53 24.5 -87t63.5 -34q43 0 78 25.5t61.5 67.5t41 93.5t14.5 102.5q0 72 -31 108.5t-72 36.5zM406 1104q37 0 63.5 -16.5t44.5 -43t26.5 -60.5t8.5 -71q0 -59 -18.5 -114.5t-48 -99.5t-68.5 -70.5t-80 -26.5q-70 0 -121 59.5t-51 151.5q0 55 20.5 108.5t54 93.5t78 64.5 t91.5 24.5zM418 1069q-37 0 -70 -36t-57.5 -86t-38.5 -103t-14 -88q0 -53 24.5 -87t63.5 -34q43 0 77.5 25.5t61.5 67.5t41 93t14 103q0 72 -30.5 108.5t-71.5 36.5z" />
<glyph unicode="&#x26;" horiz-adv-x="1275" d="M1163 1280q0 -68 -33.5 -122t-92 -100t-135.5 -87t-161 -80q-29 -80 -52 -164t-40 -170q23 6 46.5 10t47.5 4q45 0 86 -14t72 -42t49.5 -67.5t18.5 -91.5q0 -57 -19.5 -107t-52.5 -94t-76 -80t-92 -63q23 -16 52.5 -25.5t68.5 -9.5q90 0 189.5 63.5t185.5 156.5l12 -21 q-37 -41 -83 -81t-97 -71.5t-102.5 -52t-98.5 -20.5q-84 0 -158 45q-61 -29 -123.5 -45.5t-115.5 -16.5q-76 0 -145.5 25t-124 71t-87 109.5t-32.5 143.5q0 127 54 221t142 164.5t198 124.5l218 102q47 98 100.5 184t105.5 151.5t100 103.5t85 38q90 0 90 -92zM356 309 q33 59 80 112.5t107 90.5q20 84 51 170t70 172l-207 -101q-102 -52 -182 -118t-130.5 -146.5t-50.5 -187.5q0 -70 21.5 -129t66.5 -103t114 -69t163 -25q41 0 90 15.5t98 42.5q-59 53 -94 125.5t-35 152.5q0 37 4 78t13 84q-53 -41 -91 -89t-61 -91zM748 543q-55 0 -105 -17 q-18 -111 -18 -211q0 -66 11 -136t48 -124q47 29 91 67t77 80t52.5 87t19.5 90q0 72 -47 118t-129 46zM1090 1339q-43 0 -88.5 -31.5t-88.5 -87t-82.5 -131t-74.5 -161.5q78 35 146.5 71.5t120.5 77.5t82 91.5t30 111.5q0 23 -11 41t-34 18z" />
<glyph unicode="'" horiz-adv-x="159" d="M115 694l100 449h88l-160 -449h-28z" />
<glyph unicode="(" horiz-adv-x="630" d="M250 -244q-55 141 -84 283.5t-29 284.5q0 178 48 344t146.5 303t249 239.5t355.5 153.5l20 -29q-176 -43 -315 -148.5t-234.5 -254t-145.5 -330.5t-50 -379q0 -115 17.5 -230.5t54.5 -232.5z" />
<glyph unicode=")" horiz-adv-x="581" d="M502 1364q55 -141 82.5 -284.5t27.5 -282.5q0 -178 -47 -344t-145 -303.5t-249 -240t-355 -153.5l-21 29q176 43 315.5 148.5t234.5 254t145.5 329.5t50.5 378q0 231 -72 465z" />
<glyph unicode="*" horiz-adv-x="559" d="M506 909l-60 -100l19 -21l90 37l20 -71l-98 -4l-10 -27l68 -55l-54 -58l-47 84l-24 -2l-17 -90l-71 21l47 86l-11 14l-90 -29l-16 72l102 12l6 10l-90 78l62 54l61 -105l21 4l24 109z" />
<glyph unicode="+" horiz-adv-x="851" d="M575 700l-77 -256h260l-21 -69h-260l-74 -242h-75l73 242h-264l21 69h266l80 256h71z" />
<glyph unicode="," horiz-adv-x="278" d="M-6 -190q78 27 105.5 79t27.5 142q0 63 23.5 94t50.5 31q18 0 32.5 -16.5t14.5 -49.5t-17.5 -78t-48 -90t-75 -81t-97.5 -50z" />
<glyph unicode="-" horiz-adv-x="729" d="M158 444h477l-21 -69h-477z" />
<glyph unicode="." horiz-adv-x="301" d="M129 49q0 33 24.5 63.5t59.5 30.5q25 0 41 -17t16 -42q0 -33 -24.5 -63.5t-57.5 -30.5q-25 0 -42 17t-17 42z" />
<glyph unicode="/" horiz-adv-x="606" d="M782 1446h47l-802 -1628h-43z" />
<glyph unicode="0" horiz-adv-x="839" d="M926 674q-2 -33 -15.5 -66t-35 -59.5t-49 -44t-58.5 -17.5h-20q-35 -74 -91.5 -165t-125 -170.5t-142.5 -135t-141 -55.5q-47 0 -85 29.5t-64.5 72.5t-42 92.5t-15.5 90.5q0 96 36 192.5t93 185.5t128 165.5t142.5 133t135 89t106.5 32.5q39 0 65.5 -16t42 -45 t22.5 -66.5t7 -80.5q0 -45 -6 -92.5t-16.5 -90.5t-21.5 -78.5t-19 -58.5q10 -4 35 -4t46 19.5t37.5 46t25.5 54t11 44.5zM145 145q0 -33 4.5 -64.5t16.5 -56t33.5 -39t58.5 -14.5t83 30t94 77t95.5 106.5t87 118.5t69.5 111.5t42 87.5q-29 29 -41 76t-12 90q0 61 26.5 119.5 t77.5 101.5q2 8 2 35q0 41 -30.5 68.5t-69.5 27.5q-53 0 -89 -26.5t-71 -57.5q-72 -63 -139.5 -160.5t-120.5 -206t-85 -220.5t-32 -204z" />
<glyph unicode="1" horiz-adv-x="532" d="M684 1081q-41 -119 -93 -257l-106 -282l-102 -288q-49 -143 -84 -268h-147l368 888q-92 -123 -206.5 -219t-258.5 -168v41q90 39 177 103.5t162 140.5t132.5 157t87.5 154z" />
<glyph unicode="2" horiz-adv-x="788" d="M49 -41q-31 0 -31 29q0 23 13.5 49t23.5 39q51 66 127 136l158 142l164 144q82 72 147.5 141.5t105.5 134t40 121.5q0 80 -37 117t-101 37q-35 0 -72.5 -18.5t-72.5 -44t-65.5 -55.5l-51.5 -52q-51 -53 -81.5 -117t-30.5 -121q0 -47 25.5 -57.5t45.5 -10.5q45 0 83 18.5 t69 47.5t55 63l47 70l13 -8q-23 -37 -51.5 -74t-63.5 -66.5t-75 -48t-85 -18.5q-57 0 -80.5 40t-23.5 93q0 74 31.5 142.5t86 120t128 82t157.5 30.5q104 0 169 -69.5t65 -180.5q0 -74 -42 -133t-103.5 -108.5t-131 -90.5l-125.5 -77l-140 -100q-75 -54 -134 -113 q76 41 140.5 69.5t125.5 28.5q47 0 77 -21.5t30 -76.5q0 -25 -10.5 -49.5t-24 -47t-23.5 -45t-10 -43.5q0 -10 3 -17t13 -7q31 0 61.5 15t60.5 39.5t56.5 55.5t49.5 62l8 -9q-72 -98 -135.5 -137t-108.5 -39q-33 0 -52.5 26t-19.5 58q0 27 8.5 50.5t17.5 46l17.5 45 t8.5 47.5q0 20 -13.5 26t-38.5 6q-31 0 -79 -19t-99 -47t-96 -58.5t-70 -55.5q4 -16 4 -33q0 -33 -12 -68.5t-45 -35.5z" />
<glyph unicode="3" horiz-adv-x="770" d="M37 115q0 39 11 69.5t28.5 52t38 34t39.5 12.5q16 0 28.5 -12.5t12.5 -41.5q0 -31 -14.5 -50t-36 -33.5t-46 -23.5t-45.5 -20q0 -63 35 -88.5t80 -25.5q80 0 163 42t150.5 105.5t110.5 134t43 129.5q0 33 -19.5 69t-54.5 36q-33 0 -57.5 -17.5t-59.5 -17.5q-10 0 -17 6 t-7 14q0 25 19.5 32t43.5 7h49q27 0 39 11q84 68 139.5 164t55.5 194q0 137 -131 137q-45 0 -99.5 -34.5t-100.5 -85t-77.5 -107.5t-31.5 -100q0 -27 8 -42.5t20.5 -22.5t26.5 -9t27 -2q47 0 89 25.5t74.5 59.5t54 66.5t29.5 48.5v-32q-10 -20 -33.5 -52t-58.5 -63 t-79 -52.5t-95 -21.5q-55 0 -89 44t-34 100q0 51 35 103t90 95t122 71t132 28q45 0 86 -15.5t73 -43t50 -65.5t18 -83q0 -59 -27.5 -110.5t-71.5 -92.5t-98 -71.5t-106 -49.5q27 -12 56.5 -29.5t53 -40t39 -50t15.5 -62.5q0 -53 -26.5 -101.5t-70.5 -91.5t-101.5 -77.5 t-117 -59t-117.5 -38t-105 -13.5q-74 0 -116 43t-42 115z" />
<glyph unicode="4" horiz-adv-x="862" d="M807 643l-162 -381q16 -2 31 -2h29q41 0 77.5 8t65.5 29l-4 -29q-53 -29 -102.5 -40t-96.5 -11h-18l-99 -231h-106l92 243q-55 10 -109.5 21.5t-111.5 11.5q-23 0 -50.5 -5t-58.5 -13q-37 -47 -65.5 -66.5t-44.5 -19.5q-27 0 -27 35q0 23 29.5 47t99.5 49l126 172 q62 86 121.5 180t118 199.5t115.5 232.5l199 8l-633 -784q35 8 64.5 10t52.5 2q37 0 87 -10t105 -20l130 344z" />
<glyph unicode="5" horiz-adv-x="731" d="M115 -41q-70 0 -98.5 44t-28.5 99q0 80 35.5 121t70.5 41q25 0 36 -14t11 -35q0 -18 -9 -39.5t-26.5 -39t-42 -30t-57.5 -12.5q2 -68 36 -91t77 -23q68 0 148.5 55t149 141t116 189.5t47.5 201.5q0 68 -31 96.5t-78 28.5q-55 0 -114.5 -29.5t-90.5 -72.5q0 -10 -4 -31.5 t-13 -43t-23.5 -38t-35.5 -16.5q-12 0 -21 10t-9 18q0 41 25.5 72t54.5 55q2 6 16 41l35 83l43 104l43 101l34 77q13 31 17 31h86q2 -16 5 -38t11.5 -40.5t23.5 -31.5t40 -13q35 0 73 17.5t75.5 44t72.5 59.5l66 61l16 -25q-25 -29 -64.5 -65.5t-89 -70t-103.5 -56.5 t-110 -23q-25 0 -43 11.5t-31.5 28t-23.5 34.5l-18 33l-129 -336q49 39 95 56.5t87 17.5q49 0 89 -22.5t68.5 -60.5t44 -89t15.5 -107q0 -80 -61.5 -165t-149.5 -154.5t-186 -114.5t-172 -45z" />
<glyph unicode="6" horiz-adv-x="808" d="M264 295q27 57 61.5 115.5t80 105.5t97.5 77t111 30q37 0 65 -18.5t45 -46.5t25.5 -62.5t8.5 -65.5q0 -61 -24.5 -120.5t-63.5 -112t-89.5 -96.5t-99.5 -75.5t-94 -49t-76 -17.5q-66 0 -112.5 35t-77.5 88t-46.5 116.5t-15.5 120.5q0 72 36 156t95.5 167t133 160 t149.5 136t146.5 94t121.5 35q59 0 88 -39t29 -96q0 -18 -5 -43t-16.5 -45.5t-30 -34.5t-42.5 -14q-59 0 -59 51q0 20 10 44.5t26.5 47.5t37 40t40.5 23q-14 27 -29.5 35t-37.5 8q-59 0 -126 -41.5t-131.5 -111.5t-122 -161t-101.5 -190.5t-69.5 -198.5t-25.5 -187 q0 -86 24.5 -122t84.5 -36q70 0 142.5 55t131.5 134t96 167t37 156q0 8 -1 23.5t-7 28.5t-20.5 23.5t-38.5 10.5q-70 0 -124.5 -33t-95 -82t-70.5 -104.5t-50 -100.5z" />
<glyph unicode="7" horiz-adv-x="684" d="M326 616h159l92 146l103 168q-43 -35 -93 -64.5t-112 -29.5q-41 0 -65.5 21.5t-24.5 64.5q0 31 12.5 56.5t12.5 57.5q0 10 -6.5 18.5t-18.5 8.5q-25 0 -63.5 -37t-78.5 -86t-72 -101.5t-44 -82.5l-16 6q12 41 50 97t82 107.5t88 87.5t70 36q37 0 67 -20.5t30 -57.5 q0 -35 -11.5 -60.5t-11.5 -56.5t23 -31t51.5 11.5t58 28t56 37t45.5 38.5q18 49 45.5 86t54.5 37q10 0 20.5 -8.5t10.5 -20.5q0 -18 -12.5 -34.5t-30 -32t-38.5 -29.5l-40 -27l-170 -334h209l-17 -47l-209 13q-78 -154 -145.5 -306.5t-107.5 -293.5h-148l101 196l86 158 l77 132l72 118l-150 10z" />
<glyph unicode="8" horiz-adv-x="770" d="M686 655q-35 -29 -78 -54l-90 -54q61 -41 110.5 -90t49.5 -121q0 -61 -43 -128t-108.5 -122t-146.5 -91t-155 -36q-45 0 -80.5 19.5t-61.5 50t-40 71.5t-14 84q0 49 30.5 90t80.5 78t114 72l131 70q-57 37 -101 79.5t-44 104.5q0 92 56 161.5t130 118t145.5 73 t100.5 24.5q72 0 115.5 -39t43.5 -113q0 -59 -27.5 -108.5t-94.5 -118.5q0 -12 13 -14.5t19 -2.5q72 0 133 74l5 -16q-35 -49 -81 -67.5t-65 -18.5q-14 0 -24.5 7t-22.5 17zM582 268q0 37 -15.5 67t-40 55.5t-56.5 46.5l-64 42q-59 -37 -116 -77t-100 -86t-68.5 -97 t-25.5 -110t39 -97.5t98 -38.5q51 0 113 22.5t114 62.5t87 94.5t35 115.5zM332 750q0 -33 14 -58.5t38 -49.5t54 -44l64 -41q47 29 87 57.5t73 61.5q-2 6 -3 14v15q0 49 23 79.5t50.5 51t51 35t23.5 32.5q0 63 -43 95t-102 32t-118 -29.5t-106 -72.5t-76.5 -91t-29.5 -87z " />
<glyph unicode="9" horiz-adv-x="890" d="M694 766q-25 -78 -62.5 -144.5t-83.5 -116.5t-101.5 -79t-114.5 -29q-37 0 -63.5 19.5t-45 48.5t-27 64.5t-8.5 66.5q0 61 27 120.5t69 112t94 96.5t101 75.5t91 49t65 17.5q63 0 109.5 -35t75 -88t41.5 -116.5t13 -120.5q0 -70 -36.5 -152t-96 -165t-135.5 -159.5 t-152.5 -137t-148.5 -96.5t-123 -36q-41 0 -67.5 14.5t-42 39t-21.5 55t-6 63.5q0 18 5 45t17.5 49.5t31 39t42.5 16.5q33 0 46.5 -14.5t13.5 -37.5q0 -41 -36 -87t-95 -58q0 -37 24.5 -67.5t77.5 -30.5q59 0 128 41t135.5 110.5t127 159.5t106.5 188.5t73.5 197.5t27.5 187 q0 86 -24.5 121t-83.5 35q-74 0 -147 -54t-131 -133t-94 -167t-36 -156q0 -10 2 -25.5t9 -31t21.5 -26.5t39.5 -11q70 0 126 30.5t100 82t74.5 116t51.5 129.5z" />
<glyph unicode=":" horiz-adv-x="436" d="M129 49q0 33 24.5 63.5t59.5 30.5q25 0 41 -17t16 -42q0 -33 -24.5 -63.5t-57.5 -30.5q-25 0 -42 17t-17 42zM260 514q0 33 24.5 63.5t59.5 30.5q25 0 41 -17.5t16 -41.5q0 -33 -25.5 -63.5t-58.5 -30.5q-25 0 -41 17t-16 42z" />
<glyph unicode=";" horiz-adv-x="413" d="M-6 -190q78 27 105.5 79t27.5 142q0 63 23.5 94t50.5 31q18 0 32.5 -16.5t14.5 -49.5t-17.5 -78t-48 -90t-75 -81t-97.5 -50zM258 514q0 33 24.5 63.5t59.5 30.5q25 0 41 -17.5t16 -41.5q0 -33 -25.5 -63.5t-58.5 -30.5q-25 0 -41 17t-16 42z" />
<glyph unicode="&#x3c;" horiz-adv-x="540" d="M338 78l-211 375l424 366l22 -24l-362 -355l160 -354z" />
<glyph unicode="=" horiz-adv-x="851" d="M193 582h600l-21 -70h-600zM125 307h600l-20 -69h-601z" />
<glyph unicode="&#x3e;" horiz-adv-x="434" d="M213 819l211 -375l-424 -366l-23 24l363 355l-160 354z" />
<glyph unicode="?" horiz-adv-x="632" d="M225 242q14 72 49 127t78 102t89 90t84 89t62.5 99.5t24.5 120.5q0 131 -98 131q-47 0 -89 -18t-72.5 -44t-49 -50.5t-18.5 -36.5q39 0 67.5 -20.5t28.5 -67.5q0 -35 -20.5 -51.5t-45.5 -16.5q-29 0 -52 21.5t-23 64.5q0 45 23.5 87t62.5 76t90 54.5t104 20.5 q86 0 138.5 -53.5t52.5 -145.5q0 -74 -28 -127t-72 -94t-97 -77t-103.5 -75.5t-91 -92t-59.5 -124.5zM94 49q0 33 24.5 63.5t59.5 30.5q25 0 41.5 -17t16.5 -42q0 -33 -25 -63.5t-57 -30.5q-25 0 -42.5 17t-17.5 42z" />
<glyph unicode="@" horiz-adv-x="1380" d="M928 528q0 37 -18.5 77t-59.5 40q-43 0 -93 -55t-93 -139t-73 -183.5t-30 -187.5q0 -43 11.5 -74t39.5 -31q53 0 109.5 57.5t102.5 141.5t75 180t29 174zM84 266q0 100 39 191.5t104.5 170.5t153.5 141t186.5 107.5t199.5 70t198 24.5q88 0 165.5 -22.5t136 -71 t92.5 -123t34 -181.5q0 -106 -41 -216.5t-105.5 -202t-142.5 -148.5t-152 -57q-31 0 -50 17.5t-31.5 48t-16.5 70.5t-4 83l-38 -62q-24 -39 -53.5 -75.5t-63 -63t-70.5 -26.5q-16 0 -45 13t-55.5 48t-46 93.5t-19.5 150.5q0 53 45 126.5t107.5 141.5t127 115t105.5 47 q12 0 28.5 -4t33 -19.5t29.5 -44t21 -76.5l27 93h115q-92 -258 -135 -412t-43 -217q0 -8 3 -15.5t19 -7.5q74 0 149.5 56.5t135 143.5t97.5 193.5t38 208.5q0 96 -25.5 165t-70.5 112t-106.5 63.5t-131.5 20.5q-129 0 -274.5 -60.5t-268.5 -162t-203.5 -235.5t-80.5 -281 q0 -82 14 -133.5t76 -86.5l-6 -10q-96 23 -148.5 106.5t-52.5 192.5z" />
<glyph unicode="A" horiz-adv-x="2205" d="M342 207q43 -14 102 -14q74 0 153 23.5t145.5 66.5t108.5 104.5t42 134.5q0 51 -18.5 88t-51 61.5t-75.5 36t-95 11.5q-94 0 -201.5 -37t-199.5 -101.5t-152.5 -155.5t-60.5 -198q0 -59 26.5 -116.5t82 -102.5t142.5 -72.5t208 -27.5q115 0 221 33.5t205.5 94 t192.5 143.5t179 179q-47 68 -71.5 149t-24.5 173q0 66 14.5 126t45 106t82 74t124.5 28q70 0 124.5 -37t95.5 -96l187 287q89 140 172 254t159.5 192t150.5 102q6 0 26.5 -4t20.5 -31q0 -14 -8 -32q-43 -90 -91 -208l-98 -252l-100 -279l-95 -285l-86 -275l-71 -244 q51 0 114 12.5t128.5 43.5t129 84t116.5 139l12 -10q-59 -90 -125.5 -146.5t-132 -89.5t-130 -45t-120.5 -12l-22 -87l-19 -75h-112q6 57 34 170q-123 18 -230 80.5t-181 161.5q-90 -98 -185.5 -182t-199 -145.5t-215 -96.5t-230.5 -35q-82 0 -168 19.5t-156.5 63.5 t-115.5 114.5t-45 171.5q0 127 58.5 230t149.5 176t199.5 113t208.5 40q63 0 120 -17.5t99 -53.5t66.5 -92t24.5 -132q0 -72 -47.5 -134.5t-120 -110.5t-160.5 -75.5t-170 -27.5q-53 0 -98 12zM2343 1673q-68 -29 -139.5 -106.5t-150.5 -189t-166 -248.5l-183 -279 q57 -98 82.5 -219t25.5 -217v-37q55 170 125 362.5t143.5 370.5t144.5 324.5t128 224.5q0 14 -10 14zM1688 823l-159 -226q-81 -112 -171 -216q66 -104 163 -173t214 -91l21 77q11 40 26 85q4 31 6 61.5t2 62.5q0 113 -24.5 224.5t-77.5 195.5zM1339 410q88 104 169 216 l159 228q-41 55 -96 88t-127 33q-55 0 -91 -21.5t-56.5 -57.5t-28.5 -81t-8 -94q0 -86 21 -164.5t58 -146.5z" />
<glyph unicode="B" horiz-adv-x="2211" d="M1774 532q-70 -16 -148 -48.5t-144.5 -82t-109.5 -116t-43 -152.5q0 -76 48 -126t126 -50q74 0 145.5 31.5t136 86t119 124t93.5 145.5t61.5 152.5t22.5 144.5q0 72 -39 131t-103 94q-106 -47 -202 -47q-27 0 -52.5 14.5t-25.5 43.5q0 23 11 36t27.5 21t36 10t35.5 2 q41 0 83 -11t81 -30q59 37 108.5 90.5t83.5 116t52 129t18 127.5q0 111 -63.5 181.5t-155.5 109.5q-66 -57 -123 -162.5t-114 -241.5l-121 -287q-63 -153 -141 -303.5t-175.5 -289.5t-224.5 -245.5t-287.5 -170t-365.5 -63.5q-111 0 -190.5 28.5t-132 78.5t-77 115.5 t-24.5 139.5q0 92 58.5 179t147.5 154.5t194.5 108.5t201.5 41q53 0 100.5 -13t81 -42t53 -73t19.5 -107q0 -72 -47 -135.5t-120 -111.5t-161 -76.5t-170 -28.5q-53 0 -98 12l12 41q43 -14 103 -14q74 0 152.5 23.5t145 66.5t108.5 104.5t42 134.5q0 96 -63.5 139.5 t-157.5 43.5q-86 0 -184.5 -34t-181 -96.5t-137 -148.5t-54.5 -190q0 -61 21.5 -117t69.5 -97.5t123 -67.5t179 -26q174 0 304 50.5t230.5 136.5t177.5 203.5t144.5 253t131 280.5t138 289.5t165 281t210.5 250.5q-72 27 -145.5 38t-126.5 11q-176 0 -349 -50t-310.5 -133 t-222.5 -193.5t-85 -229.5q0 -90 17.5 -142t48.5 -80t71 -38t87 -16q74 0 158.5 30.5t157.5 86t120 130t47 160.5q0 78 -54.5 110t-150.5 32q-55 0 -109.5 -35t-100.5 -87.5t-76.5 -110.5t-36.5 -105l-33 14q12 49 45 110.5t82 116t114.5 90t141.5 35.5q39 0 78 -8 t69.5 -28.5t49 -55.5t18.5 -86q0 -96 -39 -177t-104.5 -139.5t-149.5 -91t-176 -32.5q-141 0 -226 72.5t-85 224.5q0 98 46 186t122.5 161t176 131t208 98t218 61.5t205.5 21.5q78 0 163 -13t165 -40q70 61 150 115.5t174 97.5l18 -29q-59 -23 -141 -73t-158 -125 q63 -25 119.5 -60t97.5 -80t65.5 -100t24.5 -123q0 -66 -28.5 -130.5t-75.5 -122.5t-109.5 -107.5t-130.5 -81.5q92 -59 154.5 -150.5t62.5 -187.5q0 -63 -30.5 -134t-81.5 -138.5t-119 -130t-142.5 -109.5t-151.5 -75t-146 -28q-96 0 -156.5 51.5t-60.5 151.5 q0 86 41.5 154.5t108.5 122t146.5 90.5t155.5 59zM1733 846q86 0 168 39q-68 29 -142 28q-39 0 -57.5 -9t-18.5 -19q0 -25 13.5 -32t36.5 -7z" />
<glyph unicode="C" horiz-adv-x="1615" d="M819 -412q-10 27 -28.5 109t-20.5 235q-80 18 -142.5 64.5t-105.5 112t-64.5 145.5t-21.5 164q0 82 17.5 165t48.5 165q-39 -6 -77 -8.5t-73 -2.5q-86 0 -175 20.5t-162.5 67.5t-121 125t-47.5 193q0 127 53.5 224t141.5 169t201.5 119t234.5 75.5t240 40t217 11.5 q45 0 71.5 -1t59.5 -3l-2 -41q-49 4 -98.5 7t-98.5 3q-178 0 -349 -45t-305 -128t-216 -201t-82 -261q0 -96 34 -161.5t93 -105.5t142 -57.5t179 -17.5q72 0 152 12q55 131 139 256t184.5 235.5t211 204t217 160t203 103.5t167.5 37q49 0 85 -32t36 -87q0 -86 -45 -175 t-124 -175t-185.5 -168t-228 -151.5t-254 -124t-261.5 -87.5q-59 -131 -90.5 -261t-31.5 -247q0 -31 7 -79t31.5 -96t70.5 -88t124 -56v14q0 182 48 333t127 258.5t180.5 166.5t207.5 59q109 0 169.5 -60t60.5 -165q0 -125 -60.5 -239.5t-159 -202.5t-222.5 -141.5 t-251 -53.5q-41 0 -73 6q0 -86 11 -177t30 -152zM1640 1745q-119 0 -253 -79t-265 -208t-247.5 -297t-198.5 -346q125 35 252 88t243.5 121t220 146.5t179.5 161.5t120 166t44 161q0 45 -34 65.5t-61 20.5zM1360 750q-115 0 -217.5 -77t-179 -195t-121.5 -259t-45 -272 q12 -2 26.5 -3t30.5 -1q119 0 241 48t221 133t161.5 198.5t62.5 242.5q0 82 -47 133.5t-133 51.5z" />
<glyph unicode="D" horiz-adv-x="1959" d="M383 188q-8 47 -12 99.5t-4 105.5q0 37 2 76t6 78q-59 53 -95 149.5t-36 255.5q0 135 83 264.5t220 230.5t314 162.5t366 61.5q131 0 257 -34.5t236 -102.5q66 72 150 136.5t190 121.5l11 -23q-123 -66 -201 -126t-129 -121q72 -49 132 -111.5t104 -139.5t69 -168 t25 -196q0 -215 -95.5 -394t-250 -310t-349 -204t-393.5 -73q-92 0 -171 16.5t-155 39.5q-88 -27 -184 -41.5t-203 -14.5q-23 0 -67.5 2t-89.5 11.5t-79 31t-34 62.5q0 31 21.5 49t53 27.5t65.5 12.5t59 3q68 0 125 -10.5t111 -26.5t108 -36l108 -38q117 37 206 97.5 t158.5 138.5t123 170t100.5 194q49 106 92 221t94.5 231t117 228.5t157.5 216.5q-104 63 -226 96t-257 33q-186 0 -353.5 -71.5t-293.5 -186t-200.5 -259t-74.5 -292.5q0 -70 19.5 -133t64.5 -110q18 125 60 244.5t112 212t168 148.5t227 56q96 0 151.5 -61.5t55.5 -149.5 q0 -104 -46 -205.5t-122 -181.5t-175 -129t-204 -49q-55 0 -106 11.5t-94 39.5q-4 -35 -6.5 -67.5t-2.5 -67.5q0 -49 5.5 -99t15.5 -102h-35zM2040 895q0 203 -87 354.5t-231 247.5q-51 -72 -80.5 -151.5t-60.5 -181.5l-72 -229q-41 -128 -116 -292q-47 -102 -113 -198.5 t-151 -180.5t-190 -151.5t-230 -112.5q59 -16 126.5 -27.5t147.5 -11.5q209 0 400.5 72.5t338 198.5t232.5 297t86 366zM928 1223q-72 0 -153 -50.5t-153.5 -139.5t-129 -210t-80.5 -262q35 -29 82 -43t108 -14q94 0 186.5 44t166 117.5t119.5 168t46 194.5q0 86 -51 140.5 t-141 54.5zM258 -39q98 0 182 10.5t158 28.5l-206 62q-101 30 -218 30q-16 0 -38.5 -2t-45 -8t-38 -17.5t-15.5 -31.5q0 -27 27.5 -41.5t64.5 -21.5t74 -8t55 -1z" />
<glyph unicode="E" horiz-adv-x="1234" d="M547 -362q-43 154 -55 299q-129 35 -215.5 141t-86.5 274q0 98 53.5 191.5t135.5 173.5t180 143.5t191 106.5q-41 31 -66 77q-121 -43 -230.5 -66.5t-189.5 -23.5q-205 0 -326.5 90.5t-121.5 253.5q0 86 35.5 157t95 125t139.5 94t168 65.5t180 38t176 12.5q25 0 49.5 -1 t47.5 -3v-33q-23 4 -45 4h-46q-135 0 -270 -40t-244.5 -108.5t-177 -160.5t-67.5 -199q0 -76 40 -127t100 -81.5t128 -44t123 -13.5q100 0 208.5 22.5t217.5 61.5q-10 25 -15.5 51.5t-5.5 57.5q0 49 33 108t86 120.5t121 118t138.5 101.5t138 71.5t120.5 26.5q47 0 79 -24.5 t32 -75.5q0 -80 -56.5 -158t-147.5 -149.5t-208 -134t-237 -109.5q6 -55 34 -88q121 51 191 51q53 0 72.5 -21.5t19.5 -45.5q0 -23 -11 -36t-28.5 -22.5t-37 -12.5t-34.5 -3q-49 0 -97 13.5t-89 41.5q-86 -47 -169 -123.5t-149.5 -166t-106.5 -183.5t-40 -178 q0 -137 41 -223t144 -115q-2 16 -3 33v33q0 150 35 276.5t99.5 218.5t156.5 143.5t207 51.5q55 0 97 -17.5t70 -48.5t42 -71.5t14 -85.5q0 -100 -47 -202t-129 -183.5t-192.5 -133t-237.5 -51.5q-23 0 -44 2t-42 6q4 -150 51 -290zM518 -47q23 -4 45.5 -7t50.5 -3 q119 0 222.5 55t180.5 135t122 168t45 154q0 43 -8.5 83t-28 71.5t-53 50t-84.5 18.5q-109 0 -200 -59.5t-155.5 -160t-100.5 -229.5t-36 -270v-6zM1300 1679q-57 0 -120.5 -27.5t-124 -74.5t-114.5 -107.5t-96 -125t-67.5 -129t-25.5 -117.5q125 51 237.5 116.5t198.5 135 t136 138t50 124.5q0 31 -22.5 49t-51.5 18zM971 1010q-41 0 -82 -11.5t-86 -33.5q37 -33 80 -40t63 -7q96 0 96 45q1 47 -71 47z" />
<glyph unicode="F" horiz-adv-x="1753" d="M242 186q18 -8 71 -8q72 0 155 22.5t152.5 65.5t115.5 103.5t46 134.5q0 55 -23.5 89t-59 53.5t-78.5 26.5t-82 7q-92 0 -184.5 -38t-164 -103.5t-116.5 -153.5t-45 -188q0 -70 33.5 -122t87 -88t120 -53.5t133.5 -17.5q117 0 220 31q57 143 136 265t171 220t190.5 173 t194.5 124l19 57.5t20 57.5q33 106 69.5 205.5t81.5 189.5t103.5 170t136.5 147q-51 6 -125 17l-161 21q-87 11 -186 19.5t-204 8.5q-104 0 -219 -34t-211 -99.5t-158.5 -160.5t-62.5 -216q0 -57 18.5 -109.5t58.5 -92.5t104.5 -64.5t156.5 -24.5q113 0 213 39t175 99.5 t118 130t43 131.5q0 59 -47.5 105t-145.5 46q-109 0 -216.5 -69.5t-238.5 -233.5l-12 23q82 111 151.5 171t128 89.5t105.5 35t86 5.5q88 0 149.5 -49.5t61.5 -141.5q0 -88 -42 -164.5t-115.5 -134t-172 -90.5t-211.5 -33q-78 0 -149.5 18.5t-124.5 58.5t-85 102.5 t-32 150.5q0 92 37 173t99.5 148.5t145.5 122t175 91t187.5 56t183.5 19.5q94 0 188 -12t189.5 -27.5t190.5 -28t194 -12.5q39 0 78.5 13.5t72.5 29.5l-4 -30q-68 -45 -156 -72t-176 -27h-20q-74 -76 -119 -153.5t-76 -163.5t-55.5 -183.5t-56.5 -209.5l-19 -58 q47 16 91 24.5t85 8.5q94 0 151.5 -45t57.5 -141q0 -80 -40 -144.5t-101.5 -114.5t-136 -86t-143 -59.5t-124 -35t-77.5 -11.5h-11l2 21q27 4 82.5 17t122 38t136 61.5t127 85t94 109.5t36.5 137q0 72 -45 107t-121 35q-88 0 -198 -43q-63 -178 -152.5 -317.5t-196 -243 t-223 -170t-235.5 -97.5q-29 -78 -48.5 -159.5t-27.5 -172.5l-29 4q25 176 80 322q-102 -23 -192 -22q-80 0 -155 16t-133 55t-94 100.5t-36 153.5q0 98 48 187.5t127 155t178.5 104.5t203.5 39q31 0 75 -7.5t85 -31t69.5 -68.5t28.5 -121q0 -84 -44 -145.5t-112.5 -102.5 t-151.5 -60t-159 -19q-35 0 -67.5 2t-51.5 8zM647 -45q115 37 212 107.5t178 166t145.5 211t113.5 242.5q-92 -51 -185 -123t-179 -164t-160 -202.5t-125 -237.5z" />
<glyph unicode="G" horiz-adv-x="1454" d="M274 178q25 -6 73 -12t81 -6q43 0 106.5 17.5t124 51t102.5 79.5t42 106q0 49 -22.5 82.5t-57.5 56t-77 33t-83 10.5q-70 0 -151.5 -25.5t-153.5 -71.5t-120 -111.5t-48 -145.5q0 -88 36 -148.5t95.5 -98.5t133 -54.5t151.5 -16.5q84 0 171 19.5t166 57.5t145.5 95.5 t109.5 132.5l67 125q31 59 59 120l56 123l63 134q-35 -29 -76.5 -57.5t-86.5 -52t-94.5 -39t-98.5 -15.5q-41 0 -82 13.5t-79 43t-67.5 74.5t-45.5 109q-12 -2 -24 -2h-21q-670 0 -670 438q0 145 81 250.5t213 173.5t301 100.5t343 32.5q23 0 73 -4t93 -14l-8 -29 q-47 10 -108.5 14.5t-104.5 4.5q-178 0 -333 -54.5t-267.5 -135.5t-177 -177t-64.5 -180q0 -115 43 -188.5t123 -116.5t194.5 -59.5t257.5 -16.5h23q12 0 25 2q-4 23 -6.5 48.5t-2.5 53.5q0 78 45 164t119 169t167 159t191.5 133t191.5 91t165 34q31 0 58.5 -4t49 -17.5 t35 -37t13.5 -60.5q0 -80 -44.5 -160t-116 -155.5t-166.5 -144t-195.5 -126t-202 -100.5t-187.5 -66q0 -41 8.5 -80.5t25.5 -71.5t47 -51.5t73 -19.5q74 0 148.5 33t148 84t143.5 113l133 118l19 -24l-70 -68q-41 -39 -65 -59q-25 -225 -102 -394t-197.5 -281t-281.5 -168 t-353 -56q-61 0 -137 12t-141.5 49t-110 101.5t-44.5 168.5q0 86 47.5 157t120 122t162.5 80t176 29q47 0 95.5 -13.5t87.5 -40t63.5 -67.5t24.5 -97q0 -55 -30 -106t-82 -91t-122.5 -63.5t-152.5 -23.5q-14 0 -39 2t-51.5 6t-53 11t-45.5 18zM1593 1671q-100 0 -195 -43 t-180 -111.5t-157 -155.5t-124 -177t-83 -174t-35 -146q98 23 202.5 68t204 104.5t187.5 128t154.5 139t105.5 138t39 125.5q0 51 -33 77.5t-86 26.5z" />
<glyph unicode="H" horiz-adv-x="2062" d="M1552 -379q-33 51 -57.5 144.5t-38.5 183.5q-51 6 -98 38.5t-84 83t-58.5 114t-21.5 130.5q0 98 41 222.5t108 259.5l-193 -89l-194 -85q-78 -178 -180 -310.5t-208.5 -221.5t-209 -133t-180.5 -44q-29 0 -55.5 5t-49 17.5t-35.5 34t-13 54.5q0 74 65.5 145.5t176 143 t257.5 142.5l312 144l70 165l65 153q31 72 59.5 132t56.5 101q33 47 67 101.5t75 107.5l-48 -40q-26 -22 -53.5 -41t-57.5 -32.5t-56 -13.5q-59 0 -82 46t-23 97q0 27 9 56l17 59q9 31 17.5 65.5t8.5 75.5q0 47 -34 78t-82 49.5t-99.5 26.5t-86.5 8q-121 0 -246.5 -56.5 t-228 -149.5t-168 -212t-65.5 -243q0 -53 15.5 -104.5t45 -92.5t74.5 -66.5t107 -25.5q82 0 169 42t157.5 109.5t115.5 150.5t45 167q0 68 -39 116t-119 48q-55 0 -106 -28t-94 -71t-74 -95t-45 -103l-23 2q12 49 43 104t77 103.5t106.5 79t130.5 30.5q51 0 85.5 -21.5 t56 -55t30 -75.5t8.5 -85q0 -98 -46 -179.5t-120 -139.5t-166 -90t-184 -32q-66 0 -116 23.5t-85 64.5t-52.5 95.5t-17.5 113.5q0 127 60.5 252t163 223.5t234.5 158.5t278 60q68 0 135 -16t119.5 -52t85 -90.5t32.5 -129.5q0 -20 -8 -54t-19.5 -69t-19.5 -66.5t-8 -46.5 q0 -33 31 -33q33 0 85 35t111 82l119 96q59 49 109 80l30 -16q-98 -53 -171.5 -146.5t-126 -197t-86 -197.5t-48.5 -147q-14 -47 -30 -93l-33 -89l196 87l195 89q76 139 171 274t194.5 240.5t196.5 170t177 64.5q47 0 65.5 -16.5t18.5 -61.5q0 -90 -54 -173t-148.5 -162.5 t-220.5 -155.5t-269 -148q-49 -94 -90 -186t-70.5 -173t-46 -145.5t-16.5 -103.5q0 -152 54 -221.5t128 -77.5q-4 31 -6 60.5t-2 52.5q0 104 30.5 204.5t85 180.5t129 128t164.5 48q66 0 114 -43t48 -115q0 -117 -42 -213t-114.5 -166.5t-170 -110.5t-207.5 -42 q12 -82 37.5 -165t64.5 -149zM1475 72q0 -53 6 -111q100 0 192 40t163 106.5t114 156.5t43 193q0 27 -8.5 53.5t-23.5 49t-39 36.5t-52 14q-84 0 -156 -59t-125 -144t-83.5 -177t-30.5 -158zM141 -66q121 0 221.5 53.5t182.5 140.5t148.5 199.5t121.5 231.5 q-158 -70 -298 -138.5t-246.5 -135t-168 -132t-61.5 -128.5q0 -41 32.5 -66t67.5 -25zM2107 1550q-70 0 -145.5 -54t-152 -143t-151.5 -205t-140 -237q133 68 249.5 138.5t202.5 144.5t135 152.5t49 162.5q0 41 -47 41z" />
<glyph unicode="I" horiz-adv-x="1427" d="M1669 1339l-59 -86q-59 -86 -89 -188t-63 -203q-29 -86 -53.5 -171t-55 -168t-68.5 -161.5t-91 -152.5q-72 -98 -162 -170t-191.5 -118t-209 -67.5t-211.5 -21.5q-78 0 -153 19.5t-133 59.5t-95 101.5t-37 147.5q0 78 28.5 143.5t76 117.5t105.5 93t118.5 67.5t117 41 t99.5 14.5t94 -10.5t95 -33t73 -59t29 -90.5q0 -88 -39 -155.5t-101.5 -114.5t-141.5 -71.5t-161 -24.5q-57 0 -101 5t-65 15v29q23 -4 43.5 -9t40.5 -5q70 0 156 22.5t161.5 64.5t128 101t52.5 133q0 47 -21.5 80t-55.5 52.5t-76 28.5t-81 9q-98 0 -196 -38t-177 -100.5 t-127 -141t-48 -160.5q0 -68 29.5 -125t78.5 -97t113.5 -62.5t136.5 -22.5q272 0 457.5 122.5t304.5 368.5q45 92 77 186l66 191q16 47 47 113.5t66 134.5l69 129q35 61 60 100q-14 -10 -38 -29.5t-51.5 -38t-57 -31.5t-54.5 -13q-18 0 -37.5 14t-34 36.5t-23.5 51.5t-9 57 q0 16 8 42l17.5 58.5t17.5 69.5t8 78q0 45 -29.5 75t-73 47t-90.5 23.5t-79 6.5q-129 0 -242 -53.5t-197 -136.5t-133 -184t-49 -196q0 -129 54.5 -188.5t152.5 -59.5q68 0 135.5 45.5t122.5 112t89 142t34 139.5q0 59 -36 93t-91 34q-51 0 -100.5 -32t-89.5 -80 t-64.5 -105.5t-26.5 -108.5h-26q0 43 22.5 102.5t63.5 113.5t98 92t127 38q80 0 120 -51t40 -127q0 -84 -35 -163t-92.5 -139t-130 -97t-146.5 -37q-115 0 -179.5 70.5t-64.5 191.5t56.5 231.5t147.5 194.5t207 134t237 50q59 0 122.5 -16.5t115.5 -50t86 -82.5t34 -117 q0 -35 -9 -66.5t-20.5 -64.5t-20.5 -64.5t-9 -66.5q0 -20 4 -28.5t32 -8.5q20 0 57.5 25.5t80.5 62.5t87 79l79 77z" />
<glyph unicode="J" horiz-adv-x="1173" d="M1427 1425q-82 -88 -133 -177t-84.5 -177t-56.5 -174l-47 -168q-59 -205 -148.5 -428t-205.5 -428q147 84 290.5 205t270.5 307l12 -10q-133 -197 -286.5 -325t-309.5 -214q-82 -141 -176 -264t-197.5 -213t-216 -142.5t-231.5 -52.5q-53 0 -93 24t-40 83q0 80 32.5 137 t92 100t141.5 76t179 68l206 74q109 39 223 94q55 109 102.5 229.5t86.5 257.5q41 147 83 267t89 228.5t105.5 216l131.5 230.5l-82 -53q-39 -25 -86 -25q-23 0 -41 13.5t-33.5 33t-23.5 43t-8 44.5q0 35 8 66.5t19.5 63t19.5 63.5t8 65q0 53 -33.5 86.5t-82 53t-101.5 27 t-90 7.5q-131 0 -256 -63.5t-222.5 -162t-156.5 -217t-59 -227.5q0 -61 13 -114.5t44 -93.5t78 -63.5t114 -23.5q80 0 163 45t151.5 116t113 154.5t44.5 163.5q0 53 -19.5 85t-45.5 49.5t-52.5 23.5t-38.5 6q-72 0 -133.5 -42t-105.5 -100.5t-69.5 -123t-25.5 -109.5h-29 q0 39 25 106.5t71 132t112.5 112t150.5 47.5q96 0 148 -62.5t52 -154.5q0 -115 -46 -204t-120.5 -150.5t-167 -94.5t-184.5 -33q-43 0 -91 17.5t-88 54.5t-65.5 94.5t-25.5 138.5q0 137 62.5 268.5t165 233t233.5 162.5t270 61q59 0 127 -17t125 -53t95 -89.5t38 -124.5 q0 -31 -9 -61.5t-19.5 -60.5t-19.5 -59.5t-9 -62.5q0 -25 7 -36t30 -11q20 0 58 24.5t83 62.5t90 85t82 90zM-98 -809q94 0 191 40t191.5 115.5t181.5 186.5t165 252q-109 -51 -211 -90l-195 -73q-92 -34 -168.5 -66.5t-133 -72.5t-87.5 -91t-31 -121q0 -45 30 -62.5 t67 -17.5z" />
<glyph unicode="K" horiz-adv-x="2127" d="M600 1303q18 41 51 85t75 80.5t90 61t97 24.5q39 0 71 -15t52.5 -35.5t31.5 -43t11 -37.5q0 -84 -34.5 -147.5t-91 -106.5t-128 -65.5t-145.5 -22.5q-57 0 -107.5 11.5t-88.5 41t-59.5 79t-21.5 122.5q0 88 49.5 173t133.5 151.5t193.5 106.5t230.5 40q82 0 156.5 -19.5 t131 -55t90 -88t33.5 -119.5q0 -43 -10 -73t-21 -56l-22 -53q-10 -26 -10 -60q0 -37 26 -37q14 0 48 23.5t80 61.5l99 84l101 92l92 85l70 62l31 -21l-103 -92q-51 -47 -76 -102q-53 -119 -107 -271.5t-120 -316.5q35 -10 75 -29.5t81 -48.5q31 27 55 62l118 170 q65 96 133.5 180t140 142t139.5 58q6 0 20 -1t28.5 -9t26 -23.5t11.5 -43.5q0 -53 -20.5 -100.5t-54.5 -87.5t-76 -73.5t-85 -60.5l-14 21q33 20 72.5 53t73.5 72.5t57.5 84t23.5 84.5q0 51 -53 52q-27 0 -52.5 -16.5t-47 -40t-39 -49t-27.5 -46.5q-86 -168 -189.5 -278.5 t-207.5 -176.5q59 -51 99 -121.5t40 -162.5q0 -61 -23.5 -124t-52.5 -122t-52.5 -113.5t-23.5 -101.5q0 -31 12.5 -44t45.5 -13q61 0 126.5 33.5t133 93t135 140.5t135.5 175l12 -10q-68 -98 -136 -180t-138 -141.5t-137.5 -93.5t-130.5 -34q-31 0 -55.5 15.5t-40 40 t-23.5 54.5t-8 58q0 66 22.5 124t50 115.5t51 114t23.5 117.5q0 47 -23.5 90t-62.5 78q-72 -45 -140.5 -69.5t-123.5 -34.5q-72 -150 -163 -287t-211 -242.5t-271.5 -168t-343.5 -62.5q-78 0 -152 25.5t-132 73.5t-94 116t-36 154q0 78 26.5 154.5t72.5 148t106.5 133 t129 107.5t141.5 72t142 26q94 0 156 -24t95.5 -62.5t47 -86t13.5 -94.5t-34 -119.5t-105.5 -140t-186.5 -117t-276 -49.5v29q109 0 209 40t178 99.5t124 132t46 138.5q0 47 -9.5 87t-36 69.5t-74.5 46t-126 16.5q-92 0 -174 -30t-149.5 -78t-122 -111.5t-91 -130t-56 -133 t-19.5 -119.5q0 -68 28.5 -131.5t77.5 -111.5t112.5 -76.5t135.5 -28.5q172 0 309 60t248 161.5t195 233.5t149 276q-78 8 -117 37.5t-39 64.5q0 45 61.5 86t188.5 49l8 21q16 47 55 126l81 161l84 157q41 74 65 113l-70 -67q-39 -38 -78.5 -70.5t-77.5 -55t-63 -22.5 q-18 0 -37.5 4t-35 18.5t-25.5 44t-10 80.5q0 16 9 41l21 55q11 31 20 67t9 77q0 45 -29.5 77.5t-77.5 52t-105.5 29t-112.5 9.5q-129 0 -235.5 -49.5t-183.5 -118t-119 -141t-42 -121.5q0 -72 19.5 -119t52 -74t75.5 -37t93 -10q68 0 136 30.5t123.5 77t90.5 101.5t35 102 q0 59 -43 84t-99 25q-39 0 -82 -21.5t-81.5 -56.5t-70.5 -77t-50 -85zM1155 725q0 -29 34 -49.5t105 -24.5l39 93q18 46 35 94q-104 -8 -158.5 -43t-54.5 -70zM1417 659q129 25 221 99q-35 25 -72.5 43t-74.5 28q-16 -43 -36 -85z" />
<glyph unicode="L" horiz-adv-x="1896" d="M1196 -330q6 152 35 277q-98 4 -205.5 29.5t-218.5 58.5q-104 -55 -228 -87t-274 -32q-82 0 -140.5 12.5t-95 32t-53 43t-16.5 45.5q0 29 26.5 58.5t73.5 53t110.5 39t135.5 15.5q115 0 241 -27.5t253 -64.5q129 104 222 246.5t169 302.5q-111 -41 -222.5 -63.5 t-224.5 -22.5q-137 0 -232 39t-153.5 101t-85 140t-26.5 158q0 113 71.5 223.5t197.5 198.5t299 142t378 54q109 0 223 -18v-27q-102 18 -199 19q-188 0 -353 -57.5t-287.5 -148.5t-193.5 -205.5t-71 -231.5q0 -68 22.5 -133.5t74 -115.5t133.5 -82t202 -32q104 0 226.5 32 t249.5 91l98 221q47 111 96 213.5t103.5 192.5t118 160.5t141 115.5t174.5 58q63 0 87.5 -32t24.5 -81q0 -109 -56 -225.5t-152.5 -229t-228.5 -213t-282 -174.5q-84 -182 -196.5 -351t-274.5 -286l177 -50q84 -24 159 -38q33 115 81 195t100.5 132t104.5 81t96 42t75 16 t39 3q88 0 126 -36.5t38 -92.5q0 -59 -44 -130.5t-127 -133t-203 -103.5t-271 -42q-16 -59 -26.5 -127t-14.5 -148h-27zM2007 1671q-106 0 -184 -72.5t-144.5 -192.5t-127 -274.5t-132.5 -316.5q131 74 250 167t210 194.5t145.5 206t54.5 204.5q0 31 -19.5 57.5t-52.5 26.5z M1774 457q-6 0 -36 -5.5t-73 -20.5t-94 -45t-103.5 -80t-100.5 -122.5t-83 -175.5q47 -8 96 -8q115 0 206 38t155.5 93t99.5 118.5t35 112.5q0 41 -24.5 68t-77.5 27zM295 -59q135 0 244.5 30.5t201.5 83.5l-262 76t-227 35q-94 0 -157.5 -35t-63.5 -74t61.5 -77.5 t202.5 -38.5z" />
<glyph unicode="M" horiz-adv-x="3041" d="M2613 -362q-35 53 -59.5 132.5t-36.5 172.5q-66 8 -112 40.5t-75.5 81t-44 108.5t-14.5 124q0 113 48 252t120 283.5t156 283.5l155 250l120 182q48 72 48 82t-12 10q-8 0 -14 -6q-88 -66 -184.5 -171t-194.5 -237t-194.5 -285t-184.5 -313.5t-165 -324.5t-134 -317 q-37 2 -58.5 26.5t-32.5 60.5t-15.5 76.5t-4.5 75.5q0 109 35 238t89.5 265t124 270.5t140 254t134 217t108.5 158.5q0 14 -10 14q-74 -31 -156 -124t-172 -225l-189 -292q-99 -160 -211 -320.5t-237 -312t-264 -268t-293.5 -188.5t-328.5 -72q-82 0 -169 20.5t-159 64.5 t-118 115t-46 171q0 131 56.5 232.5t143.5 171t192.5 105.5t205.5 36q68 0 127 -16.5t103 -51.5t71 -88t27 -125t-47 -135.5t-120 -111.5t-161 -76.5t-170 -28.5q-53 0 -98 12l12 41q43 -14 102 -14q74 0 153 23.5t145.5 66.5t108.5 104.5t42 135.5q0 96 -78 143t-190 47 q-94 0 -196.5 -32t-188.5 -93t-141.5 -152.5t-55.5 -207.5q0 -63 25.5 -122t81 -103t141.5 -69.5t207 -25.5q168 0 320.5 71.5t289.5 191.5t260 272.5t235 316.5l213 324q101 160 194 292t179 223t166 118q6 0 26.5 -4.5t20.5 -30.5q0 -14 -8 -33l-109 -215l-127 -260 q-65 -137 -126.5 -282.5t-109.5 -287t-77.5 -270.5t-29.5 -233v-24q0 -13 4 -21q47 131 124.5 296.5t175 340t206 345.5t217 311t211 237.5t184.5 125.5q12 0 16 -13t4 -34q0 -12 -43 -92l-107 -202l-140 -272q-76 -151 -140.5 -305.5t-107.5 -300t-43 -255.5q0 -39 5 -80 t20.5 -77t42 -60.5t69.5 -30.5q-6 61 -6 131q0 100 18.5 195.5t59.5 171t105.5 122t156.5 46.5q76 0 110.5 -51.5t34.5 -129.5q0 -76 -31.5 -165t-88 -164.5t-136.5 -125.5t-176 -50h-16q8 -78 29.5 -153t62.5 -138zM2542 31v-37q0 -18 2 -37q100 2 180 53t135 125t85 158 t30 156q0 66 -27 107.5t-82 41.5q-74 0 -133 -48t-102 -128t-65.5 -182.5t-22.5 -208.5z" />
<glyph unicode="N" horiz-adv-x="2277" d="M2028 829q115 20 213 66l44 100l44 103l50 119q32 74 70.5 142t82.5 118.5t87 50.5q47 0 70 -45t23 -99q0 -61 -32 -130.5t-90.5 -137t-141.5 -128t-185 -105.5q-39 -82 -63 -140l-46 -103q-20 -46 -41 -87l-51 -93l-70 -122l-104 -172q-12 -20 -38 -57l-53 -75 q-28 -38 -55.5 -70t-41.5 -42q-10 -8 -25 -8q-23 0 -22 18q0 10 6 23l35 90q23 59 46 146.5t40.5 199t19.5 246.5q2 117 18.5 246t40 251.5t52 227t57.5 172.5q-37 -49 -81 -134t-88 -181l-87 -193q-43 -96 -78 -166q-111 -225 -239.5 -408.5t-275 -312.5t-310.5 -199.5 t-344 -70.5q-86 0 -170 22.5t-149.5 69.5t-105.5 120t-40 173q0 117 52 208t134 155.5t184.5 98.5t204.5 34q57 0 120 -11.5t113 -38t83 -72.5t33 -116q0 -84 -49.5 -150.5t-124 -112.5t-161.5 -70.5t-161 -24.5q-23 0 -47.5 2t-52.5 6l4 20q43 -6 80 -6q72 0 157.5 22.5 t160.5 68.5t125 114t50 158q0 68 -77.5 119t-219.5 51q-90 0 -191.5 -39t-188.5 -104.5t-144 -151.5t-57 -183q0 -88 38.5 -152.5t103 -106.5t146.5 -62.5t166 -20.5q129 0 246 38t221.5 104.5t196.5 157t172 192.5t145.5 211.5t118.5 216.5l42 93l69 151l83 176 q44 92 87 170t79.5 131t61.5 61q12 4 18 4q14 0 15 -10q-12 -29 -25.5 -72t-24 -96t-17.5 -112.5t-7 -118.5q0 -27 -2 -85.5t-7 -139t-14.5 -176t-26 -194.5t-41 -194.5t-56.5 -175.5q-23 -57 -60 -131t-61 -131q20 14 53 53t64 84l60 85q28 40 38 59q88 152 166.5 307 t152.5 321q-47 -18 -99 -32.5t-106 -24.5zM2277 913q100 51 176 120t126.5 137.5t75 129t24.5 97.5q0 14 -1 33.5t-5 37t-15.5 28.5t-29.5 11q-43 0 -80 -42t-74 -113.5t-76 -166.5t-88 -202z" />
<glyph unicode="O" horiz-adv-x="1329" d="M1139 1020q0 -31 -14.5 -83t-40 -113.5t-63.5 -124t-86 -113.5t-105.5 -84t-120.5 -33q-68 0 -113 23.5t-72.5 63.5t-40 90t-12.5 106q0 88 32 179t85 177t125.5 160.5t153.5 131t168 89.5t169 33q76 0 130.5 -33t89 -85t50 -116.5t15.5 -130.5q0 -121 -40 -257 t-111.5 -271t-169 -258t-211 -217.5t-239.5 -150.5t-253 -56q-113 0 -192.5 57t-131 144.5t-75 191.5t-23.5 199q0 141 54.5 288.5t147.5 286.5t218 261t265 214t289.5 145.5t291.5 53.5h48q22 0 32 -2l-5 -27q-18 2 -35 2h-34q-176 0 -330 -63.5t-283 -171t-230 -248.5 t-171 -298t-106.5 -317.5t-36.5 -308.5q0 -68 15 -135t52 -122.5t99.5 -89.5t158.5 -34q109 0 223.5 53.5t223 142.5t205 209t168 253t113.5 272t42 268q0 57 -14 116t-44 105t-77 74.5t-113 28.5q-84 0 -165.5 -39t-156.5 -103.5t-138.5 -147.5t-110.5 -170t-73.5 -173 t-26.5 -155q0 -86 42 -148.5t121 -62.5q53 0 104.5 27.5t96.5 72.5t82 102.5t64.5 116.5t43 113.5t15.5 95.5z" />
<glyph unicode="P" horiz-adv-x="1566" d="M690 1219q31 45 75 89t95 79.5t106.5 57t110.5 21.5q39 0 78 -13t69.5 -38.5t50 -62.5t19.5 -84q0 -96 -44 -177t-117.5 -139.5t-171 -91.5t-203.5 -33q-63 0 -121.5 18.5t-104 55.5t-72 92.5t-26.5 130.5q0 147 75 261t194.5 193t269 119t301.5 40q111 0 221.5 -32 t202.5 -95q41 47 87 88t99 76l21 -29q-53 -23 -97.5 -63t-78.5 -93q86 -66 138 -161t52 -218q0 -74 -34 -147.5t-98.5 -139t-155.5 -117.5t-204 -81q-55 -164 -132.5 -316.5t-197.5 -269t-292 -187.5t-416 -71q-98 0 -172 34t-121 87t-70.5 118.5t-23.5 131.5q0 70 37 152.5 t108.5 154.5t177 120t242.5 48q53 0 100.5 -13.5t81 -42t53 -72.5t19.5 -107q0 -72 -47 -135.5t-119.5 -111.5t-160.5 -77t-170 -29q-53 0 -99 13l13 41q43 -14 102 -15q74 0 152.5 23.5t145.5 66.5t108.5 104.5t41.5 135.5q0 96 -63 139t-158 43q-117 0 -215 -40 t-169.5 -103.5t-111.5 -143t-40 -157.5q0 -55 23.5 -114.5t69.5 -110t115.5 -82t163.5 -31.5q211 0 356.5 64.5t246 173t167 252t119.5 302.5q-59 -6 -116 -6q-49 0 -105 6l-10 27q27 -2 47 -3t41 -1q41 0 80 3t74 7l73 225q37 115 80 224.5t96.5 212t124.5 190.5 q-45 37 -98 61.5t-105.5 38t-101.5 19.5t-86 6q-158 0 -304 -41t-261 -115.5t-183.5 -179t-68.5 -229.5q0 -90 28.5 -144.5t73.5 -84t97.5 -39t99.5 -9.5q84 0 171 37t157.5 95.5t115.5 131t45 144.5q0 78 -55 120t-151 42q-39 0 -85 -20.5t-90.5 -54.5t-85 -76t-71.5 -85z M1708 1559q-43 -74 -77 -165t-64.5 -193.5t-60 -212t-66.5 -220.5q111 39 185.5 101.5t119.5 133t63.5 140t18.5 119.5q0 100 -33 173t-86 124z" />
<glyph unicode="Q" horiz-adv-x="1433" d="M1358 1735h-21q-176 0 -330.5 -63.5t-285.5 -171t-234.5 -249t-176 -298t-110.5 -317.5t-38 -308q0 -68 17.5 -135.5t58.5 -123t106.5 -89t161.5 -33.5q66 0 135.5 20.5t138.5 57.5q-43 29 -80.5 62.5t-78.5 64.5q-117 -55 -218 -56q-59 0 -103 27t-44 78q0 53 55.5 74.5 t126.5 21.5q68 0 128.5 -24.5t115.5 -59.5q111 61 212 152.5t167 195.5l29 -18q-78 -109 -178.5 -198t-204.5 -148q43 -29 81.5 -60t79.5 -57q123 84 233.5 208t194.5 266t134.5 296t50.5 295q0 57 -16.5 116.5t-48.5 106.5t-81 77t-114 30q-129 0 -235.5 -71t-184.5 -175.5 t-121 -222t-43 -211.5q0 -78 31.5 -129.5t103.5 -51.5q80 0 146.5 50.5t115.5 123t76 152.5t27 141l30 -4q0 -45 -24.5 -127t-73.5 -162.5t-122 -140t-169 -59.5q-104 0 -154.5 72.5t-50.5 181.5q0 68 19.5 142.5t56.5 148t91.5 140t126 118t158.5 81t189 29.5 q76 0 132.5 -33.5t93.5 -87t54 -119t17 -131.5q0 -133 -48 -282.5t-131 -294.5t-195.5 -274t-241.5 -218q45 -29 91 -46t93 -17q84 0 147.5 20.5t115 57.5t94.5 87t88 109l24 -6q-63 -94 -128.5 -156.5t-131 -99.5t-133.5 -52t-133 -15q-66 0 -119 18.5t-98 46.5 q-78 -41 -158 -64.5t-160 -23.5q-113 0 -195.5 52.5t-138 133t-83 179t-27.5 192.5q0 141 54.5 292t148.5 293t220 269t269.5 222.5t296 151.5t299.5 56h27v-26zM399 129q92 0 195 43q-47 35 -101.5 57.5t-121.5 22.5q-41 0 -65.5 -14.5t-24.5 -30.5q0 -39 35.5 -58.5 t82.5 -19.5z" />
<glyph unicode="R" horiz-adv-x="2150" d="M801 1145q18 49 53 102t82 96t105.5 72t125.5 29q39 0 78 -8.5t70 -29t49 -55t18 -85.5q0 -96 -38.5 -178t-104 -142.5t-149.5 -95.5t-177 -35q-141 0 -226 78t-85 229q0 98 41 185.5t110.5 160t162 129t193.5 95.5t205.5 59.5t201.5 20.5q88 0 185 -23t187 -63 q59 57 127 108t146 98l18 -30q-47 -23 -80 -42.5t-60.5 -40t-52.5 -43.5l-57 -53l-14 -12q119 -61 198.5 -156.5t79.5 -222.5q0 -74 -32.5 -142.5t-86 -127.5t-123 -106.5t-143.5 -75.5q43 -39 75 -95.5t32 -130.5q0 -84 -34 -164.5t-74 -154.5l-72 -139q-33 -66 -33 -119 q0 -39 23.5 -47t54.5 -8q27 0 76 13t114.5 56t147.5 122t172 212l12 -10q-100 -145 -186 -229.5t-155 -126.5t-120 -52t-82 -10q-43 0 -67.5 23.5t-37 56.5t-14.5 67.5t-2 57.5q0 49 32 120.5t69 146.5l68 143q32 69 32 112q0 49 -16.5 85t-40.5 60q-78 -25 -150 -24 q-31 0 -54.5 14.5t-23.5 42.5q0 43 31 50.5t66 7.5q23 0 57.5 -14.5t71.5 -41.5q70 31 127 85.5t98 121t63.5 140t22.5 143.5q0 104 -57.5 174.5t-143.5 118.5q-59 -63 -110 -173t-104 -246l-110 -288q-58 -152 -131 -300t-166 -284.5t-215 -240t-276.5 -166t-353.5 -62.5 q-111 0 -189.5 34t-131 89.5t-77 126t-24.5 144.5q0 92 61.5 176t151.5 147.5t191.5 101t181.5 37.5q39 0 83 -12t82 -39.5t63.5 -72t25.5 -107.5q0 -86 -47 -151.5t-120 -110.5t-161 -67.5t-170 -22.5q-53 0 -98 12l12 41q43 -14 102 -14q74 0 153 20.5t145.5 62.5 t108.5 103t42 143q0 96 -63.5 137.5t-157.5 41.5q-72 0 -166 -33t-180 -93.5t-145.5 -145.5t-59.5 -189q0 -61 21.5 -119.5t67.5 -106t119.5 -76t178.5 -28.5q172 0 300 48t225.5 133t170 201t135 249t121 278.5t128 291t155.5 284.5t205 260q-84 41 -172 59.5t-150 18.5 q-176 0 -340 -48.5t-289 -130t-199.5 -190t-74.5 -227.5q0 -90 21.5 -146.5t57.5 -88t81 -43t92 -11.5q74 0 154.5 33t147.5 90t110 134t43 163q0 78 -54.5 109.5t-150.5 31.5q-47 0 -95.5 -26.5t-90.5 -68.5t-74.5 -92t-49.5 -98zM1628 831q66 0 127 23q-29 23 -60.5 32 t-54.5 9q-39 0 -50 -7t-11 -18q0 -23 13 -31t36 -8z" />
<glyph unicode="S" horiz-adv-x="1538" d="M1446 1620q-27 8 -61.5 15t-72.5 13.5t-76 10.5t-71 4q-186 0 -340.5 -57.5t-265 -147.5t-172 -198.5t-61.5 -210.5q0 -68 27.5 -127.5t84 -104.5t140.5 -70.5t196 -25.5q115 0 275.5 42t324.5 126l95 302q46 146 101.5 263t126 191.5t171.5 87.5q63 0 87.5 -32t24.5 -81 q0 -106 -36.5 -204.5t-100 -186.5t-150.5 -165t-188 -138q-39 -125 -86 -252t-109.5 -245t-144.5 -220.5t-190.5 -178t-244.5 -119.5t-308 -44q-74 0 -148.5 18.5t-136 58.5t-99.5 104.5t-38 154.5q0 80 44 158.5t116.5 141t168 101.5t197.5 39q47 0 95.5 -12.5t87.5 -38 t63.5 -64.5t24.5 -92q0 -82 -37 -141t-95.5 -98t-129 -57.5t-138.5 -18.5q-29 0 -57 7l-53 13l6 25q18 -4 35.5 -9t36.5 -5q76 0 148.5 27.5t127.5 70.5t89 97t34 110q0 47 -23.5 77.5t-60.5 49t-81 25.5t-83 7q-102 0 -191 -38.5t-155 -99t-103.5 -136.5t-37.5 -149 q0 -66 31.5 -120.5t84 -95t122 -63.5t145.5 -23q217 0 371.5 83t263 218.5t182.5 306.5t131 349q-145 -72 -297 -110t-289 -38q-123 0 -214 30t-152.5 83t-92 127t-30.5 160q0 111 53 215t162.5 187t277.5 133.5t400 50.5q27 0 63.5 -4.5l73.5 -9.5t71.5 -12t59.5 -13v-27z M1884 1710q-70 0 -120 -60.5t-90 -162t-77 -235.5l-79 -281q92 57 171.5 128.5t139 153.5t94.5 175.5t35 197.5q0 31 -20.5 57.5t-53.5 26.5z" />
<glyph unicode="T" horiz-adv-x="1394" d="M686 -238q-23 76 -35 170q-72 23 -128 74t-95 119t-58.5 147.5t-19.5 159.5q0 125 62.5 267.5t167 283.5t238.5 272t278 236q-96 23 -186 53l-176 59q-87 28 -174 47t-179 19q-113 0 -222.5 -41t-195.5 -114.5t-139 -175t-53 -222.5q0 -117 60 -193.5t181 -76.5 q78 0 166 38t162 99t122 139t48 156q0 143 -143 143q-92 0 -158 -40t-112 -93t-73.5 -104t-41.5 -72l-19 16q27 63 67 120t92 100t113.5 67.5t131.5 24.5q80 0 127 -52.5t47 -134.5q0 -92 -42 -174t-108.5 -143.5t-145.5 -96t-153 -34.5q-76 0 -138.5 17.5t-108.5 54 t-71.5 95t-25.5 140.5q0 135 63.5 249t170 194.5t246 127t292.5 46.5q100 0 187.5 -18.5t168 -45.5t157.5 -56.5t157 -54.5q137 88 267 139.5t237 51.5q35 0 61.5 -18.5t26.5 -40.5q0 -49 -46 -91.5t-110.5 -73t-134.5 -47t-117 -16.5q-63 0 -120.5 6t-112.5 17 q-141 -115 -266 -264.5t-219.5 -308t-149.5 -314.5t-55 -281q0 -41 8 -94t30.5 -104.5t60.5 -95.5t99 -64q-8 59 -11 115.5t-3 103.5q0 152 41 275.5t109.5 212t158.5 136.5t186 48q39 0 80 -15.5t75 -49t56.5 -86t22.5 -124.5q0 -133 -52 -251.5t-137 -207.5t-194 -142.5 t-223 -53.5q-39 0 -80 10q8 -55 18.5 -97t16.5 -62zM670 57q0 -59 6 -110q18 -4 36.5 -7t41.5 -3q125 0 231.5 56t184 147t122.5 206t45 234q0 45 -15 88t-43 76.5t-66.5 54t-86.5 20.5q-80 0 -160.5 -59.5t-146 -162.5t-107.5 -241.5t-42 -298.5zM1688 1722 q-113 0 -230 -47t-233 -129q57 -16 116.5 -25.5t124.5 -9.5q45 0 96.5 14.5t94.5 37t70.5 50t27.5 52.5q0 23 -17 40t-50 17z" />
<glyph unicode="U" horiz-adv-x="1773" d="M1817 1370q-25 -92 -65 -211l-86 -247l-92 -260q-46 -132 -83 -250.5t-60.5 -218t-23.5 -163.5q0 -2 2 -11t8 -18t16.5 -16.5t28.5 -7.5q20 0 55 11.5t89.5 53.5t130 125t180.5 228l12 -10l-134 -177t-122.5 -140.5t-111 -93.5t-99.5 -34q-41 0 -66.5 31t-39 75t-18.5 93 t-5 86q0 53 22.5 142t57.5 197t78 226l84 230l-130 -253q-69 -128 -141.5 -249t-147.5 -226.5t-149.5 -184.5t-146.5 -124t-137 -45q-29 0 -58.5 19.5t-52 57.5t-37 92.5t-14.5 125.5q0 104 25.5 200.5t63.5 189t83 181.5t83 178t63.5 178t25.5 183q0 154 -98 243t-291 89 q-119 0 -250 -53t-239.5 -144.5t-180 -213t-71.5 -259.5q0 -72 14 -137t47 -114.5t86 -79t133 -29.5q92 0 182.5 53t162 135t116.5 180.5t45 188.5q0 61 -36 108.5t-107 47.5q-84 0 -149.5 -35t-115 -90.5t-83 -123t-52.5 -132.5l-20 6q18 68 56 138.5t92.5 127.5t121 94 t142.5 37q53 0 90 -19.5t59.5 -51t32.5 -71.5t10 -79q0 -104 -36 -200.5t-100.5 -170t-156.5 -120t-203 -54.5q-170 0 -264 93.5t-94 273.5q0 150 69.5 280.5t181.5 228t251 153t278 55.5q98 0 184.5 -30t150 -88.5t100 -143.5t36.5 -195q0 -86 -27.5 -181.5t-68.5 -194.5 t-88 -198.5t-88 -197t-68.5 -187.5t-27.5 -170q0 -18 4 -43.5t13 -49t24.5 -41t36.5 -17.5q98 0 215.5 108.5t243.5 292t254 422t247 498.5l29 98h119z" />
<glyph unicode="V" horiz-adv-x="1404" d="M2 932q18 68 56 138.5t92.5 127.5t121 94t142.5 37q53 0 90 -19.5t59.5 -51t32.5 -71.5t10 -79q0 -104 -35.5 -200.5t-100 -170t-157 -120t-202.5 -54.5q-170 0 -264.5 93.5t-94.5 273.5q0 150 69.5 280.5t181.5 228t251 153t278 55.5q98 0 184.5 -30t150 -88.5 t100.5 -143.5t37 -195q0 -86 -28 -181.5t-69 -194.5t-88 -198.5t-88 -196.5t-68.5 -187.5t-27.5 -170.5q0 -18 2 -37.5t9 -36t19.5 -26.5t32.5 -10q55 0 123 40t141.5 107.5t149.5 158.5t145.5 195.5t131 215t108.5 217.5q-66 125 -94.5 233.5t-28.5 188.5q0 29 8.5 65.5 t24.5 69.5t41 55.5t59 22.5q41 0 63.5 -29t34 -69t14.5 -82t3 -68q0 -82 -24.5 -179.5t-67.5 -201.5q20 -43 44.5 -85t55.5 -83l-16 -27q-29 41 -53 80l-48 78q-47 -109 -109.5 -220.5t-133 -215t-146 -192.5t-149.5 -155.5t-141.5 -104.5t-120.5 -38q-29 0 -55.5 18.5 t-47 52.5t-33 81t-12.5 102q0 104 25.5 200.5t63.5 189t83 181.5t83 178t63.5 178t25.5 183q0 154 -98 243t-291 89q-119 0 -250 -53t-239.5 -144.5t-180 -213t-71.5 -259.5q0 -72 14 -137t47 -114.5t86.5 -79t132.5 -29.5q92 0 182.5 53t162 135t116.5 180.5t45 188.5 q0 61 -35.5 108.5t-107.5 47.5q-84 0 -149.5 -35t-114.5 -90.5t-83 -123t-52 -132.5zM1434 1307q0 -59 16 -162t66 -219q41 98 63.5 187t22.5 161q0 23 -2.5 60.5t-11.5 73.5t-25.5 61.5t-46.5 25.5q-35 0 -58.5 -53t-23.5 -135z" />
<glyph unicode="W" horiz-adv-x="1972" d="M2025 639l-57 83l-49 77q-49 -106 -112.5 -212t-133 -203t-142.5 -182t-142.5 -147.5t-133 -98.5t-114.5 -36q-59 0 -92 52.5t-45 117.5q-80 -74 -156 -119t-139 -45q-29 0 -55.5 18.5t-47 52.5t-33 81t-12.5 102q0 104 25.5 200.5t63.5 189t83 181.5t83 178t63.5 178 t25.5 183q0 154 -98 243t-291 89q-119 0 -250 -53t-239.5 -144.5t-180 -213t-71.5 -259.5q0 -72 14 -137t47 -114.5t86 -79t133 -29.5q92 0 182.5 53t162 135t116.5 180.5t45 188.5q0 61 -36 108.5t-107 47.5q-84 0 -149.5 -35t-115 -90.5t-83 -123t-52.5 -132.5l-20 6 q18 68 56 138.5t92.5 127.5t121 94t142.5 37q53 0 90 -19.5t59.5 -51t32.5 -71.5t10 -79q0 -104 -36 -200.5t-100.5 -170t-156.5 -120t-203 -54.5q-170 0 -264 93.5t-94 273.5q0 150 69.5 280.5t181.5 228t251 153t278 55.5q98 0 184.5 -30t150 -88.5t100 -143.5t36.5 -195 q0 -86 -27.5 -181.5t-68.5 -194.5t-88 -198.5t-88 -197t-68.5 -187.5t-27.5 -170q0 -18 2 -37.5t9 -36t19.5 -26.5t32.5 -10q66 0 145 47t160 125q-4 16 -4 32v31q0 88 24.5 186.5t64.5 193.5t91.5 183.5t105.5 155t107.5 106.5t98.5 40q63 0 63 -76q0 -61 -41 -161.5 t-108.5 -215.5t-154.5 -232.5t-179 -211.5q-2 -14 -2 -27v-23q0 -29 2 -56.5t10 -49t23.5 -35.5t42.5 -14q45 0 104.5 36.5t126 101.5t139 151t141 184t132 203.5t115.5 207.5q-59 109 -87 205.5t-28 212.5q0 57 11 106.5t32.5 85.5t50.5 56.5t64 20.5q41 0 63.5 -29 t33.5 -69t14 -82t3 -68q0 -90 -33.5 -203t-89.5 -236q41 -84 107 -165zM1475 1028q-29 0 -67 -39t-79 -104.5t-82 -150.5t-76.5 -178t-62.5 -186.5t-37 -174.5q88 94 169 207.5t143.5 222t99.5 201t37 145.5q0 57 -45 57zM1845 1249q0 -100 14.5 -191t57.5 -190 q55 117 88 221.5t33 182.5q0 23 -2 60.5t-11.5 73.5t-26 61.5t-46.5 25.5q-18 0 -37 -11.5t-34 -40t-25.5 -75.5t-10.5 -117z" />
<glyph unicode="X" horiz-adv-x="1832" d="M1284 -360q-33 74 -50 146.5t-24 143.5q-74 12 -127 51t-86.5 96.5t-50 127t-16.5 145.5v37q0 25 2 37q-127 -160 -244 -263.5t-220 -165t-190.5 -86t-154.5 -24.5q-49 0 -85 37t-36 94q0 90 87 177.5t229.5 172.5t323.5 171l368 176q90 166 141 321.5t51 272.5 q0 88 -31.5 162.5t-89 130t-136.5 87t-171 31.5q-180 0 -333.5 -63.5t-266.5 -157.5t-176.5 -199.5t-63.5 -191.5q0 -70 17.5 -131.5t53.5 -106.5t91.5 -70.5t132.5 -25.5q106 0 214 46t195 120t142.5 164t55.5 178q0 49 -20.5 79t-50.5 46t-61.5 22.5t-56.5 6.5 q-82 0 -149.5 -28t-121.5 -76t-96 -109.5t-73 -128.5l-27 4q27 70 75 135t111.5 114.5t138.5 79t157 29.5q39 0 75.5 -14.5t66.5 -41t47 -64.5t17 -85q0 -117 -56 -211t-147.5 -158.5t-206 -99.5t-229.5 -35q-143 0 -230 85t-87 227q0 145 78 270t200.5 217t276.5 144.5 t307 52.5q117 0 214 -44t168 -119t110 -174t39 -210q0 -8 -1 -17.5t-1 -17.5q59 86 133.5 162t151.5 131t149.5 87t128.5 32q43 0 72.5 -25.5t29.5 -75.5q0 -102 -67.5 -197t-181 -185.5t-263 -175.5t-311.5 -167q-37 -82 -61.5 -158.5t-40 -140t-21.5 -110.5t-6 -70 q0 -35 7 -84t28.5 -95t58.5 -83t98 -49q-2 20 -2 41v41q0 121 32 226.5t88 183t132 122.5t162 45q41 0 69.5 -18t47 -48t27 -66t8.5 -68q0 -57 -36 -140.5t-100.5 -161t-155.5 -133t-202 -55.5h-20q-9 0 -19 2q4 -152 68 -270zM133 -88q111 0 227.5 63.5t228 169t213 240.5 t181.5 281l-352 -171q-172 -83 -306.5 -163t-216 -156t-81.5 -149q0 -47 29.5 -81t76.5 -34zM1212 874l-24 -43q-12 -20 -23 -43q156 76 297.5 158t249 170t171 182.5t63.5 198.5q0 31 -30 41t-48 10q-63 0 -128 -35.5t-127.5 -93t-121.5 -130t-111.5 -147.5t-95.5 -146z M1239 -49q8 -2 25 -2q86 0 172 40t154.5 107.5t111.5 155.5t43 182q0 20 -5 47t-20.5 48.5t-41 37t-66.5 15.5q-68 0 -134.5 -53.5t-119.5 -140.5t-86 -200.5t-33 -236.5z" />
<glyph unicode="Y" horiz-adv-x="1306" d="M113 1112q20 82 57 144.5t82 105.5t91 64.5t83 21.5q86 0 135 -60.5t49 -146.5t-35.5 -167t-96 -144.5t-140.5 -101t-170 -37.5q-72 0 -123 24.5t-84 67.5t-48 100t-15 121q0 141 60 258t157.5 201t219.5 130t245 46q63 0 129.5 -25.5t122 -70t91 -105.5t35.5 -133 q0 -100 -26.5 -182t-57 -163t-57 -173t-26.5 -215q0 -23 17 -44.5t40 -21.5q59 0 124.5 52.5t131 135.5t126 186t112 205.5t87 192.5t52.5 150h110q-49 -135 -86 -278l-74 -284q-38 -142 -83 -282.5t-109 -269.5q-55 -117 -147.5 -213.5t-203 -165t-232 -107.5t-240.5 -39 q-82 0 -157 17.5t-131 53.5t-90 91t-34 133q0 100 49 184.5t125 142.5t165 91t169 33q45 0 89 -14.5t80 -40t57.5 -63.5t21.5 -85q0 -84 -40 -140t-102.5 -91t-139.5 -50.5t-150 -15.5h-32q-15 0 -32 2l-2 17h56q28 0 57 4q53 4 114.5 28.5t114.5 64.5t89 92t36 112 q0 37 -19.5 64.5t-49 46t-65.5 27.5t-69 9q-90 0 -179 -28.5t-160.5 -82t-116.5 -127t-45 -165.5q0 -80 32.5 -134.5t85 -89t117 -50t129.5 -15.5q78 0 156 16.5t151.5 46t139 74.5t118.5 105q98 111 163 248t114 289.5t93 312t101 317.5l-68 -142q-38 -79 -82 -160 t-94.5 -159t-103.5 -138.5t-109.5 -97t-113.5 -36.5q-39 0 -66.5 27.5t-44 67.5t-24.5 85t-8 80q0 82 24.5 160.5t55 156.5t55 156t24.5 160q0 63 -27.5 108t-72.5 75t-100.5 43t-110.5 13q-117 0 -230.5 -51t-203.5 -138t-145.5 -199.5t-55.5 -235.5q0 -55 12.5 -105.5 t40 -87.5t71.5 -59.5t108 -22.5q74 0 148.5 44t135 110.5t97 144.5t36.5 146q0 66 -31.5 111.5t-99.5 45.5q-41 0 -86 -17.5t-88 -56t-77.5 -99t-53.5 -146.5z" />
<glyph unicode="Z" horiz-adv-x="1683" d="M1217 766h-273l-70 -116l-69 -113q31 -4 64.5 -11.5t60 -24t44 -43t17.5 -67.5q0 -49 -17.5 -92t-38 -83t-37.5 -81t-17 -86q0 -16 9 -30.5t30.5 -26.5t58.5 -20.5t94 -8.5q-4 31 -4 52v32q0 115 23.5 225.5t74 198.5t128 141.5t188.5 53.5q80 0 116.5 -55.5t36.5 -123.5 q0 -109 -54 -206t-136 -171.5t-175 -119.5t-171 -47q4 -53 16 -119t35 -141l-29 2q-18 61 -29.5 130.5t-17.5 127.5q-78 2 -129 18t-81.5 42t-44 60.5t-13.5 73.5q0 51 18.5 99.5t41.5 89.5l42 73q18 33 19 56q0 23 -37 41t-96 22q-74 -119 -153 -225.5t-160 -187t-167 -128 t-176 -47.5q-51 0 -68.5 28t-17.5 60q0 49 33 105.5t87 113t124 108.5t144.5 93t149.5 67.5t138 31.5l69 113l68 116h-299l13 39h307l129 215q-12 -2 -25 -2h-22q-33 0 -66 8t-60.5 26.5t-45 49.5t-17.5 74q0 49 13.5 90t31 79.5t30.5 76.5t13 85t-36.5 83t-88 59.5 t-105.5 36t-91 12.5q-129 0 -262 -51.5t-243 -139.5t-179.5 -206.5t-69.5 -253.5q0 -41 13.5 -87.5t41 -85t68.5 -65.5t98 -27q80 0 163 46t150.5 117t111.5 156t44 163q0 55 -40 94t-95 39q-47 0 -95 -21.5t-93 -65.5t-81 -113t-54 -163h-25q18 88 54 160t82 121t99.5 75.5 t104.5 26.5q80 0 131 -56t51 -134q0 -98 -42 -183.5t-111.5 -147.5t-159.5 -98t-186 -36q-61 0 -108.5 25.5t-81.5 67.5t-51.5 93t-17.5 105q0 135 68 256t177.5 212t248.5 144t285 53q70 0 142.5 -18.5t132 -55t96 -94t36.5 -133.5q0 -45 -14 -89t-32 -84l-32 -75 q-14 -35 -14 -59q0 -45 35 -56.5t76 -11.5q16 0 32.5 1t32.5 4q63 102 128 192t131.5 156.5t133 104.5t136.5 38q31 0 52 -19.5t21 -54.5q0 -59 -47 -125.5t-122.5 -127t-172 -108.5t-194.5 -71l-133 -227h260zM1098 -37q43 2 98 23.5t112.5 56.5t113 82t98.5 105.5 t69.5 124t26.5 137.5q0 55 -35 99t-98 44q-72 0 -140.5 -55.5t-123 -146.5t-88 -206.5t-33.5 -236.5v-27zM129 -37q78 0 153.5 44t148.5 119t143.5 174t140.5 212q-59 -10 -130 -39t-141.5 -68.5t-136 -89t-117 -99.5t-82 -100t-30.5 -91q0 -33 17.5 -47.5t33.5 -14.5z M1556 1511q-53 0 -105 -33.5t-106.5 -94t-110.5 -141.5t-114 -175q86 25 173 71t158 101t116 114.5t45 110.5q0 25 -15.5 36t-40.5 11z" />
<glyph unicode="[" horiz-adv-x="440" d="M768 1436h-207l-481 -1532h237l-22 -41h-326l508 1614h305z" />
<glyph unicode="\" horiz-adv-x="489" d="M471 -182h-43l-354 1628h47z" />
<glyph unicode="]" horiz-adv-x="495" d="M-78 -96h207l481 1532h-237l22 41h326l-508 -1614h-305z" />
<glyph unicode="^" horiz-adv-x="3295" d="M3289 78q-59 -57 -114.5 -94t-102.5 -37q-23 0 -36 16.5t-22.5 40t-12.5 47t-3 37.5q0 57 23.5 118.5t51.5 120.5l51 107q24 49 24 82q0 20 -6.5 44t-34.5 24l-40 -108q-24 -65 -57.5 -136.5t-77.5 -143t-99.5 -129t-123 -93t-147.5 -35.5q-78 0 -133 30.5t-90 80.5 t-51.5 114.5t-16.5 132.5q0 113 48 252t120 283.5t156 283.5l155 250l120 182q48 72 48 82t-12 10q-8 0 -14 -6q-88 -66 -184.5 -171t-194.5 -237t-194.5 -285t-184.5 -313.5t-165 -324.5t-134 -317q-37 2 -58.5 26.5t-32.5 60.5t-15.5 76.5t-4.5 75.5q0 109 35 238 t89.5 265t124 270.5t140 254t134 217t108.5 158.5q0 14 -10 14q-74 -31 -156 -124t-172 -225l-189 -292q-99 -160 -211 -320.5t-237 -312t-264 -268t-293.5 -188.5t-328.5 -72q-82 0 -169 20.5t-159 64.5t-118 115t-46 171q0 131 56.5 232.5t143.5 171t192.5 105.5t205.5 36 q68 0 127 -16.5t103 -51.5t71 -88t27 -125t-47 -135.5t-120 -111.5t-161 -76.5t-170 -28.5q-53 0 -98 12l12 41q43 -14 102 -14q74 0 153 23.5t145.5 66.5t108.5 104.5t42 135.5q0 96 -78 143t-190 47q-94 0 -196.5 -32t-188.5 -93t-141.5 -152.5t-55.5 -207.5 q0 -63 25.5 -122t81 -103t141.5 -69.5t207 -25.5q168 0 320.5 71.5t289.5 191.5t260 272.5t235 316.5l213 324q101 160 194 292t179 223t166 118q6 0 26.5 -4.5t20.5 -30.5q0 -14 -8 -33l-109 -215l-127 -260q-65 -137 -126.5 -282.5t-109.5 -287t-77.5 -270.5t-29.5 -233 v-24q0 -13 4 -21q47 131 124.5 296.5t175 340t206 345.5t217 311t211 237.5t184.5 125.5q12 0 16 -13t4 -34q0 -12 -43 -92l-107 -202l-140 -272q-76 -151 -140.5 -305.5t-107.5 -300t-43 -255.5q0 -41 6 -85t23.5 -81t48 -60.5t79.5 -23.5q86 0 157 36t127 93t100 128 t76 141.5t54 133.5l37 105q-10 6 -19 37t-9 55q0 29 13 61.5t50 32.5q41 0 41 -43q0 -35 -14.5 -68.5t-30.5 -62.5q45 -25 71.5 -56.5t26.5 -80.5q0 -53 -25.5 -121.5t-56.5 -135.5l-56 -122q-26 -55 -25 -82q0 -29 10 -33t22 -4q41 0 90.5 33t102.5 86z" />
<glyph unicode="_" horiz-adv-x="724" d="M20 35h705l-20 -70h-705z" />
<glyph unicode="`" d="M954 786q-33 10 -70.5 32t-74.5 50.5t-65.5 64.5t-43.5 75l72 49q16 -66 71.5 -132.5t135.5 -117.5z" />
<glyph unicode="a" horiz-adv-x="806" d="M698 625q-92 -258 -135 -412t-43 -217q0 -8 3 -15.5t20 -7.5q25 0 73 38t105 97.5t117.5 132t109.5 144.5l13 -10q-51 -74 -112 -149.5t-117 -137t-104 -100.5t-75 -39q-31 0 -50.5 17.5t-31.5 48t-16 70.5t-4 83l-38 -62q-24 -39 -53.5 -75.5t-63.5 -63t-71 -26.5 q-16 0 -44.5 13t-55.5 48t-46.5 93.5t-19.5 150.5q0 53 45.5 126.5t107.5 141.5t126.5 115t105.5 47q12 0 28.5 -4t33 -19.5t30 -44t21.5 -76.5l27 93h114zM528 528q0 37 -18 77t-59 40q-43 0 -93.5 -55t-93.5 -139t-72.5 -183.5t-29.5 -187.5q0 -43 11 -74t40 -31 q53 0 109.5 57.5t102.5 141.5t74.5 180t28.5 174z" />
<glyph unicode="b" horiz-adv-x="702" d="M500 266l-27 76q-16 47 -16 104t14 98.5t53 41.5q33 0 44.5 -36t11.5 -67q0 -51 -15.5 -107.5t-40.5 -111.5q8 -35 22.5 -55.5t30 -31.5t30 -14t22.5 -3q20 0 46.5 21.5t55.5 55t57 73.5l56 75l12 -10l-54 -76q-30 -41 -60.5 -77t-61.5 -59.5t-57 -23.5q-35 0 -66 30 t-45 69q-29 -57 -64.5 -109.5t-73.5 -92.5t-76 -63.5t-69 -23.5t-53 21.5t-37.5 52t-22.5 66.5t-7 65q0 43 12 124.5t34.5 188t55.5 227.5t73 241t87 231.5t99 195.5t108.5 135t115.5 51q18 0 30.5 -12t20 -29.5t10.5 -36t3 -32.5q0 -53 -19.5 -125t-54.5 -156t-82 -176 t-103.5 -183t-119 -179.5t-125.5 -163.5q-39 -154 -55.5 -245t-16.5 -128q0 -41 4 -62.5t12.5 -30.5t16.5 -11.5t18 -2.5q25 0 58 19.5t68.5 56.5t72.5 91t68 124zM680 1534q-29 0 -62.5 -46t-70.5 -125t-75 -183.5t-75 -219t-70.5 -232.5t-60.5 -224l90 120 q51 71 103.5 154.5t102.5 174.5t89 179.5t62.5 168t23.5 141.5q0 29 -11 60.5t-46 31.5z" />
<glyph unicode="c" horiz-adv-x="604" d="M55 250q0 27 21.5 69.5t58.5 90t84 94.5t99.5 86t104.5 62.5t97 23.5q27 0 45.5 -12.5t29.5 -31t15 -42t4 -45.5q0 -55 -27.5 -91t-64.5 -36q-23 0 -36 18.5t-13 42.5q0 33 22.5 63.5t69.5 30.5q4 0 7 -1t6 -1q0 43 -23 57.5t-47 14.5q-55 0 -114.5 -47t-111 -123 t-84 -172t-32.5 -195q0 -20 3 -43.5t11 -43t24.5 -33t41.5 -13.5q41 0 89 14.5t107.5 57.5t133 124t169.5 216l13 -10q-80 -111 -146.5 -191t-127 -132t-118 -77.5t-116.5 -25.5q-80 0 -137.5 77t-57.5 224z" />
<glyph unicode="d" horiz-adv-x="806" d="M961 375q-51 -74 -112 -149.5t-117 -137t-104 -100.5t-75 -39q-31 0 -50.5 17.5t-31.5 48t-16 70.5t-4 83l-38 -62q-24 -39 -53.5 -75.5t-63.5 -63t-71 -26.5q-16 0 -44.5 13t-55.5 48t-46.5 93.5t-19.5 150.5q0 53 45.5 126.5t107.5 141.5t126.5 115t105.5 47 q12 0 28.5 -4t33 -19.5t30 -44t21.5 -76.5l289 967h112l-177 -572l-139 -445q-58 -189 -90 -311t-32 -175q0 -8 3 -15.5t20 -7.5q25 0 73 38t105 97.5t117.5 132t109.5 144.5zM528 528q0 37 -18 77t-59 40q-43 0 -93.5 -55t-93.5 -139t-72.5 -183.5t-29.5 -187.5 q0 -43 11 -74t40 -31q53 0 109.5 57.5t102.5 141.5t74.5 180t28.5 174z" />
<glyph unicode="e" horiz-adv-x="626" d="M586 551q0 -55 -40 -109.5t-101.5 -100.5t-137.5 -81t-149 -51q-2 -18 -3 -36.5t-1 -37.5q0 -27 4 -54.5t16 -51t32.5 -38t51.5 -14.5q63 0 130 34t133.5 91.5t128 131t114.5 151.5l12 -10q-59 -86 -122.5 -164t-131 -136.5t-136.5 -92t-138 -33.5q-47 0 -83 24.5 t-60.5 64.5t-37 88t-12.5 95q0 72 42 152t103.5 147.5t132 111.5t128.5 44q53 0 89 -36t36 -89zM453 645q-31 0 -75 -31.5t-87 -88t-79 -132.5t-50 -162q59 14 124.5 47t120 77t90 96.5t35.5 109.5q0 35 -21 59.5t-58 24.5z" />
<glyph unicode="f" horiz-adv-x="464" d="M135 358q-12 23 -25.5 62t-13.5 69q0 23 8.5 36.5t30.5 13.5q4 0 17.5 -11.5t17.5 -44.5l44 148l57 188q32 100 70 202.5t81 192.5q12 25 36.5 80.5t57.5 110.5t67.5 97t69.5 42q27 0 41.5 -11t21.5 -29.5t9 -40t2 -42.5q0 -111 -43 -245t-112.5 -270t-157.5 -266 t-178 -230l-31 -111q10 -20 29.5 -47t42 -49.5t44 -39t33.5 -16.5q37 0 72 26t67.5 62.5t60.5 77.5l50 72l12 -10l-48 -67q-30 -42 -64.5 -83t-72.5 -70.5t-73 -29.5q-25 0 -50 18.5t-48.5 42t-41 47t-23.5 33.5q6 -23 10 -56.5t8 -74.5t6 -86t2 -86q0 -90 -6 -185t-16 -181 q-4 -37 -18.5 -109t-40 -144.5t-62.5 -126t-86 -53.5q-55 0 -71.5 60.5t-16.5 187.5q0 121 26.5 252t64.5 257t76.5 239.5t63.5 197.5zM676 1526q-53 0 -101.5 -88t-98.5 -234.5t-104.5 -337t-119.5 -395.5q43 43 93 111.5t101.5 150.5t97.5 174t83 183.5t58.5 177.5 t21.5 157v25q0 16 -3.5 33.5t-9.5 30t-18 12.5zM-63 -707q0 -70 16 -88t39 -18q49 0 84 61.5t57.5 141.5t34.5 155.5t16 106.5q0 2 3 37t6.5 87t5.5 115.5t2 124.5q0 68 -3 123.5t-14 83.5l-31 -98l-50 -153l-57 -182q-30 -97 -54.5 -190.5t-39.5 -173.5t-15 -133z" />
<glyph unicode="g" horiz-adv-x="796" d="M461 -100l93 67q44 31 96 79t121 127t167 212l12 -10q-139 -197 -260 -319t-237 -187q-53 -143 -111.5 -271t-121 -224.5t-127 -153t-130.5 -56.5q-35 0 -57.5 26t-22.5 73q0 74 37 146.5t98.5 143t142.5 138t169 129.5l112 348q-14 -23 -40.5 -60.5t-61.5 -73.5 t-75 -61.5t-81 -25.5q-10 0 -30.5 13t-41 48t-37 93.5t-16.5 150.5q0 53 45.5 126t108.5 139.5t129 112.5t109 46q12 0 28.5 -8.5t30.5 -27.5t25.5 -52t13.5 -80l37 117h112zM520 492q0 18 -3 43.5t-10 50t-20.5 41t-33.5 16.5q-33 0 -68 -27.5t-68.5 -72.5t-63.5 -101.5 t-53.5 -115t-36.5 -111.5t-13 -90q0 -23 1 -47.5t6 -47t13 -36.5t23 -14q51 0 108 51t106.5 128t81 166t31.5 167zM-37 -815q55 0 102.5 48t90.5 129t83 188.5t78 226.5q-86 -61 -161.5 -125t-132 -128.5t-88 -131t-31.5 -135.5q0 -41 15 -54.5t44 -17.5z" />
<glyph unicode="h" d="M12 -29l146 504l64 225q36 121 76 240t84 229.5t94 194.5t103.5 134t112.5 50q18 0 30.5 -12t20 -29.5t10.5 -36t3 -32.5q0 -53 -19.5 -125t-54.5 -156t-82 -176t-103.5 -183t-119 -179.5t-125.5 -163.5l-88 -297q49 86 108.5 178t118 168t112.5 124t95 48 q20 0 37.5 -14.5t28 -35t16.5 -43t6 -40.5q0 -68 -23.5 -150t-53.5 -159l-53 -138q-24 -61 -24 -86q0 -35 27 -35q23 0 70 37t103 95.5t116.5 132t109.5 145.5l15 -12q-59 -84 -120.5 -160t-117 -135.5t-101.5 -94t-73 -34.5t-45 17.5t-29.5 43t-16.5 55t-5 54.5 q0 45 23.5 120.5t52.5 150.5l52 137q24 62 23 81q0 31 -22 31q-35 0 -90 -52t-118.5 -134t-128 -183.5t-120.5 -199.5l-28 -99h-97zM678 1534q-29 0 -62.5 -46t-70.5 -125t-75 -183.5t-75 -219t-70.5 -232.5t-60.5 -224q41 49 91.5 119.5t102.5 154.5t102 175t89 179.5 t62.5 168t23.5 141.5q0 29 -11 60.5t-46 31.5z" />
<glyph unicode="i" horiz-adv-x="421" d="M66 158q0 25 12 71.5t32 108.5l43 135l48 152h112q-4 -10 -18 -52l-35 -99l-41.5 -126.5t-40 -135.5t-31 -124t-12.5 -92q0 -8 3 -15.5t20 -7.5q25 0 73 38t105 97.5t117.5 132t109.5 144.5l12 -10q-51 -74 -111.5 -149.5t-116.5 -137t-104 -100.5t-75 -39 q-61 0 -81.5 60.5t-20.5 148.5zM395 907q0 -45 -28.5 -71.5t-57.5 -26.5q-20 0 -34.5 14.5t-14.5 46.5q0 43 28.5 69t57.5 26q20 0 34.5 -14.5t14.5 -43.5z" />
<glyph unicode="j" horiz-adv-x="415" d="M76 -98l91 62q48 34 105.5 87t128 133t156.5 201l12 -10l-122 -162q-56 -72 -113.5 -131t-122 -112.5t-148.5 -106.5q-41 -127 -74.5 -206t-64 -123t-58.5 -60.5t-54 -16.5q-35 0 -53.5 18.5t-18.5 65.5q0 92 58.5 152.5t150.5 122.5l250 809h106zM-188 -524q6 0 15 9 t23.5 42t36 92t52.5 162q-92 -59 -134.5 -112.5t-42.5 -133.5q0 -41 18 -50t32 -9zM395 907q0 -45 -28.5 -71.5t-57.5 -26.5q-20 0 -34.5 14.5t-14.5 46.5q0 43 28.5 69t57.5 26q20 0 34.5 -14.5t14.5 -43.5z" />
<glyph unicode="k" d="M12 -29l146 504l64 225q36 121 76 240t84 229.5t94 194.5t103.5 134t112.5 50q18 0 30.5 -12t20 -29.5t10.5 -36t3 -32.5q0 -53 -19.5 -125t-54.5 -156t-82 -176t-103.5 -183t-119 -179.5t-125.5 -163.5l-88 -297q49 86 108.5 178t118 168t112.5 124t95 48 q20 0 37.5 -14.5t28 -35t16.5 -43t6 -40.5q0 -23 -2 -44.5t-16.5 -46t-43 -51t-79.5 -59.5q29 -12 39 -35.5t10 -54.5q0 -35 -9.5 -73t-21.5 -71l-21 -61q-9 -27 -10 -37q0 -35 27 -35q23 0 70 37t103 95.5t116.5 132t109.5 145.5l15 -12q-59 -84 -120.5 -160t-117 -135.5 t-101.5 -94t-73 -34.5t-45 17.5t-29.5 43t-16.5 55t-5 54.5q0 29 9 53.5t20.5 45t20.5 33.5t9 19q0 57 -22 58q-23 0 -36 -5.5t-23.5 -10.5t-19.5 -10t-20 -5q-12 0 -19 7t-7 18q0 12 11 28.5t32 16.5q16 0 28.5 -2.5t26.5 -2.5q29 0 46.5 14.5t33.5 41.5q18 27 29.5 47 t18.5 39.5t10 43t3 60.5q0 31 -22 31q-35 0 -90 -52t-118.5 -134t-128 -183.5t-120.5 -199.5l-28 -99h-97zM678 1534q-29 0 -62.5 -46t-70.5 -125t-75 -183.5t-75 -219t-70.5 -232.5t-60.5 -224q41 49 91.5 119.5t102.5 154.5t102 175t89 179.5t62.5 168t23.5 141.5 q0 29 -11 60.5t-46 31.5z" />
<glyph unicode="l" horiz-adv-x="514" d="M668 375q-59 -84 -120 -161t-117 -135.5t-107.5 -94t-94.5 -35.5q-31 0 -53 21.5t-37.5 52t-22.5 66.5t-7 65q0 43 12 124.5t34.5 188t55.5 227.5t73 241t87 231.5t99 195.5t108.5 135t115.5 51q18 0 30.5 -12t20 -29.5t10.5 -36t3 -32.5q0 -53 -19.5 -125t-54.5 -156 t-82 -176t-103.5 -183t-119 -179.5t-125.5 -163.5q-39 -154 -55.5 -245t-16.5 -128q0 -41 4 -62.5t12.5 -30.5t16.5 -11.5t18 -2.5q33 0 82.5 34t104.5 90.5t115.5 130t119.5 155.5zM680 1534q-29 0 -62.5 -46t-70.5 -125t-75 -183.5t-75 -219t-70.5 -232.5t-60.5 -224 l90 120q51 71 103.5 154.5t102.5 174.5t89 179.5t62.5 168t23.5 141.5q0 29 -11 60.5t-46 31.5z" />
<glyph unicode="m" horiz-adv-x="1433" d="M338 -23h-96q6 16 22 65l38 113l45 135l43 132q19 61 31.5 105t12.5 57q0 29 -2 42t-16 13q-37 0 -108.5 -69.5t-176.5 -223.5l-14 10q115 168 185.5 244t117.5 76q20 0 37.5 -11.5t28 -27.5t16.5 -35.5t6 -38.5q0 -76 -24.5 -158.5t-73.5 -209.5q135 248 242.5 364.5 t154.5 116.5q20 0 37.5 -11.5t28 -27.5t16.5 -35.5t6 -38.5q0 -76 -24.5 -158.5t-73.5 -209.5q49 84 105 170t111.5 154.5t106.5 112.5t90 44q20 0 38 -14.5t28 -35t16 -43t6 -40.5q0 -68 -23.5 -150t-52.5 -159l-54 -138q-24 -61 -23 -86q0 -35 26 -35q23 0 70 37 t103.5 95.5t117 132t109.5 145.5l14 -12q-59 -84 -120.5 -160t-117 -135.5t-101.5 -94t-72 -34.5q-27 0 -45.5 17.5t-30 43t-16.5 55t-5 54.5q0 45 23.5 118.5t53.5 148.5l53 136q24 61 24 82q0 35 -25 35q-35 0 -87 -49t-113.5 -128t-125 -177.5t-118.5 -194.5l-37 -113 h-96q6 16 22 65l38 113l45 135l43 132q19 61 31.5 105t12.5 57q0 29 -2 42t-16 13q-18 0 -58 -27.5t-96.5 -93t-127 -173t-150.5 -265.5z" />
<glyph unicode="n" horiz-adv-x="1046" d="M242 -23q6 16 22 65l38 113l45 135l43 132q19 61 31.5 105t12.5 57q0 29 -2 42t-16 13q-37 0 -108.5 -69.5t-176.5 -223.5l-14 10q115 168 185.5 244t117.5 76q20 0 37.5 -11.5t28 -27.5t16.5 -35.5t6 -38.5q0 -76 -24.5 -158.5t-73.5 -209.5q49 84 105 170t111.5 154.5 t106.5 112.5t90 44q20 0 38 -14.5t28 -35t16 -43t6 -40.5q0 -68 -23.5 -150t-52.5 -159l-54 -138q-24 -61 -23 -86q0 -35 26 -35q23 0 70 37t103.5 95.5t117 132t109.5 145.5l14 -12q-59 -84 -120.5 -160t-117 -135.5t-101.5 -94t-73 -34.5t-45 17.5t-29.5 43t-16.5 55 t-5 54.5q0 45 23.5 118.5t53.5 148.5l53 136q24 61 24 82q0 35 -25 35q-35 0 -87 -49t-113.5 -128t-125 -177.5t-118.5 -194.5l-37 -113h-96z" />
<glyph unicode="o" horiz-adv-x="686" d="M70 223q0 47 40 121t98 143.5t123.5 119.5t119.5 50q39 0 64.5 -21.5t40.5 -54t21.5 -71.5t6.5 -72q0 -51 -20.5 -118.5t-51.5 -129.5q8 -29 21.5 -46t46.5 -17q25 0 56.5 26.5t65 66.5t67.5 85l58 80l13 -10l-59 -81q-34 -46 -69.5 -87t-70.5 -69.5t-66 -28.5t-50 21.5 t-25 37.5q-18 -29 -47 -65.5t-64 -71.5t-74 -58.5t-79 -23.5q-47 0 -78 29.5t-51.5 72.5t-28.5 90t-8 82zM166 117q0 -16 1 -41t7 -49.5t18.5 -42t36.5 -17.5q37 0 73 19.5t70 50.5t64.5 70.5t55.5 82.5q-10 25 -19.5 65t-9.5 79q0 51 17.5 90t60.5 39q10 0 22 -4 q0 20 -5 50t-16.5 58.5t-30.5 49t-46 20.5q-68 0 -122 -63.5t-94 -149.5t-61.5 -173t-21.5 -134z" />
<glyph unicode="p" horiz-adv-x="901" d="M510 963l-256 -818l107 183q56 94 113.5 170.5t110 127t95.5 50.5q20 0 37.5 -14.5t28 -35t16.5 -43t6 -40.5q0 -68 -23.5 -150t-53.5 -159l-53 -138q-24 -61 -24 -86q0 -35 27 -35q23 0 70 37t103 95.5t116.5 132t109.5 145.5l15 -12q-59 -84 -121 -160t-117 -135.5 t-101 -94t-73 -34.5t-45 17.5t-29.5 43t-16.5 55t-5 54.5q0 45 23.5 120.5t52.5 150.5l52 137q24 62 23 81q0 31 -22 31q-37 0 -91.5 -54.5t-115.5 -140.5t-124.5 -190t-119.5 -205l-250 -799h-112l409 1325q-25 -51 -59.5 -107t-81.5 -122l-14 10q33 43 66.5 98.5t61 108.5 t47 95t25.5 59l76 246h117z" />
<glyph unicode="q" horiz-adv-x="808" d="M154 -750l295 926l-41 -61q-27 -39 -62 -76t-75 -63.5t-81 -26.5q-10 0 -30.5 13t-41 48t-36.5 93.5t-16 150.5q0 53 45 126t108.5 138.5t128 111.5t105.5 46q25 0 55.5 -33t42.5 -127l33 109h114l-274 -871l265 299q134 154 261 332l13 -10q-125 -174 -269 -339 l-284 -325l-144 -461h-112zM522 500q0 14 -2 37.5t-9 47t-19.5 41t-32.5 17.5q-47 0 -100.5 -59.5t-98.5 -142.5t-74.5 -170t-29.5 -144q0 -23 1 -47.5t6 -47t13 -36.5t23 -14q51 0 107 52t104.5 130t80 168t31.5 168z" />
<glyph unicode="r" horiz-adv-x="550" d="M117 356q49 68 87 132.5t52 105.5q-10 6 -19.5 37t-9.5 55q0 29 13.5 61.5t50.5 32.5q41 0 41 -43q0 -35 -14.5 -68.5t-30.5 -62.5q45 -25 71.5 -56.5t26.5 -80.5q0 -53 -25.5 -121.5t-56.5 -135.5l-56 -122q-26 -55 -26 -82q0 -29 10.5 -33t22.5 -4q43 0 95 36 t108.5 94.5t114.5 131.5l118 152l12 -10q-49 -70 -108 -145.5t-120.5 -138t-121 -103.5t-110.5 -41q-23 0 -36 16.5t-22.5 40t-12.5 47t-3 37.5q0 57 23.5 118.5t51.5 120.5l51 107q24 49 23 82q0 20 -6 44t-35 24q-16 -39 -56 -103.5t-89 -134.5z" />
<glyph unicode="s" horiz-adv-x="598" d="M281 596q78 -55 134 -131t56 -166q0 -41 -15.5 -84t-42 -84t-64.5 -78t-81 -61q6 -14 14.5 -17.5t18.5 -3.5q43 0 95.5 36t108.5 94.5t115 131.5l117 152l13 -10l-107 -145q-57 -75 -117.5 -136t-119 -101t-109.5 -40q-27 0 -43 31q-27 -16 -57.5 -25.5t-53.5 -9.5 q-57 0 -81.5 37t-24.5 84q0 49 22.5 91t61.5 42q23 0 32 -13.5t9 -31.5q0 -33 -28 -69t-75 -36q0 -35 17.5 -59.5t46.5 -24.5q66 0 114 49.5t79.5 114t47 129t15.5 94.5q0 82 -25.5 130.5t-79.5 95.5q-16 -39 -55 -102.5t-88 -133.5l-14 10q49 68 88 134.5t53 107.5 q-10 6 -20.5 35t-10.5 53q0 29 13.5 61.5t50.5 32.5q41 0 41 -43q0 -35 -17.5 -73.5t-33.5 -67.5z" />
<glyph unicode="t" horiz-adv-x="421" d="M84 625h113l68 217l59 190h106l-58 -191l-69 -216h162l-10 -37h-164l-59 -189q-28 -92 -49 -170.5t-34.5 -139t-13.5 -93.5q0 -8 3 -15.5t20 -7.5q25 0 73 38t105 97.5t117.5 132t109.5 144.5l12 -10q-51 -74 -111.5 -149.5t-116.5 -137t-104 -100.5t-75 -39 q-61 0 -81.5 60.5t-20.5 148.5q0 14 9 54t26 97l39 129l46 150h-112z" />
<glyph unicode="u" horiz-adv-x="808" d="M66 168q0 8 10 47l27 100l41 141l53 169h106q-78 -248 -123 -408t-45 -221q0 -8 3 -15.5t20 -7.5q41 0 136 99.5t218 281.5l82 271h106q-78 -248 -123 -408t-45 -221q0 -8 3.5 -15.5t19.5 -7.5q14 0 54 30t93.5 84t118 130t129.5 168l13 -10q-51 -74 -113 -149.5 t-118 -137t-101 -100.5t-66 -39q-35 0 -55.5 17.5t-30.5 48t-13 70.5t-3 83q0 20 31 125q-43 -61 -91.5 -122.5t-93.5 -111t-83 -80t-58 -30.5q-35 0 -55.5 17.5t-30.5 48t-13 70.5t-3 83z" />
<glyph unicode="v" horiz-adv-x="894" d="M815 139q-35 0 -65.5 30t-44.5 69q-29 -57 -65 -109.5t-74 -92.5t-75.5 -63.5t-68.5 -23.5t-53.5 21.5t-38 52t-22.5 66.5t-7 65q0 47 20.5 108.5t46.5 122.5l46 115q20 53 20 84q0 29 -2 42t-16 13q-37 0 -108.5 -69.5t-176.5 -223.5l-14 10q115 168 185.5 244t117.5 76 q20 0 37.5 -11.5t28 -27.5t16.5 -35.5t6 -38.5q0 -72 -20.5 -142.5t-46.5 -132.5l-46 -116q-20 -53 -20 -90q0 -41 4 -62.5t12 -30.5t16.5 -11.5t18.5 -2.5q25 0 57.5 19.5t68.5 56.5t73 91.5t67 123.5q-8 23 -13 66t-5 90q0 39 4 78t13 70.5t23.5 51t35.5 19.5q33 0 44 -36 t11 -66q0 -51 -16.5 -122t-69.5 -157q8 -35 22.5 -54.5t28.5 -29.5t28.5 -13t22.5 -3q20 0 47 21.5t55.5 55t57.5 73.5l55 75l13 -10l-55 -76q-30 -41 -60.5 -77t-61 -59.5t-57.5 -23.5z" />
<glyph unicode="w" horiz-adv-x="1280" d="M936 625q-25 -59 -55.5 -145.5l-57 -168.5t-45 -146.5t-18.5 -82.5q0 -41 4 -62.5t12 -30.5t16.5 -11.5t18.5 -2.5q25 0 57.5 19.5t68.5 56.5t73 91.5t67 123.5q-8 23 -13 66t-5 90q0 39 4 78t13 70.5t23.5 51t35.5 19.5q33 0 44 -36t11 -66q0 -51 -16.5 -122t-69.5 -157 q8 -35 22.5 -54.5t28.5 -29.5t28.5 -13t22.5 -3q20 0 47 21.5t55.5 55t57.5 73.5l55 75l13 -10l-55 -76q-30 -41 -60.5 -77t-61 -59.5t-57.5 -23.5q-35 0 -65.5 30t-44.5 69q-29 -57 -65 -109.5t-74 -92.5t-75.5 -63.5t-68.5 -23.5t-53.5 21.5t-38 52t-22.5 66.5t-7 65 q0 23 17.5 87t41.5 138q-59 -117 -109 -199t-90 -133t-71 -74.5t-53 -23.5q-31 0 -53.5 21.5t-38 52t-22.5 66.5t-7 65q0 47 20.5 108.5t46.5 122.5l46 115q20 53 20 84q0 29 -2 42t-16 13q-37 0 -108.5 -69.5t-176.5 -223.5l-14 10q115 168 185.5 244t117.5 76 q20 0 37.5 -11.5t28 -27.5t16.5 -35.5t6 -38.5q0 -72 -20.5 -142.5t-46.5 -132.5l-46 -116q-20 -53 -20 -90q0 -41 4 -62.5t12 -30.5t16.5 -11.5t18.5 -2.5q20 0 57 36t86 105.5t106.5 171t117.5 230.5l38 107h105z" />
<glyph unicode="x" horiz-adv-x="909" d="M1063 375q-80 -111 -146.5 -191t-129 -132t-124 -77.5t-128.5 -25.5q-59 0 -104.5 40t-45.5 142q-31 -35 -63.5 -67.5t-66.5 -58t-68.5 -41t-71.5 -15.5q-20 0 -36 11t-27 28.5t-16 37t-5 35.5q0 55 27.5 100.5t64.5 45.5q23 0 36 -18.5t13 -43.5q0 -33 -22.5 -63.5 t-69.5 -30.5q-4 0 -7 1t-5 1q0 -43 17 -59.5t42 -16.5q33 0 73 35t79.5 91.5t76.5 124t65 134t45 123t17 88.5q0 29 -10 52.5t-35 23.5q-33 0 -70.5 -25.5t-77.5 -67.5t-80 -97l-79 -113l-14 12l78 108q41 56 80.5 102t80.5 76t78 30q47 0 81 -43t34 -125q45 63 102.5 115.5 t122.5 52.5q53 0 73.5 -40t20.5 -85q0 -55 -27.5 -91t-64.5 -36q-23 0 -36 18.5t-13 42.5q0 33 30.5 64t78.5 31q4 0 7 -1.5t5 -1.5q0 43 -23.5 59.5t-54.5 16.5q-18 0 -49 -25.5t-65.5 -68.5t-71.5 -100.5t-67 -120t-48 -128t-18 -122.5q0 -41 24.5 -77t75.5 -36 q41 0 89 14.5t107.5 57.5t133 124t170.5 216z" />
<glyph unicode="y" horiz-adv-x="796" d="M461 -100l93 67q44 31 96 79t121 127t167 212l12 -10q-139 -197 -260 -319t-237 -187q-53 -143 -111.5 -271t-121 -224.5t-127 -153t-130.5 -56.5q-35 0 -57.5 26t-22.5 73q0 74 37 146.5t98.5 143t142.5 138t169 129.5l149 473q-43 -61 -91 -122.5t-93 -111t-83 -80 t-58 -30.5q-35 0 -55.5 17.5t-31 48t-13.5 70.5t-3 83q0 8 10 47l28 100l41 141l52 169h107q-78 -248 -123 -408t-45 -221q0 -8 3 -15.5t19 -7.5q41 0 136.5 99.5t218.5 281.5l82 271h106zM-37 -815q55 0 102.5 48t90.5 129t83 188.5t78 226.5q-86 -61 -161.5 -125 t-132 -128.5t-88 -131t-31.5 -135.5q0 -41 15 -54.5t44 -17.5z" />
<glyph unicode="z" horiz-adv-x="667" d="M213 385h125q51 61 84 109q-27 -12 -49.5 -20.5t-48.5 -8.5q-59 0 -93 33q-20 -35 -46 -73l-54 -79l-14 10l55 82q27 41 47 76q-16 25 -16 68q0 45 17.5 87t62.5 42q23 0 29.5 -21.5t6.5 -38.5q0 -16 -7 -36.5t-17 -39t-22.5 -34t-22.5 -23.5q16 -23 36.5 -26t45.5 -3 q49 0 97 27t65 74q0 8 -1 17t-1 20q0 20 7 37.5t31 17.5q4 0 13.5 -7t9.5 -30q0 -16 -13.5 -44t-36 -61.5l-51.5 -73.5l-63 -81h113l-10 -37h-134l-77 -91l-70 -77q72 59 120 81t79 22q39 0 58 -31t19 -66q0 -23 -10 -45t-22 -46l-23 -44q-10 -20 -10 -35q0 -16 10 -16 q33 0 86 47t108.5 110.5t104.5 128.5l76 99l12 -10l-79 -107q-50 -68 -107.5 -134t-113.5 -115.5t-95 -49.5q-35 0 -54.5 38t-19.5 69q0 25 11.5 50.5t23.5 47t23.5 36.5t11.5 23q0 23 -31 23q-25 0 -61.5 -20.5t-73.5 -48t-67.5 -57.5t-45.5 -48q6 -23 6 -47 q0 -35 -13 -60.5t-46 -25.5q-16 0 -21.5 12t-5.5 25q0 31 22.5 71.5t58.5 89t79 100.5l86 101h-104z" />
<glyph unicode="{" horiz-adv-x="1683" d="M1122 -315q-18 61 -29.5 130.5t-17.5 127.5q-78 2 -129 18t-81.5 42t-44 60.5t-13.5 73.5q0 51 18.5 99.5t41.5 89.5l42 73q18 33 19 56q0 23 -37 41t-96 22q-74 -119 -153 -225.5t-160 -187t-167 -128t-176 -47.5q-51 0 -68.5 28t-17.5 60q0 49 33 105.5t87 113 t124 108.5t144.5 93t149.5 67.5t138 31.5l143 242l144 241q-12 -2 -25 -2h-22q-33 0 -66 8t-60.5 26.5t-45 49.5t-17.5 74q0 49 13.5 90t31 79.5t30.5 76.5t13 85t-36.5 83t-88 59.5t-105.5 36t-91 12.5q-129 0 -262 -51.5t-243 -139.5t-179.5 -206.5t-69.5 -253.5 q0 -41 13.5 -87.5t41 -85t68.5 -65.5t98 -27q80 0 163 46t150.5 117t111.5 156t44 163q0 55 -40 94t-95 39q-47 0 -95 -21.5t-93 -65.5t-81 -113t-54 -163h-25q18 88 54 160t82 121t99.5 75.5t104.5 26.5q80 0 131 -56t51 -134q0 -98 -42 -183.5t-111.5 -147.5t-159.5 -98 t-186 -36q-61 0 -108.5 25.5t-81.5 67.5t-51.5 93t-17.5 105q0 135 68 256t177.5 212t248.5 144t285 53q70 0 142.5 -18.5t132 -55t96 -94t36.5 -133.5q0 -45 -14 -89t-32 -84l-32 -75q-14 -35 -14 -59q0 -45 35 -56.5t76 -11.5q16 0 32.5 1t32.5 4q63 102 128 192 t131.5 156.5t133 104.5t136.5 38q31 0 52 -19.5t21 -54.5q0 -59 -47 -125.5t-122.5 -127t-172 -108.5t-194.5 -71l-145 -245q-73 -128 -150 -250q31 -4 64.5 -11.5t60 -24t44 -43t17.5 -67.5q0 -49 -17.5 -92t-38 -83t-37.5 -81t-17 -86q0 -16 9 -30.5t30.5 -26.5 t58.5 -20.5t94 -8.5q-4 31 -4 52v32q0 115 23.5 225.5t74 198.5t128 141.5t188.5 53.5q80 0 116.5 -55.5t36.5 -123.5q0 -109 -54 -206t-136 -171.5t-175 -119.5t-171 -47q4 -53 16 -119t35 -141zM1098 -37q43 2 98 23.5t112.5 56.5t113 82t98.5 105.5t69.5 124t26.5 137.5 q0 55 -35 99t-98 44q-72 0 -140.5 -55.5t-123 -146.5t-88 -206.5t-33.5 -236.5v-27zM129 -37q78 0 153.5 44t148.5 119t143.5 174t140.5 212q-59 -10 -130 -39t-141.5 -68.5t-136 -89t-117 -99.5t-82 -100t-30.5 -91q0 -33 17.5 -47.5t33.5 -14.5zM1556 1511 q-53 0 -105 -33.5t-106.5 -94t-110.5 -141.5t-114 -175q86 25 173 71t158 101t116 114.5t45 110.5q0 25 -15.5 36t-40.5 11z" />
<glyph unicode="|" horiz-adv-x="491" d="M287 1638v-2388h-82v2388h82z" />
<glyph unicode="}" horiz-adv-x="667" d="M324 465q-59 0 -93 33q-20 -35 -46 -73l-54 -79l-14 10l55 82q27 41 47 76q-16 25 -16 68q0 45 17.5 87t62.5 42q23 0 29.5 -21.5t6.5 -38.5q0 -16 -7 -36.5t-17 -39t-22.5 -34t-22.5 -23.5q16 -23 36.5 -26t45.5 -3q49 0 97 27t65 74q0 8 -1 17t-1 20q0 20 7 37.5 t31 17.5q4 0 13.5 -7t9.5 -30q0 -16 -11.5 -39.5t-26.5 -48.5t-33.5 -48.5t-30.5 -37.5q-66 -76 -111 -141.5t-96 -124.5q47 31 91 54.5t75 23.5q39 0 58 -31t19 -66q0 -23 -10 -45t-22 -46l-23 -44q-10 -20 -10 -35q0 -16 10 -16q33 0 86 47t108.5 110.5t104.5 128.5l76 99 l12 -10l-79 -107q-50 -68 -107.5 -134t-113.5 -115.5t-95 -49.5q-35 0 -54.5 38t-19.5 69q0 25 11.5 50.5t23.5 47t23.5 36.5t11.5 23q0 23 -31 23q-25 0 -62.5 -21.5t-76.5 -51t-72 -60.5t-47 -49q4 -16 4 -33q0 -29 -10 -60.5t-37 -31.5q-16 0 -21.5 12t-5.5 25 q0 43 42 105.5t100 132.5l119 142q61 71 100 128q-27 -12 -49 -20.5t-49 -8.5z" />
<glyph unicode="~" horiz-adv-x="3342" d="M2992 203q23 0 32 -13.5t9 -31.5q0 -33 -27.5 -69t-74.5 -36q0 -35 17.5 -59.5t45.5 -24.5q66 0 114 49.5t79.5 114t47 129t15.5 94.5q0 82 -25.5 130.5t-78.5 95.5q-33 -49 -70 -117l-79 -138q-42 -71 -89 -140.5t-101 -125t-114.5 -89t-130.5 -33.5q-78 0 -133 30.5 t-90 80.5t-51.5 114.5t-16.5 132.5q0 113 48 252t120 283.5t156 283.5l155 250l120 182q48 72 48 82t-12 10q-8 0 -14 -6q-88 -66 -184.5 -171t-194.5 -237t-194.5 -285t-184.5 -313.5t-165 -324.5t-134 -317q-37 2 -58.5 26.5t-32.5 60.5t-15.5 76.5t-4.5 75.5 q0 109 35 238t89.5 265t124 270.5t140 254t134 217t108.5 158.5q0 14 -10 14q-74 -31 -156 -124t-172 -225l-189 -292q-99 -160 -211 -320.5t-237 -312t-264 -268t-293.5 -188.5t-328.5 -72q-82 0 -169 20.5t-159 64.5t-118 115t-46 171q0 131 56.5 232.5t143.5 171 t192.5 105.5t205.5 36q68 0 127 -16.5t103 -51.5t71 -88t27 -125t-47 -135.5t-120 -111.5t-161 -76.5t-170 -28.5q-53 0 -98 12l12 41q43 -14 102 -14q74 0 153 23.5t145.5 66.5t108.5 104.5t42 135.5q0 96 -78 143t-190 47q-94 0 -196.5 -32t-188.5 -93t-141.5 -152.5 t-55.5 -207.5q0 -63 25.5 -122t81 -103t141.5 -69.5t207 -25.5q168 0 320.5 71.5t289.5 191.5t260 272.5t235 316.5l213 324q101 160 194 292t179 223t166 118q6 0 26.5 -4.5t20.5 -30.5q0 -14 -8 -33l-109 -215l-127 -260q-65 -137 -126.5 -282.5t-109.5 -287t-77.5 -270.5 t-29.5 -233v-24q0 -13 4 -21q47 131 124.5 296.5t175 340t206 345.5t217 311t211 237.5t184.5 125.5q12 0 16 -13t4 -34q0 -12 -43 -92l-107 -202l-140 -272q-76 -151 -140.5 -305.5t-107.5 -300t-43 -255.5q0 -41 6 -85t23.5 -81t48 -60.5t79.5 -23.5q78 0 141.5 29.5 t129 102.5t142.5 197t181 312q-10 6 -20 35t-10 53q0 29 13 61.5t50 32.5q41 0 41 -43q0 -35 -17.5 -73.5t-33.5 -67.5q78 -55 134 -131t56 -166q0 -53 -29.5 -114.5t-76.5 -114t-105.5 -87t-115.5 -34.5t-82 37t-25 84q0 49 22.5 91t61.5 42z" />
<glyph unicode="&#xa1;" horiz-adv-x="382" d="M350 449l-264 -822h-149l372 822h41zM449 657q0 -33 -25 -63.5t-59 -30.5q-25 0 -41.5 17.5t-16.5 42.5q0 33 24.5 63.5t57.5 30.5q25 0 42.5 -17.5t17.5 -42.5z" />
<glyph unicode="&#xa2;" horiz-adv-x="669" d="M621 340q-96 -111 -175 -161t-165 -50l-48 -129h-34l49 131q-70 14 -117 90t-47 209q0 39 42 105.5t105.5 132t139 119t143.5 65.5l64 172h36l-61 -168q53 -4 71.5 -46t18.5 -85q0 -55 -27.5 -91t-64.5 -36q-23 0 -36 18.5t-13 42.5q0 33 22.5 64t69.5 31q4 0 7 -1t5 -1 q0 43 -22.5 57t-46.5 14q-55 0 -115 -47t-111 -122.5t-83.5 -172t-32.5 -194.5q0 -20 3 -44t11 -43.5t24.5 -32.5t40.5 -13q31 0 66 7t75 28.5t87 60.5t104 102z" />
<glyph unicode="&#xa3;" horiz-adv-x="1275" d="M252 713h471q45 135 95 262t115.5 226t154 165t208.5 82q63 0 88 -32t25 -81q0 -27 -4 -52.5t-10 -53.5l-29 -2q18 57 18 114q0 31 -19 57.5t-52 26.5q-96 0 -164 -58t-119 -156.5t-92 -227.5l-84 -270h367l-21 -49h-362l-28 -93q-13 -45 -30 -90h379l-20 -49h-375 q-57 -160 -132 -305t-186 -250l245 -84q116 -39 220 -39q106 0 192.5 33t149.5 82l23 -21q-84 -66 -197.5 -107.5t-283.5 -41.5q-111 0 -220.5 31.5t-218.5 72.5q-80 -55 -177 -85.5t-220 -30.5q-164 0 -234.5 34.5t-70.5 81.5q0 29 26.5 58.5t73.5 53.5t110.5 39t135.5 15 q94 0 185 -18.5t182 -46.5q90 100 151.5 237.5t114.5 290.5h-463l20 49h459l58 183h-476zM-51 -289q104 0 188 32t152 85q-100 37 -195.5 64.5t-187.5 27.5q-94 0 -157.5 -35t-63.5 -73q0 -39 61.5 -70t202.5 -31z" />
<glyph unicode="&#xa4;" horiz-adv-x="1359" d="M96 713h244q102 160 236.5 300t273.5 243.5t269 164t222 60.5q49 0 85 -32t36 -87q0 -104 -69 -219l-27 8q35 53 54.5 106.5t19.5 104.5q0 45 -34 65.5t-60 20.5q-102 0 -217 -59.5t-229 -160t-221.5 -233.5t-195.5 -282h582l-21 -49h-589q-27 -47 -48.5 -91.5 t-41.5 -91.5h639l-21 -49h-639q-49 -121 -75.5 -236.5t-26.5 -222.5q0 -35 10 -91t43 -108.5t96.5 -90t167.5 -37.5q109 0 218.5 40t205.5 111l16 -20q-92 -72 -201.5 -113t-222.5 -41q-104 0 -185 41t-136 110.5t-84 160t-29 186.5q0 150 58 311h-185l21 49h184 q37 90 90 183h-233z" />
<glyph unicode="&#xa5;" horiz-adv-x="1300" d="M145 281h404l29 108l16 74h-408l21 49h397q16 90 29.5 203.5t13.5 230.5q0 94 -11 183.5t-41 158t-79 109.5t-123 41q-45 0 -90 -18.5t-81 -51.5t-58.5 -77t-22.5 -95q0 -29 11.5 -56.5t32 -50t48 -37t60.5 -16.5l-10 -18q-76 6 -121 60.5t-45 121.5q0 57 23.5 104.5 t60.5 82t84 54t96 19.5q94 0 155.5 -42t98.5 -112.5t51 -161.5t14 -192q0 -147 -21.5 -292.5t-47.5 -292.5q102 293 224 498.5t254 335.5t269.5 189.5t270.5 59.5l-4 -76q-127 -2 -251 -64.5t-240 -176t-217 -272.5t-181 -349h420l-21 -49h-418l-35 -90l-32 -92h444l-20 -50 h-439q-43 -141 -72.5 -289.5t-45.5 -306.5h-162l160 596h-410z" />
<glyph unicode="&#xa6;" horiz-adv-x="491" d="M287 1638v-1024h-82v1024h82zM205 -750v832h82v-832h-82z" />
<glyph unicode="&#xa7;" horiz-adv-x="937" d="M692 311q0 27 5 65t16.5 74.5t30 66.5t42.5 38q10 18 11 39q0 45 -39 45q-35 0 -87.5 -49t-107.5 -128t-106 -177.5t-82 -194.5l-37 -113h-96q6 16 22 65l38 113l45 135l43 132q19 61 31.5 105t12.5 57q0 29 -2 42t-16 13q-37 0 -108.5 -69.5t-176.5 -223.5l-14 10 q115 168 185.5 244t117.5 76q20 0 37.5 -11.5t28 -27.5t16.5 -35.5t6 -38.5q0 -59 -15.5 -120.5t-43.5 -145.5q31 72 71.5 140.5t82.5 121.5t83 85t76 32q20 0 36.5 -12.5t28 -32t16.5 -42t5 -42.5q0 -49 -22.5 -91t-61.5 -42q-35 0 -41 28q-6 -29 -10 -58.5t-4 -59.5 q0 -86 26.5 -127t69.5 -41q53 0 126 59t148 170l13 -10q-72 -111 -152 -173.5t-139 -62.5q-47 0 -78 40t-31 132z" />
<glyph unicode="&#xa8;" d="M958 848q0 33 25 63.5t59 30.5q25 0 41.5 -17.5t16.5 -41.5q0 -33 -24.5 -64t-57.5 -31q-25 0 -42.5 17.5t-17.5 42.5zM713 848q0 33 24.5 63.5t59.5 30.5q25 0 41 -17.5t16 -41.5q0 -33 -25.5 -64t-58.5 -31q-25 0 -41 17.5t-16 42.5z" />
<glyph unicode="&#xa9;" horiz-adv-x="1038" d="M950 1063q0 -86 -33.5 -163t-91 -134t-134.5 -90t-163 -33t-162.5 33t-134 90t-90 134t-32.5 163t32.5 163t90 133t134 90t162.5 34t163 -34t134.5 -90t91 -133t33.5 -163zM889 1063q0 74 -29 138.5t-78 113.5t-114.5 76.5t-139.5 27.5t-139 -27.5t-114.5 -76.5 t-77 -113.5t-27.5 -138.5t27.5 -139.5t77 -114.5t115 -78t138.5 -29q74 0 139.5 29t114.5 78t78 114.5t29 139.5zM272 1051q0 55 16.5 104t48.5 88t77 61.5t102 22.5q41 0 79 -15.5t71 -43.5l24 45h43v-193h-49q-16 88 -62.5 120t-97.5 32q-47 0 -76.5 -19.5t-46 -51.5 t-23.5 -71.5t-7 -78.5t7 -77t25.5 -67.5t48 -48t76.5 -18.5q80 0 120 53t40 127h53q0 -98 -52 -167t-171 -69q-123 0 -184.5 75t-61.5 192z" />
<glyph unicode="&#xaa;" horiz-adv-x="3854" d="M3664 596q78 -55 134 -131t56 -166q0 -53 -29.5 -113.5t-76.5 -114t-105.5 -88t-115.5 -34.5t-82 37t-25 84q0 49 22.5 91t61.5 42q23 0 32 -13.5t9 -31.5q0 -33 -27.5 -69t-74.5 -36q0 -35 17.5 -59.5t45.5 -24.5q66 0 114 49.5t79.5 114t47 129t15.5 94.5 q0 82 -25.5 130.5t-78.5 95.5q-25 -47 -65 -113t-89 -136.5t-105.5 -139t-113.5 -124t-111.5 -89t-101.5 -33.5q-23 0 -36 16.5t-22.5 40t-12.5 47t-3 37.5q0 57 23.5 118.5t51.5 120.5l51 107q24 49 24 82q0 20 -6.5 44t-34.5 24l-40 -108q-24 -65 -57.5 -136.5t-77.5 -143 t-99.5 -129t-123 -93t-147.5 -35.5q-78 0 -133 30.5t-90 80.5t-51.5 114.5t-16.5 132.5q0 113 48 252t120 283.5t156 283.5l155 250l120 182q48 72 48 82t-12 10q-8 0 -14 -6q-88 -66 -184.5 -171t-194.5 -237t-194.5 -285t-184.5 -313.5t-165 -324.5t-134 -317 q-37 2 -58.5 26.5t-32.5 60.5t-15.5 76.5t-4.5 75.5q0 109 35 238t89.5 265t124 270.5t140 254t134 217t108.5 158.5q0 14 -10 14q-74 -31 -156 -124t-172 -225l-189 -292q-99 -160 -211 -320.5t-237 -312t-264 -268t-293.5 -188.5t-328.5 -72q-82 0 -169 20.5t-159 64.5 t-118 115t-46 171q0 131 56.5 232.5t143.5 171t192.5 105.5t205.5 36q68 0 127 -16.5t103 -51.5t71 -88t27 -125t-47 -135.5t-120 -111.5t-161 -76.5t-170 -28.5q-53 0 -98 12l12 41q43 -14 102 -14q74 0 153 23.5t145.5 66.5t108.5 104.5t42 135.5q0 96 -78 143t-190 47 q-94 0 -196.5 -32t-188.5 -93t-141.5 -152.5t-55.5 -207.5q0 -63 25.5 -122t81 -103t141.5 -69.5t207 -25.5q168 0 320.5 71.5t289.5 191.5t260 272.5t235 316.5l213 324q101 160 194 292t179 223t166 118q6 0 26.5 -4.5t20.5 -30.5q0 -14 -8 -33l-109 -215l-127 -260 q-65 -137 -126.5 -282.5t-109.5 -287t-77.5 -270.5t-29.5 -233v-24q0 -13 4 -21q47 131 124.5 296.5t175 340t206 345.5t217 311t211 237.5t184.5 125.5q12 0 16 -13t4 -34q0 -12 -43 -92l-107 -202l-140 -272q-76 -151 -140.5 -305.5t-107.5 -300t-43 -255.5q0 -41 6 -85 t23.5 -81t48 -60.5t79.5 -23.5q86 0 157 36t127 93t100 128t76 141.5t54 133.5l37 105q-10 6 -19 37t-9 55q0 29 13 61.5t50 32.5q41 0 41 -43q0 -35 -14.5 -68.5t-30.5 -62.5q45 -25 71.5 -56.5t26.5 -80.5q0 -53 -25.5 -121.5t-56.5 -135.5l-56 -122q-26 -55 -25 -82 q0 -29 10 -33t22 -4q35 0 84 32t103.5 84t111 118.5t106.5 136.5t90 136.5t62 119.5q-10 6 -20 35t-10 53q0 29 13 61.5t50 32.5q41 0 41 -43q0 -35 -17.5 -73.5t-33.5 -67.5z" />
<glyph unicode="&#xab;" horiz-adv-x="663" d="M309 61l-153 258l276 224l23 -25l-215 -211l102 -237zM496 41l-154 258l276 223l23 -24l-215 -211l102 -238z" />
<glyph unicode="&#xac;" horiz-adv-x="686" d="M166 -31q-27 18 -45.5 50t-29.5 68t-16 72t-5 64q0 47 40 121t98 143.5t123.5 119.5t119.5 50q39 0 64.5 -21.5t40.5 -54t21.5 -71.5t6.5 -72q0 -51 -20.5 -118.5t-51.5 -129.5q8 -29 21.5 -46t46.5 -17q25 0 56.5 26.5t65 66.5t67.5 85l58 80l13 -10l-59 -81 q-34 -46 -69.5 -87t-70.5 -69.5t-66 -28.5t-50 21.5t-25 37.5q-18 -29 -47 -65.5t-63 -70.5t-72.5 -57.5t-77.5 -25.5q190 -139 393 -271.5t415 -237t434 -168t453 -63.5q96 0 177 16.5t139.5 49.5t91.5 84t33 121q0 27 -3 42t-8 25l15 4q8 -12 14 -33.5t6 -56.5 q0 -68 -26.5 -128t-84 -107t-144.5 -75t-210 -28q-158 0 -320.5 41t-323.5 109t-317.5 156t-299.5 182l-273 187zM166 117q0 -16 1 -41t7 -49.5t18.5 -42t36.5 -17.5q37 0 73 19.5t70 50.5t64.5 70.5t55.5 82.5q-10 25 -19.5 65t-9.5 79q0 51 17.5 90t60.5 39q10 0 22 -4 q0 20 -5 50t-16.5 58.5t-30.5 49t-46 20.5q-68 0 -122 -63.5t-94 -149.5t-61.5 -173t-21.5 -134z" />
<glyph unicode="&#xad;" horiz-adv-x="729" d="M158 444h477l-21 -69h-477z" />
<glyph unicode="&#xae;" horiz-adv-x="1024" d="M948 1061q0 -86 -32.5 -162t-90 -133t-132.5 -90t-161 -33q-88 0 -164.5 33t-134 90t-90 133t-32.5 162t32.5 162.5t90 133t134 90.5t164.5 34q86 0 161 -34t132.5 -90.5t90 -133t32.5 -162.5zM887 1061q0 74 -28 138.5t-76 113.5t-112.5 76.5t-138.5 27.5 q-76 0 -141 -27.5t-114.5 -76.5t-77 -113.5t-27.5 -138.5t27.5 -139.5t77 -114.5t115 -78t140.5 -29q74 0 138.5 29t112.5 78t76 114.5t28 139.5zM340 860q25 0 25 29v352q0 29 -25 29h-29v51h246q63 0 106.5 -34t43.5 -99q0 -59 -33 -88t-90 -39q43 -6 60.5 -24.5 t21.5 -61.5l10 -92q4 -23 24 -23q23 0 23 27v84h51v-64q0 -18 -2 -36.5t-11 -34t-27.5 -25.5t-53.5 -10q-39 0 -64.5 18.5t-29.5 57.5l-13 110q-4 23 -18 39t-41 16h-63v-155q0 -16 7 -19.5t21 -7.5h23v-49h-191v49h29zM451 1094h81q37 0 60.5 26.5t23.5 63.5 q0 35 -22.5 59.5t-56.5 24.5h-86v-174z" />
<glyph unicode="&#xaf;" d="M651 852h389l-8 -53h-387z" />
<glyph unicode="&#xb0;" horiz-adv-x="342" d="M365 1069q47 0 71.5 -23.5t24.5 -60.5q0 -35 -15.5 -67.5t-42 -60.5t-62.5 -44t-79 -16t-69.5 24.5t-26.5 65.5q0 37 19.5 69.5t48 58t64.5 40t67 14.5zM276 842q63 0 102.5 40t39.5 81q0 27 -17.5 44t-54.5 17q-23 0 -45 -11.5t-42.5 -28.5t-33 -38.5t-12.5 -44.5 q0 -27 17 -43t46 -16z" />
<glyph unicode="&#xb1;" horiz-adv-x="851" d="M596 782l-78 -256h260l-20 -69h-260l-74 -242h-76l74 242h-264l20 69h266l80 256h72zM80 135h600l-21 -69h-600z" />
<glyph unicode="&#xb2;" horiz-adv-x="788" d="M49 -41q-31 0 -31 29q0 23 13.5 49t23.5 39q51 66 127 136l158 142l164 144q82 72 147.5 141.5t105.5 134t40 121.5q0 80 -37 117t-101 37q-35 0 -72.5 -18.5t-72.5 -44t-65.5 -55.5l-51.5 -52q-51 -53 -81.5 -117t-30.5 -121q0 -47 25.5 -57.5t45.5 -10.5q45 0 83 18.5 t69 47.5t55 63l47 70l13 -8q-23 -37 -51.5 -74t-63.5 -66.5t-75 -48t-85 -18.5q-57 0 -80.5 40t-23.5 93q0 74 31.5 142.5t86 120t128 82t157.5 30.5q104 0 169 -69.5t65 -180.5q0 -74 -42 -133t-103.5 -108.5t-131 -90.5l-125.5 -77l-140 -100q-75 -54 -134 -113 q76 41 140.5 69.5t125.5 28.5q47 0 77 -21.5t30 -76.5q0 -25 -10.5 -49.5t-24 -47t-23.5 -45t-10 -43.5q0 -10 3 -17t13 -7q31 0 61.5 15t60.5 39.5t56.5 55.5t49.5 62l8 -9q-72 -98 -135.5 -137t-108.5 -39q-33 0 -52.5 26t-19.5 58q0 27 8.5 50.5t17.5 46l17.5 45 t8.5 47.5q0 20 -13.5 26t-38.5 6q-31 0 -79 -19t-99 -47t-96 -58.5t-70 -55.5q4 -16 4 -33q0 -33 -12 -68.5t-45 -35.5z" />
<glyph unicode="&#xb3;" horiz-adv-x="770" d="M37 115q0 39 11 69.5t28.5 52t38 34t39.5 12.5q16 0 28.5 -12.5t12.5 -41.5q0 -31 -14.5 -50t-36 -33.5t-46 -23.5t-45.5 -20q0 -63 35 -88.5t80 -25.5q80 0 163 42t150.5 105.5t110.5 134t43 129.5q0 33 -19.5 69t-54.5 36q-33 0 -57.5 -17.5t-59.5 -17.5q-10 0 -17 6 t-7 14q0 25 19.5 32t43.5 7h49q27 0 39 11q84 68 139.5 164t55.5 194q0 137 -131 137q-45 0 -99.5 -34.5t-100.5 -85t-77.5 -107.5t-31.5 -100q0 -27 8 -42.5t20.5 -22.5t26.5 -9t27 -2q47 0 89 25.5t74.5 59.5t54 66.5t29.5 48.5v-32q-10 -20 -33.5 -52t-58.5 -63 t-79 -52.5t-95 -21.5q-55 0 -89 44t-34 100q0 51 35 103t90 95t122 71t132 28q45 0 86 -15.5t73 -43t50 -65.5t18 -83q0 -59 -27.5 -110.5t-71.5 -92.5t-98 -71.5t-106 -49.5q27 -12 56.5 -29.5t53 -40t39 -50t15.5 -62.5q0 -53 -26.5 -101.5t-70.5 -91.5t-101.5 -77.5 t-117 -59t-117.5 -38t-105 -13.5q-74 0 -116 43t-42 115z" />
<glyph unicode="&#xb4;" d="M700 807q80 51 135.5 117.5t71.5 132.5l72 -49q-14 -39 -43 -75t-65.5 -64.5t-74.5 -50t-71 -32.5z" />
<glyph unicode="&#xb5;" horiz-adv-x="4085" d="M1759 -193q31 25 51.5 56t20.5 71q0 31 -13.5 69t-68.5 50q4 -27 8 -61.5t4 -87.5q0 -59 -27.5 -101.5t-70.5 -70t-96.5 -39.5t-102.5 -12q-35 0 -68.5 10t-60 29.5t-44 48t-17.5 65.5t15.5 60.5t37 37t43 18.5t35.5 5q27 0 37 -2q16 35 49 64.5t80 50.5v6q-6 16 -7 35.5 t-1 31.5q-23 -49 -62 -82.5t-96 -33.5q-55 0 -91 58t-36 144q0 43 15.5 92.5t35 97.5t34.5 92t15 77q0 37 -6 51t-18 14q-18 0 -34.5 -11t-29 -25.5t-20.5 -29t-10 -20.5q0 -55 -29 -92t-70 -59q0 -207 -85 -306.5t-245 -99.5q-43 0 -83.5 10.5t-73.5 32t-52.5 57 t-19.5 87.5q0 29 9.5 56.5t24.5 50t37.5 36.5t51.5 14q41 0 56.5 -27.5t15.5 -56.5q0 -55 -30 -104t-87 -49q-10 0 -22.5 5t-24.5 9q10 -35 38.5 -58.5t57.5 -23.5q49 0 84 34t59.5 87t43 117.5t32.5 128.5q-66 29 -100 90q-27 -10 -41 -10q-84 0 -122 43t-38 125 q0 61 23.5 121.5t65.5 106.5t99.5 74.5t122.5 28.5q68 0 111 -11t72.5 -24.5l52.5 -24.5t49 -11q10 0 22.5 1t22.5 3v-11q-76 -18 -146.5 -68t-115.5 -112q-8 53 -46 86t-97 33q-43 0 -81 -19.5t-67.5 -51t-47 -71.5t-17.5 -83q0 -119 131 -119q8 0 18 2t21 6q-14 31 -15 80 q0 61 32 99t61 38q25 0 37 -17.5t12 -39.5q0 -47 -32 -93t-73 -71q14 -29 38 -48.5t52 -31.5q18 78 47 155t86 146q10 12 32 32.5t49.5 42t58 39t59.5 21.5v-16q-41 -18 -66.5 -53t-41 -78t-20.5 -90t-5 -90q0 -49 6 -107q41 20 65.5 53t24.5 78q0 31 -8 60.5t-25 46.5v4 q16 -10 27.5 -36t15.5 -50q14 29 49 60.5t91 31.5q35 0 60.5 -17.5t42 -47t24.5 -68.5t8 -80q0 -29 -15.5 -72t-35 -92t-34.5 -99t-15 -91q0 -47 26 -47q43 0 75 68.5t56.5 164.5t43 199.5t36.5 175.5q16 -8 34.5 -15.5t39.5 -7.5q33 0 54.5 15.5t43.5 29.5 q-12 -57 -30.5 -134t-35 -156.5t-27.5 -155.5t-7 -129l2 -39q47 -10 75.5 -47t28.5 -96q0 -43 -19.5 -78t-47.5 -58h-21zM3641 178l21 -115l-199 160q-35 -78 -81 -149.5t-103 -130.5q55 -18 119 -19q86 0 132 30t74 87h9q-6 -35 -26.5 -61.5t-49.5 -45t-62.5 -28.5 t-66.5 -10q-76 0 -150 28q-78 -78 -161.5 -124t-161.5 -46q-72 0 -119 61.5t-47 211.5q-4 -2 -16 -2q-41 0 -80 19t-70 57t-49.5 96.5t-18.5 138.5q0 45 31 104.5t82 113.5t116.5 92t133.5 38q43 0 78 -34t35 -115q0 -53 -28 -96.5t-71 -76t-94 -53t-96 -24.5 q-14 -78 -20.5 -132.5t-6.5 -56.5q0 -25 16.5 -37t41.5 -12q10 0 16 2v2q0 39 14.5 87t39 90t59 71t77.5 29q23 0 31 -18.5t8 -39.5q0 -37 -18.5 -76.5t-49 -75.5t-68.5 -60.5t-75 -28.5q0 -133 46 -190.5t116 -57.5q63 0 137 42t144 111q-78 37 -129.5 107t-51.5 168 q0 33 10.5 67.5t30 64.5t47 51.5t64.5 29.5v-10q-70 -20 -102.5 -82t-32.5 -129q0 -84 52 -147.5t130 -98.5q53 59 99.5 133t72.5 158l-258 78l113 45l-150 307l121 -37l-27 180l117 -131l70 100l69 -221l97 305l47 -79l178 104v-201h109l-234 -231l231 65l-36 -120l174 -19 l-168 -80l90 -71zM2261 -39q-20 0 -41.5 -13.5t-21.5 -37.5q0 -29 19 -45.5t44 -16.5q45 0 82 26t63.5 63.5t41 83t14.5 83.5q0 53 -31 101q-33 -70 -82 -125t-117 -55q-51 0 -69.5 37.5t-18.5 80.5t13.5 75t34 53.5t42 32.5t37.5 15l12.5 88.5t10.5 91.5l7 80q3 36 3 54 q0 4 -6 13t-21 9q-10 0 -26.5 -10t-31.5 -31.5t-26.5 -55.5t-11.5 -81q0 -23 -10 -86l-25 -145q-14 -82 -32 -173l-35 -168l-29 -131l-14 -63q-16 10 -33.5 16.5t-40.5 6.5q-31 0 -52 -16l-42 -29q4 27 18 100l33 170l38 204l36 202l27 162q11 69 12 89q0 51 -16.5 79 t-42.5 49l-54 44q-29 23 -54.5 62t-42 103.5t-16.5 168.5q0 59 16.5 123t36 127.5t36 127t16.5 124.5q0 23 -4 36t-17 13q-23 0 -64.5 -47t-72.5 -125q-4 -33 -16.5 -104.5l-26.5 -147t-27.5 -137t-15.5 -74.5q-16 10 -33.5 17.5t-40.5 7.5q-31 0 -49 -6t-39 -21 q6 41 22.5 127t32.5 180l27 176q12 81 12 111q0 16 -4 27.5t-16 11.5q-27 0 -47.5 -38t-36.5 -81h-22q8 27 19 52.5t27.5 47t40 35t58.5 13.5q63 0 93 -37t40 -90q14 18 28.5 40.5t33 43t41 34t53.5 13.5q35 0 61.5 -23.5t44 -60.5t26.5 -83t9 -93q0 -82 -17.5 -151.5 t-39 -132t-39 -124t-17.5 -125.5q0 -59 15.5 -93t39 -53.5t52.5 -31.5t54.5 -28.5t46 -45t28.5 -82.5q41 70 69.5 89.5t63.5 19.5q43 0 74.5 -31.5t53.5 -77t32 -94.5t10 -82q0 -37 -9 -82t-28 -92q18 -29 30.5 -61.5t12.5 -69.5q0 -45 -14.5 -92t-41 -85t-65.5 -62.5 t-90 -24.5q-37 0 -63.5 21.5t-26.5 58.5q0 25 19.5 44t44.5 19q12 0 18 -2v-10zM459 717l8 10q10 0 26.5 5t32 16.5t26.5 27t11 33.5q0 8 -2 14q-29 -10 -55.5 -14t-54.5 -4q-20 0 -53 4t-65 15.5t-54.5 29.5t-22.5 47q0 18 13.5 31.5t31.5 22t38.5 11.5t35.5 3 q23 0 52.5 -8.5t58 -22.5t53 -34.5t36.5 -43.5q41 18 72 51t31 80q0 51 -25 82q-72 -47 -159 -47q-66 0 -122.5 23.5t-98.5 68.5t-65.5 110.5t-23.5 147.5q0 25 8.5 55.5t22.5 67.5q-41 27 -58.5 70t-17.5 94t17.5 103.5t48.5 94.5t72.5 68.5t91.5 26.5q16 0 37 -4v-15 q-6 2 -14 2h-13q-47 0 -87 -24.5t-69.5 -63.5t-47 -88t-17.5 -96q0 -45 16 -83t51 -60q35 80 94.5 171t126 167.5t133 128t117.5 51.5q29 0 47.5 -15.5t27.5 -38t12 -49t3 -51.5q0 -63 -29.5 -124.5t-77.5 -115t-107.5 -94.5t-120.5 -63q0 -2 -1 -3t-1 -5l-22 -83 q-11 -44 -20.5 -89t-15.5 -86t-6 -74q0 -37 15.5 -57.5t34 -31.5t34.5 -14.5t20 -3.5q74 0 142 52q-23 16 -48.5 21t-50.5 5q-23 0 -49 -6t-30 -10v10q12 10 36.5 17.5t36.5 7.5q66 0 119 -33q53 47 86 116.5t33 141.5q0 20 -3 43t-11.5 41t-24.5 30.5t-41 12.5 q-41 0 -72.5 -19.5t-54 -50t-35 -68.5t-12.5 -75q0 -10 2 -24.5t8 -28t15.5 -22.5t25.5 -9q23 0 40 15.5t28.5 38t16.5 48t5 45.5q0 6 -2 15.5l-4 19.5h17q4 -10 5 -20t1 -15q0 -25 -8.5 -53t-22.5 -54t-33.5 -42t-42.5 -16t-35 10t-20 26.5t-10 36t-2 35.5q0 35 13 75 t36.5 73.5t57.5 55t77 21.5q61 0 96 -54t35 -126t-37 -137.5t-100 -110.5q35 -35 35 -96q0 -59 -36 -97t-87 -61q2 -4 2 -12q0 -43 -38 -71.5t-77 -28.5h-12zM3371 1288q-4 -16 -15.5 -56t-33 -81t-52 -74t-73.5 -33q-45 0 -87 33t-56 107q-47 -92 -80 -118t-68 -26 q-43 0 -73.5 31t-50 76t-29 95t-9.5 87q0 49 31 113.5t77 122t98 97.5t95 40q45 0 68 -55l22.5 110l19.5 96l15 71q6 28 8 34q16 -10 35 -16.5t39 -6.5q33 0 54.5 15.5t44.5 29.5q-4 -27 -18 -95l-31 -159l-36 -189l-35 -187t-26 -152.5t-10 -85.5q0 -14 4 -25.5t16 -11.5 q20 0 41 23.5t38.5 57.5t31.5 71t20 61h25zM2716 1194q-6 -27 -16.5 -53.5t-26 -48t-37 -36t-51.5 -14.5q-47 0 -84 33t-52 105q-25 -45 -44 -72t-35.5 -42t-33 -20.5t-34.5 -5.5q-43 0 -73.5 31t-50 76t-29 95t-9.5 87q0 49 31 113.5t77 122t98 97.5t95 40q49 0 74 -66 l14 58q16 -8 35 -15.5t41 -7.5q29 0 51 16l43 29q-4 -27 -14 -76l-23 -109l-24 -126l-23 -124q-10 -58 -17 -103t-7 -66q0 -37 18 -37q27 0 47.5 37t36.5 82h23zM3985 1194q-6 -27 -16 -53.5t-25.5 -48t-37 -36t-52.5 -14.5q-47 0 -83.5 33t-51.5 105q-25 -45 -43 -72 t-35.5 -42t-33 -20.5t-33.5 -5.5q-43 0 -74 31t-51.5 76t-29.5 95t-9 87q0 49 30.5 113.5t77 122t99.5 97.5t96 40q47 0 72 -66l16 58q16 -8 33.5 -15.5t40.5 -7.5q31 0 52 16l42 29q-4 -27 -14 -76l-23 -109l-24 -126l-23 -124l-17.5 -103t-7.5 -66q0 -37 19 -37 q29 0 48 37t36 82h22zM1432 1194q-6 -27 -16.5 -53.5t-26 -48t-37 -36t-52.5 -14.5q-45 0 -82.5 33t-52.5 105q-23 -45 -42 -72t-36.5 -42t-34 -20.5t-34.5 -5.5q-43 0 -73 31t-49 76t-28.5 95t-9.5 87q0 49 31 113.5t77 122t99 97.5t96 40q45 0 70 -66l14 58 q16 -8 34.5 -15.5t41.5 -7.5q33 0 53.5 15.5t42.5 29.5q-4 -27 -14 -76l-23 -109l-25 -126l-23.5 -124t-17.5 -103t-7 -66q0 -37 20 -37q29 0 48.5 37t35.5 82h21zM932 -227q-18 0 -46 6t-53.5 18.5t-44 32.5t-18.5 49q0 35 22.5 48.5t53.5 13.5q25 0 50.5 -9.5t45 -26 t31.5 -37t12 -44.5q0 -10 -4 -23q31 6 61.5 21.5t55 39t40 55.5t15.5 75q0 25 -2 41t-10 43h8q4 -8 10 -34t6 -50q0 -84 -58 -142.5t-136 -72.5q-23 -41 -72 -59.5t-90 -18.5q-33 0 -71 7t-70.5 24.5t-55 44t-22.5 63.5q0 31 19.5 55.5t56.5 24.5h14q8 0 18 -4 q-96 86 -189 124t-220 38q-51 0 -108.5 -6.5t-135.5 -16.5q70 25 119 39t90 29q51 18 98 52t83 74t57.5 83t21.5 84q0 100 -66.5 151t-158.5 51q-31 0 -66 -3t-65.5 -15t-51 -34.5t-20.5 -61.5q0 -37 40 -57.5t81 -20.5q43 0 79 24.5t70 53.5v-21q-23 -31 -63.5 -60.5 t-85.5 -29.5q-55 0 -99.5 30t-44.5 81q0 43 20.5 69.5t52.5 42t70 20.5t70 5q127 0 195 -64.5t68 -171.5q0 -47 -26 -92t-59.5 -83t-67.5 -64l-50 -39l41 -10q55 -12 102 -27.5t89 -40t82 -61.5t79 -90h-4v-5l-26 8q-11 3 -21 3q-41 0 -56.5 -20.5t-15.5 -43.5 q0 -35 22.5 -58.5t54.5 -37.5t66.5 -21.5t59.5 -7.5q39 0 76 16.5t57 43.5h-10zM1427 -86q-10 2 -18 2h-16q-43 0 -69 -23.5t-26 -66.5q0 -31 14.5 -54.5t37 -40t51.5 -24.5t59 -8q27 0 56.5 9t55 27.5t42 44t16.5 58.5q0 47 -21.5 104.5t-33.5 100.5q-37 -12 -67.5 -35.5 t-47.5 -60.5q43 -16 63.5 -49t20.5 -54q0 -16 -13 -35.5t-44 -19.5q-29 0 -46.5 27.5t-17.5 56.5v21q0 10 4 20zM2445 1274q4 51 18.5 129t30.5 149q0 74 -12 100.5t-28 26.5q-23 0 -35.5 -17t-20.5 -41t-12 -49.5t-6 -39.5q-4 -25 -16 -85l-23 -129q-12 -69 -21.5 -132.5 t-9.5 -89.5q0 -8 2 -16.5t15 -8.5q31 0 61 46t57 157zM3715 1274q4 51 18.5 129t30.5 149q0 74 -12 100.5t-29 26.5q-20 0 -33.5 -17t-20.5 -41t-12 -49.5t-7 -39.5q-4 -25 -16 -85l-23 -129q-12 -69 -21.5 -132.5t-9.5 -89.5q0 -8 2 -16.5t16 -8.5q31 0 60.5 46t56.5 157z M1161 1274q4 51 19.5 129t31.5 149q0 74 -12 100.5t-29 26.5q-16 0 -28.5 -17t-21.5 -42t-15 -49.5t-8 -38.5q-6 -25 -17.5 -85.5t-22.5 -129l-20.5 -132t-9.5 -89.5q0 -8 2 -16.5t14 -8.5q29 0 59.5 46t57.5 157zM3099 1575q-4 61 -15.5 82.5t-25.5 21.5q-23 0 -35 -17 t-20.5 -41t-12.5 -49.5t-8 -39.5q-4 -25 -15 -85l-24 -129q-12 -69 -21.5 -132.5t-9.5 -89.5q0 -8 2 -16.5t17 -8.5q29 0 49 24.5t38.5 83t37 155t43.5 241.5zM588 1876q0 -4 -16 -44l-36 -95l-43 -116l-36 -103q57 25 107 70.5t88 105t60.5 127t22.5 135.5q0 23 -7 39 t-32 16q-27 0 -48 -26.5t-60 -108.5zM3365 1094q-6 -49 -27.5 -86t-52.5 -61.5t-65.5 -39t-69.5 -20.5q0 -29 -16.5 -56.5t-44 -49t-63.5 -34t-77 -12.5q-29 0 -60.5 6.5t-58 22.5t-44 43t-17.5 67q0 20 9 42t25.5 40.5t38 30.5t46.5 12v-8q-35 -6 -66 -33.5t-31 -66.5 q0 -37 14.5 -59.5t37 -36t51 -17.5t59.5 -4q29 0 59.5 5t57.5 17.5t44 34t19 56.5q-6 -2 -16 -2q-51 0 -87 21.5t-36 56.5q0 18 17.5 31.5t33.5 13.5q35 0 64 -29t39 -64q70 8 132 57.5t81 121.5h4zM2726 307q43 6 78 42t57.5 83t34.5 96.5t12 83.5q0 49 -22 50 q-29 0 -52.5 -33t-44 -84t-36 -114t-27.5 -124zM2679 989q-8 -39 -33 -72.5t-60.5 -59.5t-80.5 -41t-92 -15h-25q-18 -20 -47 -28.5t-62 -8.5q-66 0 -128 29.5t-95 91.5l2 2q41 -45 92.5 -79t122.5 -34q59 0 97 31q-35 6 -84.5 20.5t-95.5 42t-77.5 69.5t-31.5 101 q0 16 4 39t18 39l11 -10q-4 -16 -8.5 -30.5t-4.5 -31.5q0 -53 30 -91t75 -62.5t95 -37.5t93 -17q8 16 8 38q0 53 -42 88t-99 35q-23 0 -45.5 -5t-44.5 -17l-8 2q18 20 43.5 27.5t50.5 7.5q29 0 57.5 -9.5t51 -28t37 -43t14.5 -54.5q0 -23 -7 -41h9q37 0 75.5 9t71.5 28.5 t57.5 51t32.5 74.5zM2785 51q27 0 59.5 22.5t61.5 56.5t48.5 73t19.5 73q0 12 -3 22.5t-18 10.5q-35 0 -64.5 -26.5t-53 -64.5t-37 -82t-13.5 -79v-6zM553 852q-25 43 -80 71.5t-98 28.5q-10 0 -25.5 -2t-30 -7t-24.5 -15t-10 -27q0 -23 16 -36t38.5 -21t49.5 -10.5t47 -2.5 q29 0 58.5 5.5t58.5 15.5zM1772 715v6q-6 33 -18.5 54.5t-29 33.5t-32 17t-27.5 5q-20 0 -41 -10l-47 -22q-27 -12 -59.5 -22.5t-77.5 -10.5q-41 0 -58.5 17.5t-17.5 39.5q0 20 10 33.5t25.5 22t32 12.5t30.5 4l131 -14q23 0 47.5 11t24.5 40q0 35 -26.5 51t-57.5 16 q-23 0 -44 -9t-21 -29q0 -16 10 -23.5t26 -7.5q23 0 47 14l5 -16q-10 -4 -22.5 -8.5t-27.5 -4.5q-23 0 -39 10.5t-16 32.5q0 27 30 41.5t54 14.5q41 0 69.5 -20.5t28.5 -57.5q0 -39 -30.5 -53.5t-55.5 -14.5l-133 15q-23 0 -54.5 -12.5t-31.5 -47.5q0 -23 21.5 -32t38.5 -9 q27 0 55.5 11.5t57 26t54 25.5t46.5 11q59 0 97 -41t38 -102zM2269 295q-25 -2 -45 -17.5t-34.5 -39t-22.5 -52t-8 -55.5q0 -20 10 -49t43 -29q14 0 23.5 28t15.5 65.5t10 78.5t8 70zM965 -172q0 20 -10.5 37.5t-27 31t-36 20.5t-37.5 7q-27 0 -44 -14t-17 -43 q0 -20 13 -34.5t33.5 -23t43 -12.5t39.5 -4q23 0 33 6t10 29zM856 530q35 23 64.5 64t29.5 80q0 16 -6 30.5t-26 14.5q-23 0 -37.5 -13.5t-21.5 -34t-10 -42t-3 -35.5q0 -18 2 -35t8 -29zM3131 915q-6 29 -26.5 51.5t-50.5 22.5q-14 0 -24.5 -5t-10.5 -23q0 -29 31.5 -37.5 t72.5 -8.5h8zM1450 -92q-2 -8 -2 -16v-13q0 -23 9 -45t26 -22q20 0 26.5 8t6.5 18q0 25 -19.5 42.5t-46.5 27.5z" />
<glyph unicode="&#x3bc;" horiz-adv-x="4085" d="M1759 -193q31 25 51.5 56t20.5 71q0 31 -13.5 69t-68.5 50q4 -27 8 -61.5t4 -87.5q0 -59 -27.5 -101.5t-70.5 -70t-96.5 -39.5t-102.5 -12q-35 0 -68.5 10t-60 29.5t-44 48t-17.5 65.5t15.5 60.5t37 37t43 18.5t35.5 5q27 0 37 -2q16 35 49 64.5t80 50.5v6q-6 16 -7 35.5 t-1 31.5q-23 -49 -62 -82.5t-96 -33.5q-55 0 -91 58t-36 144q0 43 15.5 92.5t35 97.5t34.5 92t15 77q0 37 -6 51t-18 14q-18 0 -34.5 -11t-29 -25.5t-20.5 -29t-10 -20.5q0 -55 -29 -92t-70 -59q0 -207 -85 -306.5t-245 -99.5q-43 0 -83.5 10.5t-73.5 32t-52.5 57 t-19.5 87.5q0 29 9.5 56.5t24.5 50t37.5 36.5t51.5 14q41 0 56.5 -27.5t15.5 -56.5q0 -55 -30 -104t-87 -49q-10 0 -22.5 5t-24.5 9q10 -35 38.5 -58.5t57.5 -23.5q49 0 84 34t59.5 87t43 117.5t32.5 128.5q-66 29 -100 90q-27 -10 -41 -10q-84 0 -122 43t-38 125 q0 61 23.5 121.5t65.5 106.5t99.5 74.5t122.5 28.5q68 0 111 -11t72.5 -24.5l52.5 -24.5t49 -11q10 0 22.5 1t22.5 3v-11q-76 -18 -146.5 -68t-115.5 -112q-8 53 -46 86t-97 33q-43 0 -81 -19.5t-67.5 -51t-47 -71.5t-17.5 -83q0 -119 131 -119q8 0 18 2t21 6q-14 31 -15 80 q0 61 32 99t61 38q25 0 37 -17.5t12 -39.5q0 -47 -32 -93t-73 -71q14 -29 38 -48.5t52 -31.5q18 78 47 155t86 146q10 12 32 32.5t49.5 42t58 39t59.5 21.5v-16q-41 -18 -66.5 -53t-41 -78t-20.5 -90t-5 -90q0 -49 6 -107q41 20 65.5 53t24.5 78q0 31 -8 60.5t-25 46.5v4 q16 -10 27.5 -36t15.5 -50q14 29 49 60.5t91 31.5q35 0 60.5 -17.5t42 -47t24.5 -68.5t8 -80q0 -29 -15.5 -72t-35 -92t-34.5 -99t-15 -91q0 -47 26 -47q43 0 75 68.5t56.5 164.5t43 199.5t36.5 175.5q16 -8 34.5 -15.5t39.5 -7.5q33 0 54.5 15.5t43.5 29.5 q-12 -57 -30.5 -134t-35 -156.5t-27.5 -155.5t-7 -129l2 -39q47 -10 75.5 -47t28.5 -96q0 -43 -19.5 -78t-47.5 -58h-21zM3641 178l21 -115l-199 160q-35 -78 -81 -149.5t-103 -130.5q55 -18 119 -19q86 0 132 30t74 87h9q-6 -35 -26.5 -61.5t-49.5 -45t-62.5 -28.5 t-66.5 -10q-76 0 -150 28q-78 -78 -161.5 -124t-161.5 -46q-72 0 -119 61.5t-47 211.5q-4 -2 -16 -2q-41 0 -80 19t-70 57t-49.5 96.5t-18.5 138.5q0 45 31 104.5t82 113.5t116.5 92t133.5 38q43 0 78 -34t35 -115q0 -53 -28 -96.5t-71 -76t-94 -53t-96 -24.5 q-14 -78 -20.5 -132.5t-6.5 -56.5q0 -25 16.5 -37t41.5 -12q10 0 16 2v2q0 39 14.5 87t39 90t59 71t77.5 29q23 0 31 -18.5t8 -39.5q0 -37 -18.5 -76.5t-49 -75.5t-68.5 -60.5t-75 -28.5q0 -133 46 -190.5t116 -57.5q63 0 137 42t144 111q-78 37 -129.5 107t-51.5 168 q0 33 10.5 67.5t30 64.5t47 51.5t64.5 29.5v-10q-70 -20 -102.5 -82t-32.5 -129q0 -84 52 -147.5t130 -98.5q53 59 99.5 133t72.5 158l-258 78l113 45l-150 307l121 -37l-27 180l117 -131l70 100l69 -221l97 305l47 -79l178 104v-201h109l-234 -231l231 65l-36 -120l174 -19 l-168 -80l90 -71zM2261 -39q-20 0 -41.5 -13.5t-21.5 -37.5q0 -29 19 -45.5t44 -16.5q45 0 82 26t63.5 63.5t41 83t14.5 83.5q0 53 -31 101q-33 -70 -82 -125t-117 -55q-51 0 -69.5 37.5t-18.5 80.5t13.5 75t34 53.5t42 32.5t37.5 15l12.5 88.5t10.5 91.5l7 80q3 36 3 54 q0 4 -6 13t-21 9q-10 0 -26.5 -10t-31.5 -31.5t-26.5 -55.5t-11.5 -81q0 -23 -10 -86l-25 -145q-14 -82 -32 -173l-35 -168l-29 -131l-14 -63q-16 10 -33.5 16.5t-40.5 6.5q-31 0 -52 -16l-42 -29q4 27 18 100l33 170l38 204l36 202l27 162q11 69 12 89q0 51 -16.5 79 t-42.5 49l-54 44q-29 23 -54.5 62t-42 103.5t-16.5 168.5q0 59 16.5 123t36 127.5t36 127t16.5 124.5q0 23 -4 36t-17 13q-23 0 -64.5 -47t-72.5 -125q-4 -33 -16.5 -104.5l-26.5 -147t-27.5 -137t-15.5 -74.5q-16 10 -33.5 17.5t-40.5 7.5q-31 0 -49 -6t-39 -21 q6 41 22.5 127t32.5 180l27 176q12 81 12 111q0 16 -4 27.5t-16 11.5q-27 0 -47.5 -38t-36.5 -81h-22q8 27 19 52.5t27.5 47t40 35t58.5 13.5q63 0 93 -37t40 -90q14 18 28.5 40.5t33 43t41 34t53.5 13.5q35 0 61.5 -23.5t44 -60.5t26.5 -83t9 -93q0 -82 -17.5 -151.5 t-39 -132t-39 -124t-17.5 -125.5q0 -59 15.5 -93t39 -53.5t52.5 -31.5t54.5 -28.5t46 -45t28.5 -82.5q41 70 69.5 89.5t63.5 19.5q43 0 74.5 -31.5t53.5 -77t32 -94.5t10 -82q0 -37 -9 -82t-28 -92q18 -29 30.5 -61.5t12.5 -69.5q0 -45 -14.5 -92t-41 -85t-65.5 -62.5 t-90 -24.5q-37 0 -63.5 21.5t-26.5 58.5q0 25 19.5 44t44.5 19q12 0 18 -2v-10zM459 717l8 10q10 0 26.5 5t32 16.5t26.5 27t11 33.5q0 8 -2 14q-29 -10 -55.5 -14t-54.5 -4q-20 0 -53 4t-65 15.5t-54.5 29.5t-22.5 47q0 18 13.5 31.5t31.5 22t38.5 11.5t35.5 3 q23 0 52.5 -8.5t58 -22.5t53 -34.5t36.5 -43.5q41 18 72 51t31 80q0 51 -25 82q-72 -47 -159 -47q-66 0 -122.5 23.5t-98.5 68.5t-65.5 110.5t-23.5 147.5q0 25 8.5 55.5t22.5 67.5q-41 27 -58.5 70t-17.5 94t17.5 103.5t48.5 94.5t72.5 68.5t91.5 26.5q16 0 37 -4v-15 q-6 2 -14 2h-13q-47 0 -87 -24.5t-69.5 -63.5t-47 -88t-17.5 -96q0 -45 16 -83t51 -60q35 80 94.5 171t126 167.5t133 128t117.5 51.5q29 0 47.5 -15.5t27.5 -38t12 -49t3 -51.5q0 -63 -29.5 -124.5t-77.5 -115t-107.5 -94.5t-120.5 -63q0 -2 -1 -3t-1 -5l-22 -83 q-11 -44 -20.5 -89t-15.5 -86t-6 -74q0 -37 15.5 -57.5t34 -31.5t34.5 -14.5t20 -3.5q74 0 142 52q-23 16 -48.5 21t-50.5 5q-23 0 -49 -6t-30 -10v10q12 10 36.5 17.5t36.5 7.5q66 0 119 -33q53 47 86 116.5t33 141.5q0 20 -3 43t-11.5 41t-24.5 30.5t-41 12.5 q-41 0 -72.5 -19.5t-54 -50t-35 -68.5t-12.5 -75q0 -10 2 -24.5t8 -28t15.5 -22.5t25.5 -9q23 0 40 15.5t28.5 38t16.5 48t5 45.5q0 6 -2 15.5l-4 19.5h17q4 -10 5 -20t1 -15q0 -25 -8.5 -53t-22.5 -54t-33.5 -42t-42.5 -16t-35 10t-20 26.5t-10 36t-2 35.5q0 35 13 75 t36.5 73.5t57.5 55t77 21.5q61 0 96 -54t35 -126t-37 -137.5t-100 -110.5q35 -35 35 -96q0 -59 -36 -97t-87 -61q2 -4 2 -12q0 -43 -38 -71.5t-77 -28.5h-12zM3371 1288q-4 -16 -15.5 -56t-33 -81t-52 -74t-73.5 -33q-45 0 -87 33t-56 107q-47 -92 -80 -118t-68 -26 q-43 0 -73.5 31t-50 76t-29 95t-9.5 87q0 49 31 113.5t77 122t98 97.5t95 40q45 0 68 -55l22.5 110l19.5 96l15 71q6 28 8 34q16 -10 35 -16.5t39 -6.5q33 0 54.5 15.5t44.5 29.5q-4 -27 -18 -95l-31 -159l-36 -189l-35 -187t-26 -152.5t-10 -85.5q0 -14 4 -25.5t16 -11.5 q20 0 41 23.5t38.5 57.5t31.5 71t20 61h25zM2716 1194q-6 -27 -16.5 -53.5t-26 -48t-37 -36t-51.5 -14.5q-47 0 -84 33t-52 105q-25 -45 -44 -72t-35.5 -42t-33 -20.5t-34.5 -5.5q-43 0 -73.5 31t-50 76t-29 95t-9.5 87q0 49 31 113.5t77 122t98 97.5t95 40q49 0 74 -66 l14 58q16 -8 35 -15.5t41 -7.5q29 0 51 16l43 29q-4 -27 -14 -76l-23 -109l-24 -126l-23 -124q-10 -58 -17 -103t-7 -66q0 -37 18 -37q27 0 47.5 37t36.5 82h23zM3985 1194q-6 -27 -16 -53.5t-25.5 -48t-37 -36t-52.5 -14.5q-47 0 -83.5 33t-51.5 105q-25 -45 -43 -72 t-35.5 -42t-33 -20.5t-33.5 -5.5q-43 0 -74 31t-51.5 76t-29.5 95t-9 87q0 49 30.5 113.5t77 122t99.5 97.5t96 40q47 0 72 -66l16 58q16 -8 33.5 -15.5t40.5 -7.5q31 0 52 16l42 29q-4 -27 -14 -76l-23 -109l-24 -126l-23 -124l-17.5 -103t-7.5 -66q0 -37 19 -37 q29 0 48 37t36 82h22zM1432 1194q-6 -27 -16.5 -53.5t-26 -48t-37 -36t-52.5 -14.5q-45 0 -82.5 33t-52.5 105q-23 -45 -42 -72t-36.5 -42t-34 -20.5t-34.5 -5.5q-43 0 -73 31t-49 76t-28.5 95t-9.5 87q0 49 31 113.5t77 122t99 97.5t96 40q45 0 70 -66l14 58 q16 -8 34.5 -15.5t41.5 -7.5q33 0 53.5 15.5t42.5 29.5q-4 -27 -14 -76l-23 -109l-25 -126l-23.5 -124t-17.5 -103t-7 -66q0 -37 20 -37q29 0 48.5 37t35.5 82h21zM932 -227q-18 0 -46 6t-53.5 18.5t-44 32.5t-18.5 49q0 35 22.5 48.5t53.5 13.5q25 0 50.5 -9.5t45 -26 t31.5 -37t12 -44.5q0 -10 -4 -23q31 6 61.5 21.5t55 39t40 55.5t15.5 75q0 25 -2 41t-10 43h8q4 -8 10 -34t6 -50q0 -84 -58 -142.5t-136 -72.5q-23 -41 -72 -59.5t-90 -18.5q-33 0 -71 7t-70.5 24.5t-55 44t-22.5 63.5q0 31 19.5 55.5t56.5 24.5h14q8 0 18 -4 q-96 86 -189 124t-220 38q-51 0 -108.5 -6.5t-135.5 -16.5q70 25 119 39t90 29q51 18 98 52t83 74t57.5 83t21.5 84q0 100 -66.5 151t-158.5 51q-31 0 -66 -3t-65.5 -15t-51 -34.5t-20.5 -61.5q0 -37 40 -57.5t81 -20.5q43 0 79 24.5t70 53.5v-21q-23 -31 -63.5 -60.5 t-85.5 -29.5q-55 0 -99.5 30t-44.5 81q0 43 20.5 69.5t52.5 42t70 20.5t70 5q127 0 195 -64.5t68 -171.5q0 -47 -26 -92t-59.5 -83t-67.5 -64l-50 -39l41 -10q55 -12 102 -27.5t89 -40t82 -61.5t79 -90h-4v-5l-26 8q-11 3 -21 3q-41 0 -56.5 -20.5t-15.5 -43.5 q0 -35 22.5 -58.5t54.5 -37.5t66.5 -21.5t59.5 -7.5q39 0 76 16.5t57 43.5h-10zM1427 -86q-10 2 -18 2h-16q-43 0 -69 -23.5t-26 -66.5q0 -31 14.5 -54.5t37 -40t51.5 -24.5t59 -8q27 0 56.5 9t55 27.5t42 44t16.5 58.5q0 47 -21.5 104.5t-33.5 100.5q-37 -12 -67.5 -35.5 t-47.5 -60.5q43 -16 63.5 -49t20.5 -54q0 -16 -13 -35.5t-44 -19.5q-29 0 -46.5 27.5t-17.5 56.5v21q0 10 4 20zM2445 1274q4 51 18.5 129t30.5 149q0 74 -12 100.5t-28 26.5q-23 0 -35.5 -17t-20.5 -41t-12 -49.5t-6 -39.5q-4 -25 -16 -85l-23 -129q-12 -69 -21.5 -132.5 t-9.5 -89.5q0 -8 2 -16.5t15 -8.5q31 0 61 46t57 157zM3715 1274q4 51 18.5 129t30.5 149q0 74 -12 100.5t-29 26.5q-20 0 -33.5 -17t-20.5 -41t-12 -49.5t-7 -39.5q-4 -25 -16 -85l-23 -129q-12 -69 -21.5 -132.5t-9.5 -89.5q0 -8 2 -16.5t16 -8.5q31 0 60.5 46t56.5 157z M1161 1274q4 51 19.5 129t31.5 149q0 74 -12 100.5t-29 26.5q-16 0 -28.5 -17t-21.5 -42t-15 -49.5t-8 -38.5q-6 -25 -17.5 -85.5t-22.5 -129l-20.5 -132t-9.5 -89.5q0 -8 2 -16.5t14 -8.5q29 0 59.5 46t57.5 157zM3099 1575q-4 61 -15.5 82.5t-25.5 21.5q-23 0 -35 -17 t-20.5 -41t-12.5 -49.5t-8 -39.5q-4 -25 -15 -85l-24 -129q-12 -69 -21.5 -132.5t-9.5 -89.5q0 -8 2 -16.5t17 -8.5q29 0 49 24.5t38.5 83t37 155t43.5 241.5zM588 1876q0 -4 -16 -44l-36 -95l-43 -116l-36 -103q57 25 107 70.5t88 105t60.5 127t22.5 135.5q0 23 -7 39 t-32 16q-27 0 -48 -26.5t-60 -108.5zM3365 1094q-6 -49 -27.5 -86t-52.5 -61.5t-65.5 -39t-69.5 -20.5q0 -29 -16.5 -56.5t-44 -49t-63.5 -34t-77 -12.5q-29 0 -60.5 6.5t-58 22.5t-44 43t-17.5 67q0 20 9 42t25.5 40.5t38 30.5t46.5 12v-8q-35 -6 -66 -33.5t-31 -66.5 q0 -37 14.5 -59.5t37 -36t51 -17.5t59.5 -4q29 0 59.5 5t57.5 17.5t44 34t19 56.5q-6 -2 -16 -2q-51 0 -87 21.5t-36 56.5q0 18 17.5 31.5t33.5 13.5q35 0 64 -29t39 -64q70 8 132 57.5t81 121.5h4zM2726 307q43 6 78 42t57.5 83t34.5 96.5t12 83.5q0 49 -22 50 q-29 0 -52.5 -33t-44 -84t-36 -114t-27.5 -124zM2679 989q-8 -39 -33 -72.5t-60.5 -59.5t-80.5 -41t-92 -15h-25q-18 -20 -47 -28.5t-62 -8.5q-66 0 -128 29.5t-95 91.5l2 2q41 -45 92.5 -79t122.5 -34q59 0 97 31q-35 6 -84.5 20.5t-95.5 42t-77.5 69.5t-31.5 101 q0 16 4 39t18 39l11 -10q-4 -16 -8.5 -30.5t-4.5 -31.5q0 -53 30 -91t75 -62.5t95 -37.5t93 -17q8 16 8 38q0 53 -42 88t-99 35q-23 0 -45.5 -5t-44.5 -17l-8 2q18 20 43.5 27.5t50.5 7.5q29 0 57.5 -9.5t51 -28t37 -43t14.5 -54.5q0 -23 -7 -41h9q37 0 75.5 9t71.5 28.5 t57.5 51t32.5 74.5zM2785 51q27 0 59.5 22.5t61.5 56.5t48.5 73t19.5 73q0 12 -3 22.5t-18 10.5q-35 0 -64.5 -26.5t-53 -64.5t-37 -82t-13.5 -79v-6zM553 852q-25 43 -80 71.5t-98 28.5q-10 0 -25.5 -2t-30 -7t-24.5 -15t-10 -27q0 -23 16 -36t38.5 -21t49.5 -10.5t47 -2.5 q29 0 58.5 5.5t58.5 15.5zM1772 715v6q-6 33 -18.5 54.5t-29 33.5t-32 17t-27.5 5q-20 0 -41 -10l-47 -22q-27 -12 -59.5 -22.5t-77.5 -10.5q-41 0 -58.5 17.5t-17.5 39.5q0 20 10 33.5t25.5 22t32 12.5t30.5 4l131 -14q23 0 47.5 11t24.5 40q0 35 -26.5 51t-57.5 16 q-23 0 -44 -9t-21 -29q0 -16 10 -23.5t26 -7.5q23 0 47 14l5 -16q-10 -4 -22.5 -8.5t-27.5 -4.5q-23 0 -39 10.5t-16 32.5q0 27 30 41.5t54 14.5q41 0 69.5 -20.5t28.5 -57.5q0 -39 -30.5 -53.5t-55.5 -14.5l-133 15q-23 0 -54.5 -12.5t-31.5 -47.5q0 -23 21.5 -32t38.5 -9 q27 0 55.5 11.5t57 26t54 25.5t46.5 11q59 0 97 -41t38 -102zM2269 295q-25 -2 -45 -17.5t-34.5 -39t-22.5 -52t-8 -55.5q0 -20 10 -49t43 -29q14 0 23.5 28t15.5 65.5t10 78.5t8 70zM965 -172q0 20 -10.5 37.5t-27 31t-36 20.5t-37.5 7q-27 0 -44 -14t-17 -43 q0 -20 13 -34.5t33.5 -23t43 -12.5t39.5 -4q23 0 33 6t10 29zM856 530q35 23 64.5 64t29.5 80q0 16 -6 30.5t-26 14.5q-23 0 -37.5 -13.5t-21.5 -34t-10 -42t-3 -35.5q0 -18 2 -35t8 -29zM3131 915q-6 29 -26.5 51.5t-50.5 22.5q-14 0 -24.5 -5t-10.5 -23q0 -29 31.5 -37.5 t72.5 -8.5h8zM1450 -92q-2 -8 -2 -16v-13q0 -23 9 -45t26 -22q20 0 26.5 8t6.5 18q0 25 -19.5 42.5t-46.5 27.5z" />
<glyph unicode="&#xb6;" horiz-adv-x="1026" d="M301 -418q190 10 297 78t158 171t62 231t11 257q0 102 -10 205t-10 193t25.5 201.5t105.5 265.5q-31 6 -57 6q-92 0 -158 -46t-108 -123t-61 -174t-19 -198q0 -82 12 -161.5t34.5 -149.5t56.5 -124t75 -85l2 -27q-135 8 -238.5 61.5t-173 133.5t-104.5 179t-35 202 q0 104 37 203.5t111.5 177.5t188 125t267.5 47q111 0 227 -33q-53 -92 -70.5 -194.5t-17.5 -184.5q0 -115 12.5 -239.5t12.5 -241.5q0 -139 -20.5 -276.5t-87 -247t-191.5 -180t-334 -76.5v24z" />
<glyph unicode="&#xb7;" horiz-adv-x="436" d="M260 514q0 33 24.5 63.5t59.5 30.5q25 0 41 -17.5t16 -41.5q0 -33 -25.5 -63.5t-58.5 -30.5q-25 0 -41 17t-16 42z" />
<glyph unicode="&#xb8;" d="M117 -238q27 -10 63.5 -19t85.5 -9q47 0 77 24.5t30 57.5q0 39 -23.5 53t-54.5 14q-29 0 -59 -10l-11 33l62 125h45l-53 -105q10 2 18 3t18 1q47 0 86 -24.5t39 -79.5q0 -57 -45 -94t-123 -37q-53 0 -98 11t-74 26z" />
<glyph unicode="&#xb9;" horiz-adv-x="532" d="M684 1081q-41 -119 -93 -257l-106 -282l-102 -288q-49 -143 -84 -268h-147l368 888q-92 -123 -206.5 -219t-258.5 -168v41q90 39 177 103.5t162 140.5t132.5 157t87.5 154z" />
<glyph unicode="&#xba;" horiz-adv-x="485" d="M403 1104q37 0 64 -16.5t45 -43t26.5 -60.5t8.5 -71q0 -59 -18.5 -114.5t-48 -99.5t-68.5 -70.5t-80 -26.5q-70 0 -121 59.5t-51 151.5q0 55 20.5 108.5t54 93.5t77.5 64.5t91 24.5zM416 1069q-37 0 -70 -36t-57.5 -86t-38.5 -103t-14 -88q0 -53 24.5 -87t63.5 -34 q43 0 77.5 25.5t61 67.5t41 93t14.5 103q0 72 -30.5 108.5t-71.5 36.5zM100 444h375l-10 -49h-375z" />
<glyph unicode="&#xbb;" horiz-adv-x="663" d="M487 532l154 -258l-276 -223l-23 25l215 211l-102 237zM301 553l154 -258l-277 -223l-22 24l215 211l-103 238z" />
<glyph unicode="&#xbc;" horiz-adv-x="1648" d="M1593 643l-162 -381q16 -2 31 -2h29q41 0 77.5 8t65.5 29l-4 -29q-53 -29 -102.5 -40t-96.5 -11h-18l-99 -231h-106l92 243q-55 10 -109.5 21.5t-111.5 11.5q-23 0 -50.5 -5t-58.5 -13q-37 -47 -65.5 -66.5t-44.5 -19.5q-27 0 -27 35q0 23 29.5 47t99.5 49l126 172 q62 86 121.5 180t118 199.5t115.5 232.5l199 8l-633 -784q35 8 64.5 10t52.5 2q37 0 87 -10t105 -20l130 344zM368 -51l578 1177h47l-580 -1177h-45zM684 1081q-41 -119 -93 -257l-106 -282l-102 -288q-49 -143 -84 -268h-147l368 888q-92 -123 -206.5 -219t-258.5 -168v41 q90 39 177 103.5t162 140.5t132.5 157t87.5 154z" />
<glyph unicode="&#xbd;" horiz-adv-x="1574" d="M835 -41q-31 0 -31 29q0 23 13.5 49t23.5 39q51 66 127 136l158 142l164 144q82 72 147.5 141.5t105.5 134t40 121.5q0 80 -37 117t-101 37q-35 0 -72.5 -18.5t-72.5 -44t-65.5 -55.5l-51.5 -52q-51 -53 -81.5 -117t-30.5 -121q0 -47 25.5 -57.5t45.5 -10.5q45 0 83 18.5 t69 47.5t55 63l47 70l13 -8q-23 -37 -51.5 -74t-63.5 -66.5t-75 -48t-85 -18.5q-57 0 -80.5 40t-23.5 93q0 74 31.5 142.5t86 120t128 82t157.5 30.5q104 0 169 -69.5t65 -180.5q0 -74 -42 -133t-103.5 -108.5t-131 -90.5l-125.5 -77l-140 -100q-75 -54 -134 -113 q76 41 140.5 69.5t125.5 28.5q47 0 77 -21.5t30 -76.5q0 -25 -10.5 -49.5t-24 -47t-23.5 -45t-10 -43.5q0 -10 3 -17t13 -7q31 0 61.5 15t60.5 39.5t56.5 55.5t49.5 62l8 -9q-72 -98 -135.5 -137t-108.5 -39q-33 0 -52.5 26t-19.5 58q0 27 8.5 50.5t17.5 46l17.5 45 t8.5 47.5q0 20 -13.5 26t-38.5 6q-31 0 -79 -19t-99 -47t-96 -58.5t-70 -55.5q4 -16 4 -33q0 -33 -12 -68.5t-45 -35.5zM368 -51l578 1177h47l-580 -1177h-45zM684 1081q-41 -119 -93 -257l-106 -282l-102 -288q-49 -143 -84 -268h-147l368 888q-92 -123 -206.5 -219 t-258.5 -168v41q90 39 177 103.5t162 140.5t132.5 157t87.5 154z" />
<glyph unicode="&#xbe;" horiz-adv-x="1886" d="M1831 643l-162 -381q16 -2 31 -2h29q41 0 77.5 8t65.5 29l-4 -29q-53 -29 -102.5 -40t-96.5 -11h-18l-99 -231h-106l92 243q-55 10 -109.5 21.5t-111.5 11.5q-23 0 -50.5 -5t-58.5 -13q-37 -47 -65.5 -66.5t-44.5 -19.5q-27 0 -27 35q0 23 29.5 47t99.5 49l126 172 q62 86 121.5 180t118 199.5t115.5 232.5l199 8l-633 -784q35 8 64.5 10t52.5 2q37 0 87 -10t105 -20l130 344zM606 -51l578 1177h47l-580 -1177h-45zM37 115q0 39 11 69.5t28.5 52t38 34t39.5 12.5q16 0 28.5 -12.5t12.5 -41.5q0 -31 -14.5 -50t-36 -33.5t-46 -23.5 t-45.5 -20q0 -63 35 -88.5t80 -25.5q80 0 163 42t150.5 105.5t110.5 134t43 129.5q0 33 -19.5 69t-54.5 36q-33 0 -57.5 -17.5t-59.5 -17.5q-10 0 -17 6t-7 14q0 25 19.5 32t43.5 7h49q27 0 39 11q84 68 139.5 164t55.5 194q0 137 -131 137q-45 0 -99.5 -34.5t-100.5 -85 t-77.5 -107.5t-31.5 -100q0 -27 8 -42.5t20.5 -22.5t26.5 -9t27 -2q47 0 89 25.5t74.5 59.5t54 66.5t29.5 48.5v-32q-10 -20 -33.5 -52t-58.5 -63t-79 -52.5t-95 -21.5q-55 0 -89 44t-34 100q0 51 35 103t90 95t122 71t132 28q45 0 86 -15.5t73 -43t50 -65.5t18 -83 q0 -59 -27.5 -110.5t-71.5 -92.5t-98 -71.5t-106 -49.5q27 -12 56.5 -29.5t53 -40t39 -50t15.5 -62.5q0 -53 -26.5 -101.5t-70.5 -91.5t-101.5 -77.5t-117 -59t-117.5 -38t-105 -13.5q-74 0 -116 43t-42 115z" />
<glyph unicode="&#xbf;" horiz-adv-x="587" d="M516 465q-14 -72 -49 -127t-78 -102.5t-89 -90.5t-84 -89t-62.5 -99t-24.5 -121q0 -131 98 -131q47 0 89 18.5t73 44t49.5 50t18.5 37.5q-39 0 -68 20.5t-29 67.5q0 35 20.5 51t45.5 16q29 0 52.5 -21.5t23.5 -64.5q0 -45 -23.5 -87t-62.5 -75.5t-90.5 -54t-104.5 -20.5 q-86 0 -138 53t-52 145q0 74 27.5 127.5t71.5 94t97.5 76.5t103.5 77t90 91t60 124zM647 657q0 -33 -24.5 -63.5t-59.5 -30.5q-25 0 -41 17.5t-16 42.5q0 33 24.5 63.5t57.5 30.5q25 0 42 -17.5t17 -42.5z" />
<glyph unicode="&#xc0;" horiz-adv-x="2205" d="M342 207q43 -14 102 -14q74 0 153 23.5t145.5 66.5t108.5 104.5t42 134.5q0 51 -18.5 88t-51 61.5t-75.5 36t-95 11.5q-94 0 -201.5 -37t-199.5 -101.5t-152.5 -155.5t-60.5 -198q0 -59 26.5 -116.5t82 -102.5t142.5 -72.5t208 -27.5q115 0 221 33.5t205.5 94 t192.5 143.5t179 179q-47 68 -71.5 149t-24.5 173q0 66 14.5 126t45 106t82 74t124.5 28q70 0 124.5 -37t95.5 -96l187 287q89 140 172 254t159.5 192t150.5 102q6 0 26.5 -4t20.5 -31q0 -14 -8 -32q-43 -90 -91 -208l-98 -252l-100 -279l-95 -285l-86 -275l-71 -244 q51 0 114 12.5t128.5 43.5t129 84t116.5 139l12 -10q-59 -90 -125.5 -146.5t-132 -89.5t-130 -45t-120.5 -12l-22 -87l-19 -75h-112q6 57 34 170q-123 18 -230 80.5t-181 161.5q-90 -98 -185.5 -182t-199 -145.5t-215 -96.5t-230.5 -35q-82 0 -168 19.5t-156.5 63.5 t-115.5 114.5t-45 171.5q0 127 58.5 230t149.5 176t199.5 113t208.5 40q63 0 120 -17.5t99 -53.5t66.5 -92t24.5 -132q0 -72 -47.5 -134.5t-120 -110.5t-160.5 -75.5t-170 -27.5q-53 0 -98 12zM2343 1673q-68 -29 -139.5 -106.5t-150.5 -189t-166 -248.5l-183 -279 q57 -98 82.5 -219t25.5 -217v-37q55 170 125 362.5t143.5 370.5t144.5 324.5t128 224.5q0 14 -10 14zM1688 823l-159 -226q-81 -112 -171 -216q66 -104 163 -173t214 -91l21 77q11 40 26 85q4 31 6 61.5t2 62.5q0 113 -24.5 224.5t-77.5 195.5zM1339 410q88 104 169 216 l159 228q-41 55 -96 88t-127 33q-55 0 -91 -21.5t-56.5 -57.5t-28.5 -81t-8 -94q0 -86 21 -164.5t58 -146.5zM2372 1800q-33 10 -71 31.5t-75 50.5t-65.5 64.5t-42.5 74.5l71 50q16 -66 71.5 -132.5t135.5 -117.5z" />
<glyph unicode="&#xc1;" horiz-adv-x="2205" d="M342 207q43 -14 102 -14q74 0 153 23.5t145.5 66.5t108.5 104.5t42 134.5q0 51 -18.5 88t-51 61.5t-75.5 36t-95 11.5q-94 0 -201.5 -37t-199.5 -101.5t-152.5 -155.5t-60.5 -198q0 -59 26.5 -116.5t82 -102.5t142.5 -72.5t208 -27.5q115 0 221 33.5t205.5 94 t192.5 143.5t179 179q-47 68 -71.5 149t-24.5 173q0 66 14.5 126t45 106t82 74t124.5 28q70 0 124.5 -37t95.5 -96l187 287q89 140 172 254t159.5 192t150.5 102q6 0 26.5 -4t20.5 -31q0 -14 -8 -32q-43 -90 -91 -208l-98 -252l-100 -279l-95 -285l-86 -275l-71 -244 q51 0 114 12.5t128.5 43.5t129 84t116.5 139l12 -10q-59 -90 -125.5 -146.5t-132 -89.5t-130 -45t-120.5 -12l-22 -87l-19 -75h-112q6 57 34 170q-123 18 -230 80.5t-181 161.5q-90 -98 -185.5 -182t-199 -145.5t-215 -96.5t-230.5 -35q-82 0 -168 19.5t-156.5 63.5 t-115.5 114.5t-45 171.5q0 127 58.5 230t149.5 176t199.5 113t208.5 40q63 0 120 -17.5t99 -53.5t66.5 -92t24.5 -132q0 -72 -47.5 -134.5t-120 -110.5t-160.5 -75.5t-170 -27.5q-53 0 -98 12zM2343 1673q-68 -29 -139.5 -106.5t-150.5 -189t-166 -248.5l-183 -279 q57 -98 82.5 -219t25.5 -217v-37q55 170 125 362.5t143.5 370.5t144.5 324.5t128 224.5q0 14 -10 14zM1688 823l-159 -226q-81 -112 -171 -216q66 -104 163 -173t214 -91l21 77q11 40 26 85q4 31 6 61.5t2 62.5q0 113 -24.5 224.5t-77.5 195.5zM1339 410q88 104 169 216 l159 228q-41 55 -96 88t-127 33q-55 0 -91 -21.5t-56.5 -57.5t-28.5 -81t-8 -94q0 -86 21 -164.5t58 -146.5zM2255 1821q80 51 135 117.5t72 132.5l71 -50q-14 -39 -42.5 -74.5t-65.5 -64.5t-75 -50.5t-71 -31.5z" />
<glyph unicode="&#xc2;" horiz-adv-x="2205" d="M342 207q43 -14 102 -14q74 0 153 23.5t145.5 66.5t108.5 104.5t42 134.5q0 51 -18.5 88t-51 61.5t-75.5 36t-95 11.5q-94 0 -201.5 -37t-199.5 -101.5t-152.5 -155.5t-60.5 -198q0 -59 26.5 -116.5t82 -102.5t142.5 -72.5t208 -27.5q115 0 221 33.5t205.5 94 t192.5 143.5t179 179q-47 68 -71.5 149t-24.5 173q0 66 14.5 126t45 106t82 74t124.5 28q70 0 124.5 -37t95.5 -96l187 287q89 140 172 254t159.5 192t150.5 102q6 0 26.5 -4t20.5 -31q0 -14 -8 -32q-43 -90 -91 -208l-98 -252l-100 -279l-95 -285l-86 -275l-71 -244 q51 0 114 12.5t128.5 43.5t129 84t116.5 139l12 -10q-59 -90 -125.5 -146.5t-132 -89.5t-130 -45t-120.5 -12l-22 -87l-19 -75h-112q6 57 34 170q-123 18 -230 80.5t-181 161.5q-90 -98 -185.5 -182t-199 -145.5t-215 -96.5t-230.5 -35q-82 0 -168 19.5t-156.5 63.5 t-115.5 114.5t-45 171.5q0 127 58.5 230t149.5 176t199.5 113t208.5 40q63 0 120 -17.5t99 -53.5t66.5 -92t24.5 -132q0 -72 -47.5 -134.5t-120 -110.5t-160.5 -75.5t-170 -27.5q-53 0 -98 12zM2343 1673q-68 -29 -139.5 -106.5t-150.5 -189t-166 -248.5l-183 -279 q57 -98 82.5 -219t25.5 -217v-37q55 170 125 362.5t143.5 370.5t144.5 324.5t128 224.5q0 14 -10 14zM1688 823l-159 -226q-81 -112 -171 -216q66 -104 163 -173t214 -91l21 77q11 40 26 85q4 31 6 61.5t2 62.5q0 113 -24.5 224.5t-77.5 195.5zM1339 410q88 104 169 216 l159 228q-41 55 -96 88t-127 33q-55 0 -91 -21.5t-56.5 -57.5t-28.5 -81t-8 -94q0 -86 21 -164.5t58 -146.5zM2386 2042l111 -213l-39 -19l-88 144l-228 -154l-31 31l265 211h10z" />
<glyph unicode="&#xc3;" horiz-adv-x="2205" d="M342 207q43 -14 102 -14q74 0 153 23.5t145.5 66.5t108.5 104.5t42 134.5q0 51 -18.5 88t-51 61.5t-75.5 36t-95 11.5q-94 0 -201.5 -37t-199.5 -101.5t-152.5 -155.5t-60.5 -198q0 -59 26.5 -116.5t82 -102.5t142.5 -72.5t208 -27.5q115 0 221 33.5t205.5 94 t192.5 143.5t179 179q-47 68 -71.5 149t-24.5 173q0 66 14.5 126t45 106t82 74t124.5 28q70 0 124.5 -37t95.5 -96l187 287q89 140 172 254t159.5 192t150.5 102q6 0 26.5 -4t20.5 -31q0 -14 -8 -32q-43 -90 -91 -208l-98 -252l-100 -279l-95 -285l-86 -275l-71 -244 q51 0 114 12.5t128.5 43.5t129 84t116.5 139l12 -10q-59 -90 -125.5 -146.5t-132 -89.5t-130 -45t-120.5 -12l-22 -87l-19 -75h-112q6 57 34 170q-123 18 -230 80.5t-181 161.5q-90 -98 -185.5 -182t-199 -145.5t-215 -96.5t-230.5 -35q-82 0 -168 19.5t-156.5 63.5 t-115.5 114.5t-45 171.5q0 127 58.5 230t149.5 176t199.5 113t208.5 40q63 0 120 -17.5t99 -53.5t66.5 -92t24.5 -132q0 -72 -47.5 -134.5t-120 -110.5t-160.5 -75.5t-170 -27.5q-53 0 -98 12zM2343 1673q-68 -29 -139.5 -106.5t-150.5 -189t-166 -248.5l-183 -279 q57 -98 82.5 -219t25.5 -217v-37q55 170 125 362.5t143.5 370.5t144.5 324.5t128 224.5q0 14 -10 14zM1688 823l-159 -226q-81 -112 -171 -216q66 -104 163 -173t214 -91l21 77q11 40 26 85q4 31 6 61.5t2 62.5q0 113 -24.5 224.5t-77.5 195.5zM1339 410q88 104 169 216 l159 228q-41 55 -96 88t-127 33q-55 0 -91 -21.5t-56.5 -57.5t-28.5 -81t-8 -94q0 -86 21 -164.5t58 -146.5zM2107 1831q10 35 46 66.5t85 31.5q25 0 50.5 -9t51 -21.5t50.5 -21.5t47 -9q35 0 52 24l30 41l33 -16q-10 -35 -44 -70t-87 -35q-25 0 -50.5 9.5t-51 20.5 t-50 20.5t-47.5 9.5q-33 0 -50 -22l-30 -38z" />
<glyph unicode="&#xc4;" horiz-adv-x="2205" d="M342 207q43 -14 102 -14q74 0 153 23.5t145.5 66.5t108.5 104.5t42 134.5q0 51 -18.5 88t-51 61.5t-75.5 36t-95 11.5q-94 0 -201.5 -37t-199.5 -101.5t-152.5 -155.5t-60.5 -198q0 -59 26.5 -116.5t82 -102.5t142.5 -72.5t208 -27.5q115 0 221 33.5t205.5 94 t192.5 143.5t179 179q-47 68 -71.5 149t-24.5 173q0 66 14.5 126t45 106t82 74t124.5 28q70 0 124.5 -37t95.5 -96l187 287q89 140 172 254t159.5 192t150.5 102q6 0 26.5 -4t20.5 -31q0 -14 -8 -32q-43 -90 -91 -208l-98 -252l-100 -279l-95 -285l-86 -275l-71 -244 q51 0 114 12.5t128.5 43.5t129 84t116.5 139l12 -10q-59 -90 -125.5 -146.5t-132 -89.5t-130 -45t-120.5 -12l-22 -87l-19 -75h-112q6 57 34 170q-123 18 -230 80.5t-181 161.5q-90 -98 -185.5 -182t-199 -145.5t-215 -96.5t-230.5 -35q-82 0 -168 19.5t-156.5 63.5 t-115.5 114.5t-45 171.5q0 127 58.5 230t149.5 176t199.5 113t208.5 40q63 0 120 -17.5t99 -53.5t66.5 -92t24.5 -132q0 -72 -47.5 -134.5t-120 -110.5t-160.5 -75.5t-170 -27.5q-53 0 -98 12zM2343 1673q-68 -29 -139.5 -106.5t-150.5 -189t-166 -248.5l-183 -279 q57 -98 82.5 -219t25.5 -217v-37q55 170 125 362.5t143.5 370.5t144.5 324.5t128 224.5q0 14 -10 14zM1688 823l-159 -226q-81 -112 -171 -216q66 -104 163 -173t214 -91l21 77q11 40 26 85q4 31 6 61.5t2 62.5q0 113 -24.5 224.5t-77.5 195.5zM1339 410q88 104 169 216 l159 228q-41 55 -96 88t-127 33q-55 0 -91 -21.5t-56.5 -57.5t-28.5 -81t-8 -94q0 -86 21 -164.5t58 -146.5zM2437 1862q0 33 24.5 63.5t59.5 30.5q25 0 41 -17.5t16 -42.5q0 -33 -24.5 -63.5t-56.5 -30.5q-25 0 -42.5 17.5t-17.5 42.5zM2191 1862q0 33 25 63.5t59 30.5 q25 0 41.5 -17.5t16.5 -42.5q0 -33 -26 -63.5t-58 -30.5q-25 0 -41.5 17.5t-16.5 42.5z" />
<glyph unicode="&#xc5;" horiz-adv-x="2205" d="M342 207q43 -14 102 -14q74 0 153 23.5t145.5 66.5t108.5 104.5t42 134.5q0 51 -18.5 88t-51 61.5t-75.5 36t-95 11.5q-94 0 -201.5 -37t-199.5 -101.5t-152.5 -155.5t-60.5 -198q0 -59 26.5 -116.5t82 -102.5t142.5 -72.5t208 -27.5q115 0 221 33.5t205.5 94 t192.5 143.5t179 179q-47 68 -71.5 149t-24.5 173q0 66 14.5 126t45 106t82 74t124.5 28q70 0 124.5 -37t95.5 -96l187 287q89 140 172 254t159.5 192t150.5 102q6 0 26.5 -4t20.5 -31q0 -14 -8 -32q-43 -90 -91 -208l-98 -252l-100 -279l-95 -285l-86 -275l-71 -244 q51 0 114 12.5t128.5 43.5t129 84t116.5 139l12 -10q-59 -90 -125.5 -146.5t-132 -89.5t-130 -45t-120.5 -12l-22 -87l-19 -75h-112q6 57 34 170q-123 18 -230 80.5t-181 161.5q-90 -98 -185.5 -182t-199 -145.5t-215 -96.5t-230.5 -35q-82 0 -168 19.5t-156.5 63.5 t-115.5 114.5t-45 171.5q0 127 58.5 230t149.5 176t199.5 113t208.5 40q63 0 120 -17.5t99 -53.5t66.5 -92t24.5 -132q0 -72 -47.5 -134.5t-120 -110.5t-160.5 -75.5t-170 -27.5q-53 0 -98 12zM2343 1673q-68 -29 -139.5 -106.5t-150.5 -189t-166 -248.5l-183 -279 q57 -98 82.5 -219t25.5 -217v-37q55 170 125 362.5t143.5 370.5t144.5 324.5t128 224.5q0 14 -10 14zM1688 823l-159 -226q-81 -112 -171 -216q66 -104 163 -173t214 -91l21 77q11 40 26 85q4 31 6 61.5t2 62.5q0 113 -24.5 224.5t-77.5 195.5zM1339 410q88 104 169 216 l159 228q-41 55 -96 88t-127 33q-55 0 -91 -21.5t-56.5 -57.5t-28.5 -81t-8 -94q0 -86 21 -164.5t58 -146.5zM2198 1927q0 59 40.5 99t98.5 40q59 0 99 -39.5t40 -99.5q0 -57 -40 -98t-99 -41q-57 0 -98 41t-41 98zM2245 1927q0 -41 25.5 -68.5t66.5 -27.5t69.5 27.5 t28.5 68.5t-28.5 68.5t-69.5 27.5t-66.5 -27.5t-25.5 -68.5z" />
<glyph unicode="&#xc6;" horiz-adv-x="2869" d="M2126 102q8 135 47 247t102.5 194t151.5 127t194 45q55 0 97.5 -17.5t70 -48.5t42 -71.5t14.5 -85.5q0 -100 -47.5 -202t-129 -183.5t-192.5 -133t-238 -51.5q-123 0 -222 60.5t-150 171.5q-41 -135 -62 -234h-112q4 37 16 92.5t33 122.5q-117 23 -217.5 85.5 t-169.5 156.5q-92 -106 -192.5 -198.5t-208 -160t-225.5 -106.5t-243 -39q-82 0 -168 19.5t-156.5 63.5t-115.5 114.5t-45 171.5q0 129 57.5 233.5t146.5 178t196.5 113.5t207.5 40q66 0 123 -17.5t100 -54.5t69 -94t26 -135q0 -72 -47.5 -134.5t-120 -110.5t-160.5 -75.5 t-170 -27.5q-53 0 -98 12l12 37q43 -14 102 -14q74 0 153 23.5t145.5 66.5t108.5 104.5t42 134.5q0 109 -76 160t-186 51q-94 0 -198.5 -34.5t-191.5 -100.5t-144.5 -160t-57.5 -211q0 -59 26.5 -116.5t82 -102.5t142.5 -72.5t208 -27.5t232.5 38t216 104.5t200.5 156.5 t186 196q-45 66 -69.5 146t-24.5 172q0 66 14.5 126t45 106t82 74t124.5 28q68 0 120 -35t93 -90l177 273q85 132 164 238.5t153 179.5t143 95q6 0 26.5 -4t20.5 -31q0 -14 -8 -32q-39 -80 -81 -182l-86 -218l-88 -242l-87 -253q78 68 164 122t168 91q-43 35 -69.5 88 t-26.5 121q0 49 32.5 108t86 120.5t121 118t138 101.5t138 71.5t121.5 26.5q47 0 78.5 -24.5t31.5 -75.5q0 -68 -40 -133.5t-107.5 -128t-157.5 -118.5t-190 -103l-9 26q100 51 187.5 109.5t152 118t101.5 116t37 103.5q0 31 -23 49t-51 18q-57 0 -121 -28.5t-124 -75.5 t-115.5 -107.5t-97.5 -126t-66.5 -130t-24.5 -117.5q0 -37 9 -65t26 -46q121 51 190 51q53 0 72.5 -21.5t19.5 -45.5q0 -23 -11 -36t-28.5 -22.5t-37 -12.5t-33.5 -3q-49 0 -97.5 13.5t-89.5 41.5q-86 -47 -169 -123.5t-149.5 -166t-106 -183.5t-39.5 -178q0 -172 67.5 -263 t239.5 -91q119 0 222 55t180 135t122 168t45 154q0 43 -8 83t-27.5 71.5t-53.5 50t-85 18.5q-96 0 -178 -47t-144.5 -127t-104.5 -187.5t-56 -228.5zM1720 872l-156 -228q-81 -114 -169 -220q61 -98 152 -166t200 -94q16 59 36.5 124.5t45.5 137.5v18q0 117 -27 229.5 t-82 198.5zM2343 1673q-63 -27 -132 -99.5t-143.5 -176t-156.5 -231.5l-172 -265q53 -90 79.5 -201.5t30.5 -207.5q55 164 121 340t133.5 335.5t132 289.5t117.5 202q0 14 -10 14zM1376 455q88 106 168 219l156 229q-41 53 -95.5 83t-121.5 30q-55 0 -91 -21.5t-56.5 -57.5 t-29 -81t-8.5 -94q0 -86 20.5 -162.5t57.5 -144.5zM2605 1010q-41 0 -82 -11.5t-86 -33.5q37 -33 80 -40t63 -7q96 0 97 45q0 47 -72 47z" />
<glyph unicode="&#xc7;" horiz-adv-x="1615" d="M403 -223q27 -10 64 -19.5t86 -9.5q47 0 76.5 24.5t29.5 57.5q0 39 -23.5 53.5t-53.5 14.5q-29 0 -60 -11l-10 33l55 129q-66 72 -98.5 168t-32.5 201q0 82 17.5 165t48.5 165q-39 -6 -77 -8.5t-73 -2.5q-86 0 -175 20.5t-162.5 67.5t-121 125t-47.5 193q0 127 53.5 224 t141.5 169t201.5 119t234.5 75.5t240 40t217 11.5q45 0 71.5 -1t59.5 -3l-2 -41q-49 4 -98.5 7t-98.5 3q-178 0 -349 -45t-305 -128t-216 -201t-82 -261q0 -96 34 -161.5t93 -105.5t142 -57.5t179 -17.5q72 0 152 12q55 131 139 256t184.5 235.5t211 204t217 160t203 103.5 t167.5 37q49 0 85 -32t36 -87q0 -86 -45 -175t-124 -175t-185.5 -168t-228 -151.5t-254 -124t-261.5 -87.5q-59 -131 -90.5 -261t-31.5 -247q0 -31 7 -79t31.5 -96t70.5 -88t124 -56v14q0 182 48 333t127 258.5t180.5 166.5t207.5 59q109 0 169.5 -60t60.5 -165 q0 -125 -60.5 -239.5t-159 -202.5t-222.5 -141.5t-251 -53.5q-41 0 -73 6q0 -86 11 -177t30 -152l-19 -9q-10 27 -28.5 109t-20.5 235q-92 20 -162 78l-43 -69q10 2 18.5 3t18.5 1q47 0 86 -24.5t39 -80.5q0 -57 -45 -94t-123 -37q-53 0 -98 11.5t-74 25.5zM1640 1745 q-119 0 -253 -79t-265 -208t-247.5 -297t-198.5 -346q125 35 252 88t243.5 121t220 146.5t179.5 161.5t120 166t44 161q0 45 -34 65.5t-61 20.5zM1360 750q-115 0 -217.5 -77t-179 -195t-121.5 -259t-45 -272q12 -2 26.5 -3t30.5 -1q119 0 241 48t221 133t161.5 198.5 t62.5 242.5q0 82 -47 133.5t-133 51.5z" />
<glyph unicode="&#xc8;" horiz-adv-x="1234" d="M547 -362q-43 154 -55 299q-129 35 -215.5 141t-86.5 274q0 98 53.5 191.5t135.5 173.5t180 143.5t191 106.5q-41 31 -66 77q-121 -43 -230.5 -66.5t-189.5 -23.5q-205 0 -326.5 90.5t-121.5 253.5q0 86 35.5 157t95 125t139.5 94t168 65.5t180 38t176 12.5q25 0 49.5 -1 t47.5 -3v-33q-23 4 -45 4h-46q-135 0 -270 -40t-244.5 -108.5t-177 -160.5t-67.5 -199q0 -76 40 -127t100 -81.5t128 -44t123 -13.5q100 0 208.5 22.5t217.5 61.5q-10 25 -15.5 51.5t-5.5 57.5q0 49 33 108t86 120.5t121 118t138.5 101.5t138 71.5t120.5 26.5q47 0 79 -24.5 t32 -75.5q0 -80 -56.5 -158t-147.5 -149.5t-208 -134t-237 -109.5q6 -55 34 -88q121 51 191 51q53 0 72.5 -21.5t19.5 -45.5q0 -23 -11 -36t-28.5 -22.5t-37 -12.5t-34.5 -3q-49 0 -97 13.5t-89 41.5q-86 -47 -169 -123.5t-149.5 -166t-106.5 -183.5t-40 -178 q0 -137 41 -223t144 -115q-2 16 -3 33v33q0 150 35 276.5t99.5 218.5t156.5 143.5t207 51.5q55 0 97 -17.5t70 -48.5t42 -71.5t14 -85.5q0 -100 -47 -202t-129 -183.5t-192.5 -133t-237.5 -51.5q-23 0 -44 2t-42 6q4 -150 51 -290zM518 -47q23 -4 45.5 -7t50.5 -3 q119 0 222.5 55t180.5 135t122 168t45 154q0 43 -8.5 83t-28 71.5t-53 50t-84.5 18.5q-109 0 -200 -59.5t-155.5 -160t-100.5 -229.5t-36 -270v-6zM1300 1679q-57 0 -120.5 -27.5t-124 -74.5t-114.5 -107.5t-96 -125t-67.5 -129t-25.5 -117.5q125 51 237.5 116.5t198.5 135 t136 138t50 124.5q0 31 -22.5 49t-51.5 18zM971 1010q-41 0 -82 -11.5t-86 -33.5q37 -33 80 -40t63 -7q96 0 96 45q1 47 -71 47zM1188 1800q-33 10 -71 31.5t-74.5 50.5t-65.5 64.5t-43 74.5l72 50q16 -66 71.5 -132.5t134.5 -117.5z" />
<glyph unicode="&#xc9;" horiz-adv-x="1234" d="M547 -362q-43 154 -55 299q-129 35 -215.5 141t-86.5 274q0 98 53.5 191.5t135.5 173.5t180 143.5t191 106.5q-41 31 -66 77q-121 -43 -230.5 -66.5t-189.5 -23.5q-205 0 -326.5 90.5t-121.5 253.5q0 86 35.5 157t95 125t139.5 94t168 65.5t180 38t176 12.5q25 0 49.5 -1 t47.5 -3v-33q-23 4 -45 4h-46q-135 0 -270 -40t-244.5 -108.5t-177 -160.5t-67.5 -199q0 -76 40 -127t100 -81.5t128 -44t123 -13.5q100 0 208.5 22.5t217.5 61.5q-10 25 -15.5 51.5t-5.5 57.5q0 49 33 108t86 120.5t121 118t138.5 101.5t138 71.5t120.5 26.5q47 0 79 -24.5 t32 -75.5q0 -80 -56.5 -158t-147.5 -149.5t-208 -134t-237 -109.5q6 -55 34 -88q121 51 191 51q53 0 72.5 -21.5t19.5 -45.5q0 -23 -11 -36t-28.5 -22.5t-37 -12.5t-34.5 -3q-49 0 -97 13.5t-89 41.5q-86 -47 -169 -123.5t-149.5 -166t-106.5 -183.5t-40 -178 q0 -137 41 -223t144 -115q-2 16 -3 33v33q0 150 35 276.5t99.5 218.5t156.5 143.5t207 51.5q55 0 97 -17.5t70 -48.5t42 -71.5t14 -85.5q0 -100 -47 -202t-129 -183.5t-192.5 -133t-237.5 -51.5q-23 0 -44 2t-42 6q4 -150 51 -290zM518 -47q23 -4 45.5 -7t50.5 -3 q119 0 222.5 55t180.5 135t122 168t45 154q0 43 -8.5 83t-28 71.5t-53 50t-84.5 18.5q-109 0 -200 -59.5t-155.5 -160t-100.5 -229.5t-36 -270v-6zM1300 1679q-57 0 -120.5 -27.5t-124 -74.5t-114.5 -107.5t-96 -125t-67.5 -129t-25.5 -117.5q125 51 237.5 116.5t198.5 135 t136 138t50 124.5q0 31 -22.5 49t-51.5 18zM971 1010q-41 0 -82 -11.5t-86 -33.5q37 -33 80 -40t63 -7q96 0 96 45q1 47 -71 47zM1100 1821q80 51 135 117.5t72 132.5l71 -50q-14 -39 -42.5 -74.5t-65.5 -64.5t-75 -50.5t-71 -31.5z" />
<glyph unicode="&#xca;" horiz-adv-x="1234" d="M547 -362q-43 154 -55 299q-129 35 -215.5 141t-86.5 274q0 98 53.5 191.5t135.5 173.5t180 143.5t191 106.5q-41 31 -66 77q-121 -43 -230.5 -66.5t-189.5 -23.5q-205 0 -326.5 90.5t-121.5 253.5q0 86 35.5 157t95 125t139.5 94t168 65.5t180 38t176 12.5q25 0 49.5 -1 t47.5 -3v-33q-23 4 -45 4h-46q-135 0 -270 -40t-244.5 -108.5t-177 -160.5t-67.5 -199q0 -76 40 -127t100 -81.5t128 -44t123 -13.5q100 0 208.5 22.5t217.5 61.5q-10 25 -15.5 51.5t-5.5 57.5q0 49 33 108t86 120.5t121 118t138.5 101.5t138 71.5t120.5 26.5q47 0 79 -24.5 t32 -75.5q0 -80 -56.5 -158t-147.5 -149.5t-208 -134t-237 -109.5q6 -55 34 -88q121 51 191 51q53 0 72.5 -21.5t19.5 -45.5q0 -23 -11 -36t-28.5 -22.5t-37 -12.5t-34.5 -3q-49 0 -97 13.5t-89 41.5q-86 -47 -169 -123.5t-149.5 -166t-106.5 -183.5t-40 -178 q0 -137 41 -223t144 -115q-2 16 -3 33v33q0 150 35 276.5t99.5 218.5t156.5 143.5t207 51.5q55 0 97 -17.5t70 -48.5t42 -71.5t14 -85.5q0 -100 -47 -202t-129 -183.5t-192.5 -133t-237.5 -51.5q-23 0 -44 2t-42 6q4 -150 51 -290zM518 -47q23 -4 45.5 -7t50.5 -3 q119 0 222.5 55t180.5 135t122 168t45 154q0 43 -8.5 83t-28 71.5t-53 50t-84.5 18.5q-109 0 -200 -59.5t-155.5 -160t-100.5 -229.5t-36 -270v-6zM1300 1679q-57 0 -120.5 -27.5t-124 -74.5t-114.5 -107.5t-96 -125t-67.5 -129t-25.5 -117.5q125 51 237.5 116.5t198.5 135 t136 138t50 124.5q0 31 -22.5 49t-51.5 18zM971 1010q-41 0 -82 -11.5t-86 -33.5q37 -33 80 -40t63 -7q96 0 96 45q1 47 -71 47zM1296 2042l111 -213l-39 -19l-88 144l-227 -154l-31 31l264 211h10z" />
<glyph unicode="&#xcb;" horiz-adv-x="1234" d="M547 -362q-43 154 -55 299q-129 35 -215.5 141t-86.5 274q0 98 53.5 191.5t135.5 173.5t180 143.5t191 106.5q-41 31 -66 77q-121 -43 -230.5 -66.5t-189.5 -23.5q-205 0 -326.5 90.5t-121.5 253.5q0 86 35.5 157t95 125t139.5 94t168 65.5t180 38t176 12.5q25 0 49.5 -1 t47.5 -3v-33q-23 4 -45 4h-46q-135 0 -270 -40t-244.5 -108.5t-177 -160.5t-67.5 -199q0 -76 40 -127t100 -81.5t128 -44t123 -13.5q100 0 208.5 22.5t217.5 61.5q-10 25 -15.5 51.5t-5.5 57.5q0 49 33 108t86 120.5t121 118t138.5 101.5t138 71.5t120.5 26.5q47 0 79 -24.5 t32 -75.5q0 -80 -56.5 -158t-147.5 -149.5t-208 -134t-237 -109.5q6 -55 34 -88q121 51 191 51q53 0 72.5 -21.5t19.5 -45.5q0 -23 -11 -36t-28.5 -22.5t-37 -12.5t-34.5 -3q-49 0 -97 13.5t-89 41.5q-86 -47 -169 -123.5t-149.5 -166t-106.5 -183.5t-40 -178 q0 -137 41 -223t144 -115q-2 16 -3 33v33q0 150 35 276.5t99.5 218.5t156.5 143.5t207 51.5q55 0 97 -17.5t70 -48.5t42 -71.5t14 -85.5q0 -100 -47 -202t-129 -183.5t-192.5 -133t-237.5 -51.5q-23 0 -44 2t-42 6q4 -150 51 -290zM518 -47q23 -4 45.5 -7t50.5 -3 q119 0 222.5 55t180.5 135t122 168t45 154q0 43 -8.5 83t-28 71.5t-53 50t-84.5 18.5q-109 0 -200 -59.5t-155.5 -160t-100.5 -229.5t-36 -270v-6zM1300 1679q-57 0 -120.5 -27.5t-124 -74.5t-114.5 -107.5t-96 -125t-67.5 -129t-25.5 -117.5q125 51 237.5 116.5t198.5 135 t136 138t50 124.5q0 31 -22.5 49t-51.5 18zM971 1010q-41 0 -82 -11.5t-86 -33.5q37 -33 80 -40t63 -7q96 0 96 45q1 47 -71 47zM1309 1862q0 33 24.5 63.5t59.5 30.5q25 0 41 -17.5t16 -42.5q0 -33 -24.5 -63.5t-57.5 -30.5q-25 0 -42 17.5t-17 42.5zM1063 1862 q0 33 24.5 63.5t59.5 30.5q25 0 41 -17.5t16 -42.5q0 -33 -25.5 -63.5t-58.5 -30.5q-25 0 -41 17.5t-16 42.5z" />
<glyph unicode="&#xcc;" horiz-adv-x="1351" d="M1669 1339l-59 -86q-59 -86 -89 -188t-63 -203q-29 -86 -53.5 -171t-55 -168t-68.5 -161.5t-91 -152.5q-72 -98 -162 -170t-191.5 -118t-209 -67.5t-211.5 -21.5q-78 0 -153 19.5t-133 59.5t-95 101.5t-37 147.5q0 78 28.5 143.5t76 117.5t105.5 93t118.5 67.5t117 41 t99.5 14.5t94 -10.5t95 -33t73 -59t29 -90.5q0 -88 -39 -155.5t-101.5 -114.5t-141.5 -71.5t-161 -24.5q-57 0 -101 5t-65 15v29q23 -4 43.5 -9t40.5 -5q70 0 156 22.5t161.5 64.5t128 101t52.5 133q0 47 -21.5 80t-55.5 52.5t-76 28.5t-81 9q-98 0 -196 -38t-177 -100.5 t-127 -141t-48 -160.5q0 -68 29.5 -125t78.5 -97t113.5 -62.5t136.5 -22.5q272 0 457.5 122.5t304.5 368.5q45 92 77 186l66 191q16 47 47 113.5t66 134.5l69 129q35 61 60 100q-14 -10 -38 -29.5t-51.5 -38t-57 -31.5t-54.5 -13q-18 0 -37.5 14t-34 36.5t-23.5 51.5t-9 57 q0 16 8 42l17.5 58.5t17.5 69.5t8 78q0 45 -29.5 75t-73 47t-90.5 23.5t-79 6.5q-129 0 -242 -53.5t-197 -136.5t-133 -184t-49 -196q0 -129 54.5 -188.5t152.5 -59.5q68 0 135.5 45.5t122.5 112t89 142t34 139.5q0 59 -36 93t-91 34q-51 0 -100.5 -32t-89.5 -80 t-64.5 -105.5t-26.5 -108.5h-26q0 43 22.5 102.5t63.5 113.5t98 92t127 38q80 0 120 -51t40 -127q0 -84 -35 -163t-92.5 -139t-130 -97t-146.5 -37q-115 0 -179.5 70.5t-64.5 191.5t56.5 231.5t147.5 194.5t207 134t237 50q59 0 122.5 -16.5t115.5 -50t86 -82.5t34 -117 q0 -35 -9 -66.5t-20.5 -64.5t-20.5 -64.5t-9 -66.5q0 -20 4 -28.5t32 -8.5q20 0 57.5 25.5t80.5 62.5t87 79l79 77zM1151 1772q-33 10 -71 31.5t-74.5 50t-65.5 64.5t-43 75l72 49q16 -66 71.5 -132.5t135.5 -117.5z" />
<glyph unicode="&#xcd;" horiz-adv-x="1351" d="M1669 1339l-59 -86q-59 -86 -89 -188t-63 -203q-29 -86 -53.5 -171t-55 -168t-68.5 -161.5t-91 -152.5q-72 -98 -162 -170t-191.5 -118t-209 -67.5t-211.5 -21.5q-78 0 -153 19.5t-133 59.5t-95 101.5t-37 147.5q0 78 28.5 143.5t76 117.5t105.5 93t118.5 67.5t117 41 t99.5 14.5t94 -10.5t95 -33t73 -59t29 -90.5q0 -88 -39 -155.5t-101.5 -114.5t-141.5 -71.5t-161 -24.5q-57 0 -101 5t-65 15v29q23 -4 43.5 -9t40.5 -5q70 0 156 22.5t161.5 64.5t128 101t52.5 133q0 47 -21.5 80t-55.5 52.5t-76 28.5t-81 9q-98 0 -196 -38t-177 -100.5 t-127 -141t-48 -160.5q0 -68 29.5 -125t78.5 -97t113.5 -62.5t136.5 -22.5q272 0 457.5 122.5t304.5 368.5q45 92 77 186l66 191q16 47 47 113.5t66 134.5l69 129q35 61 60 100q-14 -10 -38 -29.5t-51.5 -38t-57 -31.5t-54.5 -13q-18 0 -37.5 14t-34 36.5t-23.5 51.5t-9 57 q0 16 8 42l17.5 58.5t17.5 69.5t8 78q0 45 -29.5 75t-73 47t-90.5 23.5t-79 6.5q-129 0 -242 -53.5t-197 -136.5t-133 -184t-49 -196q0 -129 54.5 -188.5t152.5 -59.5q68 0 135.5 45.5t122.5 112t89 142t34 139.5q0 59 -36 93t-91 34q-51 0 -100.5 -32t-89.5 -80 t-64.5 -105.5t-26.5 -108.5h-26q0 43 22.5 102.5t63.5 113.5t98 92t127 38q80 0 120 -51t40 -127q0 -84 -35 -163t-92.5 -139t-130 -97t-146.5 -37q-115 0 -179.5 70.5t-64.5 191.5t56.5 231.5t147.5 194.5t207 134t237 50q59 0 122.5 -16.5t115.5 -50t86 -82.5t34 -117 q0 -35 -9 -66.5t-20.5 -64.5t-20.5 -64.5t-9 -66.5q0 -20 4 -28.5t32 -8.5q20 0 57.5 25.5t80.5 62.5t87 79l79 77zM985 1782q80 51 135.5 117.5t71.5 132.5l72 -50q-14 -39 -43 -74.5t-66 -64t-75 -50t-70 -32.5z" />
<glyph unicode="&#xce;" horiz-adv-x="1351" d="M1669 1339l-59 -86q-59 -86 -89 -188t-63 -203q-29 -86 -53.5 -171t-55 -168t-68.5 -161.5t-91 -152.5q-72 -98 -162 -170t-191.5 -118t-209 -67.5t-211.5 -21.5q-78 0 -153 19.5t-133 59.5t-95 101.5t-37 147.5q0 78 28.5 143.5t76 117.5t105.5 93t118.5 67.5t117 41 t99.5 14.5t94 -10.5t95 -33t73 -59t29 -90.5q0 -88 -39 -155.5t-101.5 -114.5t-141.5 -71.5t-161 -24.5q-57 0 -101 5t-65 15v29q23 -4 43.5 -9t40.5 -5q70 0 156 22.5t161.5 64.5t128 101t52.5 133q0 47 -21.5 80t-55.5 52.5t-76 28.5t-81 9q-98 0 -196 -38t-177 -100.5 t-127 -141t-48 -160.5q0 -68 29.5 -125t78.5 -97t113.5 -62.5t136.5 -22.5q272 0 457.5 122.5t304.5 368.5q45 92 77 186l66 191q16 47 47 113.5t66 134.5l69 129q35 61 60 100q-14 -10 -38 -29.5t-51.5 -38t-57 -31.5t-54.5 -13q-18 0 -37.5 14t-34 36.5t-23.5 51.5t-9 57 q0 16 8 42l17.5 58.5t17.5 69.5t8 78q0 45 -29.5 75t-73 47t-90.5 23.5t-79 6.5q-129 0 -242 -53.5t-197 -136.5t-133 -184t-49 -196q0 -129 54.5 -188.5t152.5 -59.5q68 0 135.5 45.5t122.5 112t89 142t34 139.5q0 59 -36 93t-91 34q-51 0 -100.5 -32t-89.5 -80 t-64.5 -105.5t-26.5 -108.5h-26q0 43 22.5 102.5t63.5 113.5t98 92t127 38q80 0 120 -51t40 -127q0 -84 -35 -163t-92.5 -139t-130 -97t-146.5 -37q-115 0 -179.5 70.5t-64.5 191.5t56.5 231.5t147.5 194.5t207 134t237 50q59 0 122.5 -16.5t115.5 -50t86 -82.5t34 -117 q0 -35 -9 -66.5t-20.5 -64.5t-20.5 -64.5t-9 -66.5q0 -20 4 -28.5t32 -8.5q20 0 57.5 25.5t80.5 62.5t87 79l79 77zM1094 2019l110 -213l-39 -18l-88 143l-227 -153l-31 30l264 211h11z" />
<glyph unicode="&#xcf;" horiz-adv-x="1351" d="M1669 1339l-59 -86q-59 -86 -89 -188t-63 -203q-29 -86 -53.5 -171t-55 -168t-68.5 -161.5t-91 -152.5q-72 -98 -162 -170t-191.5 -118t-209 -67.5t-211.5 -21.5q-78 0 -153 19.5t-133 59.5t-95 101.5t-37 147.5q0 78 28.5 143.5t76 117.5t105.5 93t118.5 67.5t117 41 t99.5 14.5t94 -10.5t95 -33t73 -59t29 -90.5q0 -88 -39 -155.5t-101.5 -114.5t-141.5 -71.5t-161 -24.5q-57 0 -101 5t-65 15v29q23 -4 43.5 -9t40.5 -5q70 0 156 22.5t161.5 64.5t128 101t52.5 133q0 47 -21.5 80t-55.5 52.5t-76 28.5t-81 9q-98 0 -196 -38t-177 -100.5 t-127 -141t-48 -160.5q0 -68 29.5 -125t78.5 -97t113.5 -62.5t136.5 -22.5q272 0 457.5 122.5t304.5 368.5q45 92 77 186l66 191q16 47 47 113.5t66 134.5l69 129q35 61 60 100q-14 -10 -38 -29.5t-51.5 -38t-57 -31.5t-54.5 -13q-18 0 -37.5 14t-34 36.5t-23.5 51.5t-9 57 q0 16 8 42l17.5 58.5t17.5 69.5t8 78q0 45 -29.5 75t-73 47t-90.5 23.5t-79 6.5q-129 0 -242 -53.5t-197 -136.5t-133 -184t-49 -196q0 -129 54.5 -188.5t152.5 -59.5q68 0 135.5 45.5t122.5 112t89 142t34 139.5q0 59 -36 93t-91 34q-51 0 -100.5 -32t-89.5 -80 t-64.5 -105.5t-26.5 -108.5h-26q0 43 22.5 102.5t63.5 113.5t98 92t127 38q80 0 120 -51t40 -127q0 -84 -35 -163t-92.5 -139t-130 -97t-146.5 -37q-115 0 -179.5 70.5t-64.5 191.5t56.5 231.5t147.5 194.5t207 134t237 50q59 0 122.5 -16.5t115.5 -50t86 -82.5t34 -117 q0 -35 -9 -66.5t-20.5 -64.5t-20.5 -64.5t-9 -66.5q0 -20 4 -28.5t32 -8.5q20 0 57.5 25.5t80.5 62.5t87 79l79 77zM1171 1835q0 33 25 63.5t59 30.5q25 0 41.5 -17.5t16.5 -41.5q0 -33 -24.5 -63.5t-57.5 -30.5q-25 0 -42.5 17t-17.5 42zM926 1835q0 33 24.5 63.5 t59.5 30.5q25 0 41 -17.5t16 -41.5q0 -33 -25.5 -63.5t-58.5 -30.5q-25 0 -41 17t-16 42z" />
<glyph unicode="&#xd0;" horiz-adv-x="1959" d="M1122 676h144q43 100 84 207.5t90 215t111.5 212t148.5 200.5q-104 63 -226 96t-257 33q-186 0 -353.5 -71.5t-293.5 -186t-200.5 -259t-74.5 -292.5q0 -70 19.5 -133t64.5 -110q18 125 60 244.5t112 212t168 148.5t227 56q96 0 151.5 -61.5t55.5 -149.5 q0 -104 -46 -205.5t-122 -181.5t-175 -129t-204 -49q-55 0 -106 11.5t-94 39.5q-4 -35 -6.5 -67.5t-2.5 -67.5q0 -49 5.5 -99t15.5 -102h-35q-8 47 -12 99.5t-4 105.5q0 37 2 76t6 78q-59 53 -95 149.5t-36 255.5q0 135 83 264.5t220 230.5t314 162.5t366 61.5 q131 0 257 -34.5t236 -102.5q66 72 150 136.5t190 121.5l11 -23q-123 -66 -201 -126t-129 -121q72 -49 132 -111.5t104 -139.5t69 -168t25 -196q0 -215 -95.5 -394t-250 -310t-349 -204t-393.5 -73q-92 0 -171 16.5t-155 39.5q-88 -27 -184 -41.5t-203 -14.5q-23 0 -67.5 2 t-89.5 11.5t-79 31t-34 62.5q0 31 21.5 49t53 27.5t65.5 12.5t59 3q68 0 125 -10.5t111 -26.5t108 -36l108 -38q117 37 205 96.5t156.5 136.5t122 168t100.5 191h-133zM2040 895q0 203 -87 354.5t-231 247.5q-49 -70 -78.5 -147.5t-59.5 -174.5l-68 -221q-39 -123 -109 -278 h192l-20 -70h-205q-47 -96 -111.5 -187t-147.5 -170t-184.5 -142.5t-221.5 -106.5q59 -16 126.5 -27.5t147.5 -11.5q209 0 400.5 72.5t338 198.5t232.5 297t86 366zM928 1223q-72 0 -153 -50.5t-153.5 -139.5t-129 -210t-80.5 -262q35 -29 82 -43t108 -14q94 0 186.5 44 t166 117.5t119.5 168t46 194.5q0 86 -51 140.5t-141 54.5zM258 -39q98 0 182 10.5t158 28.5l-206 62q-101 30 -218 30q-16 0 -38.5 -2t-45 -8t-38 -17.5t-15.5 -31.5q0 -27 27.5 -41.5t64.5 -21.5t74 -8t55 -1z" />
<glyph unicode="&#xd1;" horiz-adv-x="2277" d="M2028 829q115 20 213 66l44 100l44 103l50 119q32 74 70.5 142t82.5 118.5t87 50.5q47 0 70 -45t23 -99q0 -61 -32 -130.5t-90.5 -137t-141.5 -128t-185 -105.5q-39 -82 -63 -140l-46 -103q-20 -46 -41 -87l-51 -93l-70 -122l-104 -172q-12 -20 -38 -57l-53 -75 q-28 -38 -55.5 -70t-41.5 -42q-10 -8 -25 -8q-23 0 -22 18q0 10 6 23l35 90q23 59 46 146.5t40.5 199t19.5 246.5q2 117 18.5 246t40 251.5t52 227t57.5 172.5q-37 -49 -81 -134t-88 -181l-87 -193q-43 -96 -78 -166q-111 -225 -239.5 -408.5t-275 -312.5t-310.5 -199.5 t-344 -70.5q-86 0 -170 22.5t-149.5 69.5t-105.5 120t-40 173q0 117 52 208t134 155.5t184.5 98.5t204.5 34q57 0 120 -11.5t113 -38t83 -72.5t33 -116q0 -84 -49.5 -150.5t-124 -112.5t-161.5 -70.5t-161 -24.5q-23 0 -47.5 2t-52.5 6l4 20q43 -6 80 -6q72 0 157.5 22.5 t160.5 68.5t125 114t50 158q0 68 -77.5 119t-219.5 51q-90 0 -191.5 -39t-188.5 -104.5t-144 -151.5t-57 -183q0 -88 38.5 -152.5t103 -106.5t146.5 -62.5t166 -20.5q129 0 246 38t221.5 104.5t196.5 157t172 192.5t145.5 211.5t118.5 216.5l42 93l69 151l83 176 q44 92 87 170t79.5 131t61.5 61q12 4 18 4q14 0 15 -10q-12 -29 -25.5 -72t-24 -96t-17.5 -112.5t-7 -118.5q0 -27 -2 -85.5t-7 -139t-14.5 -176t-26 -194.5t-41 -194.5t-56.5 -175.5q-23 -57 -60 -131t-61 -131q20 14 53 53t64 84l60 85q28 40 38 59q88 152 166.5 307 t152.5 321q-47 -18 -99 -32.5t-106 -24.5zM2277 913q100 51 176 120t126.5 137.5t75 129t24.5 97.5q0 14 -1 33.5t-5 37t-15.5 28.5t-29.5 11q-43 0 -80 -42t-74 -113.5t-76 -166.5t-88 -202zM2101 1704q10 35 46 66.5t85 31.5q25 0 50.5 -9t51 -21.5t50 -21.5t47.5 -9 q35 0 52 24l30 41l33 -16q-10 -35 -44 -69.5t-87 -34.5q-25 0 -50.5 9t-51 20t-50.5 20.5t-47 9.5q-33 0 -50 -22l-30 -37z" />
<glyph unicode="&#xd2;" horiz-adv-x="1329" d="M1139 1020q0 -31 -14.5 -83t-40 -113.5t-63.5 -124t-86 -113.5t-105.5 -84t-120.5 -33q-68 0 -113 23.5t-72.5 63.5t-40 90t-12.5 106q0 88 32 179t85 177t125.5 160.5t153.5 131t168 89.5t169 33q76 0 130.5 -33t89 -85t50 -116.5t15.5 -130.5q0 -121 -40 -257 t-111.5 -271t-169 -258t-211 -217.5t-239.5 -150.5t-253 -56q-113 0 -192.5 57t-131 144.5t-75 191.5t-23.5 199q0 141 54.5 288.5t147.5 286.5t218 261t265 214t289.5 145.5t291.5 53.5h48q22 0 32 -2l-5 -27q-18 2 -35 2h-34q-176 0 -330 -63.5t-283 -171t-230 -248.5 t-171 -298t-106.5 -317.5t-36.5 -308.5q0 -68 15 -135t52 -122.5t99.5 -89.5t158.5 -34q109 0 223.5 53.5t223 142.5t205 209t168 253t113.5 272t42 268q0 57 -14 116t-44 105t-77 74.5t-113 28.5q-84 0 -165.5 -39t-156.5 -103.5t-138.5 -147.5t-110.5 -170t-73.5 -173 t-26.5 -155q0 -86 42 -148.5t121 -62.5q53 0 104.5 27.5t96.5 72.5t82 102.5t64.5 116.5t43 113.5t15.5 95.5zM1221 1849q-33 10 -71 32t-75 50.5t-65.5 64.5t-42.5 75l71 49q16 -66 71.5 -132.5t135.5 -117.5z" />
<glyph unicode="&#xd3;" horiz-adv-x="1329" d="M1139 1020q0 -31 -14.5 -83t-40 -113.5t-63.5 -124t-86 -113.5t-105.5 -84t-120.5 -33q-68 0 -113 23.5t-72.5 63.5t-40 90t-12.5 106q0 88 32 179t85 177t125.5 160.5t153.5 131t168 89.5t169 33q76 0 130.5 -33t89 -85t50 -116.5t15.5 -130.5q0 -121 -40 -257 t-111.5 -271t-169 -258t-211 -217.5t-239.5 -150.5t-253 -56q-113 0 -192.5 57t-131 144.5t-75 191.5t-23.5 199q0 141 54.5 288.5t147.5 286.5t218 261t265 214t289.5 145.5t291.5 53.5h48q22 0 32 -2l-5 -27q-18 2 -35 2h-34q-176 0 -330 -63.5t-283 -171t-230 -248.5 t-171 -298t-106.5 -317.5t-36.5 -308.5q0 -68 15 -135t52 -122.5t99.5 -89.5t158.5 -34q109 0 223.5 53.5t223 142.5t205 209t168 253t113.5 272t42 268q0 57 -14 116t-44 105t-77 74.5t-113 28.5q-84 0 -165.5 -39t-156.5 -103.5t-138.5 -147.5t-110.5 -170t-73.5 -173 t-26.5 -155q0 -86 42 -148.5t121 -62.5q53 0 104.5 27.5t96.5 72.5t82 102.5t64.5 116.5t43 113.5t15.5 95.5zM1038 1870q80 51 135.5 117.5t71.5 132.5l72 -49q-14 -39 -43 -75t-66 -64.5t-74.5 -50t-70.5 -32.5z" />
<glyph unicode="&#xd4;" horiz-adv-x="1329" d="M1139 1020q0 -31 -14.5 -83t-40 -113.5t-63.5 -124t-86 -113.5t-105.5 -84t-120.5 -33q-68 0 -113 23.5t-72.5 63.5t-40 90t-12.5 106q0 88 32 179t85 177t125.5 160.5t153.5 131t168 89.5t169 33q76 0 130.5 -33t89 -85t50 -116.5t15.5 -130.5q0 -121 -40 -257 t-111.5 -271t-169 -258t-211 -217.5t-239.5 -150.5t-253 -56q-113 0 -192.5 57t-131 144.5t-75 191.5t-23.5 199q0 141 54.5 288.5t147.5 286.5t218 261t265 214t289.5 145.5t291.5 53.5h48q22 0 32 -2l-5 -27q-18 2 -35 2h-34q-176 0 -330 -63.5t-283 -171t-230 -248.5 t-171 -298t-106.5 -317.5t-36.5 -308.5q0 -68 15 -135t52 -122.5t99.5 -89.5t158.5 -34q109 0 223.5 53.5t223 142.5t205 209t168 253t113.5 272t42 268q0 57 -14 116t-44 105t-77 74.5t-113 28.5q-84 0 -165.5 -39t-156.5 -103.5t-138.5 -147.5t-110.5 -170t-73.5 -173 t-26.5 -155q0 -86 42 -148.5t121 -62.5q53 0 104.5 27.5t96.5 72.5t82 102.5t64.5 116.5t43 113.5t15.5 95.5zM1341 2107l111 -213l-39 -18l-88 143l-227 -153l-31 30l264 211h10z" />
<glyph unicode="&#xd5;" horiz-adv-x="1329" d="M1139 1020q0 -31 -14.5 -83t-40 -113.5t-63.5 -124t-86 -113.5t-105.5 -84t-120.5 -33q-68 0 -113 23.5t-72.5 63.5t-40 90t-12.5 106q0 88 32 179t85 177t125.5 160.5t153.5 131t168 89.5t169 33q76 0 130.5 -33t89 -85t50 -116.5t15.5 -130.5q0 -121 -40 -257 t-111.5 -271t-169 -258t-211 -217.5t-239.5 -150.5t-253 -56q-113 0 -192.5 57t-131 144.5t-75 191.5t-23.5 199q0 141 54.5 288.5t147.5 286.5t218 261t265 214t289.5 145.5t291.5 53.5h48q22 0 32 -2l-5 -27q-18 2 -35 2h-34q-176 0 -330 -63.5t-283 -171t-230 -248.5 t-171 -298t-106.5 -317.5t-36.5 -308.5q0 -68 15 -135t52 -122.5t99.5 -89.5t158.5 -34q109 0 223.5 53.5t223 142.5t205 209t168 253t113.5 272t42 268q0 57 -14 116t-44 105t-77 74.5t-113 28.5q-84 0 -165.5 -39t-156.5 -103.5t-138.5 -147.5t-110.5 -170t-73.5 -173 t-26.5 -155q0 -86 42 -148.5t121 -62.5q53 0 104.5 27.5t96.5 72.5t82 102.5t64.5 116.5t43 113.5t15.5 95.5zM1032 1915q10 35 46 66.5t85 31.5q25 0 50.5 -9t51 -21.5t50 -21.5t47.5 -9q35 0 52 24l30 41l33 -16q-10 -35 -44 -70t-87 -35q-25 0 -50.5 9.5t-51 20.5 t-50.5 20.5t-47 9.5q-33 0 -50 -22l-30 -38z" />
<glyph unicode="&#xd6;" horiz-adv-x="1329" d="M1139 1020q0 -31 -14.5 -83t-40 -113.5t-63.5 -124t-86 -113.5t-105.5 -84t-120.5 -33q-68 0 -113 23.5t-72.5 63.5t-40 90t-12.5 106q0 88 32 179t85 177t125.5 160.5t153.5 131t168 89.5t169 33q76 0 130.5 -33t89 -85t50 -116.5t15.5 -130.5q0 -121 -40 -257 t-111.5 -271t-169 -258t-211 -217.5t-239.5 -150.5t-253 -56q-113 0 -192.5 57t-131 144.5t-75 191.5t-23.5 199q0 141 54.5 288.5t147.5 286.5t218 261t265 214t289.5 145.5t291.5 53.5h48q22 0 32 -2l-5 -27q-18 2 -35 2h-34q-176 0 -330 -63.5t-283 -171t-230 -248.5 t-171 -298t-106.5 -317.5t-36.5 -308.5q0 -68 15 -135t52 -122.5t99.5 -89.5t158.5 -34q109 0 223.5 53.5t223 142.5t205 209t168 253t113.5 272t42 268q0 57 -14 116t-44 105t-77 74.5t-113 28.5q-84 0 -165.5 -39t-156.5 -103.5t-138.5 -147.5t-110.5 -170t-73.5 -173 t-26.5 -155q0 -86 42 -148.5t121 -62.5q53 0 104.5 27.5t96.5 72.5t82 102.5t64.5 116.5t43 113.5t15.5 95.5zM1272 1919q0 33 24.5 63.5t59.5 30.5q25 0 41 -17.5t16 -41.5q0 -33 -24.5 -63.5t-57.5 -30.5q-25 0 -42 17t-17 42zM1026 1919q0 33 24.5 63.5t59.5 30.5 q25 0 41 -17.5t16 -41.5q0 -33 -25.5 -63.5t-58.5 -30.5q-25 0 -41 17t-16 42z" />
<glyph unicode="&#xd8;" horiz-adv-x="1329" d="M395 -47q-94 18 -160.5 79.5t-109.5 145.5t-62.5 179.5t-19.5 181.5q0 141 54.5 288.5t147.5 286.5t218 261t265 214t289.5 145.5t291.5 53.5h48q22 0 32 -2l-5 -27q-18 2 -35 2h-34q-176 0 -330 -63.5t-283 -171t-230 -248.5t-171 -298t-106.5 -317.5t-36.5 -308.5 q0 -61 11 -121.5t41 -112.5t78 -90t122 -50l266 491q-57 6 -96 30.5t-63.5 63.5t-35 87t-10.5 100q0 88 32 179t85 177t125.5 160.5t153.5 131t168 89.5t169 33h20q9 0 19 -2l66 118h45l-70 -129q55 -16 94 -52t63.5 -84t36 -104.5t11.5 -111.5q0 -121 -40 -257t-111.5 -271 t-169 -258t-211 -217.5t-239.5 -150.5t-253 -56h-13q-7 0 -14 2l-69 -131h-45zM1139 1020q0 -31 -13.5 -82t-39 -110.5t-62.5 -122t-83 -113.5t-101.5 -85t-118.5 -38l-268 -494q10 -2 30 -2q109 0 223.5 53.5t223 142.5t205 209t168 253t113.5 272t42 268q0 51 -11 101.5 t-33.5 93.5t-57.5 76t-84 45l-535 -987q74 14 141.5 75.5t119 142.5t81 165t29.5 141zM539 707q0 -41 9 -79t28.5 -67t48 -46t65.5 -19l541 997q-6 2 -21 2q-84 0 -165.5 -39t-156.5 -103.5t-138.5 -147.5t-110.5 -170t-73.5 -172.5t-26.5 -155.5z" />
<glyph unicode="&#xd9;" horiz-adv-x="1773" d="M1817 1370q-25 -92 -65 -211l-86 -247l-92 -260q-46 -132 -83 -250.5t-60.5 -218t-23.5 -163.5q0 -2 2 -11t8 -18t16.5 -16.5t28.5 -7.5q20 0 55 11.5t89.5 53.5t130 125t180.5 228l12 -10l-134 -177t-122.5 -140.5t-111 -93.5t-99.5 -34q-41 0 -66.5 31t-39 75t-18.5 93 t-5 86q0 53 22.5 142t57.5 197t78 226l84 230l-130 -253q-69 -128 -141.5 -249t-147.5 -226.5t-149.5 -184.5t-146.5 -124t-137 -45q-29 0 -58.5 19.5t-52 57.5t-37 92.5t-14.5 125.5q0 104 25.5 200.5t63.5 189t83 181.5t83 178t63.5 178t25.5 183q0 154 -98 243t-291 89 q-119 0 -250 -53t-239.5 -144.5t-180 -213t-71.5 -259.5q0 -72 14 -137t47 -114.5t86 -79t133 -29.5q92 0 182.5 53t162 135t116.5 180.5t45 188.5q0 61 -36 108.5t-107 47.5q-84 0 -149.5 -35t-115 -90.5t-83 -123t-52.5 -132.5l-20 6q18 68 56 138.5t92.5 127.5t121 94 t142.5 37q53 0 90 -19.5t59.5 -51t32.5 -71.5t10 -79q0 -104 -36 -200.5t-100.5 -170t-156.5 -120t-203 -54.5q-170 0 -264 93.5t-94 273.5q0 150 69.5 280.5t181.5 228t251 153t278 55.5q98 0 184.5 -30t150 -88.5t100 -143.5t36.5 -195q0 -86 -27.5 -181.5t-68.5 -194.5 t-88 -198.5t-88 -197t-68.5 -187.5t-27.5 -170q0 -18 4 -43.5t13 -49t24.5 -41t36.5 -17.5q98 0 215.5 108.5t243.5 292t254 422t247 498.5l29 98h119zM1419 1501q-33 10 -70.5 31.5t-74.5 50.5t-65.5 64.5t-43.5 74.5l72 50q16 -66 71.5 -132.5t135.5 -117.5z" />
<glyph unicode="&#xda;" horiz-adv-x="1773" d="M1817 1370q-25 -92 -65 -211l-86 -247l-92 -260q-46 -132 -83 -250.5t-60.5 -218t-23.5 -163.5q0 -2 2 -11t8 -18t16.5 -16.5t28.5 -7.5q20 0 55 11.5t89.5 53.5t130 125t180.5 228l12 -10l-134 -177t-122.5 -140.5t-111 -93.5t-99.5 -34q-41 0 -66.5 31t-39 75t-18.5 93 t-5 86q0 53 22.5 142t57.5 197t78 226l84 230l-130 -253q-69 -128 -141.5 -249t-147.5 -226.5t-149.5 -184.5t-146.5 -124t-137 -45q-29 0 -58.5 19.5t-52 57.5t-37 92.5t-14.5 125.5q0 104 25.5 200.5t63.5 189t83 181.5t83 178t63.5 178t25.5 183q0 154 -98 243t-291 89 q-119 0 -250 -53t-239.5 -144.5t-180 -213t-71.5 -259.5q0 -72 14 -137t47 -114.5t86 -79t133 -29.5q92 0 182.5 53t162 135t116.5 180.5t45 188.5q0 61 -36 108.5t-107 47.5q-84 0 -149.5 -35t-115 -90.5t-83 -123t-52.5 -132.5l-20 6q18 68 56 138.5t92.5 127.5t121 94 t142.5 37q53 0 90 -19.5t59.5 -51t32.5 -71.5t10 -79q0 -104 -36 -200.5t-100.5 -170t-156.5 -120t-203 -54.5q-170 0 -264 93.5t-94 273.5q0 150 69.5 280.5t181.5 228t251 153t278 55.5q98 0 184.5 -30t150 -88.5t100 -143.5t36.5 -195q0 -86 -27.5 -181.5t-68.5 -194.5 t-88 -198.5t-88 -197t-68.5 -187.5t-27.5 -170q0 -18 4 -43.5t13 -49t24.5 -41t36.5 -17.5q98 0 215.5 108.5t243.5 292t254 422t247 498.5l29 98h119zM1257 1518q80 51 135.5 117.5t71.5 131.5l72 -49q-14 -39 -43 -74.5t-65.5 -64.5t-74.5 -50.5t-71 -31.5z" />
<glyph unicode="&#xdb;" horiz-adv-x="1773" d="M1817 1370q-25 -92 -65 -211l-86 -247l-92 -260q-46 -132 -83 -250.5t-60.5 -218t-23.5 -163.5q0 -2 2 -11t8 -18t16.5 -16.5t28.5 -7.5q20 0 55 11.5t89.5 53.5t130 125t180.5 228l12 -10l-134 -177t-122.5 -140.5t-111 -93.5t-99.5 -34q-41 0 -66.5 31t-39 75t-18.5 93 t-5 86q0 53 22.5 142t57.5 197t78 226l84 230l-130 -253q-69 -128 -141.5 -249t-147.5 -226.5t-149.5 -184.5t-146.5 -124t-137 -45q-29 0 -58.5 19.5t-52 57.5t-37 92.5t-14.5 125.5q0 104 25.5 200.5t63.5 189t83 181.5t83 178t63.5 178t25.5 183q0 154 -98 243t-291 89 q-119 0 -250 -53t-239.5 -144.5t-180 -213t-71.5 -259.5q0 -72 14 -137t47 -114.5t86 -79t133 -29.5q92 0 182.5 53t162 135t116.5 180.5t45 188.5q0 61 -36 108.5t-107 47.5q-84 0 -149.5 -35t-115 -90.5t-83 -123t-52.5 -132.5l-20 6q18 68 56 138.5t92.5 127.5t121 94 t142.5 37q53 0 90 -19.5t59.5 -51t32.5 -71.5t10 -79q0 -104 -36 -200.5t-100.5 -170t-156.5 -120t-203 -54.5q-170 0 -264 93.5t-94 273.5q0 150 69.5 280.5t181.5 228t251 153t278 55.5q98 0 184.5 -30t150 -88.5t100 -143.5t36.5 -195q0 -86 -27.5 -181.5t-68.5 -194.5 t-88 -198.5t-88 -197t-68.5 -187.5t-27.5 -170q0 -18 4 -43.5t13 -49t24.5 -41t36.5 -17.5q98 0 215.5 108.5t243.5 292t254 422t247 498.5l29 98h119zM1430 1735l110 -213l-39 -19l-88 144l-227 -154l-31 31l264 211h11z" />
<glyph unicode="&#xdc;" horiz-adv-x="1773" d="M1817 1370q-25 -92 -65 -211l-86 -247l-92 -260q-46 -132 -83 -250.5t-60.5 -218t-23.5 -163.5q0 -2 2 -11t8 -18t16.5 -16.5t28.5 -7.5q20 0 55 11.5t89.5 53.5t130 125t180.5 228l12 -10l-134 -177t-122.5 -140.5t-111 -93.5t-99.5 -34q-41 0 -66.5 31t-39 75t-18.5 93 t-5 86q0 53 22.5 142t57.5 197t78 226l84 230l-130 -253q-69 -128 -141.5 -249t-147.5 -226.5t-149.5 -184.5t-146.5 -124t-137 -45q-29 0 -58.5 19.5t-52 57.5t-37 92.5t-14.5 125.5q0 104 25.5 200.5t63.5 189t83 181.5t83 178t63.5 178t25.5 183q0 154 -98 243t-291 89 q-119 0 -250 -53t-239.5 -144.5t-180 -213t-71.5 -259.5q0 -72 14 -137t47 -114.5t86 -79t133 -29.5q92 0 182.5 53t162 135t116.5 180.5t45 188.5q0 61 -36 108.5t-107 47.5q-84 0 -149.5 -35t-115 -90.5t-83 -123t-52.5 -132.5l-20 6q18 68 56 138.5t92.5 127.5t121 94 t142.5 37q53 0 90 -19.5t59.5 -51t32.5 -71.5t10 -79q0 -104 -36 -200.5t-100.5 -170t-156.5 -120t-203 -54.5q-170 0 -264 93.5t-94 273.5q0 150 69.5 280.5t181.5 228t251 153t278 55.5q98 0 184.5 -30t150 -88.5t100 -143.5t36.5 -195q0 -86 -27.5 -181.5t-68.5 -194.5 t-88 -198.5t-88 -197t-68.5 -187.5t-27.5 -170q0 -18 4 -43.5t13 -49t24.5 -41t36.5 -17.5q98 0 215.5 108.5t243.5 292t254 422t247 498.5l29 98h119zM1421 1559q0 33 24.5 63.5t59.5 30.5q25 0 41.5 -17.5t16.5 -42.5q0 -33 -25 -63.5t-57 -30.5q-25 0 -42.5 17.5 t-17.5 42.5zM1176 1559q0 33 24.5 63.5t59.5 30.5q25 0 41 -17.5t16 -42.5q0 -33 -25.5 -63.5t-58.5 -30.5q-25 0 -41 17.5t-16 42.5z" />
<glyph unicode="&#xdd;" horiz-adv-x="1306" d="M113 1112q20 82 57 144.5t82 105.5t91 64.5t83 21.5q86 0 135 -60.5t49 -146.5t-35.5 -167t-96 -144.5t-140.5 -101t-170 -37.5q-72 0 -123 24.5t-84 67.5t-48 100t-15 121q0 141 60 258t157.5 201t219.5 130t245 46q63 0 129.5 -25.5t122 -70t91 -105.5t35.5 -133 q0 -100 -26.5 -182t-57 -163t-57 -173t-26.5 -215q0 -23 17 -44.5t40 -21.5q59 0 124.5 52.5t131 135.5t126 186t112 205.5t87 192.5t52.5 150h110q-49 -135 -86 -278l-74 -284q-38 -142 -83 -282.5t-109 -269.5q-55 -117 -147.5 -213.5t-203 -165t-232 -107.5t-240.5 -39 q-82 0 -157 17.5t-131 53.5t-90 91t-34 133q0 100 49 184.5t125 142.5t165 91t169 33q45 0 89 -14.5t80 -40t57.5 -63.5t21.5 -85q0 -84 -40 -140t-102.5 -91t-139.5 -50.5t-150 -15.5h-32q-15 0 -32 2l-2 17h56q28 0 57 4q53 4 114.5 28.5t114.5 64.5t89 92t36 112 q0 37 -19.5 64.5t-49 46t-65.5 27.5t-69 9q-90 0 -179 -28.5t-160.5 -82t-116.5 -127t-45 -165.5q0 -80 32.5 -134.5t85 -89t117 -50t129.5 -15.5q78 0 156 16.5t151.5 46t139 74.5t118.5 105q98 111 163 248t114 289.5t93 312t101 317.5l-68 -142q-38 -79 -82 -160 t-94.5 -159t-103.5 -138.5t-109.5 -97t-113.5 -36.5q-39 0 -66.5 27.5t-44 67.5t-24.5 85t-8 80q0 82 24.5 160.5t55 156.5t55 156t24.5 160q0 63 -27.5 108t-72.5 75t-100.5 43t-110.5 13q-117 0 -230.5 -51t-203.5 -138t-145.5 -199.5t-55.5 -235.5q0 -55 12.5 -105.5 t40 -87.5t71.5 -59.5t108 -22.5q74 0 148.5 44t135 110.5t97 144.5t36.5 146q0 66 -31.5 111.5t-99.5 45.5q-41 0 -86 -17.5t-88 -56t-77.5 -99t-53.5 -146.5zM1159 1659q80 51 135.5 117.5t71.5 132.5l72 -49q-14 -39 -43 -75t-66 -64.5t-74.5 -50t-70.5 -32.5z" />
<glyph unicode="&#xde;" horiz-adv-x="1540" d="M391 881q31 45 75 89t95 79.5t106.5 57t110.5 21.5q39 0 78 -13t69.5 -38.5t50 -62.5t19.5 -84q0 -96 -44 -177t-117.5 -139.5t-171 -91.5t-203.5 -33q-63 0 -121.5 18.5t-104 55.5t-72 92.5t-26.5 130.5q0 147 75 261t194.5 193t269 119t301.5 40t299 -60 q63 129 148 241t210 194l21 -29q-57 -25 -102.5 -67t-81 -99t-65.5 -127t-56 -147q117 -66 194.5 -173.5t77.5 -259.5q0 -82 -43 -163.5t-121 -152.5t-190.5 -122t-249.5 -69q-61 -104 -141 -192.5t-186.5 -153t-243 -101.5t-308.5 -37q-47 0 -86 9.5t-74 23.5l21 23 q70 -29 154 -29q150 0 266.5 32.5t205.5 93t155.5 142.5t119.5 180h-22q-49 0 -105 6l-10 27q27 -2 47 -3t41 -1h33q16 0 32 2q51 104 93 221l79 237l80 239q41 120 95 233q-74 31 -148 43t-127 12q-158 0 -304 -41t-261 -115.5t-183.5 -179t-68.5 -229.5q0 -90 28.5 -144.5 t73.5 -84t97.5 -39t99.5 -9.5q84 0 171 37t157.5 95.5t115.5 131t45 144.5q0 78 -55 120t-151 42q-39 0 -85 -20.5t-90.5 -54.5t-85 -76t-71.5 -85zM1339 1276q-33 -100 -62.5 -211t-64 -224.5t-77.5 -225t-99 -214.5q143 29 237.5 92.5t151 140.5t80 155.5t23.5 134.5 q0 133 -55.5 218t-133.5 134z" />
<glyph unicode="&#xdf;" horiz-adv-x="907" d="M451 1147q25 82 61.5 148.5t77.5 112.5t84 71.5t82 25.5q43 0 75.5 -22.5t54 -62.5t33 -93t11.5 -115q0 -84 -20.5 -176t-63.5 -176t-106.5 -154.5t-149.5 -109.5q78 -55 134 -131t56 -166q0 -41 -15 -84t-42 -84t-64.5 -78t-80.5 -61q6 -14 14 -17.5t18 -3.5 q43 0 95.5 36t108.5 94.5t115 131.5l118 152l12 -10l-107 -145q-57 -75 -117.5 -136t-119 -101t-109.5 -40q-27 0 -43 31q-27 -16 -57.5 -25.5t-52.5 -9.5q-57 0 -82 37t-25 84q0 49 22.5 91t61.5 42q23 0 32 -13.5t9 -31.5q0 -33 -27.5 -69t-74.5 -36q0 -35 17 -59.5 t46 -24.5q66 0 114 49.5t79.5 114t47 129t15.5 94.5q0 82 -33.5 135.5t-103.5 108.5q86 33 148.5 104.5t103.5 160.5t61.5 184.5t20.5 179.5q0 96 -25.5 158.5t-77.5 62.5q-25 0 -54.5 -22.5t-58 -62.5t-55 -95.5t-47.5 -122.5l-592 -1897h-112l409 1325q-25 -51 -59.5 -107 t-81.5 -122l-14 10q33 43 66.5 98.5t61 108.5t47 95t25.5 59z" />
<glyph unicode="&#xe0;" horiz-adv-x="806" d="M698 625q-92 -258 -135 -412t-43 -217q0 -8 3 -15.5t20 -7.5q25 0 73 38t105 97.5t117.5 132t109.5 144.5l13 -10q-51 -74 -112 -149.5t-117 -137t-104 -100.5t-75 -39q-31 0 -50.5 17.5t-31.5 48t-16 70.5t-4 83l-38 -62q-24 -39 -53.5 -75.5t-63.5 -63t-71 -26.5 q-16 0 -44.5 13t-55.5 48t-46.5 93.5t-19.5 150.5q0 53 45.5 126.5t107.5 141.5t126.5 115t105.5 47q12 0 28.5 -4t33 -19.5t30 -44t21.5 -76.5l27 93h114zM528 528q0 37 -18 77t-59 40q-43 0 -93.5 -55t-93.5 -139t-72.5 -183.5t-29.5 -187.5q0 -43 11 -74t40 -31 q53 0 109.5 57.5t102.5 141.5t74.5 180t28.5 174zM518 786q-33 10 -70.5 32t-74.5 50.5t-65.5 64.5t-43.5 75l72 49q16 -66 71.5 -132.5t135.5 -117.5z" />
<glyph unicode="&#xe1;" horiz-adv-x="806" d="M698 625q-92 -258 -135 -412t-43 -217q0 -8 3 -15.5t20 -7.5q25 0 73 38t105 97.5t117.5 132t109.5 144.5l13 -10q-51 -74 -112 -149.5t-117 -137t-104 -100.5t-75 -39q-31 0 -50.5 17.5t-31.5 48t-16 70.5t-4 83l-38 -62q-24 -39 -53.5 -75.5t-63.5 -63t-71 -26.5 q-16 0 -44.5 13t-55.5 48t-46.5 93.5t-19.5 150.5q0 53 45.5 126.5t107.5 141.5t126.5 115t105.5 47q12 0 28.5 -4t33 -19.5t30 -44t21.5 -76.5l27 93h114zM528 528q0 37 -18 77t-59 40q-43 0 -93.5 -55t-93.5 -139t-72.5 -183.5t-29.5 -187.5q0 -43 11 -74t40 -31 q53 0 109.5 57.5t102.5 141.5t74.5 180t28.5 174zM387 807q80 51 135.5 117.5t71.5 132.5l72 -49q-14 -39 -43 -75t-66 -64.5t-75 -50t-70 -32.5z" />
<glyph unicode="&#xe2;" horiz-adv-x="806" d="M698 625q-92 -258 -135 -412t-43 -217q0 -8 3 -15.5t20 -7.5q25 0 73 38t105 97.5t117.5 132t109.5 144.5l13 -10q-51 -74 -112 -149.5t-117 -137t-104 -100.5t-75 -39q-31 0 -50.5 17.5t-31.5 48t-16 70.5t-4 83l-38 -62q-24 -39 -53.5 -75.5t-63.5 -63t-71 -26.5 q-16 0 -44.5 13t-55.5 48t-46.5 93.5t-19.5 150.5q0 53 45.5 126.5t107.5 141.5t126.5 115t105.5 47q12 0 28.5 -4t33 -19.5t30 -44t21.5 -76.5l27 93h114zM528 528q0 37 -18 77t-59 40q-43 0 -93.5 -55t-93.5 -139t-72.5 -183.5t-29.5 -187.5q0 -43 11 -74t40 -31 q53 0 109.5 57.5t102.5 141.5t74.5 180t28.5 174zM516 1028l111 -213l-39 -18l-88 143l-228 -154l-30 31l264 211h10z" />
<glyph unicode="&#xe3;" horiz-adv-x="806" d="M698 625q-92 -258 -135 -412t-43 -217q0 -8 3 -15.5t20 -7.5q25 0 73 38t105 97.5t117.5 132t109.5 144.5l13 -10q-51 -74 -112 -149.5t-117 -137t-104 -100.5t-75 -39q-31 0 -50.5 17.5t-31.5 48t-16 70.5t-4 83l-38 -62q-24 -39 -53.5 -75.5t-63.5 -63t-71 -26.5 q-16 0 -44.5 13t-55.5 48t-46.5 93.5t-19.5 150.5q0 53 45.5 126.5t107.5 141.5t126.5 115t105.5 47q12 0 28.5 -4t33 -19.5t30 -44t21.5 -76.5l27 93h114zM528 528q0 37 -18 77t-59 40q-43 0 -93.5 -55t-93.5 -139t-72.5 -183.5t-29.5 -187.5q0 -43 11 -74t40 -31 q53 0 109.5 57.5t102.5 141.5t74.5 180t28.5 174zM223 817q10 35 46 66.5t85 31.5q25 0 50.5 -9t51 -21.5t50 -21.5t47.5 -9q35 0 52 25l30 41l33 -17q-10 -35 -44 -69.5t-87 -34.5q-25 0 -50.5 9t-51 20.5t-50.5 20.5t-47 9q-33 0 -50 -21l-30 -38z" />
<glyph unicode="&#xe4;" horiz-adv-x="806" d="M698 625q-92 -258 -135 -412t-43 -217q0 -8 3 -15.5t20 -7.5q25 0 73 38t105 97.5t117.5 132t109.5 144.5l13 -10q-51 -74 -112 -149.5t-117 -137t-104 -100.5t-75 -39q-31 0 -50.5 17.5t-31.5 48t-16 70.5t-4 83l-38 -62q-24 -39 -53.5 -75.5t-63.5 -63t-71 -26.5 q-16 0 -44.5 13t-55.5 48t-46.5 93.5t-19.5 150.5q0 53 45.5 126.5t107.5 141.5t126.5 115t105.5 47q12 0 28.5 -4t33 -19.5t30 -44t21.5 -76.5l27 93h114zM528 528q0 37 -18 77t-59 40q-43 0 -93.5 -55t-93.5 -139t-72.5 -183.5t-29.5 -187.5q0 -43 11 -74t40 -31 q53 0 109.5 57.5t102.5 141.5t74.5 180t28.5 174zM539 848q0 33 24.5 63.5t59.5 30.5q25 0 41 -17.5t16 -41.5q0 -33 -24.5 -64t-57.5 -31q-25 0 -42 17.5t-17 42.5zM293 848q0 33 24.5 63.5t59.5 30.5q25 0 41 -17.5t16 -41.5q0 -33 -25.5 -64t-58.5 -31q-25 0 -41 17.5 t-16 42.5z" />
<glyph unicode="&#xe5;" horiz-adv-x="806" d="M698 625q-92 -258 -135 -412t-43 -217q0 -8 3 -15.5t20 -7.5q25 0 73 38t105 97.5t117.5 132t109.5 144.5l13 -10q-51 -74 -112 -149.5t-117 -137t-104 -100.5t-75 -39q-31 0 -50.5 17.5t-31.5 48t-16 70.5t-4 83l-38 -62q-24 -39 -53.5 -75.5t-63.5 -63t-71 -26.5 q-16 0 -44.5 13t-55.5 48t-46.5 93.5t-19.5 150.5q0 53 45.5 126.5t107.5 141.5t126.5 115t105.5 47q12 0 28.5 -4t33 -19.5t30 -44t21.5 -76.5l27 93h114zM528 528q0 37 -18 77t-59 40q-43 0 -93.5 -55t-93.5 -139t-72.5 -183.5t-29.5 -187.5q0 -43 11 -74t40 -31 q53 0 109.5 57.5t102.5 141.5t74.5 180t28.5 174zM342 913q0 59 41 99.5t98 40.5q59 0 99.5 -40t40.5 -100q0 -57 -40 -98t-100 -41q-57 0 -98 41t-41 98zM389 913q0 -41 25.5 -68.5t66.5 -27.5t70 27.5t29 68.5t-29 69t-70 28t-66.5 -28t-25.5 -69z" />
<glyph unicode="&#xe6;" horiz-adv-x="1038" d="M684 588q47 41 97 64.5t91 23.5q53 0 89 -36t36 -89q0 -55 -39.5 -109.5t-101 -100.5t-137.5 -81t-150 -51q-2 -18 -3 -36.5t-1 -37.5q0 -27 4 -54.5t16.5 -51t33 -38t51.5 -14.5q63 0 129.5 34t133 91.5t128 131t115.5 151.5l12 -10q-59 -86 -123 -164t-131.5 -136.5 t-136 -92t-138.5 -33.5q-43 0 -77.5 22.5t-59 58.5t-39 81t-16.5 90l-55.5 -96.5t-59 -84t-63.5 -58t-64 -21.5q-16 0 -44.5 13t-55.5 48t-46.5 93.5t-19.5 150.5q0 53 45.5 126.5t107.5 141.5t126.5 115t105.5 47q12 0 28.5 -4t33 -19.5t30 -44t21.5 -76.5l39 132h115z M528 528q0 37 -18 77t-59 40q-43 0 -93.5 -55t-93.5 -139t-72.5 -183.5t-29.5 -187.5q0 -43 11 -74t40 -31q55 0 111.5 59.5t101.5 144.5t73.5 180t28.5 169zM590 303q-4 -16 -8 -35l-9 -37q59 14 125 47t120 77t90 96.5t36 109.5q0 35 -21.5 59.5t-58.5 24.5q-49 0 -94 -40 t-81 -94t-61.5 -112.5t-37.5 -95.5z" />
<glyph unicode="&#xe7;" horiz-adv-x="604" d="M59 -303q27 -10 64 -19.5t86 -9.5q47 0 76.5 24.5t29.5 57.5q0 39 -23.5 53.5t-53.5 14.5q-29 0 -60 -11l-10 33l53 111q-72 12 -119 88t-47 211q0 27 21.5 69.5t58.5 90t84 94.5t99.5 86t104.5 62.5t97 23.5q27 0 45.5 -12.5t29.5 -31t15 -42t4 -45.5q0 -55 -27.5 -91 t-64.5 -36q-23 0 -36 18.5t-13 42.5q0 33 22.5 63.5t69.5 30.5q4 0 7 -1t6 -1q0 43 -23 57.5t-47 14.5q-55 0 -114.5 -47t-111 -123t-84 -172t-32.5 -195q0 -20 3 -43.5t11 -43t24.5 -33t41.5 -13.5q41 0 89 14.5t107.5 57.5t133 124t169.5 216l13 -10q-78 -106 -142.5 -185 t-123 -131.5t-113.5 -80t-113 -29.5l-45 -88q10 2 18.5 3t18.5 1q47 0 86 -24.5t39 -80.5q0 -57 -45 -94t-123 -37q-53 0 -98 11.5t-74 25.5z" />
<glyph unicode="&#xe8;" horiz-adv-x="626" d="M586 551q0 -55 -40 -109.5t-101.5 -100.5t-137.5 -81t-149 -51q-2 -18 -3 -36.5t-1 -37.5q0 -27 4 -54.5t16 -51t32.5 -38t51.5 -14.5q63 0 130 34t133.5 91.5t128 131t114.5 151.5l12 -10q-59 -86 -122.5 -164t-131 -136.5t-136.5 -92t-138 -33.5q-47 0 -83 24.5 t-60.5 64.5t-37 88t-12.5 95q0 72 42 152t103.5 147.5t132 111.5t128.5 44q53 0 89 -36t36 -89zM453 645q-31 0 -75 -31.5t-87 -88t-79 -132.5t-50 -162q59 14 124.5 47t120 77t90 96.5t35.5 109.5q0 35 -21 59.5t-58 24.5zM479 786q-33 10 -70.5 32t-74.5 50.5t-65.5 64.5 t-43.5 75l72 49q16 -66 71.5 -132.5t135.5 -117.5z" />
<glyph unicode="&#xe9;" horiz-adv-x="626" d="M586 551q0 -55 -40 -109.5t-101.5 -100.5t-137.5 -81t-149 -51q-2 -18 -3 -36.5t-1 -37.5q0 -27 4 -54.5t16 -51t32.5 -38t51.5 -14.5q63 0 130 34t133.5 91.5t128 131t114.5 151.5l12 -10q-59 -86 -122.5 -164t-131 -136.5t-136.5 -92t-138 -33.5q-47 0 -83 24.5 t-60.5 64.5t-37 88t-12.5 95q0 72 42 152t103.5 147.5t132 111.5t128.5 44q53 0 89 -36t36 -89zM453 645q-31 0 -75 -31.5t-87 -88t-79 -132.5t-50 -162q59 14 124.5 47t120 77t90 96.5t35.5 109.5q0 35 -21 59.5t-58 24.5zM330 807q80 51 135 117.5t72 132.5l71 -49 q-14 -39 -42.5 -75t-65.5 -64.5t-75 -50t-71 -32.5z" />
<glyph unicode="&#xea;" horiz-adv-x="626" d="M586 551q0 -55 -40 -109.5t-101.5 -100.5t-137.5 -81t-149 -51q-2 -18 -3 -36.5t-1 -37.5q0 -27 4 -54.5t16 -51t32.5 -38t51.5 -14.5q63 0 130 34t133.5 91.5t128 131t114.5 151.5l12 -10q-59 -86 -122.5 -164t-131 -136.5t-136.5 -92t-138 -33.5q-47 0 -83 24.5 t-60.5 64.5t-37 88t-12.5 95q0 72 42 152t103.5 147.5t132 111.5t128.5 44q53 0 89 -36t36 -89zM453 645q-31 0 -75 -31.5t-87 -88t-79 -132.5t-50 -162q59 14 124.5 47t120 77t90 96.5t35.5 109.5q0 35 -21 59.5t-58 24.5zM522 1028l111 -213l-39 -18l-88 143l-227 -154 l-31 31l264 211h10z" />
<glyph unicode="&#xeb;" horiz-adv-x="626" d="M586 551q0 -55 -40 -109.5t-101.5 -100.5t-137.5 -81t-149 -51q-2 -18 -3 -36.5t-1 -37.5q0 -27 4 -54.5t16 -51t32.5 -38t51.5 -14.5q63 0 130 34t133.5 91.5t128 131t114.5 151.5l12 -10q-59 -86 -122.5 -164t-131 -136.5t-136.5 -92t-138 -33.5q-47 0 -83 24.5 t-60.5 64.5t-37 88t-12.5 95q0 72 42 152t103.5 147.5t132 111.5t128.5 44q53 0 89 -36t36 -89zM453 645q-31 0 -75 -31.5t-87 -88t-79 -132.5t-50 -162q59 14 124.5 47t120 77t90 96.5t35.5 109.5q0 35 -21 59.5t-58 24.5zM526 848q0 33 24.5 63.5t59.5 30.5 q25 0 41.5 -17.5t16.5 -41.5q0 -33 -25 -64t-57 -31q-25 0 -42.5 17.5t-17.5 42.5zM281 848q0 33 24.5 63.5t59.5 30.5q25 0 41 -17.5t16 -41.5q0 -33 -25.5 -64t-58.5 -31q-25 0 -41 17.5t-16 42.5z" />
<glyph unicode="&#xec;" horiz-adv-x="421" d="M66 158q0 25 12 71.5t32 108.5l43 135l48 152h112q-4 -10 -18 -52l-35 -99l-41.5 -126.5t-40 -135.5t-31 -124t-12.5 -92q0 -8 3 -15.5t20 -7.5q25 0 73 38t105 97.5t117.5 132t109.5 144.5l12 -10q-51 -74 -111.5 -149.5t-116.5 -137t-104 -100.5t-75 -39 q-61 0 -81.5 60.5t-20.5 148.5zM326 786q-33 10 -71 32t-75 50.5t-65.5 64.5t-42.5 75l71 49q16 -66 71.5 -132.5t135.5 -117.5z" />
<glyph unicode="&#xed;" horiz-adv-x="421" d="M66 158q0 25 12 71.5t32 108.5l43 135l48 152h112q-4 -10 -18 -52l-35 -99l-41.5 -126.5t-40 -135.5t-31 -124t-12.5 -92q0 -8 3 -15.5t20 -7.5q25 0 73 38t105 97.5t117.5 132t109.5 144.5l12 -10q-51 -74 -111.5 -149.5t-116.5 -137t-104 -100.5t-75 -39 q-61 0 -81.5 60.5t-20.5 148.5zM172 807q80 51 135 117.5t72 132.5l72 -49q-14 -39 -43 -75t-66 -64.5t-75 -50t-70 -32.5z" />
<glyph unicode="&#xee;" horiz-adv-x="421" d="M66 158q0 25 12 71.5t32 108.5l43 135l48 152h112q-4 -10 -18 -52l-35 -99l-41.5 -126.5t-40 -135.5t-31 -124t-12.5 -92q0 -8 3 -15.5t20 -7.5q25 0 73 38t105 97.5t117.5 132t109.5 144.5l12 -10q-51 -74 -111.5 -149.5t-116.5 -137t-104 -100.5t-75 -39 q-61 0 -81.5 60.5t-20.5 148.5zM340 1028l111 -213l-39 -18l-88 143l-228 -154l-30 31l264 211h10z" />
<glyph unicode="&#xef;" horiz-adv-x="421" d="M66 158q0 25 12 71.5t32 108.5l43 135l48 152h112q-4 -10 -18 -52l-35 -99l-41.5 -126.5t-40 -135.5t-31 -124t-12.5 -92q0 -8 3 -15.5t20 -7.5q25 0 73 38t105 97.5t117.5 132t109.5 144.5l12 -10q-51 -74 -111.5 -149.5t-116.5 -137t-104 -100.5t-75 -39 q-61 0 -81.5 60.5t-20.5 148.5zM344 848q0 33 24.5 63.5t59.5 30.5q25 0 41 -17.5t16 -41.5q0 -33 -24.5 -64t-57.5 -31q-25 0 -42 17.5t-17 42.5zM98 848q0 33 24.5 63.5t59.5 30.5q25 0 41.5 -17.5t16.5 -41.5q0 -33 -26 -64t-58 -31q-25 0 -41.5 17.5t-16.5 42.5z" />
<glyph unicode="&#xf0;" horiz-adv-x="684" d="M381 1307q20 -23 60 -92.5t87 -186.5l215 72l13 -35l-215 -68q35 -100 52 -189t17 -171q0 -123 -23.5 -230.5t-78.5 -216.5q8 -29 22.5 -46t47.5 -17q25 0 56.5 26.5t65 66.5t67.5 85l58 80l13 -10l-59 -81q-34 -46 -69.5 -87t-70.5 -69.5t-66 -28.5t-50 23.5t-25 39.5 q-59 -104 -131 -156.5t-131 -52.5q-47 0 -78 30t-51.5 71.5t-28.5 88t-8 76.5q0 47 40 120t98 140.5t123.5 116.5t119.5 49q20 0 50.5 -13t47.5 -48q0 45 -4 85t-12.5 83t-20.5 95t-31 122l-268 -88l-10 35l268 86q-41 119 -70.5 188.5t-42.5 91.5zM166 123q0 -12 1 -36 t7 -47.5t18.5 -40.5t36.5 -17q47 0 99.5 55t95.5 132t70.5 159t27.5 137q0 20 -1 49t-7 55.5t-17.5 46t-31.5 19.5q-45 0 -84 -30t-73 -76t-60.5 -103t-44 -114.5t-27.5 -107.5t-10 -81z" />
<glyph unicode="&#xf1;" horiz-adv-x="1046" d="M242 -23q6 16 22 65l38 113l45 135l43 132q19 61 31.5 105t12.5 57q0 29 -2 42t-16 13q-37 0 -108.5 -69.5t-176.5 -223.5l-14 10q115 168 185.5 244t117.5 76q20 0 37.5 -11.5t28 -27.5t16.5 -35.5t6 -38.5q0 -76 -24.5 -158.5t-73.5 -209.5q49 84 105 170t111.5 154.5 t106.5 112.5t90 44q20 0 38 -14.5t28 -35t16 -43t6 -40.5q0 -68 -23.5 -150t-52.5 -159l-54 -138q-24 -61 -23 -86q0 -35 26 -35q23 0 70 37t103.5 95.5t117 132t109.5 145.5l14 -12q-59 -84 -120.5 -160t-117 -135.5t-101.5 -94t-73 -34.5t-45 17.5t-29.5 43t-16.5 55 t-5 54.5q0 45 23.5 118.5t53.5 148.5l53 136q24 61 24 82q0 35 -25 35q-35 0 -87 -49t-113.5 -128t-125 -177.5t-118.5 -194.5l-37 -113h-96zM492 817q10 35 45.5 66.5t85.5 31.5q25 0 50 -9t51 -21.5t50.5 -21.5t46.5 -9q35 0 52 25l30 41l33 -17q-10 -35 -44 -69.5 t-87 -34.5q-25 0 -50.5 9t-51 20.5t-50 20.5t-47.5 9q-33 0 -50 -21l-30 -38z" />
<glyph unicode="&#xf2;" horiz-adv-x="686" d="M70 223q0 47 40 121t98 143.5t123.5 119.5t119.5 50q39 0 64.5 -21.5t40.5 -54t21.5 -71.5t6.5 -72q0 -51 -20.5 -118.5t-51.5 -129.5q8 -29 21.5 -46t46.5 -17q25 0 56.5 26.5t65 66.5t67.5 85l58 80l13 -10l-59 -81q-34 -46 -69.5 -87t-70.5 -69.5t-66 -28.5t-50 21.5 t-25 37.5q-18 -29 -47 -65.5t-64 -71.5t-74 -58.5t-79 -23.5q-47 0 -78 29.5t-51.5 72.5t-28.5 90t-8 82zM166 117q0 -16 1 -41t7 -49.5t18.5 -42t36.5 -17.5q37 0 73 19.5t70 50.5t64.5 70.5t55.5 82.5q-10 25 -19.5 65t-9.5 79q0 51 17.5 90t60.5 39q10 0 22 -4 q0 20 -5 50t-16.5 58.5t-30.5 49t-46 20.5q-68 0 -122 -63.5t-94 -149.5t-61.5 -173t-21.5 -134zM514 786q-33 10 -70.5 32t-74.5 50.5t-66 64.5t-43 75l72 49q16 -66 71.5 -132.5t135.5 -117.5z" />
<glyph unicode="&#xf3;" horiz-adv-x="686" d="M70 223q0 47 40 121t98 143.5t123.5 119.5t119.5 50q39 0 64.5 -21.5t40.5 -54t21.5 -71.5t6.5 -72q0 -51 -20.5 -118.5t-51.5 -129.5q8 -29 21.5 -46t46.5 -17q25 0 56.5 26.5t65 66.5t67.5 85l58 80l13 -10l-59 -81q-34 -46 -69.5 -87t-70.5 -69.5t-66 -28.5t-50 21.5 t-25 37.5q-18 -29 -47 -65.5t-64 -71.5t-74 -58.5t-79 -23.5q-47 0 -78 29.5t-51.5 72.5t-28.5 90t-8 82zM166 117q0 -16 1 -41t7 -49.5t18.5 -42t36.5 -17.5q37 0 73 19.5t70 50.5t64.5 70.5t55.5 82.5q-10 25 -19.5 65t-9.5 79q0 51 17.5 90t60.5 39q10 0 22 -4 q0 20 -5 50t-16.5 58.5t-30.5 49t-46 20.5q-68 0 -122 -63.5t-94 -149.5t-61.5 -173t-21.5 -134zM389 807q80 51 135.5 117.5t71.5 132.5l72 -49q-14 -39 -43 -75t-66 -64.5t-75 -50t-70 -32.5z" />
<glyph unicode="&#xf4;" horiz-adv-x="686" d="M70 223q0 47 40 121t98 143.5t123.5 119.5t119.5 50q39 0 64.5 -21.5t40.5 -54t21.5 -71.5t6.5 -72q0 -51 -20.5 -118.5t-51.5 -129.5q8 -29 21.5 -46t46.5 -17q25 0 56.5 26.5t65 66.5t67.5 85l58 80l13 -10l-59 -81q-34 -46 -69.5 -87t-70.5 -69.5t-66 -28.5t-50 21.5 t-25 37.5q-18 -29 -47 -65.5t-64 -71.5t-74 -58.5t-79 -23.5q-47 0 -78 29.5t-51.5 72.5t-28.5 90t-8 82zM166 117q0 -16 1 -41t7 -49.5t18.5 -42t36.5 -17.5q37 0 73 19.5t70 50.5t64.5 70.5t55.5 82.5q-10 25 -19.5 65t-9.5 79q0 51 17.5 90t60.5 39q10 0 22 -4 q0 20 -5 50t-16.5 58.5t-30.5 49t-46 20.5q-68 0 -122 -63.5t-94 -149.5t-61.5 -173t-21.5 -134zM545 1028l110 -213l-39 -18l-88 143l-227 -154l-31 31l265 211h10z" />
<glyph unicode="&#xf5;" horiz-adv-x="686" d="M70 223q0 47 40 121t98 143.5t123.5 119.5t119.5 50q39 0 64.5 -21.5t40.5 -54t21.5 -71.5t6.5 -72q0 -51 -20.5 -118.5t-51.5 -129.5q8 -29 21.5 -46t46.5 -17q25 0 56.5 26.5t65 66.5t67.5 85l58 80l13 -10l-59 -81q-34 -46 -69.5 -87t-70.5 -69.5t-66 -28.5t-50 21.5 t-25 37.5q-18 -29 -47 -65.5t-64 -71.5t-74 -58.5t-79 -23.5q-47 0 -78 29.5t-51.5 72.5t-28.5 90t-8 82zM166 117q0 -16 1 -41t7 -49.5t18.5 -42t36.5 -17.5q37 0 73 19.5t70 50.5t64.5 70.5t55.5 82.5q-10 25 -19.5 65t-9.5 79q0 51 17.5 90t60.5 39q10 0 22 -4 q0 20 -5 50t-16.5 58.5t-30.5 49t-46 20.5q-68 0 -122 -63.5t-94 -149.5t-61.5 -173t-21.5 -134zM221 817q10 35 46 66.5t85 31.5q25 0 50.5 -9t51 -21.5t50 -21.5t47.5 -9q35 0 52 25l30 41l33 -17q-10 -35 -44 -69.5t-87 -34.5q-25 0 -50.5 9t-51 20.5t-50.5 20.5t-47 9 q-33 0 -50 -21l-30 -38z" />
<glyph unicode="&#xf6;" horiz-adv-x="686" d="M70 223q0 47 40 121t98 143.5t123.5 119.5t119.5 50q39 0 64.5 -21.5t40.5 -54t21.5 -71.5t6.5 -72q0 -51 -20.5 -118.5t-51.5 -129.5q8 -29 21.5 -46t46.5 -17q25 0 56.5 26.5t65 66.5t67.5 85l58 80l13 -10l-59 -81q-34 -46 -69.5 -87t-70.5 -69.5t-66 -28.5t-50 21.5 t-25 37.5q-18 -29 -47 -65.5t-64 -71.5t-74 -58.5t-79 -23.5q-47 0 -78 29.5t-51.5 72.5t-28.5 90t-8 82zM166 117q0 -16 1 -41t7 -49.5t18.5 -42t36.5 -17.5q37 0 73 19.5t70 50.5t64.5 70.5t55.5 82.5q-10 25 -19.5 65t-9.5 79q0 51 17.5 90t60.5 39q10 0 22 -4 q0 20 -5 50t-16.5 58.5t-30.5 49t-46 20.5q-68 0 -122 -63.5t-94 -149.5t-61.5 -173t-21.5 -134zM539 848q0 33 24.5 63.5t59.5 30.5q25 0 41 -17.5t16 -41.5q0 -33 -24.5 -64t-57.5 -31q-25 0 -42 17.5t-17 42.5zM293 848q0 33 24.5 63.5t59.5 30.5q25 0 41 -17.5t16 -41.5 q0 -33 -25.5 -64t-58.5 -31q-25 0 -41 17.5t-16 42.5z" />
<glyph unicode="&#xf7;" horiz-adv-x="851" d="M305 160q0 33 24.5 63.5t59.5 30.5q25 0 41 -17.5t16 -41.5q0 -33 -24.5 -64t-56.5 -31q-25 0 -42.5 17.5t-17.5 42.5zM436 625q0 33 24.5 63.5t59.5 30.5q25 0 41.5 -17.5t16.5 -42.5q0 -33 -26 -63.5t-58 -30.5q-25 0 -41.5 17.5t-16.5 42.5zM158 444h600l-21 -69h-600 z" />
<glyph unicode="&#xf8;" horiz-adv-x="686" d="M580 739l-56 -112q35 -33 47.5 -87.5t12.5 -101.5q0 -51 -20.5 -118.5t-51.5 -129.5q8 -29 21.5 -46t46.5 -17q25 0 56.5 26.5t65 66.5t67.5 85l58 80l13 -10l-59 -81q-34 -46 -69.5 -87t-70.5 -69.5t-66 -28.5t-50 21.5t-25 37.5q-18 -29 -47 -65.5t-64 -71.5t-74 -58.5 t-79 -23.5q-12 0 -22.5 2t-20.5 6l-50 -102h-34l57 116q-27 18 -45.5 50t-29.5 68t-16 72t-5 62q0 47 40 121t98 143.5t123.5 119.5t119.5 50q25 0 47 -12l45 94h37zM563 459q0 14 -2 33.5t-8 41t-15.5 42t-21.5 34.5l-313 -635q12 -8 26 -8q37 0 73 19.5t70 50.5t64.5 70.5 t55.5 82.5q-10 25 -19.5 65t-9.5 79q0 51 17.5 90t60.5 39q10 0 22 -4zM166 117q0 -20 1 -53t13 -62l309 629q-12 6 -24 6q-68 0 -122 -63.5t-94 -149.5t-61.5 -173t-21.5 -134z" />
<glyph unicode="&#xf9;" horiz-adv-x="808" d="M66 168q0 8 10 47l27 100l41 141l53 169h106q-78 -248 -123 -408t-45 -221q0 -8 3 -15.5t20 -7.5q41 0 136 99.5t218 281.5l82 271h106q-78 -248 -123 -408t-45 -221q0 -8 3.5 -15.5t19.5 -7.5q14 0 54 30t93.5 84t118 130t129.5 168l13 -10q-51 -74 -113 -149.5 t-118 -137t-101 -100.5t-66 -39q-35 0 -55.5 17.5t-30.5 48t-13 70.5t-3 83q0 20 31 125q-43 -61 -91.5 -122.5t-93.5 -111t-83 -80t-58 -30.5q-35 0 -55.5 17.5t-30.5 48t-13 70.5t-3 83zM520 786q-33 10 -70.5 32t-74.5 50.5t-65.5 64.5t-43.5 75l72 49 q16 -66 71.5 -132.5t135.5 -117.5z" />
<glyph unicode="&#xfa;" horiz-adv-x="808" d="M66 168q0 8 10 47l27 100l41 141l53 169h106q-78 -248 -123 -408t-45 -221q0 -8 3 -15.5t20 -7.5q41 0 136 99.5t218 281.5l82 271h106q-78 -248 -123 -408t-45 -221q0 -8 3.5 -15.5t19.5 -7.5q14 0 54 30t93.5 84t118 130t129.5 168l13 -10q-51 -74 -113 -149.5 t-118 -137t-101 -100.5t-66 -39q-35 0 -55.5 17.5t-30.5 48t-13 70.5t-3 83q0 20 31 125q-43 -61 -91.5 -122.5t-93.5 -111t-83 -80t-58 -30.5q-35 0 -55.5 17.5t-30.5 48t-13 70.5t-3 83zM395 807q80 51 135.5 117.5t71.5 132.5l72 -49q-14 -39 -43 -75t-66 -64.5 t-74.5 -50t-70.5 -32.5z" />
<glyph unicode="&#xfb;" horiz-adv-x="808" d="M66 168q0 8 10 47l27 100l41 141l53 169h106q-78 -248 -123 -408t-45 -221q0 -8 3 -15.5t20 -7.5q41 0 136 99.5t218 281.5l82 271h106q-78 -248 -123 -408t-45 -221q0 -8 3.5 -15.5t19.5 -7.5q14 0 54 30t93.5 84t118 130t129.5 168l13 -10q-51 -74 -113 -149.5 t-118 -137t-101 -100.5t-66 -39q-35 0 -55.5 17.5t-30.5 48t-13 70.5t-3 83q0 20 31 125q-43 -61 -91.5 -122.5t-93.5 -111t-83 -80t-58 -30.5q-35 0 -55.5 17.5t-30.5 48t-13 70.5t-3 83zM553 1028l111 -213l-39 -18l-88 143l-228 -154l-30 31l264 211h10z" />
<glyph unicode="&#xfc;" horiz-adv-x="808" d="M66 168q0 8 10 47l27 100l41 141l53 169h106q-78 -248 -123 -408t-45 -221q0 -8 3 -15.5t20 -7.5q41 0 136 99.5t218 281.5l82 271h106q-78 -248 -123 -408t-45 -221q0 -8 3.5 -15.5t19.5 -7.5q14 0 54 30t93.5 84t118 130t129.5 168l13 -10q-51 -74 -113 -149.5 t-118 -137t-101 -100.5t-66 -39q-35 0 -55.5 17.5t-30.5 48t-13 70.5t-3 83q0 20 31 125q-43 -61 -91.5 -122.5t-93.5 -111t-83 -80t-58 -30.5q-35 0 -55.5 17.5t-30.5 48t-13 70.5t-3 83zM553 848q0 33 24.5 63.5t59.5 30.5q25 0 41 -17.5t16 -41.5q0 -33 -24.5 -64 t-57.5 -31q-25 0 -42 17.5t-17 42.5zM307 848q0 33 24.5 63.5t59.5 30.5q25 0 41.5 -17.5t16.5 -41.5q0 -33 -26 -64t-58 -31q-25 0 -41.5 17.5t-16.5 42.5z" />
<glyph unicode="&#xfd;" horiz-adv-x="796" d="M461 -100l93 67q44 31 96 79t121 127t167 212l12 -10q-139 -197 -260 -319t-237 -187q-53 -143 -111.5 -271t-121 -224.5t-127 -153t-130.5 -56.5q-35 0 -57.5 26t-22.5 73q0 74 37 146.5t98.5 143t142.5 138t169 129.5l149 473q-43 -61 -91 -122.5t-93 -111t-83 -80 t-58 -30.5q-35 0 -55.5 17.5t-31 48t-13.5 70.5t-3 83q0 8 10 47l28 100l41 141l52 169h107q-78 -248 -123 -408t-45 -221q0 -8 3 -15.5t19 -7.5q41 0 136.5 99.5t218.5 281.5l82 271h106zM-37 -815q55 0 102.5 48t90.5 129t83 188.5t78 226.5q-86 -61 -161.5 -125 t-132 -128.5t-88 -131t-31.5 -135.5q0 -41 15 -54.5t44 -17.5zM373 807q80 51 135 117.5t72 132.5l71 -49q-14 -39 -42.5 -75t-65.5 -64.5t-75 -50t-71 -32.5z" />
<glyph unicode="&#xfe;" horiz-adv-x="901" d="M678 1499l-424 -1354l107 183q56 94 113.5 170.5t110 127t95.5 50.5q20 0 37.5 -14.5t28 -35t16.5 -43t6 -40.5q0 -68 -23.5 -150t-53.5 -159l-53 -138q-24 -61 -24 -86q0 -35 27 -35q23 0 70 37t103 95.5t116.5 132t109.5 145.5l15 -12q-59 -84 -121 -160t-117 -135.5 t-101 -94t-73 -34.5t-45 17.5t-29.5 43t-16.5 55t-5 54.5q0 45 23.5 120.5t52.5 150.5l52 137q24 62 23 81q0 31 -22 31q-37 0 -91.5 -54.5t-115.5 -140.5t-124.5 -190t-119.5 -205l-250 -799h-112l409 1325q-25 -51 -59.5 -107t-81.5 -122l-14 10q33 43 66.5 98.5t61 108.5 t47 95t25.5 59l244 782h117z" />
<glyph unicode="&#xff;" horiz-adv-x="796" d="M461 -100l93 67q44 31 96 79t121 127t167 212l12 -10q-139 -197 -260 -319t-237 -187q-53 -143 -111.5 -271t-121 -224.5t-127 -153t-130.5 -56.5q-35 0 -57.5 26t-22.5 73q0 74 37 146.5t98.5 143t142.5 138t169 129.5l149 473q-43 -61 -91 -122.5t-93 -111t-83 -80 t-58 -30.5q-35 0 -55.5 17.5t-31 48t-13.5 70.5t-3 83q0 8 10 47l28 100l41 141l52 169h107q-78 -248 -123 -408t-45 -221q0 -8 3 -15.5t19 -7.5q41 0 136.5 99.5t218.5 281.5l82 271h106zM-37 -815q55 0 102.5 48t90.5 129t83 188.5t78 226.5q-86 -61 -161.5 -125 t-132 -128.5t-88 -131t-31.5 -135.5q0 -41 15 -54.5t44 -17.5zM528 848q0 33 25 63.5t59 30.5q25 0 41.5 -17.5t16.5 -41.5q0 -33 -24.5 -64t-57.5 -31q-25 0 -42.5 17.5t-17.5 42.5zM283 848q0 33 24.5 63.5t59.5 30.5q25 0 41 -17.5t16 -41.5q0 -33 -25.5 -64t-58.5 -31 q-25 0 -41 17.5t-16 42.5z" />
<glyph unicode="&#x152;" horiz-adv-x="2242" d="M1499 102q8 135 47 247t102.5 194t151.5 127t195 45q55 0 97 -17.5t69.5 -48.5t42 -71.5t14.5 -85.5q0 -100 -47 -202t-129 -183.5t-192.5 -133t-237.5 -51.5q-84 0 -159 30t-132 85t-90 135t-33 180q0 33 6 68q-74 -100 -161 -186.5t-181 -150t-194.5 -100t-202.5 -36.5 q-113 0 -192.5 57t-131 144.5t-75 191.5t-23.5 199q0 141 54.5 288.5t147.5 286.5t218 261t265 214t289.5 145.5t291.5 53.5h48q22 0 32 -2l-5 -27q-18 2 -35 2h-34q-176 0 -330 -63.5t-283 -171t-230 -248.5t-171 -298t-106.5 -317.5t-36.5 -308.5q0 -68 15 -135t52 -122.5 t99.5 -89.5t158.5 -34q98 0 203 43t205 118t191.5 177.5t162.5 220.5l80 143q39 73 68.5 152.5t47 164.5t17.5 179q0 57 -14 116t-44 105t-77 74.5t-113 28.5q-84 0 -165.5 -39t-156.5 -103.5t-138.5 -147.5t-110.5 -170t-73.5 -173t-26.5 -155q0 -86 42 -148.5t121 -62.5 q53 0 104.5 27.5t96.5 72.5t82 102.5t64.5 116.5t43 113.5t15.5 95.5l31 -4q0 -31 -14.5 -83t-40 -113.5t-63.5 -124t-86 -113.5t-105.5 -84t-120.5 -33q-68 0 -113 23.5t-72.5 63.5t-40 90t-12.5 106q0 88 32 179t85 177t125.5 160.5t153.5 131t168 89.5t169 33 q76 0 130.5 -33t89 -85t50 -116.5t15.5 -130.5q0 -104 -31 -219t-84 -231q84 84 185.5 150.5t197.5 109.5q-43 35 -69.5 88t-26.5 121q0 49 32.5 108t86 120.5t121 118t138 101.5t138.5 71.5t121 26.5q47 0 78.5 -24.5t31.5 -75.5q0 -68 -39.5 -133.5t-107.5 -128 t-158 -118.5t-190 -103l-8 26q100 51 187 109.5t151.5 118t101.5 116t37 103.5q0 31 -22.5 49t-51.5 18q-57 0 -120.5 -28.5t-124 -75.5t-116 -107.5t-97.5 -126t-66.5 -130t-24.5 -117.5q0 -37 9.5 -65t25.5 -46q121 51 191 51q53 0 72.5 -21.5t19.5 -45.5q0 -23 -11.5 -36 t-29 -22.5t-37 -12.5t-33.5 -3q-49 0 -97 13.5t-89 41.5q-86 -47 -169 -123.5t-149.5 -166t-106.5 -183.5t-40 -178q0 -172 67.5 -263t239.5 -91q119 0 222.5 55t180 135t121.5 168t45 154q0 43 -8 83t-27.5 71.5t-53.5 50t-85 18.5q-96 0 -178 -47t-144.5 -127 t-104.5 -187.5t-56 -228.5zM1978 1010q-41 0 -82 -11.5t-86 -33.5q37 -33 80 -40t64 -7q96 0 96 45q0 47 -72 47z" />
<glyph unicode="&#x153;" horiz-adv-x="1062" d="M451 657q37 0 62.5 -20.5t40.5 -51t22.5 -68.5t7.5 -71q33 43 72.5 82t81.5 67t83 44t76 16q53 0 78.5 -32.5t25.5 -71.5q0 -55 -36.5 -106.5t-95 -95.5t-131 -78.5t-144.5 -57.5q-4 -20 -4 -39v-39q0 -27 4 -54.5t16.5 -51t33 -38t50.5 -14.5q63 0 131 34t134.5 91.5 t129 131t115.5 151.5l13 -10q-59 -86 -124 -164t-132.5 -136.5t-137 -92t-139.5 -33.5q-39 0 -70.5 18.5t-55 48t-40 67.5t-22.5 79q-18 -29 -47 -65t-63 -69.5t-73 -56t-77 -22.5q-47 0 -78 29.5t-51.5 72.5t-28.5 90t-8 82q0 47 40 121t98 143.5t124 119.5t119 50z M229 -33q70 0 129.5 57.5t100.5 138.5t64.5 172t23.5 159q0 63 -19.5 103t-62.5 40q-68 0 -122 -63.5t-94 -149.5t-61.5 -173t-21.5 -134q0 -16 1 -41t7 -49.5t18 -42t37 -17.5zM889 625q-31 0 -75 -29t-87 -81t-79 -124t-50 -158q57 18 119.5 53.5t114 79.5t84 95t32.5 100 q0 18 -11 41t-48 23z" />
<glyph unicode="&#x178;" horiz-adv-x="1306" d="M113 1112q20 82 57 144.5t82 105.5t91 64.5t83 21.5q86 0 135 -60.5t49 -146.5t-35.5 -167t-96 -144.5t-140.5 -101t-170 -37.5q-72 0 -123 24.5t-84 67.5t-48 100t-15 121q0 141 60 258t157.5 201t219.5 130t245 46q63 0 129.5 -25.5t122 -70t91 -105.5t35.5 -133 q0 -100 -26.5 -182t-57 -163t-57 -173t-26.5 -215q0 -23 17 -44.5t40 -21.5q59 0 124.5 52.5t131 135.5t126 186t112 205.5t87 192.5t52.5 150h110q-49 -135 -86 -278l-74 -284q-38 -142 -83 -282.5t-109 -269.5q-55 -117 -147.5 -213.5t-203 -165t-232 -107.5t-240.5 -39 q-82 0 -157 17.5t-131 53.5t-90 91t-34 133q0 100 49 184.5t125 142.5t165 91t169 33q45 0 89 -14.5t80 -40t57.5 -63.5t21.5 -85q0 -84 -40 -140t-102.5 -91t-139.5 -50.5t-150 -15.5h-32q-15 0 -32 2l-2 17h56q28 0 57 4q53 4 114.5 28.5t114.5 64.5t89 92t36 112 q0 37 -19.5 64.5t-49 46t-65.5 27.5t-69 9q-90 0 -179 -28.5t-160.5 -82t-116.5 -127t-45 -165.5q0 -80 32.5 -134.5t85 -89t117 -50t129.5 -15.5q78 0 156 16.5t151.5 46t139 74.5t118.5 105q98 111 163 248t114 289.5t93 312t101 317.5l-68 -142q-38 -79 -82 -160 t-94.5 -159t-103.5 -138.5t-109.5 -97t-113.5 -36.5q-39 0 -66.5 27.5t-44 67.5t-24.5 85t-8 80q0 82 24.5 160.5t55 156.5t55 156t24.5 160q0 63 -27.5 108t-72.5 75t-100.5 43t-110.5 13q-117 0 -230.5 -51t-203.5 -138t-145.5 -199.5t-55.5 -235.5q0 -55 12.5 -105.5 t40 -87.5t71.5 -59.5t108 -22.5q74 0 148.5 44t135 110.5t97 144.5t36.5 146q0 66 -31.5 111.5t-99.5 45.5q-41 0 -86 -17.5t-88 -56t-77.5 -99t-53.5 -146.5zM1307 1696q0 33 24.5 63.5t59.5 30.5q25 0 41 -17.5t16 -41.5q0 -33 -24.5 -64t-57.5 -31q-25 0 -42 17.5 t-17 42.5zM1061 1696q0 33 24.5 63.5t59.5 30.5q25 0 41 -17.5t16 -41.5q0 -33 -25.5 -64t-58.5 -31q-25 0 -41 17.5t-16 42.5z" />
<glyph unicode="&#x2c6;" d="M911 1028l111 -213l-39 -18l-88 143l-227 -154l-31 31l264 211h10z" />
<glyph unicode="&#x2dc;" d="M655 817q10 35 46 66.5t85 31.5q25 0 50.5 -9t51 -21.5t50.5 -21.5t47 -9q35 0 52 25l30 41l33 -17q-10 -35 -44 -69.5t-87 -34.5q-25 0 -50.5 9t-51 20.5t-50 20.5t-47.5 9q-33 0 -50 -21l-30 -38z" />
<glyph unicode="&#x2000;" horiz-adv-x="1058" />
<glyph unicode="&#x2001;" horiz-adv-x="2119" />
<glyph unicode="&#x2002;" horiz-adv-x="1058" />
<glyph unicode="&#x2003;" horiz-adv-x="2119" />
<glyph unicode="&#x2004;" horiz-adv-x="706" />
<glyph unicode="&#x2005;" horiz-adv-x="528" />
<glyph unicode="&#x2006;" horiz-adv-x="352" />
<glyph unicode="&#x2007;" horiz-adv-x="352" />
<glyph unicode="&#x2008;" horiz-adv-x="264" />
<glyph unicode="&#x2009;" horiz-adv-x="423" />
<glyph unicode="&#x200a;" horiz-adv-x="116" />
<glyph unicode="&#x2010;" horiz-adv-x="729" d="M158 444h477l-21 -69h-477z" />
<glyph unicode="&#x2011;" horiz-adv-x="729" d="M158 444h477l-21 -69h-477z" />
<glyph unicode="&#x2012;" horiz-adv-x="729" d="M158 444h477l-21 -69h-477z" />
<glyph unicode="&#x2013;" horiz-adv-x="851" d="M158 444h600l-21 -69h-600z" />
<glyph unicode="&#x2014;" horiz-adv-x="1220" d="M158 444h968l-20 -69h-969z" />
<glyph unicode="&#x2018;" horiz-adv-x="223" d="M365 1049q-78 -27 -106 -79t-28 -143q0 -63 -23.5 -94t-49.5 -31q-18 0 -32.5 16.5t-14.5 49.5t17 78t48 90t75 81t97 50z" />
<glyph unicode="&#x2019;" horiz-adv-x="223" d="M111 721q78 27 105.5 79t27.5 142q0 63 23.5 94t49.5 31q18 0 33 -16.5t15 -49.5t-17.5 -77.5t-48.5 -90t-75 -81t-97 -50.5z" />
<glyph unicode="&#x201a;" horiz-adv-x="278" d="M-6 -190q78 27 105.5 79t27.5 142q0 63 23.5 94t50.5 31q18 0 32.5 -16.5t14.5 -49.5t-17.5 -78t-48 -90t-75 -81t-97.5 -50z" />
<glyph unicode="&#x201c;" horiz-adv-x="436" d="M578 1049q-78 -27 -106 -79t-28 -143q0 -63 -23.5 -94t-49.5 -31q-18 0 -32.5 16.5t-14.5 49.5t17 78t48 90t75 81t97 50zM365 1049q-78 -27 -106 -79t-28 -143q0 -63 -23.5 -94t-49.5 -31q-18 0 -32.5 16.5t-14.5 49.5t17 78t48 90t75 81t97 50z" />
<glyph unicode="&#x201d;" horiz-adv-x="436" d="M111 721q78 27 105.5 79t27.5 142q0 63 23.5 94t49.5 31q18 0 33 -16.5t15 -49.5t-17.5 -77.5t-48.5 -90t-75 -81t-97 -50.5zM324 721q78 27 105.5 79t27.5 142q0 63 23.5 94t49.5 31q18 0 33 -16.5t15 -49.5t-17.5 -77.5t-48.5 -90t-75 -81t-97 -50.5z" />
<glyph unicode="&#x201e;" horiz-adv-x="491" d="M-6 -190q78 27 105.5 79t27.5 142q0 63 23.5 94t50.5 31q18 0 32.5 -16.5t14.5 -49.5t-17.5 -78t-48 -90t-75 -81t-97.5 -50zM207 -190q78 27 105.5 79t27.5 142q0 63 23.5 94t50.5 31q18 0 32.5 -16.5t14.5 -49.5t-17.5 -78t-48 -90t-75 -81t-97.5 -50z" />
<glyph unicode="&#x2022;" horiz-adv-x="684" d="M324 559q0 45 17 86t48 73t73 50t89 18q33 0 62.5 -13t53 -35.5t38 -55.5t14.5 -70q0 -41 -20.5 -78.5t-52.5 -67.5t-73 -47.5t-81 -17.5q-72 0 -120 43t-48 115z" />
<glyph unicode="&#x2026;" horiz-adv-x="727" d="M129 49q0 33 24.5 63.5t59.5 30.5q25 0 41 -17t16 -42q0 -33 -24.5 -63.5t-57.5 -30.5q-25 0 -42 17t-17 42zM342 49q0 33 24.5 63.5t59.5 30.5q25 0 41 -17t16 -42q0 -33 -24.5 -63.5t-57.5 -30.5q-25 0 -42 17t-17 42zM555 49q0 33 24.5 63.5t59.5 30.5q25 0 41 -17 t16 -42q0 -33 -24.5 -63.5t-57.5 -30.5q-25 0 -42 17t-17 42z" />
<glyph unicode="&#x202f;" horiz-adv-x="423" />
<glyph unicode="&#x2039;" horiz-adv-x="477" d="M309 51l-153 258l276 223l23 -24l-215 -211l102 -238z" />
<glyph unicode="&#x203a;" horiz-adv-x="477" d="M301 532l154 -258l-277 -223l-22 25l215 211l-103 237z" />
<glyph unicode="&#x2044;" horiz-adv-x="253" d="M-164 -51l578 1177h47l-580 -1177h-45z" />
<glyph unicode="&#x205f;" horiz-adv-x="528" />
<glyph unicode="&#x20ac;" horiz-adv-x="1359" d="M96 713h244q102 160 236.5 300t273.5 243.5t269 164t222 60.5q49 0 85 -32t36 -87q0 -104 -69 -219l-27 8q35 53 54.5 106.5t19.5 104.5q0 45 -34 65.5t-60 20.5q-102 0 -217 -59.5t-229 -160t-221.5 -233.5t-195.5 -282h582l-21 -49h-589q-27 -47 -48.5 -91.5 t-41.5 -91.5h639l-21 -49h-639q-49 -121 -75.5 -236.5t-26.5 -222.5q0 -35 10 -91t43 -108.5t96.5 -90t167.5 -37.5q109 0 218.5 40t205.5 111l16 -20q-92 -72 -201.5 -113t-222.5 -41q-104 0 -185 41t-136 110.5t-84 160t-29 186.5q0 150 58 311h-185l21 49h184 q37 90 90 183h-233z" />
<glyph unicode="&#x2122;" horiz-adv-x="1415" d="M557 1102h-41q-4 39 -8 72.5t-16.5 58t-35 38t-61.5 13.5h-22v-426q0 -23 11 -27t28 -6h65v-47h-301v47h72q16 0 25.5 10.5t9.5 24.5v424h-19q-39 0 -61.5 -13.5t-34.5 -38t-17.5 -58t-9.5 -72.5h-39v231h455v-231zM1126 825q16 0 25.5 10.5t9.5 24.5v400l-180 -482h-27 l-180 477v-397q0 -23 10.5 -27t28.5 -6h68v-47h-267v47h72q14 0 23.5 10.5t9.5 24.5v391q0 16 -9.5 26.5t-23.5 10.5h-72v45h215l156 -397l152 397h225v-45h-70q-18 -4 -28.5 -9t-10.5 -26v-395q0 -23 10.5 -27t28.5 -6h70v-47h-307v47h71z" />
<glyph unicode="&#xe000;" horiz-adv-x="675" d="M0 675h675v-675h-675v675z" />
<glyph unicode="&#xfb01;" horiz-adv-x="886" d="M530 158q0 20 8.5 57t22.5 84l-47 -59q-25 -31 -51.5 -56.5t-53 -42t-51.5 -16.5t-50 18.5t-48.5 42t-41 47t-23.5 33.5q6 -23 10 -56.5t8 -74.5t6 -86t2 -86q0 -90 -6 -185t-16 -181q-4 -37 -18.5 -109t-40 -144.5t-62.5 -126t-86 -53.5q-55 0 -71.5 60.5t-16.5 187.5 q0 121 26.5 252t64.5 257t77 239.5t63 197.5q-12 23 -25.5 62t-13.5 69q0 23 8.5 36.5t30.5 13.5q4 0 17.5 -11.5t17.5 -44.5l44 148l57 188q32 100 70 202.5t81 192.5q12 25 36.5 80.5t57.5 110.5t67.5 97t69.5 42q27 0 41.5 -11t21.5 -29.5t9 -40t2 -42.5q0 -111 -43 -245 t-112.5 -270t-157.5 -266t-178 -230l-31 -111q10 -20 29.5 -47t42 -49.5t44 -39t33.5 -16.5q31 0 61.5 19.5t59.5 49.5t53 65l47 65l45 132q24 71 46 147h112q-4 -10 -18 -52l-35 -99l-41.5 -126.5t-40 -135.5t-31 -124t-12.5 -92q0 -8 3 -15.5t20 -7.5q25 0 72.5 38 t105 97.5t118 132t109.5 144.5l12 -10q-51 -74 -111.5 -149.5t-116.5 -137t-104.5 -100.5t-74.5 -39q-61 0 -82 60.5t-21 148.5zM676 1526q-53 0 -101.5 -88t-98.5 -234.5t-104.5 -337t-119.5 -395.5q43 43 93 111.5t101.5 150.5t97.5 174t83 183.5t58.5 177.5t21.5 157v25 q0 16 -3.5 33.5t-9.5 30t-18 12.5zM-63 -707q0 -70 16 -88t39 -18q49 0 84 61.5t57.5 141.5t34.5 155.5t16 106.5q0 2 3 37t6.5 87t5.5 115.5t2 124.5q0 68 -3 123.5t-14 83.5l-31 -98l-50 -153l-57 -182q-30 -97 -54.5 -190.5t-39.5 -173.5t-15 -133zM860 907 q0 -45 -28.5 -71.5t-57.5 -26.5q-20 0 -34.5 14.5t-14.5 46.5q0 43 28.5 69t57.5 26q20 0 34.5 -14.5t14.5 -43.5z" />
<glyph unicode="&#xfb02;" horiz-adv-x="978" d="M1133 375q-59 -84 -120 -161t-117 -135.5t-107.5 -94t-94.5 -35.5q-31 0 -53.5 21.5t-37.5 52t-22.5 66.5t-7.5 65t6.5 79t16.5 115l-49 -67q-29 -39 -60.5 -74t-64.5 -58.5t-64 -23.5q-25 0 -50 18.5t-48.5 42t-41 47t-23.5 33.5q6 -23 10 -56.5t8 -74.5t6 -86t2 -86 q0 -90 -6 -185t-16 -181q-4 -37 -18.5 -109t-40 -144.5t-62.5 -126t-86 -53.5q-55 0 -71.5 60.5t-16.5 187.5q0 121 26.5 252t64.5 257t77 239.5t63 197.5q-12 23 -25.5 62t-13.5 69q0 23 8.5 36.5t30.5 13.5q4 0 17.5 -11.5t17.5 -44.5l44 148l57 188q32 100 70 202.5 t81 192.5q12 25 36.5 80.5t57.5 110.5t67.5 97t69.5 42q27 0 41.5 -11t21.5 -29.5t9 -40t2 -42.5q0 -111 -43 -245t-112.5 -270t-157.5 -266t-178 -230l-31 -111q10 -20 29.5 -47t42 -49.5t44 -39t33.5 -16.5q37 0 72 26t67.5 62.5t60.5 77.5l50 72q20 104 51 230t72 255 t90 251t104.5 217.5t115 152.5t122.5 57q18 0 30.5 -12t20 -29.5t10.5 -36t3 -32.5q0 -53 -19.5 -125t-54.5 -156t-82 -176t-103.5 -183t-119 -179.5t-125.5 -163.5q-39 -154 -55.5 -245t-16.5 -128q0 -41 4 -62.5t12.5 -30.5t16.5 -11.5t18 -2.5q33 0 82 34t104.5 90.5 t116 130t119.5 155.5zM1145 1534q-29 0 -62.5 -46t-70.5 -125t-75 -183.5t-75 -219t-70.5 -232.5t-60.5 -224q41 49 91 119.5t102.5 154.5t102.5 175t89 179.5t62.5 168t23.5 141.5q0 29 -11 60.5t-46 31.5zM676 1526q-53 0 -101.5 -88t-98.5 -234.5t-104.5 -337 t-119.5 -395.5q43 43 93 111.5t101.5 150.5t97.5 174t83 183.5t58.5 177.5t21.5 157v25q0 16 -3.5 33.5t-9.5 30t-18 12.5zM-63 -707q0 -70 16 -88t39 -18q49 0 84 61.5t57.5 141.5t34.5 155.5t16 106.5q0 2 3 37t6.5 87t5.5 115.5t2 124.5q0 68 -3 123.5t-14 83.5l-31 -98 l-50 -153l-57 -182q-30 -97 -54.5 -190.5t-39.5 -173.5t-15 -133z" />
<glyph unicode="&#xfb03;" horiz-adv-x="1351" d="M996 158q0 25 12 71.5t32 108.5l43 135l48 152h112q-4 -10 -18 -52l-35 -99l-41.5 -126.5t-40 -135.5t-31 -124t-12.5 -92q0 -8 3 -15.5t20 -7.5q25 0 73 38t105 97.5t117.5 132t109.5 144.5l12 -10q-51 -74 -111.5 -149.5t-116.5 -137t-104 -100.5t-75 -39 q-61 0 -81.5 60.5t-20.5 148.5zM1325 907q0 -45 -28.5 -71.5t-57.5 -26.5q-20 0 -34.5 14.5t-14.5 46.5q0 43 28.5 69t57.5 26q20 0 34.5 -14.5t14.5 -43.5zM600 358q-12 23 -25.5 62t-13.5 69q0 23 8.5 36.5t30.5 13.5q4 0 17.5 -11.5t17.5 -44.5l44 148l57 188 q32 100 70 202.5t81 192.5q12 25 36.5 80.5t57.5 110.5t67.5 97t69.5 42q27 0 41.5 -11t21.5 -29.5t9 -40t2 -42.5q0 -111 -43 -245t-112.5 -270t-157.5 -266t-178 -230l-31 -111q10 -20 29.5 -47t42 -49.5t44 -39t33.5 -16.5q37 0 72 26t67.5 62.5t60.5 77.5l50 72l12 -10 l-48 -67q-30 -42 -64.5 -83t-72.5 -70.5t-73 -29.5q-25 0 -50 18.5t-48.5 42t-41 47t-23.5 33.5q6 -23 10 -56.5t8 -74.5t6 -86t2 -86q0 -90 -6 -185t-16 -181q-4 -37 -18.5 -109t-40 -144.5t-62.5 -126t-86 -53.5q-55 0 -71.5 60.5t-16.5 187.5q0 121 26.5 252t64.5 257 t76.5 239.5t63.5 197.5zM1141 1526q-53 0 -101.5 -88t-98.5 -234.5t-104.5 -337t-119.5 -395.5q43 43 93 111.5t101.5 150.5t97.5 174t83 183.5t58.5 177.5t21.5 157v25q0 16 -3.5 33.5t-9.5 30t-18 12.5zM402 -707q0 -70 16 -88t39 -18q49 0 84 61.5t57.5 141.5t34.5 155.5 t16 106.5q0 2 3 37t6.5 87t5.5 115.5t2 124.5q0 68 -3 123.5t-14 83.5l-31 -98l-50 -153l-57 -182q-30 -97 -54.5 -190.5t-39.5 -173.5t-15 -133zM135 358q-12 23 -25.5 62t-13.5 69q0 23 8.5 36.5t30.5 13.5q4 0 17.5 -11.5t17.5 -44.5l44 148l57 188q32 100 70 202.5 t81 192.5q12 25 36.5 80.5t57.5 110.5t67.5 97t69.5 42q27 0 41.5 -11t21.5 -29.5t9 -40t2 -42.5q0 -111 -43 -245t-112.5 -270t-157.5 -266t-178 -230l-31 -111q10 -20 29.5 -47t42 -49.5t44 -39t33.5 -16.5q37 0 72 26t67.5 62.5t60.5 77.5l50 72l12 -10l-48 -67 q-30 -42 -64.5 -83t-72.5 -70.5t-73 -29.5q-25 0 -50 18.5t-48.5 42t-41 47t-23.5 33.5q6 -23 10 -56.5t8 -74.5t6 -86t2 -86q0 -90 -6 -185t-16 -181q-4 -37 -18.5 -109t-40 -144.5t-62.5 -126t-86 -53.5q-55 0 -71.5 60.5t-16.5 187.5q0 121 26.5 252t64.5 257t76.5 239.5 t63.5 197.5zM676 1526q-53 0 -101.5 -88t-98.5 -234.5t-104.5 -337t-119.5 -395.5q43 43 93 111.5t101.5 150.5t97.5 174t83 183.5t58.5 177.5t21.5 157v25q0 16 -3.5 33.5t-9.5 30t-18 12.5zM-63 -707q0 -70 16 -88t39 -18q49 0 84 61.5t57.5 141.5t34.5 155.5t16 106.5 q0 2 3 37t6.5 87t5.5 115.5t2 124.5q0 68 -3 123.5t-14 83.5l-31 -98l-50 -153l-57 -182q-30 -97 -54.5 -190.5t-39.5 -173.5t-15 -133z" />
<glyph unicode="&#xfb04;" horiz-adv-x="1443" d="M1598 375q-59 -84 -120 -161t-117 -135.5t-107.5 -94t-94.5 -35.5q-31 0 -53 21.5t-37.5 52t-22.5 66.5t-7 65q0 43 12 124.5t34.5 188t55.5 227.5t73 241t87 231.5t99 195.5t108.5 135t115.5 51q18 0 30.5 -12t20 -29.5t10.5 -36t3 -32.5q0 -53 -19.5 -125t-54.5 -156 t-82 -176t-103.5 -183t-119 -179.5t-125.5 -163.5q-39 -154 -55.5 -245t-16.5 -128q0 -41 4 -62.5t12.5 -30.5t16.5 -11.5t18 -2.5q33 0 82.5 34t104.5 90.5t115.5 130t119.5 155.5zM1610 1534q-29 0 -62.5 -46t-70.5 -125t-75 -183.5t-75 -219t-70.5 -232.5t-60.5 -224 l90 120q51 71 103.5 154.5t102.5 174.5t89 179.5t62.5 168t23.5 141.5q0 29 -11 60.5t-46 31.5zM600 358q-12 23 -25.5 62t-13.5 69q0 23 8.5 36.5t30.5 13.5q4 0 17.5 -11.5t17.5 -44.5l44 148l57 188q32 100 70 202.5t81 192.5q12 25 36.5 80.5t57.5 110.5t67.5 97 t69.5 42q27 0 41.5 -11t21.5 -29.5t9 -40t2 -42.5q0 -111 -43 -245t-112.5 -270t-157.5 -266t-178 -230l-31 -111q10 -20 29.5 -47t42 -49.5t44 -39t33.5 -16.5q37 0 72 26t67.5 62.5t60.5 77.5l50 72l12 -10l-48 -67q-30 -42 -64.5 -83t-72.5 -70.5t-73 -29.5 q-25 0 -50 18.5t-48.5 42t-41 47t-23.5 33.5q6 -23 10 -56.5t8 -74.5t6 -86t2 -86q0 -90 -6 -185t-16 -181q-4 -37 -18.5 -109t-40 -144.5t-62.5 -126t-86 -53.5q-55 0 -71.5 60.5t-16.5 187.5q0 121 26.5 252t64.5 257t76.5 239.5t63.5 197.5zM1141 1526q-53 0 -101.5 -88 t-98.5 -234.5t-104.5 -337t-119.5 -395.5q43 43 93 111.5t101.5 150.5t97.5 174t83 183.5t58.5 177.5t21.5 157v25q0 16 -3.5 33.5t-9.5 30t-18 12.5zM402 -707q0 -70 16 -88t39 -18q49 0 84 61.5t57.5 141.5t34.5 155.5t16 106.5q0 2 3 37t6.5 87t5.5 115.5t2 124.5 q0 68 -3 123.5t-14 83.5l-31 -98l-50 -153l-57 -182q-30 -97 -54.5 -190.5t-39.5 -173.5t-15 -133zM135 358q-12 23 -25.5 62t-13.5 69q0 23 8.5 36.5t30.5 13.5q4 0 17.5 -11.5t17.5 -44.5l44 148l57 188q32 100 70 202.5t81 192.5q12 25 36.5 80.5t57.5 110.5t67.5 97 t69.5 42q27 0 41.5 -11t21.5 -29.5t9 -40t2 -42.5q0 -111 -43 -245t-112.5 -270t-157.5 -266t-178 -230l-31 -111q10 -20 29.5 -47t42 -49.5t44 -39t33.5 -16.5q37 0 72 26t67.5 62.5t60.5 77.5l50 72l12 -10l-48 -67q-30 -42 -64.5 -83t-72.5 -70.5t-73 -29.5 q-25 0 -50 18.5t-48.5 42t-41 47t-23.5 33.5q6 -23 10 -56.5t8 -74.5t6 -86t2 -86q0 -90 -6 -185t-16 -181q-4 -37 -18.5 -109t-40 -144.5t-62.5 -126t-86 -53.5q-55 0 -71.5 60.5t-16.5 187.5q0 121 26.5 252t64.5 257t76.5 239.5t63.5 197.5zM676 1526q-53 0 -101.5 -88 t-98.5 -234.5t-104.5 -337t-119.5 -395.5q43 43 93 111.5t101.5 150.5t97.5 174t83 183.5t58.5 177.5t21.5 157v25q0 16 -3.5 33.5t-9.5 30t-18 12.5zM-63 -707q0 -70 16 -88t39 -18q49 0 84 61.5t57.5 141.5t34.5 155.5t16 106.5q0 2 3 37t6.5 87t5.5 115.5t2 124.5 q0 68 -3 123.5t-14 83.5l-31 -98l-50 -153l-57 -182q-30 -97 -54.5 -190.5t-39.5 -173.5t-15 -133z" />
</font>
</defs>
</svg>
