<?xml version="1.0" standalone="no"?>
<!DOCTYPE svg PUBLIC "-//W3C//DTD SVG 1.1//EN" "http://www.w3.org/Graphics/SVG/1.1/DTD/svg11.dtd" >
<svg xmlns="http://www.w3.org/2000/svg">
<metadata>
This is a custom SVG webfont generated by Font Squirrel.
Copyright   : Copyright  2007 Canada Type All rights reserved
Designer    : Rebecca Alaccari
Foundry     : Canada Type
Foundry URL : httpwwwcanadatypecom
</metadata>
<defs>
<font id="webfontjetRQ8i9" horiz-adv-x="242" >
<font-face units-per-em="1000" ascent="800" descent="-200" />
<missing-glyph horiz-adv-x="200" />
<glyph unicode=" "  horiz-adv-x="200" />
<glyph unicode="&#x09;" horiz-adv-x="200" />
<glyph unicode="&#xa0;" horiz-adv-x="200" />
<glyph unicode="#" horiz-adv-x="1330" d="M1272 462q18 0 31 -8t22 -21t13 -29.5t4 -34.5q0 -29 -9 -56t-23.5 -48.5t-33.5 -34.5t-39 -13q-34 0 -59 29t-25 74q0 27 10 53t26.5 45.5t38 31.5t44.5 12zM1278 445q-18 0 -34 -17.5t-28 -42t-19 -50.5t-7 -43q0 -26 12 -42.5t31 -16.5q21 0 38 12.5t30 33t20 45.5 t7 50q0 35 -15 53t-35 18zM1124 140h183l-8 -24h-183zM1424 728q-14 40 -31.5 57t-36.5 17q-28 0 -56 -27t-56.5 -72t-57.5 -103l-58 -120l-40.5 -88l-27.5 -61.5l-22.5 -48t-25 -48.5t-36 -63l-54.5 -90q-6 -10 -18.5 -28l-26 -36.5t-27 -34t-20.5 -20.5q-5 -4 -12 -4 q-11 0 -11 9q0 5 3 11l17 44t22.5 71.5t20 97t9.5 120.5q1 57 9 120t19.5 123t25.5 111t28 84q-18 -24 -39.5 -65.5t-43 -88.5l-42.5 -94t-38 -81q-54 -110 -117 -199.5t-134.5 -152.5t-151.5 -97.5t-168 -34.5q-42 0 -83 11t-73 34t-51.5 58.5t-19.5 84.5q0 57 25.5 101.5 t65.5 76t90 48t100 16.5q28 0 58.5 -5.5t55 -18.5t40.5 -35.5t16 -56.5q0 -41 -24 -73.5t-60.5 -55t-79 -34.5t-78.5 -12q-11 0 -23 1t-26 3l2 10q21 -3 39 -3q35 0 77 11t78.5 33.5t61 55.5t24.5 77q0 33 -38 58t-107 25q-44 0 -93.5 -19t-92 -51t-70.5 -74t-28 -89 q0 -43 19 -74.5t50.5 -52t71.5 -30.5t81 -10q63 0 120 18.5t108 51t96 76.5t84 94t71 103.5t58 105.5l20.5 45.5l33.5 73.5l40.5 86t42.5 83t39 64t30 30q6 2 9 2q7 0 7 -5q-6 -14 -12.5 -35t-11.5 -47t-8.5 -55t-3.5 -58q0 -13 -1 -41.5t-3.5 -68t-7 -86t-12.5 -95t-20 -95 t-28 -85.5q-11 -28 -29 -64t-30 -64q10 7 26 26t31.5 41l29 41.5t18.5 28.5q58 99 107.5 202.5t97.5 216.5q4 11 16 36t28.5 55.5t37.5 63.5t44 60t47 44.5t47 17.5q22 0 42 -19.5t37 -65.5h-12z" />
<glyph unicode="A" horiz-adv-x="1249" d="M883 145q0 16 7.5 46.5t20.5 72.5q-19 39 -41.5 73.5t-46.5 64.5l-57.5 -83l-60.5 -81q36 -25 55 -33l-3 -10l-4 2q-16 5 -57 30q-48 -60 -100.5 -112.5t-109.5 -91.5t-119 -62t-130 -23q-40 0 -82 9.5t-76.5 31t-56.5 56t-22 83.5q0 62 28.5 112.5t73 86t97.5 55 t102 19.5q31 0 58.5 -8.5t48 -26t32.5 -45t12 -64.5q0 -35 -23 -65.5t-58.5 -54t-78.5 -37t-83 -13.5q-26 0 -48 6l6 18q21 -7 50 -7q36 0 74.5 11.5t71 32.5t53 51t20.5 66q0 25 -9 43t-25 30t-37 17.5t-46 5.5q-46 0 -98.5 -18t-97.5 -49.5t-74.5 -76t-29.5 -96.5 q0 -29 13 -57t40 -50t69.5 -35.5t101.5 -13.5q64 0 123.5 22t114.5 59.5t105 88.5t97 110q-26 18 -54 42t-51.5 52.5t-39 60.5t-15.5 67q0 53 26.5 79t61.5 26q45 0 101 -35t110 -98l91.5 141t84 124.5t78.5 93.5t74 50q3 0 13 -2t10 -15q0 -7 -4 -16q-16 -34 -40 -91 t-50 -125.5l-51.5 -142.5t-46 -141t-33.5 -121t-13 -83q0 -19 2.5 -39t10 -37.5t20.5 -29.5t34 -15q-3 30 -3 64q0 49 9 95.5t29 83.5t51.5 59.5t76.5 22.5q37 0 54 -25t17 -63q0 -37 -15.5 -80.5t-43 -80.5t-66.5 -61.5t-86 -24.5h-8q4 -38 14.5 -74.5t30.5 -67.5l-12 -5 q-17 26 -29 65t-18 84q-32 4 -54.5 20t-37 39.5t-21.5 53t-7 60.5zM542 462q0 -33 14 -64t36 -58.5t48.5 -51.5t51.5 -42q32 41 62 83.5l59 85.5q-54 63 -108 98.5t-95 35.5q-29 0 -48.5 -21.5t-19.5 -65.5zM1015 15v-18t1 -18q49 1 88 26t66 61t41.5 77t14.5 76 q0 32 -13 52.5t-40 20.5q-36 0 -65 -23.5t-50 -62.5t-32 -89t-11 -102zM833 416q23 -29 44 -62t40 -71q14 43 33 93.5l40 102.5l43 102.5l42.5 94.5t39.5 79t34 55q0 7 -5 7q-33 -14 -68 -52t-73.5 -92t-81 -120.5z" />
<glyph unicode="B" horiz-adv-x="1080" d="M0 126q0 76 34.5 160t94 165.5t138.5 155t168 129t183 88.5t183 33q38 0 79.5 -6.5t80.5 -19.5q34 30 73 56.5t85 47.5l9 -14q-29 -11 -69 -35.5t-77 -61.5q31 -12 58.5 -29t47.5 -39t32 -49t12 -60q0 -32 -14 -63.5t-37 -60t-53.5 -52.5t-63.5 -40q45 -29 75.5 -73.5 t30.5 -91.5q0 -31 -15 -65.5t-40 -67.5t-58 -63.5t-69.5 -53.5t-74 -36.5t-71.5 -13.5q-47 0 -76.5 25t-29.5 74q0 42 20.5 75.5t53 59.5t71.5 44t76 29l9 -13q-34 -8 -72 -24t-70.5 -40t-53.5 -56.5t-21 -74.5q0 -37 23.5 -61.5t61.5 -24.5q36 0 71 15.5t66.5 42t58 60.5 t45.5 71t30 74.5t11 70.5q0 35 -19 64t-50 46q-52 -23 -99 -23q-13 0 -25.5 7t-12.5 21q0 11 5.5 17.5t13.5 10.5t17.5 5t17.5 1q20 0 40.5 -5.5t39.5 -14.5q29 18 53 44t40.5 56.5t25.5 63t9 62.5q0 54 -31 88.5t-76 53.5q-32 -28 -60 -79.5t-56 -117.5l-59 -140.5 t-69 -148t-85.5 -141.5t-109.5 -120t-140.5 -83t-178.5 -31q-54 0 -93 14t-64.5 38.5t-37.5 56.5t-12 68zM214 -35q85 0 148.5 24.5t112.5 66.5t86.5 99.5t70.5 123.5t64 137t67.5 141.5t80.5 137t103 122.5q-35 13 -71 18.5t-62 5.5q-97 0 -194 -32t-185 -86.5t-163.5 -127 t-131 -153t-87 -165t-31.5 -162.5q0 -30 10.5 -57t34 -47.5t60 -33t87.5 -12.5zM846 413q42 0 82 19q-33 14 -69 14q-19 0 -28 -4.5t-9 -9.5q0 -12 6.5 -15.5t17.5 -3.5z" />
<glyph unicode="C" horiz-adv-x="789" d="M400 -201q-5 13 -14 53t-10 115q-39 9 -69.5 31.5t-51.5 54.5t-31.5 71t-10.5 80q0 40 8.5 80.5t23.5 80.5q-19 -3 -37.5 -4t-35.5 -1q-42 0 -85.5 10t-79.5 33t-59 61t-23 94q0 61 31 113.5t83 91t119 60.5t139 22q67 0 133.5 -21t125.5 -68q69 52 133 82t110 30 q24 0 41.5 -15.5t17.5 -42.5q0 -42 -22 -85.5t-60.5 -85.5t-90.5 -82t-111.5 -74t-124 -60.5t-127.5 -42.5q-29 -64 -44.5 -127.5t-15.5 -120.5q0 -15 3.5 -38.5t15.5 -47t34.5 -43t60.5 -27.5v7q0 89 23.5 162.5t62 126t88 81.5t101.5 29q53 0 82.5 -29.5t29.5 -80.5 q0 -61 -29.5 -117t-77.5 -99t-108.5 -69t-122.5 -26q-20 0 -36 3q0 -42 5.5 -86.5t14.5 -74.5zM177 376q35 0 74 6q22 53 54 104t70.5 98t82 88.5t87.5 75.5q-59 45 -119 65t-117 20q-72 0 -135.5 -26.5t-111.5 -68t-76 -93t-28 -102.5q0 -47 16.5 -79t45.5 -51.5t69.5 -28 t87.5 -8.5zM566 730q-69 -65 -130.5 -151.5t-105.5 -180.5q61 17 123 43t119 59t107.5 71.5t87.5 79t58.5 81t21.5 78.5q0 22 -16.5 32t-29.5 10q-52 0 -109.5 -30.5t-115.5 -82.5q25 -23 48 -51l-8 -6q-13 14 -25 25.5t-25 22.5zM664 366q-56 0 -106 -37.5t-87.5 -95 t-59.5 -126.5t-22 -133q6 -1 13 -1.5t15 -0.5q58 0 117.5 23.5t108 65t79 97t30.5 118.5q0 40 -23 65t-65 25z" />
<glyph unicode="D" horiz-adv-x="957" d="M475 609q42 -5 65 -33.5t23 -68.5q0 -51 -22.5 -100.5t-59.5 -88.5t-85.5 -63t-99.5 -24q-36 0 -68 10.5t-56.5 37.5t-38.5 72t-14 114q0 66 40.5 129t107.5 112.5t153.5 79.5t178.5 30q64 0 125.5 -17t115.5 -50q32 35 73 66.5t93 59.5l5 -11q-60 -32 -98 -61.5 t-63 -59.5q35 -24 64.5 -54.5t51 -68t33.5 -82t12 -95.5q0 -105 -46.5 -192.5t-122 -151.5t-170.5 -99.5t-192 -35.5q-45 0 -83.5 8t-75.5 19q-43 -13 -90 -20t-99 -7q-11 0 -33 1t-44 5.5t-38.5 15t-16.5 30.5q0 15 10.5 24t26 13.5t32 6t28.5 1.5q33 0 61 -5t54.5 -13 t52.5 -17.5l53 -18.5q57 18 100.5 47.5t77.5 67.5t60 83t49 95q24 52 45 108t46 112.5t57 111.5t77 106q-51 31 -110.5 47t-125.5 16q-91 0 -172.5 -35t-143 -91t-98 -126.5t-36.5 -142.5q0 -31 8.5 -59.5t26.5 -51t46.5 -36t68.5 -13.5q46 0 91 21.5t81 57.5t58.5 82 t22.5 95q0 41 -19.5 66.5t-61.5 31.5zM996 437q0 99 -42.5 173t-112.5 121q-25 -35 -39.5 -74t-29.5 -88.5l-35 -112t-57 -142.5q-23 -50 -55 -97t-73.5 -88t-93 -74t-112.5 -55q29 -8 62 -13.5t72 -5.5q102 0 195.5 35.5t165 97t113.5 145t42 178.5zM126 -19q48 0 89 5 t77 14l-100.5 30.5t-106.5 14.5q-8 0 -19 -1t-22 -4t-18.5 -8.5t-7.5 -15.5q0 -13 13.5 -20t31.5 -10.5t36 -4t27 -0.5z" />
<glyph unicode="E" horiz-adv-x="603" d="M267 -177q-21 75 -27 146q-63 17 -105 69t-42 134q0 48 26 93.5t66 84.5t88 70t93 52q-20 15 -32 38q-59 -21 -112.5 -32.5t-92.5 -11.5q-65 0 -112.5 16t-79 42.5t-46.5 61.5t-15 73q0 49 24 98.5t69.5 89.5t112.5 65t154 25q44 0 87.5 -7.5t83.5 -22.5t75 -38t62 -53 q23 11 45.5 18t40.5 7q23 0 38.5 -12t15.5 -37q0 -39 -27.5 -77t-72 -73t-101.5 -65.5t-116 -53.5q3 -27 17 -43q59 25 93 25q26 0 35.5 -10.5t9.5 -22.5q0 -11 -5.5 -17.5t-14 -11t-18 -6t-16.5 -1.5q-24 0 -47.5 6.5t-43.5 20.5q-42 -23 -82.5 -60.5t-73 -81t-52 -89.5 t-19.5 -87q0 -67 20 -109t70 -56q-1 8 -1 16v16q0 73 17 135t48.5 107t76.5 70t101 25q27 0 47.5 -8.5t34 -23.5t20.5 -35t7 -42q0 -49 -23 -98.5t-63 -89.5t-94 -65t-116 -25q-11 0 -21.5 1t-20.5 3q2 -73 25 -142zM121 480q49 0 102 11t106 30q-5 12 -7.5 25t-2.5 28 q0 26 19 58.5t49 65t67.5 62t75.5 49.5q-53 55 -127.5 81.5t-152.5 26.5q-79 0 -141.5 -25t-105.5 -64.5t-65.5 -88t-22.5 -94.5q0 -33 12 -63t37.5 -52.5t64.5 -36t92 -13.5zM253 -23q11 -2 22 -3.5t25 -1.5q58 0 108.5 27t88 66t59.5 82t22 75q0 21 -4 40.5t-13.5 35 t-26 24.5t-41.5 9q-53 0 -97.5 -29t-76 -78t-49 -112t-17.5 -132v-3zM547 791q-34 -21 -66.5 -52t-57.5 -66t-40.5 -71t-15.5 -66q61 25 116 57t97 66t66.5 67.5t24.5 60.5q0 15 -11 24t-25 9q-36 0 -77 -22q14 -19 25 -40l-11 -3l-12 18.5t-13 17.5zM474 493 q-20 0 -40 -5.5t-42 -16.5q18 -16 39 -19.5t31 -3.5q47 0 47 22q0 23 -35 23z" />
<glyph unicode="F" horiz-adv-x="856" d="M494 285q29 5 66 23.5l78 37.5l12 32.5t11 33.5q16 52 34 100.5t40 92.5t50.5 83t66.5 72q-25 3 -61 8l-78.5 10.5t-91 9.5t-99.5 4t-107 -16.5t-103 -48.5t-77.5 -78.5t-30.5 -105.5q0 -28 9 -53.5t28.5 -45t51 -31.5t76.5 -12q55 0 104 19t85.5 48.5t57.5 63.5t21 64 q0 29 -23 51.5t-71 22.5q-53 0 -105.5 -34t-116.5 -114l-6 11q40 54 74 83.5t62.5 44t51.5 17t42 2.5q43 0 73 -24t30 -69q0 -43 -20.5 -80.5t-56.5 -65.5t-84 -44t-103 -16q-38 0 -73 9t-61 28.5t-41.5 50t-15.5 73.5q0 45 18 84.5t48.5 72.5t71 59.5t85.5 44.5t91.5 27.5 t89.5 9.5q46 0 92 -6t92.5 -13.5t93 -13.5t94.5 -6q19 0 38.5 6.5t35.5 14.5l-2 -15q-33 -22 -76 -35t-86 -13h-10q-36 -37 -58 -75t-37 -80t-27 -89.5t-28 -102.5q-3 -11 -6.5 -20.5t-6.5 -19.5q17 5 32.5 8t30.5 3q27 0 45 -5t28 -13t14 -18.5t4 -21.5q0 -16 -5.5 -29 t-13 -22.5t-16 -15.5t-13.5 -8l-2 5q5 5 9.5 14.5t4.5 25.5q0 35 -18 49.5t-50 14.5q-28 0 -58 -8q-39 -103 -95 -178.5t-122 -125.5t-137.5 -74.5t-139.5 -24.5q-39 0 -75.5 8t-65 27t-46 49t-17.5 75q0 48 23.5 91.5t62 75.5t87 51t99.5 19q15 0 36.5 -3.5t41.5 -15 t34 -33.5t14 -59q0 -41 -21.5 -71t-55 -50t-74 -29.5t-77.5 -9.5q-17 0 -33 1t-25 4l6 13q9 -4 35 -4q35 0 75.5 11t74.5 32t56.5 50.5t22.5 65.5q0 27 -11.5 43.5t-29 26t-38.5 13t-40 3.5q-45 0 -90 -18.5t-80 -50.5t-57 -75t-22 -92q0 -34 16.5 -59.5t42.5 -43t58.5 -26 t65.5 -8.5q81 0 147.5 29t120 79.5t95 117.5t71.5 143l-71 -32t-66 -22v11z" />
<glyph unicode="G" horiz-adv-x="710" d="M134 87q12 -3 35.5 -6t39.5 -3q21 0 52 8.5t60.5 25t50 39t20.5 51.5q0 24 -11 40.5t-28 27.5t-37.5 16t-40.5 5q-34 0 -74 -12.5t-75 -35t-58.5 -54.5t-23.5 -71q0 -43 17.5 -72.5t46.5 -48t65 -26.5t74 -8q41 0 83.5 9.5t81 28t71 46.5t53.5 65l33 61t28.5 58.5 l27.5 60l31 65.5q-17 -14 -37.5 -28t-42.5 -25.5t-46 -19t-48 -7.5q-20 0 -40 6.5t-38.5 21t-33 36.5t-22.5 53q-6 -1 -11.5 -1h-10.5q-84 0 -146.5 21.5t-104.5 56.5t-63 80t-21 92q0 50 23 98t69.5 86t116.5 61.5t163 23.5q34 0 71 -6.5t74 -21t72 -37t65 -53.5 q35 17 66.5 26t57.5 9q15 0 28.5 -2t24 -8.5t17 -18t6.5 -29.5q0 -39 -21.5 -78t-56.5 -76t-81.5 -70.5t-95.5 -61.5t-98.5 -49t-91.5 -32q0 -20 4 -39.5t12.5 -35t23 -25t35.5 -9.5q36 0 72.5 16t72.5 41t70 55l65 58l9 -12l-34 -33t-32 -29q-12 -110 -49.5 -192.5 t-96.5 -137t-137.5 -82t-172.5 -27.5q-30 0 -67 6t-69 24t-53.5 49.5t-21.5 82.5q0 42 23 76.5t58.5 59.5t79.5 39t86 14q23 0 46.5 -6.5t42.5 -19.5t31 -33t12 -47t-14.5 -52t-40 -44.5t-60 -31t-74.5 -11.5q-7 0 -19 1t-25 3t-26 5.5t-22 8.5zM321 412h11t12 1 q-2 11 -3 23.5t-1 26.5q0 42 26 88t67.5 89.5t93.5 82t104 64.5q-30 30 -65 51t-70.5 34.5t-69.5 19.5t-64 6q-77 0 -139.5 -25t-106.5 -65t-68 -90t-24 -99q0 -41 17 -78t53 -66t92.5 -46t134.5 -17zM642 775q-51 -30 -94.5 -76t-75.5 -96t-51 -98.5t-21 -82.5q48 11 99 33 t99.5 51t91.5 62.5t75.5 68t51.5 67.5t19 61q0 25 -16 38t-42 13q-32 0 -62.5 -9t-59.5 -25q16 -17 29 -37.5t24 -43.5l-9 -10q-23 46 -58 84z" />
<glyph unicode="H" horiz-adv-x="1237" d="M911 757q-46 -45 -74 -88.5t-45 -83t-26 -73t-17 -57.5q-11 -33 -20.5 -66t-20.5 -65l95 42l93 43q37 68 83.5 134t95 117.5t96 83t86.5 31.5q23 0 32 -8t9 -30q0 -44 -26.5 -84.5t-72.5 -79.5t-107.5 -76t-131.5 -72q-24 -47 -44 -92t-34.5 -84t-22.5 -70.5t-8 -50.5 q0 -74 26.5 -108t62.5 -38q-2 15 -3 29.5t-1 25.5q0 51 15 100t41.5 88t63 62.5t80.5 23.5q32 0 55.5 -21t23.5 -56q0 -57 -20.5 -104t-56 -81.5t-83 -54t-101.5 -20.5q6 -40 18.5 -80.5t31.5 -72.5l-16 -6q-16 25 -28 70.5t-19 89.5q-25 3 -48 19t-41 40.5t-28.5 55.5 t-10.5 64q0 48 20 108.5t53 126.5l-92 -42.5l-92 -40.5q-16 -45 -35.5 -88t-48.5 -82q-35 -48 -79 -83t-93.5 -57.5t-102 -33t-103.5 -10.5q-38 0 -74.5 9.5t-65 29t-46.5 49.5t-18 72q0 38 14 70t37 57.5t51.5 45.5t58 33t57 20t48.5 7t46 -5t46.5 -16t35.5 -29t14 -44 q0 -43 -19 -76t-49.5 -56t-69 -35t-78.5 -12q-28 0 -49.5 2.5t-31.5 7.5v14q11 -2 21 -4.5t20 -2.5q34 0 76 11t79 31.5t62.5 49.5t25.5 65q0 23 -10.5 39t-27 25.5t-37 14t-39.5 4.5q-48 0 -96 -18.5t-86.5 -49t-62 -69t-23.5 -78.5q0 -33 14.5 -61t38.5 -47.5t55.5 -30.5 t66.5 -11q133 0 223.5 60t148.5 180q8 17 15 34l14 34l-64 -29.5l-61 -28.5l3 17l62.5 30l66.5 30q9 24 17 48l17 49q8 23 23 55.5t32 65.5l34 63t29 49q-7 -5 -18.5 -14.5t-25 -18.5t-28 -15.5t-26.5 -6.5q-9 0 -18.5 7t-16.5 18t-11.5 25t-4.5 28q0 8 4 20.5t8.5 28.5 t8.5 34t4 38q0 22 -14.5 36.5t-35.5 23t-44 11.5t-39 3q-63 0 -118 -26t-96 -66.5t-65 -90t-24 -95.5q0 -63 26.5 -92t74.5 -29q33 0 66 22t60 54.5t43.5 69.5t16.5 68q0 29 -17.5 45.5t-44.5 16.5q-25 0 -49 -15.5t-43.5 -39t-31.5 -51.5t-13 -53h-13q0 21 11 50t31 55.5 t48 45t62 18.5q39 0 58.5 -25t19.5 -62q0 -41 -17 -79.5t-45 -68t-63.5 -47.5t-71.5 -18q-56 0 -87.5 34.5t-31.5 93.5t27.5 113t72 95t101 65.5t115.5 24.5q29 0 60 -8t56.5 -24.5t42 -40.5t16.5 -57q0 -17 -4.5 -32.5t-10 -31.5t-10 -31.5t-4.5 -32.5q0 -10 2 -14t16 -4 q10 0 34 18t54 45.5t62 61t57 63.5zM950 35q0 -26 3 -54q49 0 94 19.5t79.5 52t55.5 76.5t21 94q0 13 -4 26t-11.5 24t-19 18t-25.5 7q-41 0 -76 -29t-61 -70.5t-41 -86.5t-15 -77zM1259 757q-34 0 -71 -26.5t-74.5 -70t-74 -100t-68.5 -115.5q65 33 122 67.5t99 70.5 t66 74.5t24 79.5q0 20 -23 20z" />
<glyph unicode="I" horiz-adv-x="679" d="M293 636q9 20 25 41.5t36.5 39.5t44 30t47.5 12q19 0 34.5 -7.5t25.5 -17.5t15.5 -21t5.5 -18q0 -41 -17 -72t-44.5 -52t-62.5 -32t-71 -11q-28 0 -52.5 5.5t-43 20t-29 38.5t-10.5 60q0 43 24 84.5t65 74t94.5 52t112.5 19.5q40 0 76.5 -9.5t64 -27t44 -43t16.5 -58.5 q0 -21 -5 -35.5t-10.5 -27.5l-10.5 -25.5t-5 -29.5q0 -18 13 -18q7 0 23.5 11.5t39 30l48 41l49.5 45l45 41.5l34 30l15 -10l-50 -45t-37 -50q-28 -61 -56 -141.5t-63.5 -166t-81 -167.5t-107 -147t-143.5 -104.5t-190 -39.5q-38 0 -74 12.5t-64.5 36t-46 56.5t-17.5 75 q0 38 13 75.5t35.5 72.5t52 65t63 52.5t69 35t69.5 12.5q46 0 76 -11.5t46.5 -30.5t23 -42t6.5 -46t-16.5 -58.5t-51.5 -68.5t-91 -57t-135 -24v14q53 0 102 19.5t87 48.5t60.5 64.5t22.5 67.5q0 23 -4.5 42.5t-17.5 34t-36.5 22.5t-61.5 8q-45 0 -85 -14.5t-73 -38 t-59.5 -54.5t-44.5 -63.5t-27.5 -65t-9.5 -58.5q0 -33 14 -64t38 -54.5t55 -37.5t66 -14q68 0 125.5 20t105.5 55t87 82t70.5 100.5t56.5 111.5t45 114q8 23 26.5 61.5l39.5 79l41 76.5t32 55l-34 -32.5t-38.5 -34.5t-38 -27t-30.5 -11q-9 0 -18.5 2t-17 9t-12.5 21.5 t-5 39.5q0 8 4.5 20l10 27t10 32.5t4.5 37.5q0 22 -14.5 38t-38 25.5t-51.5 14t-55 4.5q-63 0 -115 -24t-89.5 -57.5t-58 -69t-20.5 -59.5q0 -35 9.5 -58t25.5 -36t37 -18t45 -5q33 0 66.5 15t60.5 37.5t44 49.5t17 50q0 29 -21 41t-48 12q-19 0 -40 -10.5t-40 -27.5 t-34.5 -37.5t-24.5 -41.5z" />
<glyph unicode="J" horiz-adv-x="136" d="M149 305q-47 -167 -93.5 -285t-94.5 -192.5t-99 -109t-108 -34.5q-38 0 -73.5 15.5t-65.5 60.5l2 11q16 -24 33 -39.5t34 -23.5t33.5 -11t32.5 -3q52 0 95 33t83 106t81 189t88 283h52zM193 443q0 -22 -14 -35t-28 -13q-10 0 -17 7t-7 23q0 21 14 33.5t28 12.5 q10 0 17 -7t7 -21z" />
<glyph unicode="K" horiz-adv-x="1039" d="M841 679l-29 -42q-29 -42 -43.5 -92t-30.5 -99l-10 -30q18 -5 39 -15t41 -24q15 13 27 30l57.5 83t65 88t68.5 69.5t68 28.5q3 0 10 -0.5t14 -4.5t12.5 -11.5t5.5 -21.5q0 -26 -10 -49t-26.5 -42.5t-37 -36t-41.5 -29.5l-7 10q16 10 35.5 26t36 35.5t28 41t11.5 41.5 q0 25 -26 25q-13 0 -25.5 -8t-23 -19.5t-19 -24t-13.5 -22.5q-42 -82 -92.5 -136t-101.5 -86q29 -25 48.5 -59.5t19.5 -79.5q0 -30 -11.5 -60.5t-25.5 -59.5t-25.5 -55.5t-11.5 -49.5q0 -15 6 -21.5t22 -6.5q30 0 62 16.5t65 45.5t66 68.5t66 85.5l6 -5q-33 -48 -66.5 -88 t-67.5 -69t-67 -45.5t-64 -16.5q-15 0 -27 7.5t-19.5 19.5t-11.5 26.5t-4 28.5q0 32 11 60.5t24.5 56.5t25 55.5t11.5 57.5q0 23 -11.5 44t-30.5 38q-32 -20 -62.5 -31.5t-56.5 -17.5q-17 -48 -37.5 -94t-50.5 -88q-35 -48 -79 -83t-93.5 -57.5t-102 -33t-103.5 -10.5 q-38 0 -74.5 9.5t-65 29t-46.5 49.5t-18 72q0 38 14 70t37 57.5t51.5 45.5t58 33t57 20t48.5 7t46 -5t46.5 -16t35.5 -29t14 -44q0 -43 -19 -76t-49.5 -56t-69 -35t-78.5 -12q-28 0 -49.5 2.5t-31.5 7.5v14q11 -2 21 -4.5t20 -2.5q34 0 76 11t79 31.5t62.5 49.5t25.5 65 q0 23 -10.5 39t-27 25.5t-37 14t-39.5 4.5q-48 0 -96 -18.5t-86.5 -49t-62 -69t-23.5 -78.5q0 -33 14.5 -61t38.5 -47.5t55.5 -30.5t66.5 -11q133 0 223.5 60t148.5 180q13 26 23.5 53.5l20.5 55.5q-39 3 -59 18t-20 33q0 22 30 42t92 24q10 24 24 51l28 53l27 49l22 38 q-7 -5 -18.5 -14.5t-25 -18.5t-28 -15.5t-26.5 -6.5q-9 0 -18.5 7t-16.5 18t-11.5 25t-4.5 28q0 8 4 20.5t8.5 28.5t8.5 34t4 38q0 22 -14.5 36.5t-35.5 23t-44 11.5t-39 3q-63 0 -118 -26t-96 -66.5t-65 -90t-24 -95.5q0 -63 26.5 -92t74.5 -29q33 0 66 22t60 54.5 t43.5 69.5t16.5 68q0 29 -17.5 45.5t-44.5 16.5q-25 0 -49 -15.5t-43.5 -39t-31.5 -51.5t-13 -53h-13q0 21 11 50t31 55.5t48 45t62 18.5q39 0 58.5 -25t19.5 -62q0 -41 -17 -79.5t-45 -68t-63.5 -47.5t-71.5 -18q-56 0 -87.5 34.5t-31.5 93.5t27.5 113t72 95t101 65.5 t115.5 24.5q29 0 60 -8t56.5 -24.5t42 -40.5t16.5 -57q0 -17 -4.5 -32.5t-10 -31.5t-10 -31.5t-4.5 -32.5q0 -10 2 -14t16 -4q10 0 28 12.5t39 30.5t42.5 38.5l38.5 37.5zM564 354q0 -14 17 -24.5t53 -11.5l21 61l11 30q-51 -5 -76.5 -21.5t-25.5 -33.5zM700 324 q57 12 100 46q-17 13 -36.5 21.5t-38.5 13.5l-12 -40.5t-13 -40.5z" />
<glyph unicode="L" horiz-adv-x="798" d="M1498 -178q-66 -29 -143 -36.5t-155 -7.5q-122 0 -237.5 22.5t-221.5 56.5t-201 73.5l-174 73.5q-46 -21 -100 -33t-117 -12q-40 0 -68.5 6t-46.5 15.5t-26 21t-8 22.5q0 14 13 28.5t36 26t54 19t66 7.5q51 0 105 -16.5t116 -42.5q71 51 121 124.5t90 157.5 q-54 -20 -108.5 -31t-109.5 -11q-67 0 -113.5 19t-75 49.5t-41.5 68.5t-13 77q0 55 35 109t96.5 97t146 69.5t184.5 26.5q53 0 109 -9v-13q-50 9 -97 9q-92 0 -172.5 -28t-140.5 -72.5t-94.5 -100.5t-34.5 -113q0 -33 11 -65t36 -56.5t65 -40t99 -15.5q51 0 110.5 15.5 t121.5 44.5l48 108t47 104t50.5 94t57.5 78.5t69 56.5t85 28q31 0 43 -15.5t12 -39.5q0 -53 -27.5 -110t-74.5 -112t-111.5 -104t-137.5 -85q-22 -48 -48 -94.5t-57 -89t-68.5 -79.5t-82.5 -65l166.5 -72.5t203.5 -73t252 -56.5t312 -23q16 0 35.5 1.5t39 4.5t37 7.5 t29.5 9.5zM980 816q-52 0 -90 -35.5t-70.5 -94t-62 -134t-64.5 -154.5q64 36 122 81.5t102.5 95t71 100.5t26.5 100q0 15 -9.5 28t-25.5 13zM144 -29q57 0 105 12t90 32q-69 29 -123.5 47.5t-92.5 18.5q-46 0 -77 -17t-31 -36t30 -38t99 -19z" />
<glyph unicode="M" horiz-adv-x="1485" d="M1424 298q20 -10 29 -31.5t9 -49.5q0 -37 -15.5 -80.5t-43 -80.5t-66.5 -61.5t-86 -24.5q-38 0 -65 15t-44 39.5t-25 56t-8 64.5q0 55 23.5 123t58.5 138.5t76 138.5l76 122l58.5 89t23.5 40t-6 5q-4 0 -7 -3q-43 -32 -90 -83.5t-95 -116t-95 -139t-90 -153t-80.5 -158.5 t-65.5 -155q-18 1 -28.5 13t-16 29.5t-7.5 37.5t-2 37q0 53 17 116t43.5 129.5t60.5 132t68.5 124t65.5 106t53 77.5q0 7 -5 7q-36 -15 -76 -60.5t-84 -110l-92.5 -142.5t-103 -156.5t-115.5 -152.5t-129 -131t-143.5 -92t-160.5 -35q-40 0 -82.5 10t-77.5 31.5t-57.5 56 t-22.5 83.5q0 64 27.5 113.5t70 83.5t94 51.5t100.5 17.5q33 0 62 -8t50.5 -25t34.5 -43t13 -61t-23 -66t-58.5 -54.5t-78.5 -37.5t-83 -14q-26 0 -48 6l6 20q21 -7 50 -7q36 0 74.5 11.5t71 32.5t53 51t20.5 66q0 47 -38 70t-93 23q-46 0 -96 -15.5t-92 -45.5t-69 -74.5 t-27 -101.5q0 -31 12.5 -59.5t39.5 -50t69 -34t101 -12.5q82 0 156.5 35t141.5 93.5t127 133t114.5 154.5l104 158t95 142.5t87.5 109t81 57.5q3 0 13 -2t10 -15q0 -7 -4 -16l-53.5 -105l-62 -127t-61.5 -138t-53.5 -140t-38 -132t-14.5 -114v-11.5t2 -10.5q23 64 61 145 t85.5 166t100.5 168.5t106 152t103 116t90 61.5q6 0 8 -6.5t2 -16.5q0 -6 -21 -45l-52.5 -98.5l-68.5 -133t-68.5 -149t-52.5 -146.5t-21 -125q0 -20 3 -41.5t11.5 -39.5t23.5 -29.5t39 -11.5q50 0 90 24.5t67.5 60.5t42 78t14.5 77q0 25 -7.5 43t-24.5 26z" />
<glyph unicode="N" horiz-adv-x="1112" d="M1424 728q-14 40 -31.5 57t-36.5 17q-28 0 -56 -27t-56.5 -72t-57.5 -103l-58 -120l-40.5 -88l-27.5 -61.5l-22.5 -48t-25 -48.5t-36 -63l-54.5 -90q-6 -10 -18.5 -28l-26 -36.5t-27 -34t-20.5 -20.5q-5 -4 -12 -4q-11 0 -11 9q0 5 3 11l17 44t22.5 71.5t20 97t9.5 120.5 q1 57 9 120t19.5 123t25.5 111t28 84q-18 -24 -39.5 -65.5t-43 -88.5l-42.5 -94t-38 -81q-54 -110 -117 -199.5t-134.5 -152.5t-151.5 -97.5t-168 -34.5q-42 0 -83 11t-73 34t-51.5 58.5t-19.5 84.5q0 57 25.5 101.5t65.5 76t90 48t100 16.5q28 0 58.5 -5.5t55 -18.5 t40.5 -35.5t16 -56.5q0 -41 -24 -73.5t-60.5 -55t-79 -34.5t-78.5 -12q-11 0 -23 1t-26 3l2 10q21 -3 39 -3q35 0 77 11t78.5 33.5t61 55.5t24.5 77q0 33 -38 58t-107 25q-44 0 -93.5 -19t-92 -51t-70.5 -74t-28 -89q0 -43 19 -74.5t50.5 -52t71.5 -30.5t81 -10 q63 0 120 18.5t108 51t96 76.5t84 94t71 103.5t58 105.5l20.5 45.5l33.5 73.5l40.5 86t42.5 83t39 64t30 30q6 2 9 2q7 0 7 -5q-6 -14 -12.5 -35t-11.5 -47t-8.5 -55t-3.5 -58q0 -13 -1 -41.5t-3.5 -68t-7 -86t-12.5 -95t-20 -95t-28 -85.5q-11 -28 -29 -64t-30 -64 q10 7 26 26t31.5 41l29 41.5t18.5 28.5q58 99 107.5 202.5t97.5 216.5q4 11 16 36t28.5 55.5t37.5 63.5t44 60t47 44.5t47 17.5q22 0 42 -19.5t37 -65.5h-12z" />
<glyph unicode="O" horiz-adv-x="658" d="M-13 408q0 78 25.5 136t66.5 96.5t93 58t106 19.5q84 70 177.5 112.5t184.5 42.5h23.5t15.5 -1l-2 -13q-9 1 -17.5 1h-16.5q-98 0 -181.5 -39t-150.5 -105q59 -6 109 -35q41 29 84 45.5t85 16.5q37 0 63.5 -16t43.5 -41.5t24.5 -57t7.5 -63.5q0 -59 -19.5 -125.5 t-54.5 -132.5t-82.5 -126t-103 -106t-117 -73.5t-123.5 -27.5q-55 0 -94 28t-64 70.5t-36.5 93.5t-11.5 97q0 57 18.5 116.5t50.5 117t76.5 111t97.5 99.5q-49 -4 -96.5 -25.5t-85 -59t-61 -91.5t-23.5 -124zM411 674q-48 30 -109 33q-53 -53 -95 -118.5t-70.5 -136 t-43.5 -142t-15 -137.5q0 -33 7.5 -66t25.5 -60t48.5 -43.5t77.5 -16.5q53 0 109 26t109 69.5t100 102t82 123.5t55.5 133t20.5 131q0 28 -7 56.5t-21.5 51t-37.5 36.5t-55 14q-39 0 -77 -17t-73 -46q43 -32 69.5 -81.5t26.5 -118.5q0 -45 -13.5 -87.5t-38 -76t-60 -54 t-79.5 -20.5q-33 0 -55 11.5t-35.5 31t-19.5 44t-6 51.5q0 41 14 83.5t38.5 83t57 76.5t70.5 64zM502 491q0 57 -19 98.5t-51 68.5q-36 -32 -67 -72t-53.5 -82.5t-35 -83.5t-12.5 -75q0 -42 20.5 -72.5t59.5 -30.5q31 0 59.5 22t50.5 57.5t35 80t13 89.5z" />
<glyph unicode="P" horiz-adv-x="676" d="M281 759q-75 -8 -142.5 -34.5t-117.5 -67t-79.5 -93t-29.5 -113.5q0 -66 31 -102.5t84 -51.5q11 67 44 134t80 129.5t104.5 116.5t117.5 93.5t119.5 62.5t110.5 23q24 0 41.5 -15.5t17.5 -42.5q0 -11 -1 -22t-3 -23q36 -19 58 -68.5t22 -132.5q0 -59 -20 -125.5 t-54.5 -132.5t-82 -126t-103.5 -106t-117.5 -73.5t-123.5 -27.5q19 -62 57.5 -100t97.5 -38q24 0 47 9t46 20.5t46.5 20.5t47.5 9q47 0 78 -31t42 -76l-4 -1q-24 44 -48.5 59t-54.5 15q-21 0 -42.5 -11l-45.5 -23.5t-51 -23.5t-58 -11q-70 0 -115 51.5t-67 132.5 q-48 6 -84 32.5t-60 65t-36 84t-12 88.5q0 23 3 49q-29 9 -55.5 23.5t-46.5 37t-31.5 53t-11.5 70.5q0 75 37 128.5t95.5 89.5t130.5 56.5t141 29.5zM216 121q0 -83 18 -147h13q53 0 109 26t109 69.5t100 102t82 123.5t55.5 133t20.5 131q0 73 -18.5 115.5t-50.5 57.5 q-15 -63 -53.5 -132.5t-94 -132t-125.5 -111.5t-146 -72q-9 -39 -14 -80t-5 -83zM599 768q27 0 48 -10q4 19 4 40q0 22 -16.5 32t-29.5 10q-63 0 -122 -23.5t-111.5 -64.5t-98 -95.5t-82 -116.5t-62 -127.5t-37.5 -127.5q8 -1 16.5 -1.5t16.5 -0.5q40 0 86 11 q22 106 66 193.5t98.5 149.5t113.5 96.5t110 34.5zM611 742q-45 0 -99.5 -33.5t-107 -92.5t-96.5 -139.5t-68 -174.5q73 23 139.5 71.5t120.5 109.5t91.5 127.5t51.5 126.5q-17 5 -32 5zM194 127q0 39 3.5 76.5t10.5 73.5q-41 -9 -83 -9q-9 0 -18 0.5t-18 1.5 q-5 -29 -7.5 -56.5t-2.5 -53.5q0 -30 7 -59.5t22.5 -54.5t40.5 -43.5t61 -24.5q-8 34 -12 71.5t-4 77.5z" />
<glyph unicode="Q" horiz-adv-x="676" d="M79 160q0 -30 7 -59.5t22.5 -54.5t40.5 -43.5t61 -24.5q-8 34 -12 71.5t-4 77.5q0 93 19 176.5t50.5 155t72.5 128.5t86 97.5t91 62t86 21.5q30 0 55 -12.5t44 -39t29.5 -67t10.5 -97.5q0 -59 -19.5 -125.5t-54.5 -132.5t-82.5 -126t-103 -106t-117 -73.5t-123.5 -27.5 h-1q20 -62 58 -100t97 -38q24 0 47 9t46 20.5t46.5 20.5t47.5 9q47 0 78 -31t42 -76l-4 -1q-24 44 -48.5 59t-54.5 15q-21 0 -42.5 -11l-45.5 -23.5t-51 -23.5t-58 -11q-70 0 -115 51.5t-67 132.5q-48 6 -84 32.5t-60 65t-36 84t-12 88.5q0 69 26.5 142.5t72.5 143 t107.5 131.5t131.5 108.5t144.5 74t146.5 27.5h13v-13h-10q-86 0 -161.5 -31t-139.5 -83.5t-114.5 -121.5t-86 -145.5t-54 -155t-18.5 -150.5zM723 559q0 96 -31.5 139.5t-80.5 43.5q-37 0 -81 -23t-88 -64t-84.5 -98.5t-72 -126.5t-50.5 -147.5t-19 -161.5t18 -147h13 q53 0 109 26t109 69.5t100 102t82 123.5t55.5 133t20.5 131z" />
<glyph unicode="R" horiz-adv-x="851" d="M-188 -39q37 1 116 22t182 59q-10 24 -10 57q0 39 21.5 77.5t57 69t82 49.5t96.5 19q23 0 46.5 -6t42.5 -18.5t31 -31.5t12 -45q69 37 135.5 77t127.5 84q28 84 52.5 165.5t52.5 147.5t64.5 109t90.5 50q31 0 43 -15.5t12 -39.5q0 -50 -18 -100t-50.5 -98.5t-78 -95 t-99.5 -91.5q-28 -87 -68 -171.5t-100 -151t-144.5 -107.5t-202.5 -41q-27 0 -55.5 5t-54 16.5t-46 28.5t-33.5 41q-100 -35 -179 -54.5t-126 -20.5v10zM241 74l-55.5 -21.5l-54.5 -20.5q23 -38 69 -61.5t101 -23.5q96 0 166.5 33t122 88.5t87.5 127.5t64 149 q-59 -42 -123 -81t-131 -74q-6 -34 -25.5 -59t-46.5 -41t-59 -23.5t-62 -7.5q-14 0 -28 3.5l-26 6.5zM114 94q0 -25 9 -46q81 30 169 69t178 86q3 9 3 20q0 23 -11.5 38t-29.5 24t-39.5 12.5t-40.5 3.5q-50 0 -93.5 -19t-75.5 -48.5t-50.5 -66.5t-18.5 -73zM1020 835 q-36 0 -61.5 -33.5t-46 -89t-39.5 -127.5t-43 -150q50 42 91.5 85.5t71.5 88.5t46.5 91.5t16.5 93.5q0 15 -10 28t-26 13zM460 176l-105 -51.5t-103 -45.5q7 -2 13 -3.5t13 -1.5q29 0 57 8t52 22t43 32.5t30 39.5z" />
<glyph unicode="S" horiz-adv-x="751" d="M938 829q-8 6 -18 6q-32 0 -54.5 -25.5t-41.5 -69.5t-35.5 -102.5l-34.5 -124.5t-40 -135.5t-52.5 -135.5t-71 -124.5t-95.5 -102.5t-126 -69.5t-163 -25.5q-36 0 -72.5 11.5t-66.5 34t-48.5 56t-18.5 77.5q0 39 21.5 77.5t57 69t82 49.5t96.5 19q23 0 46.5 -6 t42.5 -18.5t31 -31.5t12 -45q0 -40 -18 -69t-46.5 -48t-63 -28t-67.5 -9q-14 0 -28 3.5l-26 6.5l3 12q9 -2 17.5 -4.5t17.5 -2.5q37 0 72.5 13.5t62.5 34.5t43.5 47.5t16.5 53.5q0 23 -11.5 38t-29.5 24t-39.5 12.5t-40.5 3.5q-50 0 -93.5 -19t-75.5 -48.5t-50.5 -66.5 t-18.5 -73q0 -32 15.5 -61t41 -51.5t59.5 -36t71 -13.5q102 0 175 38t126 100t89 142t64 164t51.5 165.5t51.5 147t64.5 108t89.5 49.5q18 0 32 -7z" />
<glyph unicode="T" horiz-adv-x="698" d="M237 -83q67 24 112.5 75t77.5 118t56 145l49 157q16 53 34 102t41 93.5t52 84t68 72.5q-44 4 -92.5 9t-97 9.5t-93.5 7t-81 2.5q-51 0 -107 -16.5t-103 -48.5t-77.5 -78.5t-30.5 -105.5q0 -28 9 -53.5t28.5 -45t51 -31.5t76.5 -12q55 0 104 19t85.5 48.5t57.5 63.5t21 64 q0 29 -23 51.5t-71 22.5q-53 0 -105.5 -34t-116.5 -114l-6 11q40 54 74 83.5t62.5 44t51.5 17t42 2.5q43 0 73 -24t30 -69q0 -43 -20.5 -80.5t-56.5 -65.5t-84 -44t-103 -16q-38 0 -73 9t-61 28.5t-41.5 50t-15.5 73.5q0 45 18 84.5t48.5 72.5t71 59.5t85.5 44.5t91.5 27.5 t89.5 9.5q31 0 73.5 -3.5t91 -9l100 -11.5l100.5 -11.5t92 -9t75 -3.5q19 0 38.5 6.5t35.5 14.5l-2 -15q-33 -22 -76 -35t-86 -13q-15 0 -51.5 3.5l-85.5 8.5q-38 -38 -60 -76t-37 -80t-27 -90t-29 -104q-31 -104 -63.5 -187t-73 -146.5t-92.5 -106.5t-121 -67z" />
<glyph unicode="U" horiz-adv-x="1609" d="M1606 38q-29 -28 -56 -46t-50 -18q-11 0 -17.5 8t-11 19.5t-6 23t-1.5 18.5q0 28 11.5 58t25 58.5l25 52.5t11.5 40q0 10 -3 21.5t-17 11.5l-19.5 -52.5t-28 -66.5t-38 -70t-48.5 -63t-60 -45.5t-72 -17.5q-38 0 -65 15t-44 39.5t-25 56t-8 64.5q0 55 23.5 123 t58.5 138.5t76 138.5l76 122l58.5 89t23.5 40t-6 5q-4 0 -7 -3q-43 -32 -90 -83.5t-95 -116t-95 -139t-90 -153t-80.5 -158.5t-65.5 -155q-18 1 -28.5 13t-16 29.5t-7.5 37.5t-2 37q0 53 17 116t43.5 129.5t60.5 132t68.5 124t65.5 106t53 77.5q0 7 -5 7q-36 -15 -76 -60.5 t-84 -110l-92.5 -142.5t-103 -156.5t-115.5 -152.5t-129 -131t-143.5 -92t-160.5 -35q-40 0 -82.5 10t-77.5 31.5t-57.5 56t-22.5 83.5q0 64 27.5 113.5t70 83.5t94 51.5t100.5 17.5q33 0 62 -8t50.5 -25t34.5 -43t13 -61t-23 -66t-58.5 -54.5t-78.5 -37.5t-83 -14 q-26 0 -48 6l6 20q21 -7 50 -7q36 0 74.5 11.5t71 32.5t53 51t20.5 66q0 47 -38 70t-93 23q-46 0 -96 -15.5t-92 -45.5t-69 -74.5t-27 -101.5q0 -31 12.5 -59.5t39.5 -50t69 -34t101 -12.5q82 0 156.5 35t141.5 93.5t127 133t114.5 154.5l104 158t95 142.5t87.5 109t81 57.5 q3 0 13 -2t10 -15q0 -7 -4 -16l-53.5 -105l-62 -127t-61.5 -138t-53.5 -140t-38 -132t-14.5 -114v-11.5t2 -10.5q23 64 61 145t85.5 166t100.5 168.5t106 152t103 116t90 61.5q6 0 8 -6.5t2 -16.5q0 -6 -21 -45l-52.5 -98.5l-68.5 -133t-68.5 -149t-52.5 -146.5t-21 -125 q0 -20 3 -41.5t11.5 -39.5t23.5 -29.5t39 -11.5q42 0 76.5 17.5t62 45.5t49 62.5t37 69t26.5 65.5l18 51q-5 3 -9.5 18t-4.5 27q0 14 6.5 30t24.5 16q20 0 20 -21q0 -17 -7 -33.5t-15 -30.5q22 -12 35 -27.5t13 -39.5q0 -26 -12.5 -59.5t-27.5 -66l-27.5 -59.5t-12.5 -40 q0 -14 5 -16t11 -2q20 0 44 16t50 42z" />
<glyph unicode="V" horiz-adv-x="686" d="M554 694q-21 -30 -47 -82.5t-53 -116t-53 -133t-46 -133t-32.5 -116.5t-12.5 -83q0 -9 1 -18.5t4.5 -17.5t9.5 -13t16 -5q27 0 60 19.5t69 52.5t73 77.5t71 95.5t64 105t53 106q-32 61 -46 114t-14 92q0 14 4 32t12 34t20 27t29 11q20 0 31 -14t16.5 -33.5t7 -40 t1.5 -33.5q0 -40 -12 -87.5t-33 -98.5q10 -21 22 -41.5t27 -40.5l-8 -13q-14 20 -26 39l-23 38q-23 -53 -53.5 -107.5t-65 -105t-71.5 -94t-73 -76t-69 -51t-59 -18.5q-14 0 -27 9t-23 25.5t-16 39.5t-6 50q0 70 13 133t34 118.5t47.5 104t53 89.5t50.5 74.5t41 60.5 q-7 -5 -18.5 -14.5t-25 -18.5t-28 -15.5t-26.5 -6.5q-9 0 -18.5 7t-16.5 18t-11.5 25t-4.5 28q0 8 4 20.5t8.5 28.5t8.5 34t4 38q0 22 -14.5 36.5t-35.5 23t-44 11.5t-39 3q-63 0 -118 -26t-96 -66.5t-65 -90t-24 -95.5q0 -63 26.5 -92t74.5 -29q33 0 66 22t60 54.5 t43.5 69.5t16.5 68q0 29 -17.5 45.5t-44.5 16.5q-25 0 -49 -15.5t-43.5 -39t-31.5 -51.5t-13 -53h-13q0 21 11 50t31 55.5t48 45t62 18.5q39 0 58.5 -25t19.5 -62q0 -41 -17 -79.5t-45 -68t-63.5 -47.5t-71.5 -18q-56 0 -87.5 34.5t-31.5 93.5t27.5 113t72 95t101 65.5 t115.5 24.5q29 0 60 -8t56.5 -24.5t42 -40.5t16.5 -57q0 -17 -4.5 -32.5t-10 -31.5t-10 -31.5t-4.5 -32.5q0 -10 2 -14t16 -4q10 0 28 12.5t39 30.5t42.5 38.5l38.5 37.5l11 -7zM700 638q0 -29 8 -79t32 -107q20 48 31 91.5t11 78.5q0 11 -1 29.5t-5.5 36t-12.5 30t-23 12.5 q-17 0 -28.5 -26t-11.5 -66z" />
<glyph unicode="W" horiz-adv-x="963" d="M274 88q0 87 21.5 166t56 151t77 138l84.5 126q-7 -5 -18.5 -14.5t-25 -18.5t-28 -15.5t-26.5 -6.5q-9 0 -18.5 7t-16.5 18t-11.5 25t-4.5 28q0 8 4 20.5t8.5 28.5t8.5 34t4 38q0 22 -14.5 36.5t-35.5 23t-44 11.5t-39 3q-63 0 -118 -26t-96 -66.5t-65 -90t-24 -95.5 q0 -63 26.5 -92t74.5 -29q33 0 66 22t60 54.5t43.5 69.5t16.5 68q0 29 -17.5 45.5t-44.5 16.5q-25 0 -49 -15.5t-43.5 -39t-31.5 -51.5t-13 -53h-13q0 21 11 50t31 55.5t48 45t62 18.5q39 0 58.5 -25t19.5 -62q0 -41 -17 -79.5t-45 -68t-63.5 -47.5t-71.5 -18 q-56 0 -87.5 34.5t-31.5 93.5t27.5 113t72 95t101 65.5t115.5 24.5q29 0 60 -8t56.5 -24.5t42 -40.5t16.5 -57q0 -17 -4.5 -32.5t-10 -31.5t-10 -31.5t-4.5 -32.5q0 -10 2 -14t16 -4q10 0 28 12.5t39 30.5t42.5 38.5l38.5 37.5l11 -7q-28 -40 -59.5 -100t-61.5 -128.5 t-57.5 -140t-48.5 -137t-33.5 -118.5t-12.5 -83q0 -9 1 -18.5t4.5 -17.5t9.5 -13t16 -5q32 0 70.5 23t78.5 61q-2 8 -2 15.5v15.5q0 43 12 91t31.5 94.5t44.5 89.5t51.5 75.5t52.5 52t48 19.5q31 0 31 -37q0 -30 -20 -79t-53 -105t-75.5 -113.5t-87.5 -103.5q-1 -7 -1 -13 v-11q0 -14 1 -27.5t5 -24t11.5 -17.5t20.5 -7q22 0 51 18t61.5 49.5t68 73.5t69 90t64.5 99.5t56 101.5q-29 53 -42.5 100t-13.5 104q0 28 5.5 52t16 41.5t24.5 27.5t31 10q20 0 31 -14t16.5 -33.5t7 -40t1.5 -33.5q0 -44 -16.5 -99t-43.5 -115q20 -41 52 -81l-8 -13 l-28 40.5l-24 37.5q-24 -52 -55 -103.5t-65 -99t-69.5 -89t-69.5 -72t-65 -48t-56 -17.5q-29 0 -45 25.5t-22 57.5q-39 -36 -76 -58t-68 -22q-14 0 -27 9t-23 25.5t-16 39.5t-6 50zM720 502q-14 0 -32.5 -19t-38.5 -51t-40 -73.5t-37.5 -87t-30.5 -91t-18 -85.5 q43 46 82.5 101.5t70 108.5t48.5 98t18 71q0 28 -22 28zM901 610q0 -49 7 -93.5t28 -92.5q27 57 43 108t16 89q0 11 -1 29.5t-5.5 36t-12.5 30t-23 12.5q-9 0 -18 -5.5t-16.5 -19.5t-12.5 -37t-5 -57z" />
<glyph unicode="X" horiz-adv-x="1882" d="M1789 291q38 -27 65.5 -64t27.5 -81q0 -26 -14.5 -55.5t-37.5 -55.5t-51.5 -43t-56.5 -17t-40 18t-12 41q0 24 11 44.5t30 20.5q11 0 15.5 -6.5t4.5 -15.5q0 -16 -13.5 -33.5t-36.5 -17.5q0 -17 8.5 -29t22.5 -12q32 0 55.5 24t39 55.5t23 63t7.5 46.5q0 40 -12.5 63.5 t-38.5 46.5q-12 -23 -31.5 -55t-43.5 -66.5t-51.5 -68t-55.5 -60.5t-54.5 -43.5t-49.5 -16.5q-11 0 -17.5 8t-11 19.5t-6 23t-1.5 18.5q0 28 11.5 58t25 58.5l25 52.5t11.5 40q0 10 -3 21.5t-17 11.5l-19.5 -52.5t-28 -66.5t-38 -70t-48.5 -63t-60 -45.5t-72 -17.5 q-38 0 -65 15t-44 39.5t-25 56t-8 64.5q0 55 23.5 123t58.5 138.5t76 138.5l76 122l58.5 89t23.5 40t-6 5q-4 0 -7 -3q-43 -32 -90 -83.5t-95 -116t-95 -139t-90 -153t-80.5 -158.5t-65.5 -155q-18 1 -28.5 13t-16 29.5t-7.5 37.5t-2 37q0 53 17 116t43.5 129.5t60.5 132 t68.5 124t65.5 106t53 77.5q0 7 -5 7q-36 -15 -76 -60.5t-84 -110l-92.5 -142.5t-103 -156.5t-115.5 -152.5t-129 -131t-143.5 -92t-160.5 -35q-40 0 -82.5 10t-77.5 31.5t-57.5 56t-22.5 83.5q0 64 27.5 113.5t70 83.5t94 51.5t100.5 17.5q33 0 62 -8t50.5 -25t34.5 -43 t13 -61t-23 -66t-58.5 -54.5t-78.5 -37.5t-83 -14q-26 0 -48 6l6 20q21 -7 50 -7q36 0 74.5 11.5t71 32.5t53 51t20.5 66q0 47 -38 70t-93 23q-46 0 -96 -15.5t-92 -45.5t-69 -74.5t-27 -101.5q0 -31 12.5 -59.5t39.5 -50t69 -34t101 -12.5q82 0 156.5 35t141.5 93.5 t127 133t114.5 154.5l104 158t95 142.5t87.5 109t81 57.5q3 0 13 -2t10 -15q0 -7 -4 -16l-53.5 -105l-62 -127t-61.5 -138t-53.5 -140t-38 -132t-14.5 -114v-11.5t2 -10.5q23 64 61 145t85.5 166t100.5 168.5t106 152t103 116t90 61.5q6 0 8 -6.5t2 -16.5q0 -6 -21 -45 l-52.5 -98.5l-68.5 -133t-68.5 -149t-52.5 -146.5t-21 -125q0 -20 3 -41.5t11.5 -39.5t23.5 -29.5t39 -11.5q42 0 76.5 17.5t62 45.5t49 62.5t37 69t26.5 65.5l18 51q-5 3 -9.5 18t-4.5 27q0 14 6.5 30t24.5 16q20 0 20 -21q0 -17 -7 -33.5t-15 -30.5q22 -12 35 -27.5 t13 -39.5q0 -26 -12.5 -59.5t-27.5 -66l-27.5 -59.5t-12.5 -40q0 -14 5 -16t11 -2q17 0 41 15.5t50.5 41t54 58t52 66.5t44 66.5t30.5 58.5q-5 3 -10 17t-5 26q0 14 6.5 30t24.5 16q20 0 20 -21q0 -17 -8.5 -36t-16.5 -33z" />
<glyph unicode="Y" horiz-adv-x="1632" d="M1461 99q11 0 15.5 -6.5t4.5 -15.5q0 -16 -13.5 -33.5t-36.5 -17.5q0 -17 8.5 -29t22.5 -12q32 0 55.5 24t39 55.5t23 63t7.5 46.5q0 40 -12.5 63.5t-38.5 46.5q-16 -24 -34 -57l-38.5 -67.5t-43.5 -68.5t-49.5 -61t-56 -43.5t-63.5 -16.5q-38 0 -65 15t-44 39.5t-25 56 t-8 64.5q0 55 23.5 123t58.5 138.5t76 138.5l76 122l58.5 89t23.5 40t-6 5q-4 0 -7 -3q-43 -32 -90 -83.5t-95 -116t-95 -139t-90 -153t-80.5 -158.5t-65.5 -155q-18 1 -28.5 13t-16 29.5t-7.5 37.5t-2 37q0 53 17 116t43.5 129.5t60.5 132t68.5 124t65.5 106t53 77.5 q0 7 -5 7q-36 -15 -76 -60.5t-84 -110l-92.5 -142.5t-103 -156.5t-115.5 -152.5t-129 -131t-143.5 -92t-160.5 -35q-40 0 -82.5 10t-77.5 31.5t-57.5 56t-22.5 83.5q0 64 27.5 113.5t70 83.5t94 51.5t100.5 17.5q33 0 62 -8t50.5 -25t34.5 -43t13 -61t-23 -66t-58.5 -54.5 t-78.5 -37.5t-83 -14q-26 0 -48 6l6 20q21 -7 50 -7q36 0 74.5 11.5t71 32.5t53 51t20.5 66q0 47 -38 70t-93 23q-46 0 -96 -15.5t-92 -45.5t-69 -74.5t-27 -101.5q0 -31 12.5 -59.5t39.5 -50t69 -34t101 -12.5q82 0 156.5 35t141.5 93.5t127 133t114.5 154.5l104 158 t95 142.5t87.5 109t81 57.5q3 0 13 -2t10 -15q0 -7 -4 -16l-53.5 -105l-62 -127t-61.5 -138t-53.5 -140t-38 -132t-14.5 -114v-11.5t2 -10.5q23 64 61 145t85.5 166t100.5 168.5t106 152t103 116t90 61.5q6 0 8 -6.5t2 -16.5q0 -6 -21 -45l-52.5 -98.5l-68.5 -133 t-68.5 -149t-52.5 -146.5t-21 -125q0 -20 3 -41.5t11.5 -39.5t23.5 -29.5t39 -11.5q38 0 69 14.5t63 50t69.5 96t88.5 152.5q-5 3 -10 17t-5 26q0 14 6.5 30t24.5 16q20 0 20 -21q0 -17 -8.5 -36t-16.5 -33q38 -27 65.5 -64t27.5 -81q0 -26 -14.5 -56t-37.5 -55.5 t-51.5 -42.5t-56.5 -17t-40 18t-12 41q0 24 11 44.5t30 20.5z" />
<glyph unicode="Z" horiz-adv-x="822" d="M548 -154q-9 30 -14.5 64t-8.5 62q-38 1 -63 9t-40 20.5t-21.5 29.5t-6.5 36q0 25 9 48.5t20.5 43.5l20.5 36t9 27t-18 20t-47 11q-36 -58 -74.5 -110t-78 -91.5t-81.5 -62.5t-86 -23q-25 0 -33.5 13.5t-8.5 29.5q0 24 16 51.5t42.5 55t60.5 53t70.5 45.5t73 33t67.5 15 l70 118.5l70 117.5q-6 -1 -12 -1h-11q-16 0 -32 4t-29.5 13t-22 24t-8.5 36q0 24 6.5 44t15 39t15 37.5t6.5 41.5t-18 40.5t-43 29t-51.5 17.5t-44.5 6q-63 0 -128 -25t-118.5 -68t-87.5 -101t-34 -124q0 -20 6.5 -42.5t20 -41.5t33.5 -32t48 -13q39 0 79.5 22.5t73.5 57 t54.5 76t21.5 79.5q0 27 -19.5 46t-46.5 19q-23 0 -46.5 -10.5t-45.5 -32t-39.5 -55t-26.5 -79.5h-12q9 43 26.5 78t40 59t48.5 37t51 13q39 0 64 -27.5t25 -65.5q0 -48 -20.5 -89.5t-54.5 -72t-78 -48t-91 -17.5q-30 0 -53 12.5t-39.5 33t-25 45.5t-8.5 51q0 66 33 125 t86.5 103.5t121.5 70.5t139 26q34 0 69.5 -9t64.5 -27t47 -46t18 -65q0 -22 -7 -43.5t-15.5 -41l-15.5 -36.5t-7 -29q0 -22 17 -27.5t37 -5.5q8 0 16 0.5t16 1.5q31 50 62.5 94t64 76.5t65 51t66.5 18.5q15 0 25.5 -9.5t10.5 -26.5q0 -29 -23 -61.5t-60 -62t-84 -53 t-95 -34.5l-70.5 -119.5t-73.5 -122.5q15 -2 31.5 -5.5t29.5 -11.5t21.5 -21t8.5 -33q0 -24 -8.5 -45t-18.5 -40.5t-18.5 -39.5t-8.5 -42q0 -8 4.5 -15t15 -13t28.5 -10t46 -4q-2 15 -2 25.5v15.5q0 56 11.5 110t36 97t62.5 69t92 26q39 0 57 -27t18 -60q0 -53 -26.5 -100.5 t-66.5 -84t-85.5 -58.5t-83.5 -23q2 -26 8 -58t17 -69zM536 -18q21 1 48 11.5t55 27.5t55 40t48 51.5t34 60.5t13 67q0 27 -17 48.5t-48 21.5q-35 0 -68.5 -27t-60 -71.5t-43 -101t-16.5 -115.5v-13zM63 -18q38 0 75 21.5t72.5 58t70 85t68.5 103.5q-29 -5 -63.5 -19 t-69 -33.5t-66.5 -43.5t-57 -48.5t-40 -49t-15 -44.5q0 -16 8.5 -23t16.5 -7zM760 738q-26 0 -51.5 -16.5t-52 -46t-54 -69t-55.5 -85.5q42 12 84.5 34.5t77 49.5t56.5 56t22 54q0 12 -7.5 17.5t-19.5 5.5z" />
<glyph unicode="b" horiz-adv-x="343" d="M53 75q0 50 13.5 121t38 148.5t58.5 154t75.5 137t88.5 98.5t98 38q38 0 73.5 -15.5t65.5 -60.5l-2 -11q-16 24 -33 39.5t-34 23.5t-33.5 11t-32.5 3q-36 0 -70 -27t-64.5 -72t-58 -103.5t-50 -122t-40.5 -126.5t-31 -117t-19.5 -95t-6.5 -59q0 -20 2 -30.5t6 -15t8 -5.5 t9 -1q12 0 28 9.5t33.5 27.5t35.5 44.5t33 60.5l-13 37t-8 51t7 48t26 20q16 0 21.5 -17.5t5.5 -32.5q0 -25 -7.5 -52.5t-19.5 -54.5q4 -17 11 -27t14.5 -15.5t14.5 -7t11 -1.5q10 0 23 10.5t27 27t28 36l27 36.5l6 -5l-26.5 -37t-29.5 -37.5t-30 -29t-28 -11.5 q-17 0 -32 14.5t-22 33.5q-14 -28 -31.5 -53.5t-36 -45t-37 -31t-33.5 -11.5t-26 10.5t-18.5 25.5t-11 32.5t-3.5 31.5z" />
<glyph unicode="d" horiz-adv-x="394" d="M272 260q42 154 86 253t88 156.5t87 80t84 22.5q38 0 73.5 -15.5t65.5 -60.5l-2 -11q-16 24 -33 39.5t-34 23.5t-33.5 11t-32.5 3q-34 0 -67.5 -30.5t-65.5 -80.5t-62 -114.5t-56 -133t-47.5 -136.5t-36.5 -123.5t-23.5 -94.5t-8.5 -51q0 -4 1.5 -7.5t9.5 -3.5 q12 0 35.5 18.5t51.5 47.5t57.5 64.5t53.5 70.5l6 -5q-25 -36 -54.5 -73t-57 -67t-51 -49t-36.5 -19q-15 0 -24.5 8.5t-15.5 23.5t-8 34.5t-2 40.5l-18.5 -30t-26 -37t-31 -31t-34.5 -13q-8 0 -22 6.5t-27 23.5t-22.5 45.5t-9.5 73.5q0 26 22 62t52.5 69t62 56t51.5 23 q6 0 14 -2t16 -9.5t14.5 -21.5t10.5 -37zM258 258q0 18 -9 37.5t-29 19.5q-21 0 -45.5 -27t-45.5 -68t-35.5 -89.5t-14.5 -91.5q0 -21 5.5 -36t19.5 -15q26 0 53.5 28t50 69t36.5 88t14 85z" />
<glyph unicode="e" horiz-adv-x="227" d="M85 242q15 53 34.5 113.5t43.5 119t53 112.5t62.5 95t71 65.5t80.5 24.5q38 0 73.5 -15.5t65.5 -60.5l-2 -11q-16 24 -33 39.5t-34 23.5t-33.5 11t-32.5 3q-43 0 -86.5 -45.5t-86 -127.5t-83.5 -195t-78 -248q5 -10 14.5 -23t20.5 -24t21.5 -19t16.5 -8q18 0 35 12.5 t33 30.5t29.5 38l24.5 35l6 -5l-23.5 -32.5t-31.5 -40.5t-35.5 -34.5t-35.5 -14.5q-12 0 -24.5 9t-24 20.5t-20 23t-11.5 16.5q-17 -52 -37.5 -109t-45.5 -111.5t-53.5 -103.5t-60.5 -86t-67.5 -59t-73.5 -22t-73.5 15.5t-65.5 60.5l2 11q16 -24 33 -39.5t34 -23.5t33.5 -11 t32.5 -3q29 0 59 23.5t58.5 63.5t56.5 93t52.5 111.5t46.5 119t39 115.5q-6 11 -12 30t-6 34q0 11 4 17.5t15 6.5q2 0 8.5 -5.5t8.5 -21.5q0 2 2 6z" />
<glyph unicode="f" horiz-adv-x="227" d="M330 745q-26 0 -49.5 -43t-48 -114.5t-51 -164.5t-58.5 -193q21 21 45.5 54.5t49.5 73.5t47.5 85t40.5 89.5t28.5 86.5t10.5 77v12t-1.5 16.5t-4.5 14.5t-9 6zM-40 -366h-43l149 541q-6 11 -12.5 30t-6.5 34q0 11 4 17.5t15 6.5q2 0 8.5 -5.5t8.5 -21.5l21.5 72l28 92 t34 99t39.5 94q6 12 18 39t28 54t33 47.5t34 20.5q13 0 20 -5.5t10.5 -14.5t4.5 -19.5t1 -20.5q0 -54 -21 -119.5t-55 -132t-77 -130t-87 -112.5l-15 -54q5 -10 14.5 -23t20.5 -24t21.5 -19t16.5 -8q18 0 35 12.5t33 30.5t29.5 38l24.5 35l6 -5l-23.5 -32.5t-31.5 -40.5 t-35.5 -34.5t-35.5 -14.5q-12 0 -24.5 9t-24 20.5t-20 23t-11.5 16.5z" />
<glyph unicode="g" horiz-adv-x="328" d="M341 305q-17 -51 -36.5 -121.5t-44.5 -146.5t-56.5 -150t-71.5 -132.5t-90 -94.5t-112 -36q-38 0 -73.5 15.5t-65.5 60.5l2 11q16 -24 33 -39.5t34 -23.5t33.5 -11t32.5 -3q63 0 108 41.5t78 106.5t57.5 144.5l46.5 155.5q-7 -11 -20 -29.5t-30 -36t-36.5 -30 t-39.5 -12.5q-5 0 -15 6.5t-20 23.5t-18 45.5t-8 73.5q0 26 22 61.5t53 68t63 55t53 22.5q6 0 14 -4t15 -13.5t12.5 -25.5t6.5 -39l18 57h55zM254 240q0 9 -1.5 21.5t-5 24.5t-10 20t-16.5 8q-16 0 -33 -13.5t-33.5 -35.5t-31 -49.5t-26 -56t-18 -54.5t-6.5 -44 q0 -11 0.5 -23t3 -23t6.5 -18t11 -7q25 0 53 25t52 62.5t39.5 81t15.5 81.5z" />
<glyph unicode="h" horiz-adv-x="400" d="M6 -14l22 92t30 116.5t38.5 129.5t47.5 131t56 121.5t65.5 101t75 69t84.5 25.5q38 0 73.5 -15.5t65.5 -60.5l-2 -11q-16 24 -33 39.5t-34 23.5t-33.5 11t-32.5 3q-36 0 -68 -23.5t-61 -63.5t-54.5 -92.5t-47 -110t-40 -116.5t-33 -112l-26 -96.5t-19.5 -70.5 q24 42 53 87t57.5 82t55 60.5t46.5 23.5q10 0 18.5 -7t13.5 -17t8 -21t3 -20q0 -33 -11.5 -73t-26 -77.5l-26 -67.5t-11.5 -42q0 -17 13 -17q11 0 34 18t50.5 46.5t57 64.5t53.5 71l7 -6q-29 -41 -59 -78t-57 -66t-49.5 -46t-35.5 -17t-22 8.5t-14.5 21t-8 27t-2.5 26.5 q0 22 11.5 59t25.5 73.5l25.5 67t11.5 39.5q0 15 -11 15q-17 0 -44 -25.5t-58 -65.5t-62.5 -89.5t-58.5 -97.5l-14 -48h-47v0z" />
<glyph unicode="i" horiz-adv-x="404" d="M479 182q-29 -41 -59 -78t-57 -66t-49.5 -46t-35.5 -17t-22 8.5t-14.5 21t-8 27t-2.5 26.5q0 22 11.5 59t25.5 73.5l25.5 67t11.5 39.5q0 15 -11 15q-17 0 -44.5 -26t-59 -67.5t-63.5 -92t-59 -98.5l-12 -38h-51l225 741h52l-200 -656l53.5 88t57.5 82t55.5 61t47.5 24 q10 0 18.5 -7t13.5 -17t8 -21t3 -20q0 -33 -11.5 -73t-26 -77.5l-26 -67.5t-11.5 -42q0 -17 13 -17q11 0 34 18t50.5 46.5t57 64.5t53.5 71z" />
<glyph unicode="j" horiz-adv-x="203" d="M36 -49q22 13 45 29.5t51 43t62 66t78 98.5l6 -5q-32 -45 -61.5 -81.5t-59 -67t-60.5 -55t-66 -45.5l-13 -43q-20 -64 -46.5 -118.5t-55.5 -94.5t-60 -63t-60 -23q-17 0 -28 12.5t-11 35.5q0 26 12 56.5t38 65t67.5 72t100.5 78.5l122 393h52zM-204 -398q25 0 48 21.5 t43.5 58t39 85t35.5 103.5l9 27q-57 -38 -96 -75t-63 -70.5t-34.5 -63t-10.5 -51.5q0 -20 7.5 -26.5t21.5 -8.5zM193 443q0 -22 -14 -35t-28 -13q-10 0 -17 7t-7 23q0 21 14 33.5t28 12.5q10 0 17 -7t7 -21z" />
<glyph unicode="k" horiz-adv-x="400" d="M475 182q-29 -41 -59 -78t-57 -66t-49.5 -46t-35.5 -17t-22 8.5t-14.5 21t-8 27t-2.5 26.5q0 14 4.5 26t10 22t10 16.5t4.5 9.5q0 28 -11 28t-17.5 -2.5t-11.5 -5t-9.5 -5t-9.5 -2.5q-6 0 -9.5 3.5t-3.5 8.5q0 6 5.5 14t15.5 8q8 0 14 -1t13 -1q14 0 22.5 7t16.5 20 q9 13 14.5 23t9 19.5t5 21t1.5 29.5q0 15 -11 15q-17 0 -44 -26t-58 -66.5t-63 -90t-59 -97.5q-3 -12 -6.5 -23.5t-6.5 -22.5h-47l22 92t30 116.5t38.5 129.5t47.5 131t56 121.5t65.5 101t75 69t84.5 25.5q38 0 73.5 -15.5t65.5 -60.5l-2 -11q-16 24 -33 39.5t-34 23.5 t-33.5 11t-32.5 3q-42 0 -80 -33t-71 -88t-62 -126.5t-54 -148t-46 -152.5l-39 -141l54 88.5t58 83t55.5 61.5t47.5 24q10 0 18.5 -7t13.5 -17t8 -21t3 -20q0 -11 -1 -21.5t-8 -22.5t-21 -25t-39 -29q14 -6 19 -17.5t5 -26.5q0 -17 -4.5 -35.5t-10.5 -35l-10.5 -29.5 t-4.5 -18q0 -17 13 -17q11 0 34 18t50.5 46.5t57 64.5t53.5 71z" />
<glyph unicode="l" horiz-adv-x="206" d="M433 762q-35 0 -69 -30t-66.5 -79.5t-62 -113.5t-55.5 -132.5t-47 -135.5t-36 -123.5t-23 -96.5t-8 -53q0 -4 1.5 -7.5t9.5 -3.5q12 0 35.5 18.5t51.5 47.5t57.5 64.5t53.5 70.5l6 -5q-25 -36 -54.5 -73t-57 -67t-51 -49t-36.5 -19q-30 0 -40 29.5t-10 72.5 q0 13 8.5 49.5t24 88t38 112.5t50 123t59.5 120t67 103t73 72t77 27q38 0 73.5 -15.5t65.5 -60.5l-2 -11q-16 24 -33 39.5t-34 23.5t-33.5 11t-32.5 3z" />
<glyph unicode="m" horiz-adv-x="404" d="M479 182q-29 -41 -59 -78t-57 -66t-49.5 -46t-35.5 -17t-22 8.5t-14.5 21t-8 27t-2.5 26.5q0 14 4.5 26t10 22t10 16.5t4.5 9.5q0 28 -11 28t-17.5 -2.5t-11.5 -5t-9.5 -5t-9.5 -2.5q-6 0 -9.5 3.5t-3.5 8.5q0 6 5.5 14t15.5 8q8 0 14 -1t13 -1q14 0 22.5 7t16.5 20 l6.5 12.5t11.5 24t10.5 28.5t4.5 26q0 17 -14 17q-26 0 -54.5 -19.5t-56.5 -53.5t-54.5 -80t-50.5 -99l-22 -72h-51l225 743h52l-185 -607q21 43 44.5 80.5t49 65.5t52 44t53.5 16q10 0 18.5 -7t13.5 -17t8 -21t3 -20q0 -11 -1 -21.5t-8 -22.5t-21 -25t-39 -29 q14 -6 19 -17.5t5 -26.5q0 -17 -4.5 -35.5t-10.5 -35l-10.5 -29.5t-4.5 -18q0 -17 13 -17q11 0 34 18t50.5 46.5t57 64.5t53.5 71z" />
<glyph unicode="n" horiz-adv-x="206" d="M281 183q-25 -36 -54.5 -73t-57 -67t-51 -49t-36.5 -19q-30 0 -40 29.5t-10 72.5q0 8 11.5 50t30 103.5l41 134.5l44 143l39.5 129.5l28 93.5h52q-11 -39 -31 -103l-43.5 -140l-48 -155.5l-44.5 -148t-32.5 -119t-12.5 -67.5q0 -4 1.5 -7.5t9.5 -3.5q12 0 35.5 18.5 t51.5 47.5t57.5 64.5t53.5 70.5l6 -5v0z" />
<glyph unicode="o" horiz-adv-x="328" d="M199 -142l-10.5 -32t-8 -26.5t-5 -25t-1.5 -27.5q0 -47 22 -77t78 -30q16 0 34.5 3t40 11t47.5 23.5t57 39.5l-5 -11q-57 -45 -101.5 -60.5t-82.5 -15.5q-37 0 -62 10t-40.5 28t-22 43t-6.5 55q0 39 16 95t37 122l33 103l-20 -30t-30 -37t-36.5 -31t-39.5 -13 q-5 0 -15 6.5t-20 23.5t-18 45.5t-8 73.5q0 26 22 61.5t53 67.5t62.5 54.5t51.5 22.5q12 0 27 -16t21 -62l16 53h56zM255 244q0 7 -1 18.5t-4.5 23t-9.5 20t-16 8.5q-23 0 -49 -29t-48 -69.5t-36.5 -83t-14.5 -70.5q0 -11 0.5 -23t3 -23t6.5 -18t11 -7q25 0 52.5 25.5 t51 63.5t39 82t15.5 82z" />
<glyph unicode="p" horiz-adv-x="440" d="M133 281q-12 -25 -29 -52.5t-40 -59.5l-7 5q16 21 32.5 48t30 53t23 46.5t12.5 28.5l37 120h57l-125 -399l52.5 89t55.5 83.5t53.5 62t46.5 24.5q10 0 18.5 -7t13.5 -17t8 -21t3 -20q0 -33 -11.5 -73t-26 -77.5l-26 -67.5t-11.5 -42q0 -17 13 -17q11 0 34 18t50.5 46.5 t57 64.5t53.5 71l7 -6q-29 -41 -59 -78t-57 -66t-49.5 -46t-35.5 -17t-22 8.5t-14.5 21t-8 27t-2.5 26.5q0 22 11.5 59t25.5 73.5l25.5 67t11.5 39.5q0 15 -11 15q-18 0 -44.5 -26.5t-56.5 -68.5t-61 -93t-58 -100q-26 -95 -60.5 -169t-76.5 -125.5t-90 -78.5t-100 -27 q-38 0 -73.5 15.5t-65.5 60.5l2 11q16 -24 33 -39.5t34 -23.5t33.5 -11t32.5 -3q31 0 58 11t53.5 38t53 74t55.5 119t62 171.5t72 233.5z" />
<glyph unicode="q" horiz-adv-x="335" d="M81 -15q-13 9 -22 24.5t-14.5 33t-8 35t-2.5 31.5q0 23 19.5 59t48 70t60.5 58.5t58 24.5q19 0 31.5 -10.5t20 -26.5t10.5 -35t3 -35q0 -25 -10 -58t-25 -63q4 -14 10.5 -22.5t22.5 -8.5q12 0 27.5 13t32 32.5t33 41.5l28.5 39l6 -5l-28.5 -39.5t-34 -42.5t-34.5 -34 t-32 -14t-24.5 10.5t-12.5 18.5q-9 -14 -23 -32t-30.5 -34.5t-35.5 -28t-38 -12.5q93 -68 192 -132.5t202.5 -115.5t212 -82t221.5 -31q47 0 86.5 8t68 24t44.5 41t16 59q0 13 -1.5 20.5t-3.5 12.5l7 2q4 -6 7 -16.5t3 -27.5q0 -33 -13 -62.5t-41 -52.5t-70.5 -36.5 t-102.5 -13.5q-77 0 -156.5 20t-158 53t-155 76t-146.5 89l-133 91.5zM81 57q0 -8 0.5 -20t3.5 -24t9 -20.5t18 -8.5q18 0 35.5 9.5t34 24.5t31.5 34.5t27 40.5q-5 12 -9.5 31.5t-4.5 38.5q0 25 8.5 44t29.5 19q5 0 11 -2q0 10 -2.5 24.5t-8 28.5t-15 24t-22.5 10 q-33 0 -59.5 -31t-46 -73t-30 -84.5t-10.5 -65.5z" />
<glyph unicode="r" horiz-adv-x="458" d="M338 152q0 13 2.5 31.5t8 36.5t14.5 32.5t21 18.5q5 9 5 19q0 22 -19 22q-17 0 -42.5 -24t-52.5 -62.5t-52 -86.5t-40 -95l-18 -55h-47q3 8 11 31.5l18.5 55l22 66l21 64.5t15.5 51.5t6 27.5q0 14 -1 20.5t-8 6.5q-18 0 -53 -34t-86 -109l-7 5q56 82 90.5 119t57.5 37 q10 0 18.5 -5.5t13.5 -13.5t8 -17.5t3 -18.5q0 -29 -7.5 -59t-21.5 -71q15 35 35 68.5t40.5 59.5t40.5 41.5t37 15.5q10 0 18 -6t13.5 -15.5t8 -20.5t2.5 -21q0 -24 -11 -44.5t-30 -20.5q-17 0 -20 14q-3 -14 -5 -28.5t-2 -29.5q0 -42 13 -62t34 -20q26 0 61.5 29t72.5 83 l6 -5q-35 -54 -74 -84.5t-68 -30.5q-23 0 -38 19.5t-15 64.5z" />
<glyph unicode="s" horiz-adv-x="335" d="M-54 -129q39 54 73.5 79t69.5 32q-15 7 -25.5 22.5t-17 34t-9.5 37.5t-3 33q0 23 19.5 59t48 70t60.5 58.5t58 24.5q19 0 31.5 -10.5t20 -26.5t10.5 -35t3 -35q0 -25 -10 -58t-25 -63q4 -14 10.5 -22.5t22.5 -8.5q12 0 27.5 13t32 32.5t33 41.5l28.5 39l6 -5l-28.5 -39.5 t-34 -42.5t-34.5 -34t-32 -14t-24.5 10.5t-12.5 18.5l-18 -25t-23 -28t-27.5 -26.5t-29.5 -19.5q56 -7 115.5 -36.5l120 -62.5t121 -59t118.5 -26q51 0 76 19t25 49q0 11 -3 23t-10 24l2 5q25 -11 37 -31t12 -43q0 -17 -7 -34t-20.5 -30.5t-33 -21.5t-45.5 -8 q-53 0 -103 16.5t-97.5 41.5t-92.5 54l-87 54t-82 41.5t-77 16.5q-38 0 -79 -22.5t-86 -85.5zM81 57q0 -8 0.5 -20t3.5 -24t9 -20.5t18 -8.5q18 0 35.5 9.5t34 24.5t31.5 34.5t27 40.5q-5 12 -9.5 31.5t-4.5 38.5q0 25 8.5 44t29.5 19q5 0 11 -2q0 10 -2.5 24.5t-8 28.5 t-15 24t-22.5 10q-33 0 -59.5 -31t-46 -73t-30 -84.5t-10.5 -65.5z" />
<glyph unicode="t" horiz-adv-x="206" d="M-415 368h531l42 136h52l-42 -136h637l-5 -18h-638l-34 -108.5l-31 -102.5t-22.5 -85.5t-8.5 -55.5q0 -4 1.5 -7.5t9.5 -3.5q12 0 35.5 18.5t51.5 47.5t57.5 64.5t53.5 70.5l6 -5q-25 -36 -54.5 -73t-57 -67t-51 -49t-36.5 -19q-30 0 -40 29.5t-10 72.5q0 8 7 34.5t18 64 l25 83l29 91.5h-531z" />
<glyph unicode="v" d="M104 188h61q25 30 41 53q-13 -6 -24 -10t-24 -4q-29 0 -45 16q-10 -17 -22.5 -35.5l-26.5 -38.5l-7 5l27 40t23 37q-8 12 -8 33q0 22 8.5 42.5t30.5 20.5q11 0 14.5 -10.5t3.5 -18.5t-3.5 -18t-8.5 -19t-11 -16.5t-11 -11.5q8 -11 18 -12.5t22 -1.5q24 0 47.5 13t31.5 36 q0 4 -0.5 8.5t-0.5 9.5q0 10 3.5 18.5t15.5 8.5q2 0 6.5 -3.5t4.5 -14.5q0 -9 -6.5 -23t-18 -30.5t-26 -35.5t-30.5 -38h56l-5 -18h-66l-29.5 -35l-27.5 -32.5l-23.5 -28.5t-17.5 -23q93 -68 192.5 -133.5t203.5 -116.5t213.5 -82.5t222.5 -31.5q47 0 86.5 8t68 24t44.5 41 t16 59q0 13 -1.5 20.5t-3.5 12.5l7 2q4 -6 7 -16.5t3 -27.5q0 -33 -13 -62.5t-41 -52.5t-70.5 -36.5t-102.5 -13.5q-76 0 -153 18.5t-153 49.5t-149 71.5t-141 84.5t-129.5 88l-113.5 83q3 -11 3 -23q0 -17 -6.5 -29.5t-22.5 -12.5q-8 0 -10.5 6t-2.5 12q0 15 11 35 t28.5 43.5t38.5 49l42 49.5h-51z" />
<glyph unicode="w" d="M30 -7q0 21 21 52.5t50 66.5l58.5 69t46.5 60q-13 -6 -24 -10t-24 -4q-29 0 -45 16q-10 -17 -22.5 -35.5l-26.5 -38.5l-7 5l27 40t23 37q-8 12 -8 33q0 22 8.5 42.5t30.5 20.5q11 0 14.5 -10.5t3.5 -18.5t-3.5 -18t-8.5 -19t-11 -16.5t-11 -11.5q8 -11 18 -12.5t22 -1.5 q24 0 47.5 13t31.5 36q0 4 -0.5 8.5t-0.5 9.5q0 10 3.5 18.5t15.5 8.5q2 0 6.5 -3.5t4.5 -14.5q0 -13 -12.5 -34.5t-32 -47.5t-43 -53.5l-45 -52.5l-38.5 -45.5t-23 -30.5q93 -68 192.5 -133.5t203.5 -116.5t213.5 -82.5t222.5 -31.5q47 0 86.5 8t68 24t44.5 41t16 59 q0 13 -1.5 20.5t-3.5 12.5l7 2q4 -6 7 -16.5t3 -27.5q0 -33 -13 -62.5t-41 -52.5t-70.5 -36.5t-102.5 -13.5q-76 0 -153 18.5t-153 49.5t-149 71.5t-141 84.5t-129.5 88l-113.5 83q3 -11 3 -23q0 -17 -6.5 -29.5t-22.5 -12.5q-8 0 -10.5 6t-2.5 12z" />
<glyph unicode="y" horiz-adv-x="322" d="M234 143q-21 -30 -44.5 -60t-45.5 -54t-40.5 -39t-28.5 -15q-17 0 -27 8.5t-15 23.5t-6.5 34.5t-1.5 40.5q0 4 5 23l13.5 49l20 68.5l25.5 82.5h52q-38 -121 -60 -199t-22 -108q0 -4 1.5 -7.5t9.5 -3.5q20 0 66.5 48.5t106.5 137.5l40 132h52l-87 -280 q-23 -75 -54.5 -147t-71.5 -128.5t-90 -91t-111 -34.5q-38 0 -73.5 15.5t-65.5 60.5l2 11q16 -24 33 -39.5t34 -23.5t33.5 -11t32.5 -3q57 0 99.5 35t75.5 90.5t58 125.5t47 141z" />
<glyph unicode="z" horiz-adv-x="326" d="M158 227q-29 0 -45 16q-10 -17 -22.5 -35.5l-26.5 -38.5l-7 5l27 40t23 37q-8 12 -8 33q0 22 8.5 42.5t30.5 20.5q11 0 14.5 -10.5t3.5 -18.5t-3.5 -18t-8.5 -19t-11 -16.5t-11 -11.5q8 -11 18 -12.5t22 -1.5q24 0 47.5 13t31.5 36q0 4 -0.5 8.5t-0.5 9.5q0 10 3.5 18.5 t15.5 8.5q2 0 6.5 -3.5t4.5 -14.5q0 -8 -5.5 -19.5t-13 -23.5t-16.5 -23.5t-15 -18.5q-32 -37 -54 -69t-47 -61q23 15 44.5 26.5t36.5 11.5q19 0 28.5 -15t9.5 -32q0 -11 -5 -22t-11 -22.5l-11 -21.5t-5 -17q0 -8 5 -8q16 0 42 23t53 54t51 62.5l37 48.5l6 -5l-38.5 -52 t-52.5 -65.5t-55.5 -56.5t-46.5 -24q-17 0 -26.5 18.5t-9.5 33.5q0 12 5.5 24.5t11.5 23t11.5 18t5.5 11.5q0 11 -15 11q-12 0 -30.5 -10.5t-37.5 -25t-35 -29.5t-23 -24q2 -8 2 -16q0 -14 -5 -29.5t-18 -15.5q-8 0 -10.5 6t-2.5 12q0 21 20.5 51.5t48.5 65l58 69t49 62.5 q-13 -6 -24 -10t-24 -4z" />
<glyph unicode="&#xb5;" horiz-adv-x="1995" d="M859 -94q15 12 25 27t10 35q0 15 -6.5 33.5t-33.5 24.5q2 -13 4 -30t2 -43q0 -29 -13.5 -49.5t-34.5 -34t-47 -19.5t-50 -6q-17 0 -33.5 5t-29.5 14.5t-21.5 23.5t-8.5 32t7.5 29.5t18 18t21 9t17.5 2.5q13 0 18 -1q8 17 24 31.5t39 24.5v3q-3 8 -3.5 17.5t-0.5 15.5 q-11 -24 -30 -40.5t-47 -16.5q-27 0 -44.5 28.5t-17.5 70.5q0 21 7.5 45t17 47.5t17 45t7.5 37.5q0 18 -3 25t-9 7q-9 0 -17 -5.5t-14 -12.5t-10 -14t-5 -10q0 -27 -14 -45t-34 -29q0 -101 -41.5 -149.5t-119.5 -48.5q-21 0 -41 5t-36 15.5t-25.5 28t-9.5 42.5 q0 14 4.5 27.5t12 24.5t18.5 18t25 7q20 0 27.5 -13.5t7.5 -27.5q0 -27 -14.5 -51t-42.5 -24q-5 0 -11 2.5t-12 4.5q5 -17 19 -28.5t28 -11.5q24 0 41 16.5t29 42.5t21 57.5t16 62.5q-32 14 -49 44q-13 -5 -20 -5q-41 0 -59.5 21t-18.5 61q0 30 11.5 59.5t32 52t48.5 36.5 t60 14q33 0 54 -5.5t35.5 -12t25.5 -12t24 -5.5q5 0 11 0.5t11 1.5v-5q-37 -9 -71.5 -33.5t-56.5 -54.5q-4 26 -22.5 42t-47.5 16q-21 0 -39.5 -9.5t-33 -25t-23 -35t-8.5 -40.5q0 -58 64 -58q4 0 9 1t10 3q-7 15 -7 39q0 30 15.5 48.5t29.5 18.5q12 0 18 -8.5t6 -19.5 q0 -23 -15.5 -45.5t-35.5 -34.5q7 -14 18.5 -23.5t25.5 -15.5q9 38 23 75.5t42 71.5q5 6 15.5 16t24 20.5t28.5 19t29 10.5v-8q-20 -9 -32.5 -26t-20 -38t-10 -44t-2.5 -44q0 -24 3 -52q20 10 32 26t12 38q0 15 -4 29.5t-12 22.5v2q8 -5 13.5 -17.5t7.5 -24.5q7 14 24 29.5 t44 15.5q17 0 29.5 -8.5t20.5 -23t12 -33.5t4 -39q0 -14 -7.5 -35t-17 -45t-17 -48.5t-7.5 -44.5q0 -23 13 -23q21 0 36.5 33.5t27.5 80.5t21 97.5t18 85.5q8 -4 17 -7.5t19 -3.5q16 0 26.5 7.5t21.5 14.5q-6 -28 -15 -65.5t-17 -76.5t-13.5 -76t-3.5 -63l1 -19 q23 -5 37 -23t14 -47q0 -21 -9.5 -38t-23.5 -28h-10zM1778 87l10 -56l-97 78q-17 -38 -39.5 -73t-50.5 -64q27 -9 58 -9q42 0 64.5 14.5t36.5 42.5h4q-3 -17 -13 -30t-24 -22t-30.5 -14t-32.5 -5q-37 0 -73 14q-38 -38 -79 -60.5t-79 -22.5q-35 0 -58 30t-23 103 q-2 -1 -8 -1q-20 0 -39 9.5t-34 28t-24 47t-9 67.5q0 22 15 51t40 55.5t57 45t65 18.5q21 0 38 -16.5t17 -56.5q0 -26 -13.5 -47t-34.5 -37t-46 -26t-47 -12q-7 -38 -10 -64.5t-3 -27.5q0 -12 8 -18t20 -6q5 0 8 1v1q0 19 7 42.5t19 44t29 34.5t38 14q11 0 15 -9t4 -19 q0 -18 -9 -37.5t-24 -37t-33.5 -29.5t-36.5 -14q0 -65 22.5 -93t56.5 -28q31 0 67 20.5t70 54.5q-38 18 -63 52t-25 82q0 16 5 33t14.5 31.5t23 25t31.5 14.5v-5q-34 -10 -50 -40t-16 -63q0 -41 25.5 -72t63.5 -48q26 29 48.5 65t35.5 77l-126 38l55 22l-73 150l59 -18 l-13 88l57 -64l34 49l34 -108l47 149l23 -39l87 51v-98h53l-114 -113l113 32l-18 -59l85 -9l-82 -39l44 -35zM1104 -19q-10 0 -20.5 -6.5t-10.5 -18.5q0 -14 9.5 -22t21.5 -8q22 0 40 12.5t31 31t20 40.5t7 41q0 26 -15 49q-16 -34 -40 -61t-57 -27q-25 0 -34 18.5t-9 39.5 t6.5 36.5t16.5 26t20.5 16t18.5 7.5q3 20 6 43t5 44.5l3.5 39t1.5 26.5q0 2 -3 6.5t-10 4.5q-5 0 -13 -5t-15.5 -15.5t-13 -27t-5.5 -39.5q0 -11 -5 -42l-12 -71t-16 -84.5l-17 -82l-14 -64t-7 -30.5q-8 5 -16.5 8t-19.5 3q-15 0 -25.5 -7.5l-20.5 -14.5q2 13 9 49l16 83 l18.5 99.5l17.5 98.5l13.5 79.5t5.5 43.5q0 25 -8 38.5t-20.5 24l-26.5 21.5t-26.5 30t-20.5 50.5t-8 82.5q0 29 8 60t17.5 62t17.5 62t8 61q0 11 -2 17.5t-8 6.5q-11 0 -31.5 -23t-35.5 -61q-2 -16 -8 -51t-13 -72t-13.5 -67t-7.5 -36q-8 5 -16.5 8.5t-19.5 3.5 q-15 0 -24 -3t-19 -10q3 20 11 62t15.5 88l13.5 85.5t6 54.5q0 8 -2 13.5t-8 5.5q-13 0 -23 -18.5t-18 -39.5h-11q4 13 9.5 25.5t13.5 23t19.5 17t28.5 6.5q31 0 45.5 -18t19.5 -44q7 9 14 20t16 21t20 16.5t26 6.5q17 0 30 -11.5t21.5 -29.5t13 -40.5t4.5 -45.5 q0 -40 -8.5 -74t-19 -64.5t-19 -60.5t-8.5 -61q0 -29 7.5 -45.5t19 -26t25.5 -15.5t26.5 -14t22.5 -22t14 -40q20 34 34 43.5t31 9.5q21 0 36.5 -15.5t26 -37.5t15.5 -46t5 -40q0 -18 -4.5 -40t-13.5 -45q9 -14 15 -30t6 -34q0 -22 -7 -45t-20 -41.5t-32 -30.5t-44 -12 q-18 0 -31 10.5t-13 28.5q0 12 9.5 21.5t21.5 9.5q6 0 9 -1v-5zM224 350l4 5q5 0 13 2.5t15.5 8t13 13t5.5 16.5q0 4 -1 7q-14 -5 -27 -7t-27 -2q-10 0 -26 2t-31.5 7.5t-26.5 14.5t-11 23q0 9 6.5 15.5t15.5 10.5t19 5.5t17 1.5q11 0 25.5 -4t28.5 -11t26 -17t18 -21 q20 9 35 25t15 39q0 25 -12 40q-35 -23 -78 -23q-32 0 -59.5 11.5t-48 33.5t-32 54t-11.5 72q0 12 4 27t11 33q-20 13 -28.5 34t-8.5 46t8.5 50.5t23.5 46t35.5 33.5t44.5 13q8 0 18 -2v-7q-3 1 -6.5 1h-6.5q-23 0 -42.5 -12t-34 -31t-23 -43t-8.5 -47q0 -22 8 -40.5 t25 -29.5q17 39 46 83.5t61.5 82t65 62.5t57.5 25q14 0 23 -7.5t13.5 -18.5t6 -24t1.5 -25q0 -31 -14.5 -61t-38 -56t-52.5 -46t-59 -31q0 -1 -0.5 -1.5t-0.5 -2.5l-10.5 -40.5t-10 -43.5t-7.5 -42t-3 -36q0 -18 7.5 -28t16.5 -15.5t17 -7t10 -1.5q36 0 69 25 q-11 8 -23.5 10.5t-24.5 2.5q-11 0 -24 -3t-15 -5v5q6 5 18 8.5t18 3.5q32 0 58 -16q26 23 42 57t16 69q0 10 -1.5 21t-5.5 20t-12 15t-20 6q-20 0 -35.5 -9.5t-26.5 -24.5t-17 -33.5t-6 -36.5q0 -5 1 -12t4 -13.5t7.5 -11t12.5 -4.5q11 0 19.5 7.5t14 18.5t8 23.5t2.5 22.5 q0 3 -1 7.5t-2 9.5h8q2 -5 2.5 -10t0.5 -7q0 -12 -4 -26t-11 -26.5t-16.5 -20.5t-20.5 -8t-17 5t-10 13t-5 17.5t-1 17.5q0 17 6.5 36.5t18 36t28 27t37.5 10.5q30 0 47 -26.5t17 -61.5t-18 -67t-49 -54q17 -17 17 -47q0 -29 -17.5 -47.5t-42.5 -29.5q1 -2 1 -6 q0 -21 -18.5 -35t-37.5 -14h-6zM1646 629q-2 -8 -7.5 -27.5t-16 -39.5t-25.5 -36t-36 -16q-22 0 -42.5 16t-27.5 52q-23 -45 -39 -57.5t-33 -12.5q-21 0 -36 15t-24.5 37t-14 46.5t-4.5 42.5q0 24 15 55.5t37.5 59.5t48 47.5t46.5 19.5q22 0 33 -27q6 28 11 54t9.5 47 l7.5 34.5t4 16.5q8 -5 17 -8t19 -3q16 0 26.5 7.5t21.5 14.5q-2 -13 -8.5 -46.5l-15 -77.5l-18 -92.5t-17 -91.5t-12.5 -74.5t-5 -41.5q0 -7 2 -12.5t8 -5.5q10 0 20 11.5t18.5 28t15.5 34.5t10 30h12zM1326 583q-3 -13 -8 -26t-12.5 -23.5t-18 -17.5t-25.5 -7q-23 0 -41 16 t-25 51q-12 -22 -21.5 -35t-17.5 -20.5t-16 -10t-17 -2.5q-21 0 -36 15t-24.5 37t-14 46.5t-4.5 42.5q0 24 15 55.5t37.5 59.5t48 47.5t46.5 19.5q24 0 36 -32l7 28q8 -4 17 -7.5t20 -3.5q14 0 25 7.5l21 14.5q-2 -13 -7 -37l-11 -53.5l-12 -61.5l-11 -60.5t-8.5 -50.5 t-3.5 -32q0 -18 9 -18q13 0 23 18t18 40h11zM1946 583q-3 -13 -8 -26t-12.5 -23.5t-18 -17.5t-25.5 -7q-23 0 -41 16t-25 51q-12 -22 -21 -35t-17.5 -20.5t-16 -10t-16.5 -2.5q-21 0 -36 15t-25 37t-14.5 46.5t-4.5 42.5q0 24 15 55.5t37.5 59.5t48.5 47.5t47 19.5 q23 0 35 -32l8 28q8 -4 16.5 -7.5t19.5 -3.5q15 0 25.5 7.5l20.5 14.5q-2 -13 -7 -37l-11 -53.5l-12 -61.5l-11 -60.5t-8.5 -50.5t-3.5 -32q0 -18 9 -18q14 0 23.5 18t17.5 40h11zM699 583q-3 -13 -8 -26t-12.5 -23.5t-18 -17.5t-25.5 -7q-22 0 -40.5 16t-25.5 51 q-11 -22 -20.5 -35t-18 -20.5t-16.5 -10t-17 -2.5q-21 0 -35.5 15t-24 37t-14 46.5t-4.5 42.5q0 24 15 55.5t37.5 59.5t48.5 47.5t47 19.5q22 0 34 -32l7 28q8 -4 17 -7.5t20 -3.5q16 0 26 7.5t21 14.5q-2 -13 -7 -37l-11 -53.5l-12.5 -61.5t-11.5 -60.5t-8.5 -50.5 t-3.5 -32q0 -18 10 -18q14 0 23.5 18t17.5 40h10zM455 -111q-9 0 -22.5 3t-26 9t-21.5 16t-9 24q0 17 11 23.5t26 6.5q12 0 24.5 -4.5t22 -12.5t15.5 -18t6 -22q0 -5 -2 -11q15 3 30 10.5t27 19t19.5 27t7.5 36.5q0 12 -1 20t-5 21h4q2 -4 5 -16.5t3 -24.5 q0 -41 -28.5 -69.5t-66.5 -35.5q-11 -20 -35 -29t-44 -9q-16 0 -34.5 3.5t-34.5 12t-27 21.5t-11 31q0 15 9.5 27t27.5 12h7t9 -2q-47 42 -92.5 60.5t-107.5 18.5q-25 0 -53 -3t-66 -8q34 12 58 19t44 14q25 9 48 25.5t40.5 36t28 40.5t10.5 41q0 49 -32.5 74t-77.5 25 q-15 0 -32 -1.5t-32 -7.5t-25 -17t-10 -30q0 -18 19.5 -28t39.5 -10q21 0 38.5 12t34.5 26v-10q-11 -15 -31 -29.5t-42 -14.5q-27 0 -48.5 14.5t-21.5 39.5q0 21 10 34t25.5 20.5t34 10t34.5 2.5q62 0 95 -31.5t33 -83.5q0 -23 -12.5 -45t-29 -40.5t-33 -31.5l-24.5 -19 l20 -5q27 -6 50 -13.5t43.5 -19.5t40 -30t38.5 -44h-2v-2l-12.5 3.5t-10.5 1.5q-20 0 -27.5 -10t-7.5 -21q0 -17 11 -28.5t26.5 -18.5t32.5 -10.5t29 -3.5q19 0 37 8t28 21h-5zM697 -42q-5 1 -9 1h-8q-21 0 -33.5 -11.5t-12.5 -32.5q0 -15 7 -26.5t18 -19.5t25 -12t29 -4 q13 0 27.5 4.5t27 13.5t20.5 21.5t8 28.5q0 23 -10.5 51t-16.5 49q-18 -6 -33 -17.5t-23 -29.5q21 -8 31 -24t10 -26q0 -8 -6.5 -17.5t-21.5 -9.5q-14 0 -22.5 13.5t-8.5 27.5v10t2 10zM1194 622q2 25 9 63t15 73q0 36 -6 49t-14 13q-11 0 -17 -8.5t-10 -20t-6 -24t-3 -19.5 q-2 -12 -7.5 -41.5l-11.5 -63t-10.5 -64.5t-4.5 -44q0 -4 1 -8t7 -4q15 0 30 22.5t28 76.5zM1814 622q2 25 9 63t15 73q0 36 -6 49t-14 13q-10 0 -16.5 -8.5t-10 -20t-6 -24t-3.5 -19.5q-2 -12 -7.5 -41.5l-11.5 -63t-10.5 -64.5t-4.5 -44q0 -4 1 -8t8 -4q15 0 29.5 22.5 t27.5 76.5zM567 622q2 25 9.5 63t15.5 73q0 36 -6 49t-14 13t-14 -8.5t-10.5 -20.5t-7.5 -24t-4 -19q-3 -12 -8.5 -41.5t-11 -63t-10 -64.5t-4.5 -44q0 -4 1 -8t7 -4q14 0 29 22.5t28 76.5zM1513 769q-2 30 -7.5 40.5t-12.5 10.5q-11 0 -17 -8.5t-10 -20t-6 -24t-4 -19.5 q-2 -12 -7.5 -41.5l-11.5 -63t-10.5 -64.5t-4.5 -44q0 -4 1 -8t8 -4q14 0 24 12t19 40.5t18 75.5t21 118zM287 916q0 -2 -7.5 -21.5l-18 -46.5l-21 -56.5l-17.5 -50.5q28 12 52.5 34.5t43 51.5t29.5 62t11 66q0 11 -3.5 19t-15.5 8q-13 0 -23.5 -13t-29.5 -53zM1643 534 q-3 -24 -13.5 -42t-25.5 -30t-32 -19t-34 -10q0 -14 -8 -27.5t-21.5 -24t-31 -16.5t-37.5 -6q-14 0 -29.5 3t-28.5 11t-21.5 21t-8.5 33q0 10 4.5 20.5t12.5 19.5t18.5 15t22.5 6v-4q-17 -3 -32 -16.5t-15 -32.5q0 -18 7 -29t18 -17.5t25 -8.5t29 -2q14 0 29 2.5t28 8.5 t21.5 16.5t9.5 27.5q-3 -1 -8 -1q-25 0 -42.5 10.5t-17.5 27.5q0 9 8.5 15.5t16.5 6.5q17 0 31 -14t19 -31q34 4 64.5 28t39.5 59h2zM1331 150q21 3 38 20.5t28 40.5t17 47t6 41q0 24 -11 24q-14 0 -25.5 -16t-21.5 -41t-17.5 -55.5t-13.5 -60.5zM1308 483q-4 -19 -16 -35.5 t-29.5 -29t-39.5 -20t-45 -7.5h-12q-9 -10 -23 -14t-30 -4q-32 0 -62.5 14.5t-46.5 44.5l1 1q20 -22 45 -38.5t60 -16.5q29 0 47 15q-17 3 -41 10t-46.5 20.5t-38 34t-15.5 49.5q0 8 2 19t9 19l5 -5q-2 -8 -4 -15t-2 -15q0 -26 14.5 -44.5t36.5 -30.5t46.5 -18.5t45.5 -8.5 q4 8 4 19q0 26 -20.5 43t-48.5 17q-11 0 -22 -2.5t-22 -8.5l-4 1q9 10 21.5 13.5t24.5 3.5q14 0 28 -4.5t25 -13.5t18 -21t7 -27q0 -11 -3 -20h4q18 0 37 4.5t35 14t28 25t16 36.5zM1360 25q13 0 29 11t30 27.5t23.5 35.5t9.5 36q0 6 -1.5 11t-8.5 5q-17 0 -31.5 -13 t-26 -31.5t-18 -40t-6.5 -38.5v-3zM270 416q-12 21 -39 35t-48 14q-5 0 -12.5 -1t-14.5 -3.5t-12 -7.5t-5 -13q0 -11 8 -17.5t19 -10.5t24 -5t23 -1q14 0 28.5 2.5t28.5 7.5zM865 349v3q-3 16 -9 26.5t-14 16.5t-15.5 8.5t-13.5 2.5q-10 0 -20 -5l-23 -11t-29 -11t-38 -5 q-20 0 -28.5 8.5t-8.5 19.5q0 10 5 16.5t12.5 10.5t15.5 6t15 2l64 -7q11 0 23 5.5t12 19.5q0 17 -13 25t-28 8q-11 0 -21.5 -4.5t-10.5 -14.5q0 -8 5 -11.5t13 -3.5q11 0 23 7l2 -8q-5 -2 -11 -4t-13 -2q-11 0 -19 5t-8 16q0 13 14.5 20t26.5 7q20 0 34 -10t14 -28 q0 -19 -15 -26t-27 -7l-65 7q-11 0 -26.5 -6t-15.5 -23q0 -11 10.5 -15.5t18.5 -4.5q13 0 27 5.5t28 12.5t26.5 12.5t22.5 5.5q29 0 47.5 -20t18.5 -50zM1108 144q-12 -1 -22 -8.5t-17 -19t-11 -25.5t-4 -27q0 -10 5 -24t21 -14q7 0 11.5 13.5t7.5 32t5 38.5t4 34zM471 -84 q0 10 -5 18.5t-13 15t-17.5 10t-18.5 3.5q-13 0 -21.5 -7t-8.5 -21q0 -10 6.5 -17t16.5 -11t21 -6t19 -2q11 0 16 3t5 14zM418 259q17 11 31.5 31t14.5 39q0 8 -3 15t-13 7q-11 0 -18 -6.5t-10.5 -16.5t-5 -20.5t-1.5 -17.5q0 -9 1 -17t4 -14zM1529 447q-3 14 -13 25t-25 11 q-7 0 -12 -2.5t-5 -11.5q0 -14 15.5 -18t35.5 -4h4zM708 -45q-1 -4 -1 -7.5v-6.5q0 -11 4.5 -22t12.5 -11q10 0 13 4t3 9q0 12 -9.5 20.5t-22.5 13.5z" />
<glyph unicode="&#x3bc;" horiz-adv-x="1995" d="M859 -94q15 12 25 27t10 35q0 15 -6.5 33.5t-33.5 24.5q2 -13 4 -30t2 -43q0 -29 -13.5 -49.5t-34.5 -34t-47 -19.5t-50 -6q-17 0 -33.5 5t-29.5 14.5t-21.5 23.5t-8.5 32t7.5 29.5t18 18t21 9t17.5 2.5q13 0 18 -1q8 17 24 31.5t39 24.5v3q-3 8 -3.5 17.5t-0.5 15.5 q-11 -24 -30 -40.5t-47 -16.5q-27 0 -44.5 28.5t-17.5 70.5q0 21 7.5 45t17 47.5t17 45t7.5 37.5q0 18 -3 25t-9 7q-9 0 -17 -5.5t-14 -12.5t-10 -14t-5 -10q0 -27 -14 -45t-34 -29q0 -101 -41.5 -149.5t-119.5 -48.5q-21 0 -41 5t-36 15.5t-25.5 28t-9.5 42.5 q0 14 4.5 27.5t12 24.5t18.5 18t25 7q20 0 27.5 -13.5t7.5 -27.5q0 -27 -14.5 -51t-42.5 -24q-5 0 -11 2.5t-12 4.5q5 -17 19 -28.5t28 -11.5q24 0 41 16.5t29 42.5t21 57.5t16 62.5q-32 14 -49 44q-13 -5 -20 -5q-41 0 -59.5 21t-18.5 61q0 30 11.5 59.5t32 52t48.5 36.5 t60 14q33 0 54 -5.5t35.5 -12t25.5 -12t24 -5.5q5 0 11 0.5t11 1.5v-5q-37 -9 -71.5 -33.5t-56.5 -54.5q-4 26 -22.5 42t-47.5 16q-21 0 -39.5 -9.5t-33 -25t-23 -35t-8.5 -40.5q0 -58 64 -58q4 0 9 1t10 3q-7 15 -7 39q0 30 15.5 48.5t29.5 18.5q12 0 18 -8.5t6 -19.5 q0 -23 -15.5 -45.5t-35.5 -34.5q7 -14 18.5 -23.5t25.5 -15.5q9 38 23 75.5t42 71.5q5 6 15.5 16t24 20.5t28.5 19t29 10.5v-8q-20 -9 -32.5 -26t-20 -38t-10 -44t-2.5 -44q0 -24 3 -52q20 10 32 26t12 38q0 15 -4 29.5t-12 22.5v2q8 -5 13.5 -17.5t7.5 -24.5q7 14 24 29.5 t44 15.5q17 0 29.5 -8.5t20.5 -23t12 -33.5t4 -39q0 -14 -7.5 -35t-17 -45t-17 -48.5t-7.5 -44.5q0 -23 13 -23q21 0 36.5 33.5t27.5 80.5t21 97.5t18 85.5q8 -4 17 -7.5t19 -3.5q16 0 26.5 7.5t21.5 14.5q-6 -28 -15 -65.5t-17 -76.5t-13.5 -76t-3.5 -63l1 -19 q23 -5 37 -23t14 -47q0 -21 -9.5 -38t-23.5 -28h-10zM1778 87l10 -56l-97 78q-17 -38 -39.5 -73t-50.5 -64q27 -9 58 -9q42 0 64.5 14.5t36.5 42.5h4q-3 -17 -13 -30t-24 -22t-30.5 -14t-32.5 -5q-37 0 -73 14q-38 -38 -79 -60.5t-79 -22.5q-35 0 -58 30t-23 103 q-2 -1 -8 -1q-20 0 -39 9.5t-34 28t-24 47t-9 67.5q0 22 15 51t40 55.5t57 45t65 18.5q21 0 38 -16.5t17 -56.5q0 -26 -13.5 -47t-34.5 -37t-46 -26t-47 -12q-7 -38 -10 -64.5t-3 -27.5q0 -12 8 -18t20 -6q5 0 8 1v1q0 19 7 42.5t19 44t29 34.5t38 14q11 0 15 -9t4 -19 q0 -18 -9 -37.5t-24 -37t-33.5 -29.5t-36.5 -14q0 -65 22.5 -93t56.5 -28q31 0 67 20.5t70 54.5q-38 18 -63 52t-25 82q0 16 5 33t14.5 31.5t23 25t31.5 14.5v-5q-34 -10 -50 -40t-16 -63q0 -41 25.5 -72t63.5 -48q26 29 48.5 65t35.5 77l-126 38l55 22l-73 150l59 -18 l-13 88l57 -64l34 49l34 -108l47 149l23 -39l87 51v-98h53l-114 -113l113 32l-18 -59l85 -9l-82 -39l44 -35zM1104 -19q-10 0 -20.5 -6.5t-10.5 -18.5q0 -14 9.5 -22t21.5 -8q22 0 40 12.5t31 31t20 40.5t7 41q0 26 -15 49q-16 -34 -40 -61t-57 -27q-25 0 -34 18.5t-9 39.5 t6.5 36.5t16.5 26t20.5 16t18.5 7.5q3 20 6 43t5 44.5l3.5 39t1.5 26.5q0 2 -3 6.5t-10 4.5q-5 0 -13 -5t-15.5 -15.5t-13 -27t-5.5 -39.5q0 -11 -5 -42l-12 -71t-16 -84.5l-17 -82l-14 -64t-7 -30.5q-8 5 -16.5 8t-19.5 3q-15 0 -25.5 -7.5l-20.5 -14.5q2 13 9 49l16 83 l18.5 99.5l17.5 98.5l13.5 79.5t5.5 43.5q0 25 -8 38.5t-20.5 24l-26.5 21.5t-26.5 30t-20.5 50.5t-8 82.5q0 29 8 60t17.5 62t17.5 62t8 61q0 11 -2 17.5t-8 6.5q-11 0 -31.5 -23t-35.5 -61q-2 -16 -8 -51t-13 -72t-13.5 -67t-7.5 -36q-8 5 -16.5 8.5t-19.5 3.5 q-15 0 -24 -3t-19 -10q3 20 11 62t15.5 88l13.5 85.5t6 54.5q0 8 -2 13.5t-8 5.5q-13 0 -23 -18.5t-18 -39.5h-11q4 13 9.5 25.5t13.5 23t19.5 17t28.5 6.5q31 0 45.5 -18t19.5 -44q7 9 14 20t16 21t20 16.5t26 6.5q17 0 30 -11.5t21.5 -29.5t13 -40.5t4.5 -45.5 q0 -40 -8.5 -74t-19 -64.5t-19 -60.5t-8.5 -61q0 -29 7.5 -45.5t19 -26t25.5 -15.5t26.5 -14t22.5 -22t14 -40q20 34 34 43.5t31 9.5q21 0 36.5 -15.5t26 -37.5t15.5 -46t5 -40q0 -18 -4.5 -40t-13.5 -45q9 -14 15 -30t6 -34q0 -22 -7 -45t-20 -41.5t-32 -30.5t-44 -12 q-18 0 -31 10.5t-13 28.5q0 12 9.5 21.5t21.5 9.5q6 0 9 -1v-5zM224 350l4 5q5 0 13 2.5t15.5 8t13 13t5.5 16.5q0 4 -1 7q-14 -5 -27 -7t-27 -2q-10 0 -26 2t-31.5 7.5t-26.5 14.5t-11 23q0 9 6.5 15.5t15.5 10.5t19 5.5t17 1.5q11 0 25.5 -4t28.5 -11t26 -17t18 -21 q20 9 35 25t15 39q0 25 -12 40q-35 -23 -78 -23q-32 0 -59.5 11.5t-48 33.5t-32 54t-11.5 72q0 12 4 27t11 33q-20 13 -28.5 34t-8.5 46t8.5 50.5t23.5 46t35.5 33.5t44.5 13q8 0 18 -2v-7q-3 1 -6.5 1h-6.5q-23 0 -42.5 -12t-34 -31t-23 -43t-8.5 -47q0 -22 8 -40.5 t25 -29.5q17 39 46 83.5t61.5 82t65 62.5t57.5 25q14 0 23 -7.5t13.5 -18.5t6 -24t1.5 -25q0 -31 -14.5 -61t-38 -56t-52.5 -46t-59 -31q0 -1 -0.5 -1.5t-0.5 -2.5l-10.5 -40.5t-10 -43.5t-7.5 -42t-3 -36q0 -18 7.5 -28t16.5 -15.5t17 -7t10 -1.5q36 0 69 25 q-11 8 -23.5 10.5t-24.5 2.5q-11 0 -24 -3t-15 -5v5q6 5 18 8.5t18 3.5q32 0 58 -16q26 23 42 57t16 69q0 10 -1.5 21t-5.5 20t-12 15t-20 6q-20 0 -35.5 -9.5t-26.5 -24.5t-17 -33.5t-6 -36.5q0 -5 1 -12t4 -13.5t7.5 -11t12.5 -4.5q11 0 19.5 7.5t14 18.5t8 23.5t2.5 22.5 q0 3 -1 7.5t-2 9.5h8q2 -5 2.5 -10t0.5 -7q0 -12 -4 -26t-11 -26.5t-16.5 -20.5t-20.5 -8t-17 5t-10 13t-5 17.5t-1 17.5q0 17 6.5 36.5t18 36t28 27t37.5 10.5q30 0 47 -26.5t17 -61.5t-18 -67t-49 -54q17 -17 17 -47q0 -29 -17.5 -47.5t-42.5 -29.5q1 -2 1 -6 q0 -21 -18.5 -35t-37.5 -14h-6zM1646 629q-2 -8 -7.5 -27.5t-16 -39.5t-25.5 -36t-36 -16q-22 0 -42.5 16t-27.5 52q-23 -45 -39 -57.5t-33 -12.5q-21 0 -36 15t-24.5 37t-14 46.5t-4.5 42.5q0 24 15 55.5t37.5 59.5t48 47.5t46.5 19.5q22 0 33 -27q6 28 11 54t9.5 47 l7.5 34.5t4 16.5q8 -5 17 -8t19 -3q16 0 26.5 7.5t21.5 14.5q-2 -13 -8.5 -46.5l-15 -77.5l-18 -92.5t-17 -91.5t-12.5 -74.5t-5 -41.5q0 -7 2 -12.5t8 -5.5q10 0 20 11.5t18.5 28t15.5 34.5t10 30h12zM1326 583q-3 -13 -8 -26t-12.5 -23.5t-18 -17.5t-25.5 -7q-23 0 -41 16 t-25 51q-12 -22 -21.5 -35t-17.5 -20.5t-16 -10t-17 -2.5q-21 0 -36 15t-24.5 37t-14 46.5t-4.5 42.5q0 24 15 55.5t37.5 59.5t48 47.5t46.5 19.5q24 0 36 -32l7 28q8 -4 17 -7.5t20 -3.5q14 0 25 7.5l21 14.5q-2 -13 -7 -37l-11 -53.5l-12 -61.5l-11 -60.5t-8.5 -50.5 t-3.5 -32q0 -18 9 -18q13 0 23 18t18 40h11zM1946 583q-3 -13 -8 -26t-12.5 -23.5t-18 -17.5t-25.5 -7q-23 0 -41 16t-25 51q-12 -22 -21 -35t-17.5 -20.5t-16 -10t-16.5 -2.5q-21 0 -36 15t-25 37t-14.5 46.5t-4.5 42.5q0 24 15 55.5t37.5 59.5t48.5 47.5t47 19.5 q23 0 35 -32l8 28q8 -4 16.5 -7.5t19.5 -3.5q15 0 25.5 7.5l20.5 14.5q-2 -13 -7 -37l-11 -53.5l-12 -61.5l-11 -60.5t-8.5 -50.5t-3.5 -32q0 -18 9 -18q14 0 23.5 18t17.5 40h11zM699 583q-3 -13 -8 -26t-12.5 -23.5t-18 -17.5t-25.5 -7q-22 0 -40.5 16t-25.5 51 q-11 -22 -20.5 -35t-18 -20.5t-16.5 -10t-17 -2.5q-21 0 -35.5 15t-24 37t-14 46.5t-4.5 42.5q0 24 15 55.5t37.5 59.5t48.5 47.5t47 19.5q22 0 34 -32l7 28q8 -4 17 -7.5t20 -3.5q16 0 26 7.5t21 14.5q-2 -13 -7 -37l-11 -53.5l-12.5 -61.5t-11.5 -60.5t-8.5 -50.5 t-3.5 -32q0 -18 10 -18q14 0 23.5 18t17.5 40h10zM455 -111q-9 0 -22.5 3t-26 9t-21.5 16t-9 24q0 17 11 23.5t26 6.5q12 0 24.5 -4.5t22 -12.5t15.5 -18t6 -22q0 -5 -2 -11q15 3 30 10.5t27 19t19.5 27t7.5 36.5q0 12 -1 20t-5 21h4q2 -4 5 -16.5t3 -24.5 q0 -41 -28.5 -69.5t-66.5 -35.5q-11 -20 -35 -29t-44 -9q-16 0 -34.5 3.5t-34.5 12t-27 21.5t-11 31q0 15 9.5 27t27.5 12h7t9 -2q-47 42 -92.5 60.5t-107.5 18.5q-25 0 -53 -3t-66 -8q34 12 58 19t44 14q25 9 48 25.5t40.5 36t28 40.5t10.5 41q0 49 -32.5 74t-77.5 25 q-15 0 -32 -1.5t-32 -7.5t-25 -17t-10 -30q0 -18 19.5 -28t39.5 -10q21 0 38.5 12t34.5 26v-10q-11 -15 -31 -29.5t-42 -14.5q-27 0 -48.5 14.5t-21.5 39.5q0 21 10 34t25.5 20.5t34 10t34.5 2.5q62 0 95 -31.5t33 -83.5q0 -23 -12.5 -45t-29 -40.5t-33 -31.5l-24.5 -19 l20 -5q27 -6 50 -13.5t43.5 -19.5t40 -30t38.5 -44h-2v-2l-12.5 3.5t-10.5 1.5q-20 0 -27.5 -10t-7.5 -21q0 -17 11 -28.5t26.5 -18.5t32.5 -10.5t29 -3.5q19 0 37 8t28 21h-5zM697 -42q-5 1 -9 1h-8q-21 0 -33.5 -11.5t-12.5 -32.5q0 -15 7 -26.5t18 -19.5t25 -12t29 -4 q13 0 27.5 4.5t27 13.5t20.5 21.5t8 28.5q0 23 -10.5 51t-16.5 49q-18 -6 -33 -17.5t-23 -29.5q21 -8 31 -24t10 -26q0 -8 -6.5 -17.5t-21.5 -9.5q-14 0 -22.5 13.5t-8.5 27.5v10t2 10zM1194 622q2 25 9 63t15 73q0 36 -6 49t-14 13q-11 0 -17 -8.5t-10 -20t-6 -24t-3 -19.5 q-2 -12 -7.5 -41.5l-11.5 -63t-10.5 -64.5t-4.5 -44q0 -4 1 -8t7 -4q15 0 30 22.5t28 76.5zM1814 622q2 25 9 63t15 73q0 36 -6 49t-14 13q-10 0 -16.5 -8.5t-10 -20t-6 -24t-3.5 -19.5q-2 -12 -7.5 -41.5l-11.5 -63t-10.5 -64.5t-4.5 -44q0 -4 1 -8t8 -4q15 0 29.5 22.5 t27.5 76.5zM567 622q2 25 9.5 63t15.5 73q0 36 -6 49t-14 13t-14 -8.5t-10.5 -20.5t-7.5 -24t-4 -19q-3 -12 -8.5 -41.5t-11 -63t-10 -64.5t-4.5 -44q0 -4 1 -8t7 -4q14 0 29 22.5t28 76.5zM1513 769q-2 30 -7.5 40.5t-12.5 10.5q-11 0 -17 -8.5t-10 -20t-6 -24t-4 -19.5 q-2 -12 -7.5 -41.5l-11.5 -63t-10.5 -64.5t-4.5 -44q0 -4 1 -8t8 -4q14 0 24 12t19 40.5t18 75.5t21 118zM287 916q0 -2 -7.5 -21.5l-18 -46.5l-21 -56.5l-17.5 -50.5q28 12 52.5 34.5t43 51.5t29.5 62t11 66q0 11 -3.5 19t-15.5 8q-13 0 -23.5 -13t-29.5 -53zM1643 534 q-3 -24 -13.5 -42t-25.5 -30t-32 -19t-34 -10q0 -14 -8 -27.5t-21.5 -24t-31 -16.5t-37.5 -6q-14 0 -29.5 3t-28.5 11t-21.5 21t-8.5 33q0 10 4.5 20.5t12.5 19.5t18.5 15t22.5 6v-4q-17 -3 -32 -16.5t-15 -32.5q0 -18 7 -29t18 -17.5t25 -8.5t29 -2q14 0 29 2.5t28 8.5 t21.5 16.5t9.5 27.5q-3 -1 -8 -1q-25 0 -42.5 10.5t-17.5 27.5q0 9 8.5 15.5t16.5 6.5q17 0 31 -14t19 -31q34 4 64.5 28t39.5 59h2zM1331 150q21 3 38 20.5t28 40.5t17 47t6 41q0 24 -11 24q-14 0 -25.5 -16t-21.5 -41t-17.5 -55.5t-13.5 -60.5zM1308 483q-4 -19 -16 -35.5 t-29.5 -29t-39.5 -20t-45 -7.5h-12q-9 -10 -23 -14t-30 -4q-32 0 -62.5 14.5t-46.5 44.5l1 1q20 -22 45 -38.5t60 -16.5q29 0 47 15q-17 3 -41 10t-46.5 20.5t-38 34t-15.5 49.5q0 8 2 19t9 19l5 -5q-2 -8 -4 -15t-2 -15q0 -26 14.5 -44.5t36.5 -30.5t46.5 -18.5t45.5 -8.5 q4 8 4 19q0 26 -20.5 43t-48.5 17q-11 0 -22 -2.5t-22 -8.5l-4 1q9 10 21.5 13.5t24.5 3.5q14 0 28 -4.5t25 -13.5t18 -21t7 -27q0 -11 -3 -20h4q18 0 37 4.5t35 14t28 25t16 36.5zM1360 25q13 0 29 11t30 27.5t23.5 35.5t9.5 36q0 6 -1.5 11t-8.5 5q-17 0 -31.5 -13 t-26 -31.5t-18 -40t-6.5 -38.5v-3zM270 416q-12 21 -39 35t-48 14q-5 0 -12.5 -1t-14.5 -3.5t-12 -7.5t-5 -13q0 -11 8 -17.5t19 -10.5t24 -5t23 -1q14 0 28.5 2.5t28.5 7.5zM865 349v3q-3 16 -9 26.5t-14 16.5t-15.5 8.5t-13.5 2.5q-10 0 -20 -5l-23 -11t-29 -11t-38 -5 q-20 0 -28.5 8.5t-8.5 19.5q0 10 5 16.5t12.5 10.5t15.5 6t15 2l64 -7q11 0 23 5.5t12 19.5q0 17 -13 25t-28 8q-11 0 -21.5 -4.5t-10.5 -14.5q0 -8 5 -11.5t13 -3.5q11 0 23 7l2 -8q-5 -2 -11 -4t-13 -2q-11 0 -19 5t-8 16q0 13 14.5 20t26.5 7q20 0 34 -10t14 -28 q0 -19 -15 -26t-27 -7l-65 7q-11 0 -26.5 -6t-15.5 -23q0 -11 10.5 -15.5t18.5 -4.5q13 0 27 5.5t28 12.5t26.5 12.5t22.5 5.5q29 0 47.5 -20t18.5 -50zM1108 144q-12 -1 -22 -8.5t-17 -19t-11 -25.5t-4 -27q0 -10 5 -24t21 -14q7 0 11.5 13.5t7.5 32t5 38.5t4 34zM471 -84 q0 10 -5 18.5t-13 15t-17.5 10t-18.5 3.5q-13 0 -21.5 -7t-8.5 -21q0 -10 6.5 -17t16.5 -11t21 -6t19 -2q11 0 16 3t5 14zM418 259q17 11 31.5 31t14.5 39q0 8 -3 15t-13 7q-11 0 -18 -6.5t-10.5 -16.5t-5 -20.5t-1.5 -17.5q0 -9 1 -17t4 -14zM1529 447q-3 14 -13 25t-25 11 q-7 0 -12 -2.5t-5 -11.5q0 -14 15.5 -18t35.5 -4h4zM708 -45q-1 -4 -1 -7.5v-6.5q0 -11 4.5 -22t12.5 -11q10 0 13 4t3 9q0 12 -9.5 20.5t-22.5 13.5z" />
<glyph unicode="&#xb6;" horiz-adv-x="501" d="M147 -204q93 5 145 38t77 83.5t30.5 113t5.5 125.5q0 50 -5 100t-5 94t12.5 98.5t51.5 129.5q-15 3 -28 3q-45 0 -77 -22.5t-52.5 -60t-30 -85t-9.5 -96.5q0 -40 6 -79t17 -73t27.5 -60.5t36.5 -41.5l1 -13q-66 4 -116.5 30t-84.5 65t-51 87.5t-17 98.5q0 51 18 99.5 t54.5 86.5t92 61t130.5 23q54 0 111 -16q-26 -45 -34.5 -95t-8.5 -90q0 -56 6 -117t6 -118q0 -68 -10 -135t-42.5 -120.5t-93.5 -88t-163 -37.5v12z" />
<glyph unicode="&#xba;" horiz-adv-x="328" d="M199 -142l-10.5 -32t-8 -26.5t-5 -25t-1.5 -27.5q0 -47 22 -77t78 -30q16 0 34.5 3t40 11t47.5 23.5t57 39.5l-5 -11q-57 -45 -101.5 -60.5t-82.5 -15.5q-37 0 -62 10t-40.5 28t-22 43t-6.5 55q0 39 16 95t37 122l33 103l-20 -30t-30 -37t-36.5 -31t-39.5 -13 q-5 0 -15 6.5t-20 23.5t-18 45.5t-8 73.5q0 26 22 61.5t53 67.5t62.5 54.5t51.5 22.5q12 0 27 -16t21 -62l16 53h56zM255 244q0 7 -1 18.5t-4.5 23t-9.5 20t-16 8.5q-23 0 -49 -29t-48 -69.5t-36.5 -83t-14.5 -70.5q0 -11 0.5 -23t3 -23t6.5 -18t11 -7q25 0 52.5 25.5 t51 63.5t39 82t15.5 82z" />
<glyph unicode="&#xc0;" horiz-adv-x="1249" d="M883 145q0 16 7.5 46.5t20.5 72.5q-19 39 -41.5 73.5t-46.5 64.5l-57.5 -83l-60.5 -81q36 -25 55 -33l-3 -10l-4 2q-16 5 -57 30q-48 -60 -100.5 -112.5t-109.5 -91.5t-119 -62t-130 -23q-40 0 -82 9.5t-76.5 31t-56.5 56t-22 83.5q0 62 28.5 112.5t73 86t97.5 55 t102 19.5q31 0 58.5 -8.5t48 -26t32.5 -45t12 -64.5q0 -35 -23 -65.5t-58.5 -54t-78.5 -37t-83 -13.5q-26 0 -48 6l6 18q21 -7 50 -7q36 0 74.5 11.5t71 32.5t53 51t20.5 66q0 25 -9 43t-25 30t-37 17.5t-46 5.5q-46 0 -98.5 -18t-97.5 -49.5t-74.5 -76t-29.5 -96.5 q0 -29 13 -57t40 -50t69.5 -35.5t101.5 -13.5q64 0 123.5 22t114.5 59.5t105 88.5t97 110q-26 18 -54 42t-51.5 52.5t-39 60.5t-15.5 67q0 53 26.5 79t61.5 26q45 0 101 -35t110 -98l91.5 141t84 124.5t78.5 93.5t74 50q3 0 13 -2t10 -15q0 -7 -4 -16q-16 -34 -40 -91 t-50 -125.5l-51.5 -142.5t-46 -141t-33.5 -121t-13 -83q0 -19 2.5 -39t10 -37.5t20.5 -29.5t34 -15q-3 30 -3 64q0 49 9 95.5t29 83.5t51.5 59.5t76.5 22.5q37 0 54 -25t17 -63q0 -37 -15.5 -80.5t-43 -80.5t-66.5 -61.5t-86 -24.5h-8q4 -38 14.5 -74.5t30.5 -67.5l-12 -5 q-17 26 -29 65t-18 84q-32 4 -54.5 20t-37 39.5t-21.5 53t-7 60.5zM542 462q0 -33 14 -64t36 -58.5t48.5 -51.5t51.5 -42q32 41 62 83.5l59 85.5q-54 63 -108 98.5t-95 35.5q-29 0 -48.5 -21.5t-19.5 -65.5zM1015 15v-18t1 -18q49 1 88 26t66 61t41.5 77t14.5 76 q0 32 -13 52.5t-40 20.5q-36 0 -65 -23.5t-50 -62.5t-32 -89t-11 -102zM833 416q46 -56 84 -134q14 44 33 94.5l40 102.5l43 102.5l42.5 94.5t39.5 79t34 55q0 7 -5 7q-33 -14 -68 -52t-73.5 -92t-81 -120.5zM1158 879q-16 5 -34.5 15.5t-36.5 24.5t-32 31.5t-21 36.5l35 24 q8 -32 35 -64.5t66 -57.5z" />
<glyph unicode="&#xc1;" horiz-adv-x="1249" d="M883 145q0 16 7.5 46.5t20.5 72.5q-19 39 -41.5 73.5t-46.5 64.5l-57.5 -83l-60.5 -81q36 -25 55 -33l-3 -10l-4 2q-16 5 -57 30q-48 -60 -100.5 -112.5t-109.5 -91.5t-119 -62t-130 -23q-40 0 -82 9.5t-76.5 31t-56.5 56t-22 83.5q0 62 28.5 112.5t73 86t97.5 55 t102 19.5q31 0 58.5 -8.5t48 -26t32.5 -45t12 -64.5q0 -35 -23 -65.5t-58.5 -54t-78.5 -37t-83 -13.5q-26 0 -48 6l6 18q21 -7 50 -7q36 0 74.5 11.5t71 32.5t53 51t20.5 66q0 25 -9 43t-25 30t-37 17.5t-46 5.5q-46 0 -98.5 -18t-97.5 -49.5t-74.5 -76t-29.5 -96.5 q0 -29 13 -57t40 -50t69.5 -35.5t101.5 -13.5q64 0 123.5 22t114.5 59.5t105 88.5t97 110q-26 18 -54 42t-51.5 52.5t-39 60.5t-15.5 67q0 53 26.5 79t61.5 26q45 0 101 -35t110 -98l91.5 141t84 124.5t78.5 93.5t74 50q3 0 13 -2t10 -15q0 -7 -4 -16q-16 -34 -40 -91 t-50 -125.5l-51.5 -142.5t-46 -141t-33.5 -121t-13 -83q0 -19 2.5 -39t10 -37.5t20.5 -29.5t34 -15q-3 30 -3 64q0 49 9 95.5t29 83.5t51.5 59.5t76.5 22.5q37 0 54 -25t17 -63q0 -37 -15.5 -80.5t-43 -80.5t-66.5 -61.5t-86 -24.5h-8q4 -38 14.5 -74.5t30.5 -67.5l-12 -5 q-17 26 -29 65t-18 84q-32 4 -54.5 20t-37 39.5t-21.5 53t-7 60.5zM542 462q0 -33 14 -64t36 -58.5t48.5 -51.5t51.5 -42q32 41 62 83.5l59 85.5q-54 63 -108 98.5t-95 35.5q-29 0 -48.5 -21.5t-19.5 -65.5zM1015 15v-18t1 -18q49 1 88 26t66 61t41.5 77t14.5 76 q0 32 -13 52.5t-40 20.5q-36 0 -65 -23.5t-50 -62.5t-32 -89t-11 -102zM833 416q46 -56 84 -134q14 44 33 94.5l40 102.5l43 102.5l42.5 94.5t39.5 79t34 55q0 7 -5 7q-33 -14 -68 -52t-73.5 -92t-81 -120.5zM1101 889q39 25 66 57.5t35 64.5l35 -24q-7 -19 -21 -36.5 t-32 -31.5t-36.5 -24.5t-34.5 -15.5z" />
<glyph unicode="&#xc2;" horiz-adv-x="1249" d="M883 145q0 16 7.5 46.5t20.5 72.5q-19 39 -41.5 73.5t-46.5 64.5l-57.5 -83l-60.5 -81q36 -25 55 -33l-3 -10l-4 2q-16 5 -57 30q-48 -60 -100.5 -112.5t-109.5 -91.5t-119 -62t-130 -23q-40 0 -82 9.5t-76.5 31t-56.5 56t-22 83.5q0 62 28.5 112.5t73 86t97.5 55 t102 19.5q31 0 58.5 -8.5t48 -26t32.5 -45t12 -64.5q0 -35 -23 -65.5t-58.5 -54t-78.5 -37t-83 -13.5q-26 0 -48 6l6 18q21 -7 50 -7q36 0 74.5 11.5t71 32.5t53 51t20.5 66q0 25 -9 43t-25 30t-37 17.5t-46 5.5q-46 0 -98.5 -18t-97.5 -49.5t-74.5 -76t-29.5 -96.5 q0 -29 13 -57t40 -50t69.5 -35.5t101.5 -13.5q64 0 123.5 22t114.5 59.5t105 88.5t97 110q-26 18 -54 42t-51.5 52.5t-39 60.5t-15.5 67q0 53 26.5 79t61.5 26q45 0 101 -35t110 -98l91.5 141t84 124.5t78.5 93.5t74 50q3 0 13 -2t10 -15q0 -7 -4 -16q-16 -34 -40 -91 t-50 -125.5l-51.5 -142.5t-46 -141t-33.5 -121t-13 -83q0 -19 2.5 -39t10 -37.5t20.5 -29.5t34 -15q-3 30 -3 64q0 49 9 95.5t29 83.5t51.5 59.5t76.5 22.5q37 0 54 -25t17 -63q0 -37 -15.5 -80.5t-43 -80.5t-66.5 -61.5t-86 -24.5h-8q4 -38 14.5 -74.5t30.5 -67.5l-12 -5 q-17 26 -29 65t-18 84q-32 4 -54.5 20t-37 39.5t-21.5 53t-7 60.5zM542 462q0 -33 14 -64t36 -58.5t48.5 -51.5t51.5 -42q32 41 62 83.5l59 85.5q-54 63 -108 98.5t-95 35.5q-29 0 -48.5 -21.5t-19.5 -65.5zM1015 15v-18t1 -18q49 1 88 26t66 61t41.5 77t14.5 76 q0 32 -13 52.5t-40 20.5q-36 0 -65 -23.5t-50 -62.5t-32 -89t-11 -102zM833 416q23 -29 44 -62t40 -71q14 43 33 93.5l40 102.5l43 102.5l42.5 94.5t39.5 79t34 55q0 7 -5 7q-33 -14 -68 -52t-73.5 -92t-81 -120.5zM1165 997l54 -104l-19 -9l-43 70l-111 -75l-15 15l129 103 h5z" />
<glyph unicode="&#xc3;" horiz-adv-x="1249" d="M883 145q0 16 7.5 46.5t20.5 72.5q-19 39 -41.5 73.5t-46.5 64.5l-57.5 -83l-60.5 -81q36 -25 55 -33l-3 -10l-4 2q-16 5 -57 30q-48 -60 -100.5 -112.5t-109.5 -91.5t-119 -62t-130 -23q-40 0 -82 9.5t-76.5 31t-56.5 56t-22 83.5q0 62 28.5 112.5t73 86t97.5 55 t102 19.5q31 0 58.5 -8.5t48 -26t32.5 -45t12 -64.5q0 -35 -23 -65.5t-58.5 -54t-78.5 -37t-83 -13.5q-26 0 -48 6l6 18q21 -7 50 -7q36 0 74.5 11.5t71 32.5t53 51t20.5 66q0 25 -9 43t-25 30t-37 17.5t-46 5.5q-46 0 -98.5 -18t-97.5 -49.5t-74.5 -76t-29.5 -96.5 q0 -29 13 -57t40 -50t69.5 -35.5t101.5 -13.5q64 0 123.5 22t114.5 59.5t105 88.5t97 110q-26 18 -54 42t-51.5 52.5t-39 60.5t-15.5 67q0 53 26.5 79t61.5 26q45 0 101 -35t110 -98l91.5 141t84 124.5t78.5 93.5t74 50q3 0 13 -2t10 -15q0 -7 -4 -16q-16 -34 -40 -91 t-50 -125.5l-51.5 -142.5t-46 -141t-33.5 -121t-13 -83q0 -19 2.5 -39t10 -37.5t20.5 -29.5t34 -15q-3 30 -3 64q0 49 9 95.5t29 83.5t51.5 59.5t76.5 22.5q37 0 54 -25t17 -63q0 -37 -15.5 -80.5t-43 -80.5t-66.5 -61.5t-86 -24.5h-8q4 -38 14.5 -74.5t30.5 -67.5l-12 -5 q-17 26 -29 65t-18 84q-32 4 -54.5 20t-37 39.5t-21.5 53t-7 60.5zM542 462q0 -33 14 -64t36 -58.5t48.5 -51.5t51.5 -42q32 41 62 83.5l59 85.5q-54 63 -108 98.5t-95 35.5q-29 0 -48.5 -21.5t-19.5 -65.5zM1015 15v-18t1 -18q49 1 88 26t66 61t41.5 77t14.5 76 q0 32 -13 52.5t-40 20.5q-36 0 -65 -23.5t-50 -62.5t-32 -89t-11 -102zM833 416q23 -29 44 -62t40 -71q14 43 33 93.5l40 102.5l43 102.5l42.5 94.5t39.5 79t34 55q0 7 -5 7q-33 -14 -68 -52t-73.5 -92t-81 -120.5zM1029 894q5 17 22.5 32.5t41.5 15.5q12 0 24.5 -4.5 t25 -10.5t24.5 -10.5t23 -4.5q17 0 25.5 12l14.5 20l16 -8q-5 -17 -21.5 -34t-42.5 -17q-12 0 -24.5 4.5t-25 10t-24.5 10t-23 4.5q-16 0 -24.5 -10.5l-14.5 -18.5z" />
<glyph unicode="&#xc4;" horiz-adv-x="1249" d="M883 145q0 16 7.5 46.5t20.5 72.5q-19 39 -41.5 73.5t-46.5 64.5l-57.5 -83l-60.5 -81q36 -25 55 -33l-3 -10l-4 2q-16 5 -57 30q-48 -60 -100.5 -112.5t-109.5 -91.5t-119 -62t-130 -23q-40 0 -82 9.5t-76.5 31t-56.5 56t-22 83.5q0 62 28.5 112.5t73 86t97.5 55 t102 19.5q31 0 58.5 -8.5t48 -26t32.5 -45t12 -64.5q0 -35 -23 -65.5t-58.5 -54t-78.5 -37t-83 -13.5q-26 0 -48 6l6 18q21 -7 50 -7q36 0 74.5 11.5t71 32.5t53 51t20.5 66q0 25 -9 43t-25 30t-37 17.5t-46 5.5q-46 0 -98.5 -18t-97.5 -49.5t-74.5 -76t-29.5 -96.5 q0 -29 13 -57t40 -50t69.5 -35.5t101.5 -13.5q64 0 123.5 22t114.5 59.5t105 88.5t97 110q-26 18 -54 42t-51.5 52.5t-39 60.5t-15.5 67q0 53 26.5 79t61.5 26q45 0 101 -35t110 -98l91.5 141t84 124.5t78.5 93.5t74 50q3 0 13 -2t10 -15q0 -7 -4 -16q-16 -34 -40 -91 t-50 -125.5l-51.5 -142.5t-46 -141t-33.5 -121t-13 -83q0 -19 2.5 -39t10 -37.5t20.5 -29.5t34 -15q-3 30 -3 64q0 49 9 95.5t29 83.5t51.5 59.5t76.5 22.5q37 0 54 -25t17 -63q0 -37 -15.5 -80.5t-43 -80.5t-66.5 -61.5t-86 -24.5h-8q4 -38 14.5 -74.5t30.5 -67.5l-12 -5 q-17 26 -29 65t-18 84q-32 4 -54.5 20t-37 39.5t-21.5 53t-7 60.5zM542 462q0 -33 14 -64t36 -58.5t48.5 -51.5t51.5 -42q32 41 62 83.5l59 85.5q-54 63 -108 98.5t-95 35.5q-29 0 -48.5 -21.5t-19.5 -65.5zM1015 15v-18t1 -18q49 1 88 26t66 61t41.5 77t14.5 76 q0 32 -13 52.5t-40 20.5q-36 0 -65 -23.5t-50 -62.5t-32 -89t-11 -102zM833 416q23 -29 44 -62t40 -71q14 43 33 93.5l40 102.5l43 102.5l42.5 94.5t39.5 79t34 55q0 7 -5 7q-33 -14 -68 -52t-73.5 -92t-81 -120.5zM1190 909q0 16 12 31t29 15q12 0 20 -8.5t8 -20.5 q0 -16 -12 -31t-28 -15q-12 0 -20.5 8.5t-8.5 20.5zM1070 909q0 16 12 31t29 15q12 0 20 -8.5t8 -20.5q0 -16 -12.5 -31t-28.5 -15q-12 0 -20 8.5t-8 20.5z" />
<glyph unicode="&#xc5;" horiz-adv-x="1249" d="M883 145q0 16 7.5 46.5t20.5 72.5q-19 39 -41.5 73.5t-46.5 64.5l-57.5 -83l-60.5 -81q36 -25 55 -33l-3 -10l-4 2q-16 5 -57 30q-48 -60 -100.5 -112.5t-109.5 -91.5t-119 -62t-130 -23q-40 0 -82 9.5t-76.5 31t-56.5 56t-22 83.5q0 62 28.5 112.5t73 86t97.5 55 t102 19.5q31 0 58.5 -8.5t48 -26t32.5 -45t12 -64.5q0 -35 -23 -65.5t-58.5 -54t-78.5 -37t-83 -13.5q-26 0 -48 6l6 18q21 -7 50 -7q36 0 74.5 11.5t71 32.5t53 51t20.5 66q0 25 -9 43t-25 30t-37 17.5t-46 5.5q-46 0 -98.5 -18t-97.5 -49.5t-74.5 -76t-29.5 -96.5 q0 -29 13 -57t40 -50t69.5 -35.5t101.5 -13.5q64 0 123.5 22t114.5 59.5t105 88.5t97 110q-26 18 -54 42t-51.5 52.5t-39 60.5t-15.5 67q0 53 26.5 79t61.5 26q45 0 101 -35t110 -98l91.5 141t84 124.5t78.5 93.5t74 50q3 0 13 -2t10 -15q0 -7 -4 -16q-16 -34 -40 -91 t-50 -125.5l-51.5 -142.5t-46 -141t-33.5 -121t-13 -83q0 -19 2.5 -39t10 -37.5t20.5 -29.5t34 -15q-3 30 -3 64q0 49 9 95.5t29 83.5t51.5 59.5t76.5 22.5q37 0 54 -25t17 -63q0 -37 -15.5 -80.5t-43 -80.5t-66.5 -61.5t-86 -24.5h-8q4 -38 14.5 -74.5t30.5 -67.5l-12 -5 q-17 26 -29 65t-18 84q-32 4 -54.5 20t-37 39.5t-21.5 53t-7 60.5zM542 462q0 -33 14 -64t36 -58.5t48.5 -51.5t51.5 -42q32 41 62 83.5l59 85.5q-54 63 -108 98.5t-95 35.5q-29 0 -48.5 -21.5t-19.5 -65.5zM1015 15v-18t1 -18q49 1 88 26t66 61t41.5 77t14.5 76 q0 32 -13 52.5t-40 20.5q-36 0 -65 -23.5t-50 -62.5t-32 -89t-11 -102zM833 416q46 -56 84 -134q14 44 33 94.5l40 102.5l43 102.5l42.5 94.5t39.5 79t34 55q0 7 -5 7q-33 -14 -68 -52t-73.5 -92t-81 -120.5zM1073 941q0 29 20 48.5t48 19.5q29 0 48.5 -19.5t19.5 -48.5 q0 -28 -19.5 -48t-48.5 -20q-28 0 -48 20t-20 48zM1096 941q0 -20 12.5 -33.5t32.5 -13.5t34 13.5t14 33.5t-14 33.5t-34 13.5t-32.5 -13.5t-12.5 -33.5z" />
<glyph unicode="&#xc7;" horiz-adv-x="789" d="M193 -111q13 -5 31 -9.5t42 -4.5q23 0 37.5 12t14.5 28q0 19 -11.5 26t-26.5 7q-14 0 -29 -5l-5 16l29 68q-30 34 -46 80t-16 97q0 40 8.5 80.5t23.5 80.5q-19 -3 -37.5 -4t-35.5 -1q-42 0 -85.5 10t-79.5 33t-59 61t-23 94q0 61 31 113.5t83 91t119 60.5t139 22 q67 0 133.5 -21t125.5 -68q69 52 133 82t110 30q24 0 41.5 -15.5t17.5 -42.5q0 -42 -22 -85.5t-60.5 -85.5t-90.5 -82t-111.5 -74t-124 -60.5t-127.5 -42.5q-29 -64 -44.5 -127.5t-15.5 -120.5q0 -15 3.5 -38.5t15.5 -47t34.5 -43t60.5 -27.5v7q0 89 23.5 162.5t62 126 t88 81.5t101.5 29q53 0 82.5 -29.5t29.5 -80.5q0 -61 -29.5 -117t-77.5 -99t-108.5 -69t-122.5 -26q-20 0 -36 3q0 -42 5.5 -86.5t14.5 -74.5l-9 -4q-5 13 -14 53t-10 115q-45 10 -81 40l-23 -38q5 1 9 1.5t9 0.5q23 0 42 -12t19 -39q0 -28 -22 -46t-60 -18q-26 0 -48 5.5 t-36 12.5zM177 376q35 0 74 6q22 53 54 104t70.5 98t82 88.5t87.5 75.5q-59 45 -119 65t-117 20q-72 0 -135.5 -26.5t-111.5 -68t-76 -93t-28 -102.5q0 -47 16.5 -79t45.5 -51.5t69.5 -28t87.5 -8.5zM566 730q-69 -65 -130.5 -151.5t-105.5 -180.5q61 17 123 43t119 59 t107.5 71.5t87.5 79t58.5 81t21.5 78.5q0 22 -16.5 32t-29.5 10q-52 0 -109.5 -30.5t-115.5 -82.5q25 -23 48 -51l-8 -6q-13 14 -25 25.5t-25 22.5zM664 366q-56 0 -106 -37.5t-87.5 -95t-59.5 -126.5t-22 -133q6 -1 13 -1.5t15 -0.5q58 0 117.5 23.5t108 65t79 97 t30.5 118.5q0 40 -23 65t-65 25z" />
<glyph unicode="&#xc8;" horiz-adv-x="603" d="M620 879q-16 5 -34.5 15.5t-36.5 24.5t-32 31.5t-21 36.5l35 24q8 -32 35 -64.5t66 -57.5zM267 -177q-21 75 -27 146q-63 17 -105 69t-42 134q0 48 26 93.5t66 84.5t88 70t93 52q-20 15 -32 38q-59 -21 -112.5 -32.5t-92.5 -11.5q-65 0 -112.5 16t-79 42.5t-46.5 61.5 t-15 73q0 49 24 98.5t69.5 89.5t112.5 65t154 25q44 0 87.5 -7.5t83.5 -22.5t75 -38t62 -53q23 11 45.5 18t40.5 7q23 0 38.5 -12t15.5 -37q0 -39 -27.5 -77t-72 -73t-101.5 -65.5t-116 -53.5q3 -27 17 -43q59 25 93 25q26 0 35.5 -10.5t9.5 -22.5q0 -11 -5.5 -17.5t-14 -11 t-18 -6t-16.5 -1.5q-24 0 -47.5 6.5t-43.5 20.5q-42 -23 -82.5 -60.5t-73 -81t-52 -89.5t-19.5 -87q0 -67 20 -109t70 -56q-1 8 -1 16v16q0 73 17 135t48.5 107t76.5 70t101 25q27 0 47.5 -8.5t34 -23.5t20.5 -35t7 -42q0 -49 -23 -98.5t-63 -89.5t-94 -65t-116 -25 q-11 0 -21.5 1t-20.5 3q2 -73 25 -142zM121 480q49 0 102 11t106 30q-5 12 -7.5 25t-2.5 28q0 26 19 58.5t49 65t67.5 62t75.5 49.5q-53 55 -127.5 81.5t-152.5 26.5q-79 0 -141.5 -25t-105.5 -64.5t-65.5 -88t-22.5 -94.5q0 -33 12 -63t37.5 -52.5t64.5 -36t92 -13.5z M253 -23q11 -2 22 -3.5t25 -1.5q58 0 108.5 27t88 66t59.5 82t22 75q0 21 -4 40.5t-13.5 35t-26 24.5t-41.5 9q-53 0 -97.5 -29t-76 -78t-49 -112t-17.5 -132v-3zM547 791q-34 -21 -66.5 -52t-57.5 -66t-40.5 -71t-15.5 -66q61 25 116 57t97 66t66.5 67.5t24.5 60.5 q0 15 -11 24t-25 9q-36 0 -77 -22q14 -19 25 -40l-11 -3l-12 18.5t-13 17.5zM474 493q-20 0 -40 -5.5t-42 -16.5q18 -16 39 -19.5t31 -3.5q47 0 47 22q0 23 -35 23z" />
<glyph unicode="&#xc9;" horiz-adv-x="603" d="M267 -177q-21 75 -27 146q-63 17 -105 69t-42 134q0 48 26 93.5t66 84.5t88 70t93 52q-20 15 -32 38q-59 -21 -112.5 -32.5t-92.5 -11.5q-65 0 -112.5 16t-79 42.5t-46.5 61.5t-15 73q0 49 24 98.5t69.5 89.5t112.5 65t154 25q44 0 87.5 -7.5t83.5 -22.5t75 -38t62 -53 q23 11 45.5 18t40.5 7q23 0 38.5 -12t15.5 -37q0 -39 -27.5 -77t-72 -73t-101.5 -65.5t-116 -53.5q3 -27 17 -43q59 25 93 25q26 0 35.5 -10.5t9.5 -22.5q0 -11 -5.5 -17.5t-14 -11t-18 -6t-16.5 -1.5q-24 0 -47.5 6.5t-43.5 20.5q-42 -23 -82.5 -60.5t-73 -81t-52 -89.5 t-19.5 -87q0 -67 20 -109t70 -56q-1 8 -1 16v16q0 73 17 135t48.5 107t76.5 70t101 25q27 0 47.5 -8.5t34 -23.5t20.5 -35t7 -42q0 -49 -23 -98.5t-63 -89.5t-94 -65t-116 -25q-11 0 -21.5 1t-20.5 3q2 -73 25 -142zM121 480q49 0 102 11t106 30q-5 12 -7.5 25t-2.5 28 q0 26 19 58.5t49 65t67.5 62t75.5 49.5q-53 55 -127.5 81.5t-152.5 26.5q-79 0 -141.5 -25t-105.5 -64.5t-65.5 -88t-22.5 -94.5q0 -33 12 -63t37.5 -52.5t64.5 -36t92 -13.5zM253 -23q11 -2 22 -3.5t25 -1.5q58 0 108.5 27t88 66t59.5 82t22 75q0 21 -4 40.5t-13.5 35 t-26 24.5t-41.5 9q-53 0 -97.5 -29t-76 -78t-49 -112t-17.5 -132v-3zM547 791q-34 -21 -66.5 -52t-57.5 -66t-40.5 -71t-15.5 -66q61 25 116 57t97 66t66.5 67.5t24.5 60.5q0 15 -11 24t-25 9q-36 0 -77 -22q14 -19 25 -40l-11 -3l-12 18.5t-13 17.5zM557 889q39 25 66 57.5 t35 64.5l35 -24q-7 -19 -21 -36.5t-32 -31.5t-36.5 -24.5t-34.5 -15.5zM474 493q-20 0 -40 -5.5t-42 -16.5q18 -16 39 -19.5t31 -3.5q47 0 47 22q0 23 -35 23z" />
<glyph unicode="&#xca;" horiz-adv-x="603" d="M653 997l54 -104l-19 -9l-43 70l-111 -75l-15 15l129 103h5zM267 -177q-21 75 -27 146q-63 17 -105 69t-42 134q0 48 26 93.5t66 84.5t88 70t93 52q-20 15 -32 38q-59 -21 -112.5 -32.5t-92.5 -11.5q-65 0 -112.5 16t-79 42.5t-46.5 61.5t-15 73q0 49 24 98.5t69.5 89.5 t112.5 65t154 25q44 0 87.5 -7.5t83.5 -22.5t75 -38t62 -53q23 11 45.5 18t40.5 7q23 0 38.5 -12t15.5 -37q0 -39 -27.5 -77t-72 -73t-101.5 -65.5t-116 -53.5q3 -27 17 -43q59 25 93 25q26 0 35.5 -10.5t9.5 -22.5q0 -11 -5.5 -17.5t-14 -11t-18 -6t-16.5 -1.5 q-24 0 -47.5 6.5t-43.5 20.5q-42 -23 -82.5 -60.5t-73 -81t-52 -89.5t-19.5 -87q0 -67 20 -109t70 -56q-1 8 -1 16v16q0 73 17 135t48.5 107t76.5 70t101 25q27 0 47.5 -8.5t34 -23.5t20.5 -35t7 -42q0 -49 -23 -98.5t-63 -89.5t-94 -65t-116 -25q-11 0 -21.5 1t-20.5 3 q2 -73 25 -142zM121 480q49 0 102 11t106 30q-5 12 -7.5 25t-2.5 28q0 26 19 58.5t49 65t67.5 62t75.5 49.5q-53 55 -127.5 81.5t-152.5 26.5q-79 0 -141.5 -25t-105.5 -64.5t-65.5 -88t-22.5 -94.5q0 -33 12 -63t37.5 -52.5t64.5 -36t92 -13.5zM253 -23q11 -2 22 -3.5 t25 -1.5q58 0 108.5 27t88 66t59.5 82t22 75q0 21 -4 40.5t-13.5 35t-26 24.5t-41.5 9q-53 0 -97.5 -29t-76 -78t-49 -112t-17.5 -132v-3zM547 791q-34 -21 -66.5 -52t-57.5 -66t-40.5 -71t-15.5 -66q61 25 116 57t97 66t66.5 67.5t24.5 60.5q0 15 -11 24t-25 9 q-36 0 -77 -22q14 -19 25 -40l-11 -3l-12 18.5t-13 17.5zM474 493q-20 0 -40 -5.5t-42 -16.5q18 -16 39 -19.5t31 -3.5q47 0 47 22q0 23 -35 23z" />
<glyph unicode="&#xcb;" horiz-adv-x="603" d="M649 909q0 16 12 31t29 15q12 0 20 -8.5t8 -20.5q0 -16 -12 -31t-28 -15q-12 0 -20.5 8.5t-8.5 20.5zM529 909q0 16 12 31t29 15q12 0 20 -8.5t8 -20.5q0 -16 -12.5 -31t-28.5 -15q-12 0 -20 8.5t-8 20.5zM267 -177q-21 75 -27 146q-63 17 -105 69t-42 134q0 48 26 93.5 t66 84.5t88 70t93 52q-20 15 -32 38q-59 -21 -112.5 -32.5t-92.5 -11.5q-65 0 -112.5 16t-79 42.5t-46.5 61.5t-15 73q0 49 24 98.5t69.5 89.5t112.5 65t154 25q44 0 87.5 -7.5t83.5 -22.5t75 -38t62 -53q23 11 45.5 18t40.5 7q23 0 38.5 -12t15.5 -37q0 -39 -27.5 -77 t-72 -73t-101.5 -65.5t-116 -53.5q3 -27 17 -43q59 25 93 25q26 0 35.5 -10.5t9.5 -22.5q0 -11 -5.5 -17.5t-14 -11t-18 -6t-16.5 -1.5q-24 0 -47.5 6.5t-43.5 20.5q-42 -23 -82.5 -60.5t-73 -81t-52 -89.5t-19.5 -87q0 -67 20 -109t70 -56q-1 8 -1 16v16q0 73 17 135 t48.5 107t76.5 70t101 25q27 0 47.5 -8.5t34 -23.5t20.5 -35t7 -42q0 -49 -23 -98.5t-63 -89.5t-94 -65t-116 -25q-11 0 -21.5 1t-20.5 3q2 -73 25 -142zM121 480q49 0 102 11t106 30q-5 12 -7.5 25t-2.5 28q0 26 19 58.5t49 65t67.5 62t75.5 49.5q-53 55 -127.5 81.5 t-152.5 26.5q-79 0 -141.5 -25t-105.5 -64.5t-65.5 -88t-22.5 -94.5q0 -33 12 -63t37.5 -52.5t64.5 -36t92 -13.5zM253 -23q11 -2 22 -3.5t25 -1.5q58 0 108.5 27t88 66t59.5 82t22 75q0 21 -4 40.5t-13.5 35t-26 24.5t-41.5 9q-53 0 -97.5 -29t-76 -78t-49 -112t-17.5 -132 v-3zM547 791q-34 -21 -66.5 -52t-57.5 -66t-40.5 -71t-15.5 -66q61 25 116 57t97 66t66.5 67.5t24.5 60.5q0 15 -11 24t-25 9q-36 0 -77 -22q14 -19 25 -40l-11 -3l-12 18.5t-13 17.5zM474 493q-20 0 -40 -5.5t-42 -16.5q18 -16 39 -19.5t31 -3.5q47 0 47 22q0 23 -35 23z " />
<glyph unicode="&#xcc;" horiz-adv-x="679" d="M293 636q9 20 25 41.5t36.5 39.5t44 30t47.5 12q19 0 34.5 -7.5t25.5 -17.5t15.5 -21t5.5 -18q0 -41 -17 -72t-44.5 -52t-62.5 -32t-71 -11q-28 0 -52.5 5.5t-43 20t-29 38.5t-10.5 60q0 43 24 84.5t65 74t94.5 52t112.5 19.5q40 0 76.5 -9.5t64 -27t44 -43t16.5 -58.5 q0 -21 -5 -35.5t-10.5 -27.5l-10.5 -25.5t-5 -29.5q0 -18 13 -18q7 0 23.5 11.5t39 30l48 41l49.5 45l45 41.5l34 30l15 -10l-50 -45t-37 -50q-28 -61 -56 -141.5t-63.5 -166t-81 -167.5t-107 -147t-143.5 -104.5t-190 -39.5q-38 0 -74 12.5t-64.5 36t-46 56.5t-17.5 75 q0 38 13 75.5t35.5 72.5t52 65t63 52.5t69 35t69.5 12.5q46 0 76 -11.5t46.5 -30.5t23 -42t6.5 -46t-16.5 -58.5t-51.5 -68.5t-91 -57t-135 -24v14q53 0 102 19.5t87 48.5t60.5 64.5t22.5 67.5q0 23 -4.5 42.5t-17.5 34t-36.5 22.5t-61.5 8q-45 0 -85 -14.5t-73 -38 t-59.5 -54.5t-44.5 -63.5t-27.5 -65t-9.5 -58.5q0 -33 14 -64t38 -54.5t55 -37.5t66 -14q68 0 125.5 20t105.5 55t87 82t70.5 100.5t56.5 111.5t45 114q8 23 26.5 61.5l39.5 79l41 76.5t32 55l-34 -32.5t-38.5 -34.5t-38 -27t-30.5 -11q-9 0 -18.5 2t-17 9t-12.5 21.5 t-5 39.5q0 8 4.5 20l10 27t10 32.5t4.5 37.5q0 22 -14.5 38t-38 25.5t-51.5 14t-55 4.5q-63 0 -115 -24t-89.5 -57.5t-58 -69t-20.5 -59.5q0 -35 9.5 -58t25.5 -36t37 -18t45 -5q33 0 66.5 15t60.5 37.5t44 49.5t17 50q0 29 -21 41t-48 12q-19 0 -40 -10.5t-40 -27.5 t-34.5 -37.5t-24.5 -41.5zM642 920q-16 5 -34.5 15.5t-36.5 24.5t-32 31.5t-21 36.5l35 24q8 -32 35 -64.5t66 -57.5z" />
<glyph unicode="&#xcd;" horiz-adv-x="679" d="M293 636q9 20 25 41.5t36.5 39.5t44 30t47.5 12q19 0 34.5 -7.5t25.5 -17.5t15.5 -21t5.5 -18q0 -41 -17 -72t-44.5 -52t-62.5 -32t-71 -11q-28 0 -52.5 5.5t-43 20t-29 38.5t-10.5 60q0 43 24 84.5t65 74t94.5 52t112.5 19.5q40 0 76.5 -9.5t64 -27t44 -43t16.5 -58.5 q0 -21 -5 -35.5t-10.5 -27.5l-10.5 -25.5t-5 -29.5q0 -18 13 -18q7 0 23.5 11.5t39 30l48 41l49.5 45l45 41.5l34 30l15 -10l-50 -45t-37 -50q-28 -61 -56 -141.5t-63.5 -166t-81 -167.5t-107 -147t-143.5 -104.5t-190 -39.5q-38 0 -74 12.5t-64.5 36t-46 56.5t-17.5 75 q0 38 13 75.5t35.5 72.5t52 65t63 52.5t69 35t69.5 12.5q46 0 76 -11.5t46.5 -30.5t23 -42t6.5 -46t-16.5 -58.5t-51.5 -68.5t-91 -57t-135 -24v14q53 0 102 19.5t87 48.5t60.5 64.5t22.5 67.5q0 23 -4.5 42.5t-17.5 34t-36.5 22.5t-61.5 8q-45 0 -85 -14.5t-73 -38 t-59.5 -54.5t-44.5 -63.5t-27.5 -65t-9.5 -58.5q0 -33 14 -64t38 -54.5t55 -37.5t66 -14q68 0 125.5 20t105.5 55t87 82t70.5 100.5t56.5 111.5t45 114q8 23 26.5 61.5l39.5 79l41 76.5t32 55l-34 -32.5t-38.5 -34.5t-38 -27t-30.5 -11q-9 0 -18.5 2t-17 9t-12.5 21.5 t-5 39.5q0 8 4.5 20l10 27t10 32.5t4.5 37.5q0 22 -14.5 38t-38 25.5t-51.5 14t-55 4.5q-63 0 -115 -24t-89.5 -57.5t-58 -69t-20.5 -59.5q0 -35 9.5 -58t25.5 -36t37 -18t45 -5q33 0 66.5 15t60.5 37.5t44 49.5t17 50q0 29 -21 41t-48 12q-19 0 -40 -10.5t-40 -27.5 t-34.5 -37.5t-24.5 -41.5zM552 922q39 25 66 57.5t35 64.5l35 -24q-7 -19 -21 -36.5t-32 -31.5t-36.5 -24.5t-34.5 -15.5z" />
<glyph unicode="&#xce;" horiz-adv-x="679" d="M293 636q9 20 25 41.5t36.5 39.5t44 30t47.5 12q19 0 34.5 -7.5t25.5 -17.5t15.5 -21t5.5 -18q0 -41 -17 -72t-44.5 -52t-62.5 -32t-71 -11q-28 0 -52.5 5.5t-43 20t-29 38.5t-10.5 60q0 43 24 84.5t65 74t94.5 52t112.5 19.5q40 0 76.5 -9.5t64 -27t44 -43t16.5 -58.5 q0 -21 -5 -35.5t-10.5 -27.5l-10.5 -25.5t-5 -29.5q0 -18 13 -18q7 0 23.5 11.5t39 30l48 41l49.5 45l45 41.5l34 30l15 -10l-50 -45t-37 -50q-28 -61 -56 -141.5t-63.5 -166t-81 -167.5t-107 -147t-143.5 -104.5t-190 -39.5q-38 0 -74 12.5t-64.5 36t-46 56.5t-17.5 75 q0 38 13 75.5t35.5 72.5t52 65t63 52.5t69 35t69.5 12.5q46 0 76 -11.5t46.5 -30.5t23 -42t6.5 -46t-16.5 -58.5t-51.5 -68.5t-91 -57t-135 -24v14q53 0 102 19.5t87 48.5t60.5 64.5t22.5 67.5q0 23 -4.5 42.5t-17.5 34t-36.5 22.5t-61.5 8q-45 0 -85 -14.5t-73 -38 t-59.5 -54.5t-44.5 -63.5t-27.5 -65t-9.5 -58.5q0 -33 14 -64t38 -54.5t55 -37.5t66 -14q68 0 125.5 20t105.5 55t87 82t70.5 100.5t56.5 111.5t45 114q8 23 26.5 61.5l39.5 79l41 76.5t32 55l-34 -32.5t-38.5 -34.5t-38 -27t-30.5 -11q-9 0 -18.5 2t-17 9t-12.5 21.5 t-5 39.5q0 8 4.5 20l10 27t10 32.5t4.5 37.5q0 22 -14.5 38t-38 25.5t-51.5 14t-55 4.5q-63 0 -115 -24t-89.5 -57.5t-58 -69t-20.5 -59.5q0 -35 9.5 -58t25.5 -36t37 -18t45 -5q33 0 66.5 15t60.5 37.5t44 49.5t17 50q0 29 -21 41t-48 12q-19 0 -40 -10.5t-40 -27.5 t-34.5 -37.5t-24.5 -41.5zM700 1023l54 -104l-19 -9l-43 70l-111 -75l-15 15l129 103h5z" />
<glyph unicode="&#xcf;" horiz-adv-x="679" d="M293 636q9 20 25 41.5t36.5 39.5t44 30t47.5 12q19 0 34.5 -7.5t25.5 -17.5t15.5 -21t5.5 -18q0 -41 -17 -72t-44.5 -52t-62.5 -32t-71 -11q-28 0 -52.5 5.5t-43 20t-29 38.5t-10.5 60q0 43 24 84.5t65 74t94.5 52t112.5 19.5q40 0 76.5 -9.5t64 -27t44 -43t16.5 -58.5 q0 -21 -5 -35.5t-10.5 -27.5l-10.5 -25.5t-5 -29.5q0 -18 13 -18q7 0 23.5 11.5t39 30l48 41l49.5 45l45 41.5l34 30l15 -10l-50 -45t-37 -50q-28 -61 -56 -141.5t-63.5 -166t-81 -167.5t-107 -147t-143.5 -104.5t-190 -39.5q-38 0 -74 12.5t-64.5 36t-46 56.5t-17.5 75 q0 38 13 75.5t35.5 72.5t52 65t63 52.5t69 35t69.5 12.5q46 0 76 -11.5t46.5 -30.5t23 -42t6.5 -46t-16.5 -58.5t-51.5 -68.5t-91 -57t-135 -24v14q53 0 102 19.5t87 48.5t60.5 64.5t22.5 67.5q0 23 -4.5 42.5t-17.5 34t-36.5 22.5t-61.5 8q-45 0 -85 -14.5t-73 -38 t-59.5 -54.5t-44.5 -63.5t-27.5 -65t-9.5 -58.5q0 -33 14 -64t38 -54.5t55 -37.5t66 -14q68 0 125.5 20t105.5 55t87 82t70.5 100.5t56.5 111.5t45 114q8 23 26.5 61.5l39.5 79l41 76.5t32 55l-34 -32.5t-38.5 -34.5t-38 -27t-30.5 -11q-9 0 -18.5 2t-17 9t-12.5 21.5 t-5 39.5q0 8 4.5 20l10 27t10 32.5t4.5 37.5q0 22 -14.5 38t-38 25.5t-51.5 14t-55 4.5q-63 0 -115 -24t-89.5 -57.5t-58 -69t-20.5 -59.5q0 -35 9.5 -58t25.5 -36t37 -18t45 -5q33 0 66.5 15t60.5 37.5t44 49.5t17 50q0 29 -21 41t-48 12q-19 0 -40 -10.5t-40 -27.5 t-34.5 -37.5t-24.5 -41.5zM699 946q0 16 12 31t29 15q12 0 20 -8.5t8 -20.5q0 -16 -12 -31t-28 -15q-12 0 -20.5 8.5t-8.5 20.5zM579 946q0 16 12 31t29 15q12 0 20 -8.5t8 -20.5q0 -16 -12.5 -31t-28.5 -15q-12 0 -20 8.5t-8 20.5z" />
<glyph unicode="&#xd0;" horiz-adv-x="957" d="M475 609q42 -5 65 -33.5t23 -68.5q0 -51 -22.5 -100.5t-59.5 -88.5t-85.5 -63t-99.5 -24q-36 0 -68 10.5t-56.5 37.5t-38.5 72t-14 114q0 66 40.5 129t107.5 112.5t153.5 79.5t178.5 30q64 0 125.5 -17t115.5 -50q32 35 73 66.5t93 59.5l5 -11q-60 -32 -98 -61.5 t-63 -59.5q35 -24 64.5 -54.5t51 -68t33.5 -82t12 -95.5q0 -105 -46.5 -192.5t-122 -151.5t-170.5 -99.5t-192 -35.5q-45 0 -83.5 8t-75.5 19q-43 -13 -90 -20t-99 -7q-11 0 -33 1t-44 5.5t-38.5 15t-16.5 30.5q0 15 10.5 24t26 13.5t32 6t28.5 1.5q33 0 61 -5t54.5 -13 t52.5 -17.5l53 -18.5q57 18 100 47t76.5 66.5t59.5 82t49 93.5h-65l10 34h70q21 49 41 101.5t44 105t54.5 103.5t72.5 98q-51 31 -110.5 47t-125.5 16q-91 0 -172.5 -35t-143 -91t-98 -126.5t-36.5 -142.5q0 -31 8.5 -59.5t26.5 -51t46.5 -36t68.5 -13.5q46 0 91 21.5 t81 57.5t58.5 82t22.5 95q0 41 -19.5 66.5t-61.5 31.5zM671 296q-23 -47 -54.5 -91.5t-72 -83t-90 -69.5t-108.5 -52q29 -8 62 -13.5t72 -5.5q102 0 195.5 35.5t165 97t113.5 145t42 178.5q0 99 -42.5 173t-112.5 121q-24 -34 -38.5 -72t-29 -85.5l-33.5 -107.5t-53 -136h94 l-10 -34h-100zM126 -19q48 0 89 5t77 14l-100.5 30.5t-106.5 14.5q-8 0 -19 -1t-22 -4t-18.5 -8.5t-7.5 -15.5q0 -13 13.5 -20t31.5 -10.5t36 -4t27 -0.5z" />
<glyph unicode="&#xd1;" horiz-adv-x="1112" d="M1040 832q5 17 22.5 32.5t41.5 15.5q12 0 24.5 -4.5t25 -10.5t24.5 -10.5t23 -4.5q17 0 25.5 12l14.5 20l16 -8q-5 -17 -21.5 -34t-42.5 -17q-12 0 -24.5 4.5t-25 10t-24.5 10t-23 4.5q-16 0 -24.5 -10.5l-14.5 -18.5zM1424 728q-14 40 -31.5 57t-36.5 17q-28 0 -56 -27 t-56.5 -72t-57.5 -103l-58 -120l-40.5 -88l-27.5 -61.5l-22.5 -48t-25 -48.5t-36 -63l-54.5 -90q-6 -10 -18.5 -28l-26 -36.5t-27 -34t-20.5 -20.5q-5 -4 -12 -4q-11 0 -11 9q0 5 3 11l17 44t22.5 71.5t20 97t9.5 120.5q1 57 9 120t19.5 123t25.5 111t28 84 q-18 -24 -39.5 -65.5t-43 -88.5l-42.5 -94t-38 -81q-54 -110 -117 -199.5t-134.5 -152.5t-151.5 -97.5t-168 -34.5q-42 0 -83 11t-73 34t-51.5 58.5t-19.5 84.5q0 57 25.5 101.5t65.5 76t90 48t100 16.5q28 0 58.5 -5.5t55 -18.5t40.5 -35.5t16 -56.5q0 -41 -24 -73.5 t-60.5 -55t-79 -34.5t-78.5 -12q-11 0 -23 1t-26 3l2 10q21 -3 39 -3q35 0 77 11t78.5 33.5t61 55.5t24.5 77q0 33 -38 58t-107 25q-44 0 -93.5 -19t-92 -51t-70.5 -74t-28 -89q0 -43 19 -74.5t50.5 -52t71.5 -30.5t81 -10q63 0 120 18.5t108 51t96 76.5t84 94t71 103.5 t58 105.5l20.5 45.5l33.5 73.5l40.5 86t42.5 83t39 64t30 30q6 2 9 2q7 0 7 -5q-6 -14 -12.5 -35t-11.5 -47t-8.5 -55t-3.5 -58q0 -13 -1 -41.5t-3.5 -68t-7 -86t-12.5 -95t-20 -95t-28 -85.5q-11 -28 -29 -64t-30 -64q10 7 26 26t31.5 41l29 41.5t18.5 28.5 q58 99 107.5 202.5t97.5 216.5q4 11 16 36t28.5 55.5t37.5 63.5t44 60t47 44.5t47 17.5q22 0 42 -19.5t37 -65.5h-12z" />
<glyph unicode="&#xd2;" horiz-adv-x="649" d="M596 903q-16 5 -34.5 15.5t-36.5 24.5t-32 31.5t-21 36.5l35 24q8 -32 35 -64.5t66 -57.5zM-13 408q0 78 25.5 136t66.5 96.5t93 58t106 19.5q84 70 177.5 112.5t184.5 42.5h23.5t15.5 -1l-2 -13q-9 1 -17.5 1h-16.5q-98 0 -181.5 -39t-150.5 -105q59 -6 109 -35 q41 29 84 45.5t85 16.5q37 0 63.5 -16t43.5 -41.5t24.5 -57t7.5 -63.5q0 -59 -19.5 -125.5t-54.5 -132.5t-82.5 -126t-103 -106t-117 -73.5t-123.5 -27.5q-55 0 -94 28t-64 70.5t-36.5 93.5t-11.5 97q0 57 18.5 116.5t50.5 117t76.5 111t97.5 99.5q-49 -4 -96.5 -25.5 t-85 -59t-61 -91.5t-23.5 -124zM411 674q-48 30 -109 33q-53 -53 -95 -118.5t-70.5 -136t-43.5 -142t-15 -137.5q0 -33 7.5 -66t25.5 -60t48.5 -43.5t77.5 -16.5q53 0 109 26t109 69.5t100 102t82 123.5t55.5 133t20.5 131q0 28 -7 56.5t-21.5 51t-37.5 36.5t-55 14 q-39 0 -77 -17t-73 -46q43 -32 69.5 -81.5t26.5 -118.5q0 -45 -13.5 -87.5t-38 -76t-60 -54t-79.5 -20.5q-33 0 -55 11.5t-35.5 31t-19.5 44t-6 51.5q0 41 14 83.5t38.5 83t57 76.5t70.5 64zM502 491q0 57 -19 98.5t-51 68.5q-36 -32 -67 -72t-53.5 -82.5t-35 -83.5 t-12.5 -75q0 -42 20.5 -72.5t59.5 -30.5q31 0 59.5 22t50.5 57.5t35 80t13 89.5z" />
<glyph unicode="&#xd3;" horiz-adv-x="649" d="M-13 408q0 78 25.5 136t66.5 96.5t93 58t106 19.5q84 70 177.5 112.5t184.5 42.5h23.5t15.5 -1l-2 -13q-9 1 -17.5 1h-16.5q-98 0 -181.5 -39t-150.5 -105q59 -6 109 -35q41 29 84 45.5t85 16.5q37 0 63.5 -16t43.5 -41.5t24.5 -57t7.5 -63.5q0 -59 -19.5 -125.5 t-54.5 -132.5t-82.5 -126t-103 -106t-117 -73.5t-123.5 -27.5q-55 0 -94 28t-64 70.5t-36.5 93.5t-11.5 97q0 57 18.5 116.5t50.5 117t76.5 111t97.5 99.5q-49 -4 -96.5 -25.5t-85 -59t-61 -91.5t-23.5 -124zM411 674q-48 30 -109 33q-53 -53 -95 -118.5t-70.5 -136 t-43.5 -142t-15 -137.5q0 -33 7.5 -66t25.5 -60t48.5 -43.5t77.5 -16.5q53 0 109 26t109 69.5t100 102t82 123.5t55.5 133t20.5 131q0 28 -7 56.5t-21.5 51t-37.5 36.5t-55 14q-39 0 -77 -17t-73 -46q43 -32 69.5 -81.5t26.5 -118.5q0 -45 -13.5 -87.5t-38 -76t-60 -54 t-79.5 -20.5q-33 0 -55 11.5t-35.5 31t-19.5 44t-6 51.5q0 41 14 83.5t38.5 83t57 76.5t70.5 64zM502 491q0 57 -19 98.5t-51 68.5q-36 -32 -67 -72t-53.5 -82.5t-35 -83.5t-12.5 -75q0 -42 20.5 -72.5t59.5 -30.5q31 0 59.5 22t50.5 57.5t35 80t13 89.5zM507 913 q39 25 66 57.5t35 64.5l35 -24q-7 -19 -21 -36.5t-32 -31.5t-36.5 -24.5t-34.5 -15.5z" />
<glyph unicode="&#xd4;" horiz-adv-x="649" d="M-13 408q0 78 25.5 136t66.5 96.5t93 58t106 19.5q84 70 177.5 112.5t184.5 42.5h23.5t15.5 -1l-2 -13q-9 1 -17.5 1h-16.5q-98 0 -181.5 -39t-150.5 -105q59 -6 109 -35q41 29 84 45.5t85 16.5q37 0 63.5 -16t43.5 -41.5t24.5 -57t7.5 -63.5q0 -59 -19.5 -125.5 t-54.5 -132.5t-82.5 -126t-103 -106t-117 -73.5t-123.5 -27.5q-55 0 -94 28t-64 70.5t-36.5 93.5t-11.5 97q0 57 18.5 116.5t50.5 117t76.5 111t97.5 99.5q-49 -4 -96.5 -25.5t-85 -59t-61 -91.5t-23.5 -124zM411 674q-48 30 -109 33q-53 -53 -95 -118.5t-70.5 -136 t-43.5 -142t-15 -137.5q0 -33 7.5 -66t25.5 -60t48.5 -43.5t77.5 -16.5q53 0 109 26t109 69.5t100 102t82 123.5t55.5 133t20.5 131q0 28 -7 56.5t-21.5 51t-37.5 36.5t-55 14q-39 0 -77 -17t-73 -46q43 -32 69.5 -81.5t26.5 -118.5q0 -45 -13.5 -87.5t-38 -76t-60 -54 t-79.5 -20.5q-33 0 -55 11.5t-35.5 31t-19.5 44t-6 51.5q0 41 14 83.5t38.5 83t57 76.5t70.5 64zM502 491q0 57 -19 98.5t-51 68.5q-36 -32 -67 -72t-53.5 -82.5t-35 -83.5t-12.5 -75q0 -42 20.5 -72.5t59.5 -30.5q31 0 59.5 22t50.5 57.5t35 80t13 89.5zM655 1029l54 -104 l-19 -9l-43 70l-111 -75l-15 15l129 103h5z" />
<glyph unicode="&#xd5;" horiz-adv-x="649" d="M-13 408q0 78 25.5 136t66.5 96.5t93 58t106 19.5q84 70 177.5 112.5t184.5 42.5h23.5t15.5 -1l-2 -13q-9 1 -17.5 1h-16.5q-98 0 -181.5 -39t-150.5 -105q59 -6 109 -35q41 29 84 45.5t85 16.5q37 0 63.5 -16t43.5 -41.5t24.5 -57t7.5 -63.5q0 -59 -19.5 -125.5 t-54.5 -132.5t-82.5 -126t-103 -106t-117 -73.5t-123.5 -27.5q-55 0 -94 28t-64 70.5t-36.5 93.5t-11.5 97q0 57 18.5 116.5t50.5 117t76.5 111t97.5 99.5q-49 -4 -96.5 -25.5t-85 -59t-61 -91.5t-23.5 -124zM411 674q-48 30 -109 33q-53 -53 -95 -118.5t-70.5 -136 t-43.5 -142t-15 -137.5q0 -33 7.5 -66t25.5 -60t48.5 -43.5t77.5 -16.5q53 0 109 26t109 69.5t100 102t82 123.5t55.5 133t20.5 131q0 28 -7 56.5t-21.5 51t-37.5 36.5t-55 14q-39 0 -77 -17t-73 -46q43 -32 69.5 -81.5t26.5 -118.5q0 -45 -13.5 -87.5t-38 -76t-60 -54 t-79.5 -20.5q-33 0 -55 11.5t-35.5 31t-19.5 44t-6 51.5q0 41 14 83.5t38.5 83t57 76.5t70.5 64zM502 491q0 57 -19 98.5t-51 68.5q-36 -32 -67 -72t-53.5 -82.5t-35 -83.5t-12.5 -75q0 -42 20.5 -72.5t59.5 -30.5q31 0 59.5 22t50.5 57.5t35 80t13 89.5zM504 935 q5 17 22.5 32.5t41.5 15.5q12 0 24.5 -4.5t25 -10.5t24.5 -10.5t23 -4.5q17 0 25.5 12l14.5 20l16 -8q-5 -17 -21.5 -34t-42.5 -17q-12 0 -24.5 4.5t-25 10t-24.5 10t-23 4.5q-16 0 -24.5 -10.5l-14.5 -18.5z" />
<glyph unicode="&#xd6;" horiz-adv-x="649" d="M-13 408q0 78 25.5 136t66.5 96.5t93 58t106 19.5q84 70 177.5 112.5t184.5 42.5h23.5t15.5 -1l-2 -13q-9 1 -17.5 1h-16.5q-98 0 -181.5 -39t-150.5 -105q59 -6 109 -35q41 29 84 45.5t85 16.5q37 0 63.5 -16t43.5 -41.5t24.5 -57t7.5 -63.5q0 -59 -19.5 -125.5 t-54.5 -132.5t-82.5 -126t-103 -106t-117 -73.5t-123.5 -27.5q-55 0 -94 28t-64 70.5t-36.5 93.5t-11.5 97q0 57 18.5 116.5t50.5 117t76.5 111t97.5 99.5q-49 -4 -96.5 -25.5t-85 -59t-61 -91.5t-23.5 -124zM411 674q-48 30 -109 33q-53 -53 -95 -118.5t-70.5 -136 t-43.5 -142t-15 -137.5q0 -33 7.5 -66t25.5 -60t48.5 -43.5t77.5 -16.5q53 0 109 26t109 69.5t100 102t82 123.5t55.5 133t20.5 131q0 28 -7 56.5t-21.5 51t-37.5 36.5t-55 14q-39 0 -77 -17t-73 -46q43 -32 69.5 -81.5t26.5 -118.5q0 -45 -13.5 -87.5t-38 -76t-60 -54 t-79.5 -20.5q-33 0 -55 11.5t-35.5 31t-19.5 44t-6 51.5q0 41 14 83.5t38.5 83t57 76.5t70.5 64zM502 491q0 57 -19 98.5t-51 68.5q-36 -32 -67 -72t-53.5 -82.5t-35 -83.5t-12.5 -75q0 -42 20.5 -72.5t59.5 -30.5q31 0 59.5 22t50.5 57.5t35 80t13 89.5zM621 937 q0 16 12 31t29 15q12 0 20 -8.5t8 -20.5q0 -16 -12 -31t-28 -15q-12 0 -20.5 8.5t-8.5 20.5zM501 937q0 16 12 31t29 15q12 0 20 -8.5t8 -20.5q0 -16 -12.5 -31t-28.5 -15q-12 0 -20 8.5t-8 20.5z" />
<glyph unicode="&#xd8;" horiz-adv-x="649" d="M156 -10q-35 16 -60.5 46.5t-42 68.5t-24 79t-7.5 79q0 57 18.5 116.5t50.5 117t76.5 111t97.5 99.5q-49 -4 -96.5 -25.5t-85 -59t-61 -91.5t-23.5 -124l-12 1q0 78 25.5 136t66.5 96.5t93 58t106 19.5q84 70 177.5 112.5t184.5 42.5h23.5t15.5 -1l-2 -13q-9 1 -17.5 1 h-16.5q-98 0 -181.5 -39t-150.5 -105q59 -6 109 -35q38 26 78 42.5t78 18.5l41 74h23l-41 -73q34 -2 58.5 -18.5t40.5 -42t23 -56t7 -61.5q0 -59 -19.5 -125.5t-54.5 -132.5t-82.5 -126t-103 -106t-117 -73.5t-123.5 -27.5q-15 0 -28.5 2.5t-26.5 6.5l-40 -72h-21zM713 572 q0 28 -7 56.5t-21.5 51t-37.5 36.5t-55 14l-81 -144q13 -26 20 -55t7 -64q0 -45 -13.5 -87.5t-38 -76t-60 -54t-79.5 -20.5q-21 0 -34 4l-133 -237q24 -9 57 -9q53 0 109 26t109 69.5t100 102t82 123.5t55.5 133t20.5 131zM411 674q-48 30 -109 33q-53 -53 -95 -118.5 t-70.5 -136t-43.5 -142t-15 -137.5q0 -25 4 -50.5t14 -48.5t26.5 -41.5t40.5 -30.5l132 237q-35 16 -49.5 51t-14.5 77q0 41 14 83.5t38.5 83t57 76.5t70.5 64zM486 581q-18 47 -54 77q-36 -32 -67 -72t-53.5 -82.5t-35 -83.5t-12.5 -75q0 -29 9.5 -53.5t29.5 -38.5z M502 491q0 18 -2 34t-6 31l-174 -311q10 -3 24 -3q31 0 59.5 22t50.5 57.5t35 80t13 89.5zM568 728q-33 -5 -64.5 -21t-61.5 -40q35 -26 58 -62z" />
<glyph unicode="&#xe0;" d="M104 188h61q25 30 41 53q-13 -6 -24 -10t-24 -4q-29 0 -45 16q-10 -17 -22.5 -35.5l-26.5 -38.5l-7 5l27 40t23 37q-8 12 -8 33q0 22 8.5 42.5t30.5 20.5q11 0 14.5 -10.5t3.5 -18.5t-3.5 -18t-8.5 -19t-11 -16.5t-11 -11.5q8 -11 18 -12.5t22 -1.5q24 0 47.5 13t31.5 36 q0 4 -0.5 8.5t-0.5 9.5q0 10 3.5 18.5t15.5 8.5q2 0 6.5 -3.5t4.5 -14.5q0 -9 -6.5 -23t-18 -30.5t-26 -35.5t-30.5 -38h56l-5 -18h-66l-29.5 -35l-27.5 -32.5l-23.5 -28.5t-17.5 -23q93 -68 192.5 -133.5t203.5 -116.5t213.5 -82.5t222.5 -31.5q47 0 86.5 8t68 24t44.5 41 t16 59q0 13 -1.5 20.5t-3.5 12.5l7 2q4 -6 7 -16.5t3 -27.5q0 -33 -13 -62.5t-41 -52.5t-70.5 -36.5t-102.5 -13.5q-76 0 -153 18.5t-153 49.5t-149 71.5t-141 84.5t-129.5 88l-113.5 83q3 -11 3 -23q0 -17 -6.5 -29.5t-22.5 -12.5q-8 0 -10.5 6t-2.5 12q0 15 11 35 t28.5 43.5t38.5 49l42 49.5h-51zM203 370l-54 104l19 9l43 -70l111 75l15 -15l-129 -103h-5z" />
<glyph unicode="&#xe1;" d="M104 188h61q25 30 41 53q-13 -6 -24 -10t-24 -4q-29 0 -45 16q-10 -17 -22.5 -35.5l-26.5 -38.5l-7 5l27 40t23 37q-8 12 -8 33q0 22 8.5 42.5t30.5 20.5q11 0 14.5 -10.5t3.5 -18.5t-3.5 -18t-8.5 -19t-11 -16.5t-11 -11.5q8 -11 18 -12.5t22 -1.5q24 0 47.5 13t31.5 36 q0 4 -0.5 8.5t-0.5 9.5q0 10 3.5 18.5t15.5 8.5q2 0 6.5 -3.5t4.5 -14.5q0 -9 -6.5 -23t-18 -30.5t-26 -35.5t-30.5 -38h56l-5 -18h-66l-29.5 -35l-27.5 -32.5l-23.5 -28.5t-17.5 -23q93 -68 192.5 -133.5t203.5 -116.5t213.5 -82.5t222.5 -31.5q47 0 86.5 8t68 24t44.5 41 t16 59q0 13 -1.5 20.5t-3.5 12.5l7 2q4 -6 7 -16.5t3 -27.5q0 -33 -13 -62.5t-41 -52.5t-70.5 -36.5t-102.5 -13.5q-76 0 -153 18.5t-153 49.5t-149 71.5t-141 84.5t-129.5 88l-113.5 83q3 -11 3 -23q0 -17 -6.5 -29.5t-22.5 -12.5q-8 0 -10.5 6t-2.5 12q0 15 11 35 t28.5 43.5t38.5 49l42 49.5h-51zM192 377q39 25 66 57.5t35 64.5l35 -24q-7 -19 -21 -36.5t-32 -31.5t-36.5 -24.5t-34.5 -15.5z" />
<glyph unicode="&#xe2;" d="M189 404q0 16 12 31t29 15q12 0 20 -8.5t8 -20.5q0 -16 -12.5 -31t-28.5 -15q-12 0 -20 8.5t-8 20.5zM104 188h61q25 30 41 53q-13 -6 -24 -10t-24 -4q-29 0 -45 16q-10 -17 -22.5 -35.5l-26.5 -38.5l-7 5l27 40t23 37q-8 12 -8 33q0 22 8.5 42.5t30.5 20.5 q11 0 14.5 -10.5t3.5 -18.5t-3.5 -18t-8.5 -19t-11 -16.5t-11 -11.5q8 -11 18 -12.5t22 -1.5q24 0 47.5 13t31.5 36q0 4 -0.5 8.5t-0.5 9.5q0 10 3.5 18.5t15.5 8.5q2 0 6.5 -3.5t4.5 -14.5q0 -9 -6.5 -23t-18 -30.5t-26 -35.5t-30.5 -38h56l-5 -18h-66l-29.5 -35 l-27.5 -32.5l-23.5 -28.5t-17.5 -23q93 -68 192.5 -133.5t203.5 -116.5t213.5 -82.5t222.5 -31.5q47 0 86.5 8t68 24t44.5 41t16 59q0 13 -1.5 20.5t-3.5 12.5l7 2q4 -6 7 -16.5t3 -27.5q0 -33 -13 -62.5t-41 -52.5t-70.5 -36.5t-102.5 -13.5q-76 0 -153 18.5t-153 49.5 t-149 71.5t-141 84.5t-129.5 88l-113.5 83q3 -11 3 -23q0 -17 -6.5 -29.5t-22.5 -12.5q-8 0 -10.5 6t-2.5 12q0 15 11 35t28.5 43.5t38.5 49l42 49.5h-51z" />
<glyph unicode="&#xe3;" d="M203 370l-54 104l19 9l43 -70l111 75l15 -15l-129 -103h-5zM30 -7q0 21 21 52.5t50 66.5l58.5 69t46.5 60q-13 -6 -24 -10t-24 -4q-29 0 -45 16q-10 -17 -22.5 -35.5l-26.5 -38.5l-7 5l27 40t23 37q-8 12 -8 33q0 22 8.5 42.5t30.5 20.5q11 0 14.5 -10.5t3.5 -18.5 t-3.5 -18t-8.5 -19t-11 -16.5t-11 -11.5q8 -11 18 -12.5t22 -1.5q24 0 47.5 13t31.5 36q0 4 -0.5 8.5t-0.5 9.5q0 10 3.5 18.5t15.5 8.5q2 0 6.5 -3.5t4.5 -14.5q0 -13 -12.5 -34.5t-32 -47.5t-43 -53.5l-45 -52.5l-38.5 -45.5t-23 -30.5q93 -68 192.5 -133.5t203.5 -116.5 t213.5 -82.5t222.5 -31.5q47 0 86.5 8t68 24t44.5 41t16 59q0 13 -1.5 20.5t-3.5 12.5l7 2q4 -6 7 -16.5t3 -27.5q0 -33 -13 -62.5t-41 -52.5t-70.5 -36.5t-102.5 -13.5q-76 0 -153 18.5t-153 49.5t-149 71.5t-141 84.5t-129.5 88l-113.5 83q3 -11 3 -23q0 -17 -6.5 -29.5 t-22.5 -12.5q-8 0 -10.5 6t-2.5 12z" />
<glyph unicode="&#xe4;" d="M192 377q39 25 66 57.5t35 64.5l35 -24q-7 -19 -21 -36.5t-32 -31.5t-36.5 -24.5t-34.5 -15.5zM30 -7q0 21 21 52.5t50 66.5l58.5 69t46.5 60q-13 -6 -24 -10t-24 -4q-29 0 -45 16q-10 -17 -22.5 -35.5l-26.5 -38.5l-7 5l27 40t23 37q-8 12 -8 33q0 22 8.5 42.5 t30.5 20.5q11 0 14.5 -10.5t3.5 -18.5t-3.5 -18t-8.5 -19t-11 -16.5t-11 -11.5q8 -11 18 -12.5t22 -1.5q24 0 47.5 13t31.5 36q0 4 -0.5 8.5t-0.5 9.5q0 10 3.5 18.5t15.5 8.5q2 0 6.5 -3.5t4.5 -14.5q0 -13 -12.5 -34.5t-32 -47.5t-43 -53.5l-45 -52.5l-38.5 -45.5 t-23 -30.5q93 -68 192.5 -133.5t203.5 -116.5t213.5 -82.5t222.5 -31.5q47 0 86.5 8t68 24t44.5 41t16 59q0 13 -1.5 20.5t-3.5 12.5l7 2q4 -6 7 -16.5t3 -27.5q0 -33 -13 -62.5t-41 -52.5t-70.5 -36.5t-102.5 -13.5q-76 0 -153 18.5t-153 49.5t-149 71.5t-141 84.5 t-129.5 88l-113.5 83q3 -11 3 -23q0 -17 -6.5 -29.5t-22.5 -12.5q-8 0 -10.5 6t-2.5 12z" />
<glyph unicode="&#xe5;" d="M30 -7q0 21 21 52.5t50 66.5l58.5 69t46.5 60q-13 -6 -24 -10t-24 -4q-29 0 -45 16q-10 -17 -22.5 -35.5l-26.5 -38.5l-7 5l27 40t23 37q-8 12 -8 33q0 22 8.5 42.5t30.5 20.5q11 0 14.5 -10.5t3.5 -18.5t-3.5 -18t-8.5 -19t-11 -16.5t-11 -11.5q8 -11 18 -12.5t22 -1.5 q24 0 47.5 13t31.5 36q0 4 -0.5 8.5t-0.5 9.5q0 10 3.5 18.5t15.5 8.5q2 0 6.5 -3.5t4.5 -14.5q0 -13 -12.5 -34.5t-32 -47.5t-43 -53.5l-45 -52.5l-38.5 -45.5t-23 -30.5q93 -68 192.5 -133.5t203.5 -116.5t213.5 -82.5t222.5 -31.5q47 0 86.5 8t68 24t44.5 41t16 59 q0 13 -1.5 20.5t-3.5 12.5l7 2q4 -6 7 -16.5t3 -27.5q0 -33 -13 -62.5t-41 -52.5t-70.5 -36.5t-102.5 -13.5q-76 0 -153 18.5t-153 49.5t-149 71.5t-141 84.5t-129.5 88l-113.5 83q3 -11 3 -23q0 -17 -6.5 -29.5t-22.5 -12.5q-8 0 -10.5 6t-2.5 12zM189 404q0 16 12 31 t29 15q12 0 20 -8.5t8 -20.5q0 -16 -12.5 -31t-28.5 -15q-12 0 -20 8.5t-8 20.5z" />
<glyph unicode="&#xe9;" horiz-adv-x="404" d="M53 565h126l51 166h52l-51 -166h129l-4 -26h-133l-141 -464l53.5 88t57.5 82t55.5 61t47.5 24q10 0 18.5 -7t13.5 -17t8 -21t3 -20q0 -33 -11.5 -73t-26 -77.5l-26 -67.5t-11.5 -42q0 -17 13 -17q11 0 34 18t50.5 46.5t57 64.5t53.5 71l7 -6q-29 -41 -59 -78t-57 -66 t-49.5 -46t-35.5 -17t-22 8.5t-14.5 21t-8 27t-2.5 26.5q0 22 11.5 59t25.5 73.5l25.5 67t11.5 39.5q0 15 -11 15q-17 0 -44.5 -26t-59 -67.5t-63.5 -92t-59 -98.5l-12 -38h-51l166 549h-121z" />
<glyph unicode="&#xea;" horiz-adv-x="404" d="M302 905l54 -104l-19 -9l-43 70l-111 -75l-15 15l129 103h5zM479 182q-29 -41 -59 -78t-57 -66t-49.5 -46t-35.5 -17t-22 8.5t-14.5 21t-8 27t-2.5 26.5q0 22 11.5 59t25.5 73.5l25.5 67t11.5 39.5q0 15 -11 15q-17 0 -44.5 -26t-59 -67.5t-63.5 -92t-59 -98.5l-12 -38 h-51l225 741h52l-200 -656l53.5 88t57.5 82t55.5 61t47.5 24q10 0 18.5 -7t13.5 -17t8 -21t3 -20q0 -33 -11.5 -73t-26 -77.5l-26 -67.5t-11.5 -42q0 -17 13 -17q11 0 34 18t50.5 46.5t57 64.5t53.5 71z" />
<glyph unicode="&#xed;" horiz-adv-x="136" d="M149 305q-47 -167 -93.5 -285t-94.5 -192.5t-99 -109t-108 -34.5q-38 0 -73.5 15.5t-65.5 60.5l2 11q16 -24 33 -39.5t34 -23.5t33.5 -11t32.5 -3q52 0 95 33t83 106t81 189t88 283h52z" />
<glyph unicode="&#xee;" horiz-adv-x="136" d="M149 305q-47 -167 -93.5 -285t-94.5 -192.5t-99 -109t-108 -34.5q-38 0 -73.5 15.5t-65.5 60.5l2 11q16 -24 33 -39.5t34 -23.5t33.5 -11t32.5 -3q52 0 95 33t83 106t81 189t88 283h52zM169 502l54 -104l-19 -9l-43 70l-111 -75l-15 15l129 103h5z" />
<glyph unicode="&#xf1;" horiz-adv-x="404" d="M52 -159q38 13 51.5 38.5t13.5 69.5q0 31 11.5 46t24.5 15q9 0 16 -8t7 -24t-8.5 -38t-23.5 -44t-36.5 -39.5t-47.5 -24.5zM479 182q-29 -41 -59 -78t-57 -66t-49.5 -46t-35.5 -17t-22 8.5t-14.5 21t-8 27t-2.5 26.5q0 14 4.5 26t10 22t10 16.5t4.5 9.5q0 28 -11 28 t-17.5 -2.5t-11.5 -5t-9.5 -5t-9.5 -2.5q-6 0 -9.5 3.5t-3.5 8.5q0 6 5.5 14t15.5 8q8 0 14 -1t13 -1q14 0 22.5 7t16.5 20l6.5 12.5t11.5 24t10.5 28.5t4.5 26q0 17 -14 17q-26 0 -54.5 -19.5t-56.5 -53.5t-54.5 -80t-50.5 -99l-22 -72h-51l225 743h52l-185 -607 q21 43 44.5 80.5t49 65.5t52 44t53.5 16q10 0 18.5 -7t13.5 -17t8 -21t3 -20q0 -11 -1 -21.5t-8 -22.5t-21 -25t-39 -29q14 -6 19 -17.5t5 -26.5q0 -17 -4.5 -35.5t-10.5 -35l-10.5 -29.5t-4.5 -18q0 -17 13 -17q11 0 34 18t50.5 46.5t57 64.5t53.5 71z" />
<glyph unicode="&#xf2;" horiz-adv-x="206" d="M124 230l-23 -80t-18.5 -68.5t-12 -52t-4.5 -31.5q0 -4 1.5 -7.5t9.5 -3.5q12 0 35.5 18.5t51.5 47.5t57.5 64.5t53.5 70.5l6 -5q-25 -36 -54.5 -73t-57 -67t-51 -49t-36.5 -19q-30 0 -40 29.5t-10 72.5q0 8 10 45t27 92l-61 -17l6 26l63 18l40 132.5l43 140l39 126.5 t27 91h52l-26.5 -87.5l-36.5 -118l-42 -134l-41 -134.5l55 16l-6 -26z" />
<glyph unicode="&#xf3;" horiz-adv-x="206" d="M279 445q38 13 51.5 38.5t13.5 69.5q0 31 11.5 46t24.5 15q9 0 16 -8t7 -24t-8.5 -38t-23.5 -44t-36.5 -39.5t-47.5 -24.5zM281 183q-25 -36 -54.5 -73t-57 -67t-51 -49t-36.5 -19q-30 0 -40 29.5t-10 72.5q0 8 11.5 50t30 103.5l41 134.5l44 143l39.5 129.5l28 93.5h52 q-11 -39 -31 -103l-43.5 -140l-48 -155.5l-44.5 -148t-32.5 -119t-12.5 -67.5q0 -4 1.5 -7.5t9.5 -3.5q12 0 35.5 18.5t51.5 47.5t57.5 64.5t53.5 70.5z" />
<glyph unicode="&#xf4;" horiz-adv-x="206" d="M231 836q39 25 66 57.5t35 64.5l35 -24q-7 -19 -21 -36.5t-32 -31.5t-36.5 -24.5t-34.5 -15.5zM281 183q-25 -36 -54.5 -73t-57 -67t-51 -49t-36.5 -19q-30 0 -40 29.5t-10 72.5q0 8 11.5 50t30 103.5l41 134.5l44 143l39.5 129.5l28 93.5h52q-11 -39 -31 -103 l-43.5 -140l-48 -155.5l-44.5 -148t-32.5 -119t-12.5 -67.5q0 -4 1.5 -7.5t9.5 -3.5q12 0 35.5 18.5t51.5 47.5t57.5 64.5t53.5 70.5z" />
<glyph unicode="&#xf5;" horiz-adv-x="206" d="M281 183q-25 -36 -54.5 -73t-57 -67t-51 -49t-36.5 -19q-30 0 -40 29.5t-10 72.5q0 8 11.5 50t30 103.5l41 134.5l44 143l39.5 129.5l28 93.5h52q-11 -39 -31 -103l-43.5 -140l-48 -155.5l-44.5 -148t-32.5 -119t-12.5 -67.5q0 -4 1.5 -7.5t9.5 -3.5q12 0 35.5 18.5 t51.5 47.5t57.5 64.5t53.5 70.5zM-15 -235q38 13 51.5 38.5t13.5 69.5q0 31 11.5 46t24.5 15q9 0 16 -8t7 -24t-8.5 -38t-23.5 -44t-36.5 -39.5t-47.5 -24.5z" />
<glyph unicode="&#xfd;" horiz-adv-x="322" d="M234 143q-21 -30 -44.5 -60t-45.5 -54t-40.5 -39t-28.5 -15q-17 0 -27 8.5t-15 23.5t-6.5 34.5t-1.5 40.5q0 4 5 23l13.5 49l20 68.5l25.5 82.5h52q-38 -121 -60 -199t-22 -108q0 -4 1.5 -7.5t9.5 -3.5q20 0 66.5 48.5t106.5 137.5l40 132h52l-87 -280 q-23 -75 -54.5 -147t-71.5 -128.5t-90 -91t-111 -34.5q-38 0 -73.5 15.5t-65.5 60.5l2 11q16 -24 33 -39.5t34 -23.5t33.5 -11t32.5 -3q57 0 99.5 35t75.5 90.5t58 125.5t47 141zM186 394q39 25 66 57.5t35 64.5l35 -24q-7 -19 -21 -36.5t-32 -31.5t-36.5 -24.5t-34.5 -15.5 z" />
<glyph unicode="&#xfe;" horiz-adv-x="440" d="M133 281q-12 -25 -29 -52.5t-40 -59.5l-7 5q16 21 32.5 48t30 53t23 46.5t12.5 28.5l119 382h57l-207 -661l52.5 89t55.5 83.5t53.5 62t46.5 24.5q10 0 18.5 -7t13.5 -17t8 -21t3 -20q0 -33 -11.5 -73t-26 -77.5l-26 -67.5t-11.5 -42q0 -17 13 -17q11 0 34 18t50.5 46.5 t57 64.5t53.5 71l7 -6q-29 -41 -59 -78t-57 -66t-49.5 -46t-35.5 -17t-22 8.5t-14.5 21t-8 27t-2.5 26.5q0 22 11.5 59t25.5 73.5l25.5 67t11.5 39.5q0 15 -11 15q-18 0 -44.5 -26.5t-56.5 -68.5t-61 -93t-58 -100q-26 -95 -60.5 -169t-76.5 -125.5t-90 -78.5t-100 -27 q-38 0 -73.5 15.5t-65.5 60.5l2 11q16 -24 33 -39.5t34 -23.5t33.5 -11t32.5 -3q31 0 58 11t53.5 38t53 74t55.5 119t62 171.5t72 233.5z" />
<glyph unicode="&#xff;" horiz-adv-x="322" d="M234 143q-21 -30 -44.5 -60t-45.5 -54t-40.5 -39t-28.5 -15q-17 0 -27 8.5t-15 23.5t-6.5 34.5t-1.5 40.5q0 4 5 23l13.5 49l20 68.5l25.5 82.5h52q-38 -121 -60 -199t-22 -108q0 -4 1.5 -7.5t9.5 -3.5q20 0 66.5 48.5t106.5 137.5l40 132h52l-87 -280 q-23 -75 -54.5 -147t-71.5 -128.5t-90 -91t-111 -34.5q-38 0 -73.5 15.5t-65.5 60.5l2 11q16 -24 33 -39.5t34 -23.5t33.5 -11t32.5 -3q57 0 99.5 35t75.5 90.5t58 125.5t47 141zM252 414q0 16 12 31t29 15q12 0 20 -8.5t8 -20.5q0 -16 -12 -31t-28 -15q-12 0 -20.5 8.5 t-8.5 20.5zM132 414q0 16 12 31t29 15q12 0 20 -8.5t8 -20.5q0 -16 -12.5 -31t-28.5 -15q-12 0 -20 8.5t-8 20.5z" />
<glyph unicode="&#x152;" horiz-adv-x="1095" d="M-13 408q0 78 25.5 136t66.5 96.5t93 58t106 19.5q84 70 177.5 112.5t184.5 42.5h23.5t15.5 -1l-2 -13q-9 1 -17.5 1h-16.5q-98 0 -181.5 -39t-150.5 -105q59 -6 109 -35q41 29 84 45.5t85 16.5q37 0 63.5 -16t43.5 -41.5t24.5 -57t7.5 -63.5q0 -51 -14 -106t-40 -111 q40 39 89 71t95 53q-21 17 -34 43t-13 59q0 24 16 53t42 59t59 57.5t67.5 49.5t67.5 35t59 13q23 0 38.5 -12t15.5 -37q0 -33 -19.5 -65t-52.5 -62.5t-77 -58t-93 -50.5l-4 13q49 25 91.5 53.5t74 57.5t49.5 56.5t18 50.5q0 15 -11 24t-25 9q-28 0 -59 -14t-60.5 -37 t-56.5 -52.5t-47.5 -61.5t-32.5 -63.5t-12 -57.5q0 -18 4.5 -31.5t12.5 -22.5q59 25 93 25q26 0 35.5 -10.5t9.5 -22.5q0 -11 -5.5 -17.5t-14 -11t-18 -6t-16.5 -1.5q-24 0 -47.5 6.5t-43.5 20.5q-42 -23 -82.5 -60.5t-73 -81t-52 -89.5t-19.5 -87q0 -84 33 -128.5 t117 -44.5q58 0 108.5 27t88 66t59.5 82t22 75q0 21 -4 40.5t-13.5 35t-26 24.5t-41.5 9q-47 0 -87 -23t-70.5 -62t-51 -91.5t-27.5 -111.5l-17 7q4 66 23 120.5t50 94.5t74 62t95 22q27 0 47.5 -8.5t34 -23.5t20.5 -35t7 -42q0 -49 -23 -98.5t-63 -89.5t-94 -65t-116 -25 q-41 0 -77.5 14.5t-64.5 41.5t-44 66t-16 88q0 8 0.5 15t1.5 15q-36 -48 -78 -90t-88 -72.5t-95 -48t-98 -17.5q-55 0 -94 28t-64 70.5t-36.5 93.5t-11.5 97q0 57 18.5 116.5t50.5 117t76.5 111t97.5 99.5q-49 -4 -96.5 -25.5t-85 -59t-61 -91.5t-23.5 -124zM411 674 q-48 30 -109 33q-53 -53 -95 -118.5t-70.5 -136t-43.5 -142t-15 -137.5q0 -33 7.5 -66t25.5 -60t48.5 -43.5t77.5 -16.5q53 0 109 26t109 69.5t100 102t82 123.5t55.5 133t20.5 131q0 28 -7 56.5t-21.5 51t-37.5 36.5t-55 14q-39 0 -77 -17t-73 -46q43 -32 69.5 -81.5 t26.5 -118.5q0 -45 -13.5 -87.5t-38 -76t-60 -54t-79.5 -20.5q-33 0 -55 11.5t-35.5 31t-19.5 44t-6 51.5q0 41 14 83.5t38.5 83t57 76.5t70.5 64zM502 491q0 57 -19 98.5t-51 68.5q-36 -32 -67 -72t-53.5 -82.5t-35 -83.5t-12.5 -75q0 -42 20.5 -72.5t59.5 -30.5 q31 0 59.5 22t50.5 57.5t35 80t13 89.5zM966 493q-20 0 -40 -5.5t-42 -16.5q18 -16 39 -19.5t31 -3.5q47 0 47 22q0 23 -35 23z" />
<glyph unicode="&#x153;" horiz-adv-x="555" d="M413 242q15 53 34.5 113.5t43.5 119t53 112.5t62.5 95t71 65.5t80.5 24.5q38 0 73.5 -15.5t65.5 -60.5l-2 -11q-16 24 -33 39.5t-34 23.5t-33.5 11t-32.5 3q-43 0 -86.5 -45.5t-86 -127.5t-83.5 -195t-78 -248q5 -10 14.5 -23t20.5 -24t21.5 -19t16.5 -8q18 0 35 12.5 t33 30.5t29.5 38l24.5 35l6 -5l-23.5 -32.5t-31.5 -40.5t-35.5 -34.5t-35.5 -14.5q-12 0 -24.5 9t-24 20.5t-20 23t-11.5 16.5q-17 -52 -37.5 -109t-45.5 -111.5t-53.5 -103.5t-60.5 -86t-67.5 -59t-73.5 -22t-73.5 15.5t-65.5 60.5l2 11q16 -24 33 -39.5t34 -23.5t33.5 -11 t32.5 -3q29 0 59 23.5t58.5 63.5t56.5 93t52.5 111.5t46.5 119t39 115.5q-6 11 -12 30t-6 34q0 11 4 17.5t15 6.5q2 0 8.5 -5.5t8.5 -21.5q0 2 2 6zM199 -142l-10.5 -32t-8 -26.5t-5 -25t-1.5 -27.5q0 -47 22 -77t78 -30q16 0 34.5 3t40 11t47.5 23.5t57 39.5l-5 -11 q-57 -45 -101.5 -60.5t-82.5 -15.5q-37 0 -62 10t-40.5 28t-22 43t-6.5 55q0 39 16 95t37 122l33 103l-20 -30t-30 -37t-36.5 -31t-39.5 -13q-5 0 -15 6.5t-20 23.5t-18 45.5t-8 73.5q0 26 22 61.5t53 67.5t62.5 54.5t51.5 22.5q12 0 27 -16t21 -62l16 53h56zM255 244 q0 7 -1 18.5t-4.5 23t-9.5 20t-16 8.5q-23 0 -49 -29t-48 -69.5t-36.5 -83t-14.5 -70.5q0 -11 0.5 -23t3 -23t6.5 -18t11 -7q25 0 52.5 25.5t51 63.5t39 82t15.5 82z" />
<glyph unicode="&#x2000;" horiz-adv-x="526" />
<glyph unicode="&#x2001;" horiz-adv-x="1052" />
<glyph unicode="&#x2002;" horiz-adv-x="526" />
<glyph unicode="&#x2003;" horiz-adv-x="1052" />
<glyph unicode="&#x2004;" horiz-adv-x="350" />
<glyph unicode="&#x2005;" horiz-adv-x="263" />
<glyph unicode="&#x2006;" horiz-adv-x="175" />
<glyph unicode="&#x2007;" horiz-adv-x="175" />
<glyph unicode="&#x2008;" horiz-adv-x="131" />
<glyph unicode="&#x2009;" horiz-adv-x="210" />
<glyph unicode="&#x200a;" horiz-adv-x="58" />
<glyph unicode="&#x2013;" horiz-adv-x="500" d="M100 250v100h300v-100h-300z" />
<glyph unicode="&#x2014;" horiz-adv-x="1000" d="M100 250v100h800v-100h-800z" />
<glyph unicode="&#x202f;" horiz-adv-x="210" />
<glyph unicode="&#x205f;" horiz-adv-x="263" />
<glyph unicode="&#x2122;" horiz-adv-x="2183" d="M2122 298q20 -10 29 -31.5t9 -49.5q0 -37 -15.5 -80.5t-43 -80.5t-66.5 -61.5t-86 -24.5q-38 0 -65 15t-44 39.5t-25 56t-8 64.5q0 55 23.5 123t58.5 138.5t76 138.5l76 122l58.5 89t23.5 40t-6 5q-4 0 -7 -3q-43 -32 -90 -83.5t-95 -116t-95 -139t-90 -153t-80.5 -158.5 t-65.5 -155q-18 1 -28.5 13t-16 29.5t-7.5 37.5t-2 37q0 53 17 116t43.5 129.5t60.5 132t68.5 124t65.5 106t53 77.5q0 7 -5 7q-36 -15 -76 -60.5t-84 -110l-92.5 -142.5t-103 -156.5t-115.5 -152.5t-129 -131t-143.5 -92t-160.5 -35q-40 0 -82.5 10t-77.5 31.5t-57.5 56 t-22.5 83.5q0 64 27.5 113.5t70 83.5t94 51.5t100.5 17.5q33 0 62 -8t50.5 -25t34.5 -43t13 -61t-23 -66t-58.5 -54.5t-78.5 -37.5t-83 -14q-26 0 -48 6l6 20q21 -7 50 -7q36 0 74.5 11.5t71 32.5t53 51t20.5 66q0 47 -38 70t-93 23q-46 0 -96 -15.5t-92 -45.5t-69 -74.5 t-27 -101.5q0 -31 12.5 -59.5t39.5 -50t69 -34t101 -12.5q82 0 156.5 35t141.5 93.5t127 133t114.5 154.5l104 158t95 142.5t87.5 109t81 57.5q3 0 13 -2t10 -15q0 -7 -4 -16l-53.5 -105l-62 -127t-61.5 -138t-53.5 -140t-38 -132t-14.5 -114v-11.5t2 -10.5q23 64 61 145 t85.5 166t100.5 168.5t106 152t103 116t90 61.5q6 0 8 -6.5t2 -16.5q0 -6 -21 -45l-52.5 -98.5l-68.5 -133t-68.5 -149t-52.5 -146.5t-21 -125q0 -20 3 -41.5t11.5 -39.5t23.5 -29.5t39 -11.5q50 0 90 24.5t67.5 60.5t42 78t14.5 77q0 25 -7.5 43t-24.5 26zM237 -83 q67 24 112.5 75t77.5 118t56 145l49 157q16 53 34 102t41 93.5t52 84t68 72.5q-44 4 -92.5 9t-97 9.5t-93.5 7t-81 2.5q-51 0 -107 -16.5t-103 -48.5t-77.5 -78.5t-30.5 -105.5q0 -28 9 -53.5t28.5 -45t51 -31.5t76.5 -12q55 0 104 19t85.5 48.5t57.5 63.5t21 64 q0 29 -23 51.5t-71 22.5q-53 0 -105.5 -34t-116.5 -114l-6 11q40 54 74 83.5t62.5 44t51.5 17t42 2.5q43 0 73 -24t30 -69q0 -43 -20.5 -80.5t-56.5 -65.5t-84 -44t-103 -16q-38 0 -73 9t-61 28.5t-41.5 50t-15.5 73.5q0 45 18 84.5t48.5 72.5t71 59.5t85.5 44.5t91.5 27.5 t89.5 9.5q31 0 73.5 -3.5t91 -9l100 -11.5l100.5 -11.5t92 -9t75 -3.5q19 0 38.5 6.5t35.5 14.5l-2 -15q-33 -22 -76 -35t-86 -13q-15 0 -51.5 3.5l-85.5 8.5q-38 -38 -60 -76t-37 -80t-27 -90t-29 -104q-31 -104 -63.5 -187t-73 -146.5t-92.5 -106.5t-121 -67z" />
<glyph unicode="&#xe000;" horiz-adv-x="500" d="M0 0v0v0v0v0z" />
<glyph unicode="&#xfb01;" horiz-adv-x="631" d="M706 182q-29 -41 -59 -78t-57 -66t-49.5 -46t-35.5 -17t-22 8.5t-14.5 21t-8 27t-2.5 26.5q0 22 11.5 59t25.5 73.5l25.5 67t11.5 39.5q0 15 -11 15q-17 0 -44.5 -26t-59 -67.5t-63.5 -92t-59 -98.5l-12 -38h-51l225 741h52l-200 -656l53.5 88t57.5 82t55.5 61t47.5 24 q10 0 18.5 -7t13.5 -17t8 -21t3 -20q0 -33 -11.5 -73t-26 -77.5l-26 -67.5t-11.5 -42q0 -17 13 -17q11 0 34 18t50.5 46.5t57 64.5t53.5 71zM330 745q-26 0 -49.5 -43t-48 -114.5t-51 -164.5t-58.5 -193q21 21 45.5 54.5t49.5 73.5t47.5 85t40.5 89.5t28.5 86.5t10.5 77v12 t-1.5 16.5t-4.5 14.5t-9 6zM-40 -366h-43l149 541q-6 11 -12.5 30t-6.5 34q0 11 4 17.5t15 6.5q2 0 8.5 -5.5t8.5 -21.5l21.5 72l28 92t34 99t39.5 94q6 12 18 39t28 54t33 47.5t34 20.5q13 0 20 -5.5t10.5 -14.5t4.5 -19.5t1 -20.5q0 -54 -21 -119.5t-55 -132t-77 -130 t-87 -112.5l-15 -54q5 -10 14.5 -23t20.5 -24t21.5 -19t16.5 -8q18 0 35 12.5t33 30.5t29.5 38l24.5 35l6 -5l-23.5 -32.5t-31.5 -40.5t-35.5 -34.5t-35.5 -14.5q-12 0 -24.5 9t-24 20.5t-20 23t-11.5 16.5z" />
<glyph unicode="&#xfb02;" horiz-adv-x="433" d="M660 762q-35 0 -69 -30t-66.5 -79.5t-62 -113.5t-55.5 -132.5t-47 -135.5t-36 -123.5t-23 -96.5t-8 -53q0 -4 1.5 -7.5t9.5 -3.5q12 0 35.5 18.5t51.5 47.5t57.5 64.5t53.5 70.5l6 -5q-25 -36 -54.5 -73t-57 -67t-51 -49t-36.5 -19q-30 0 -40 29.5t-10 72.5 q0 13 8.5 49.5t24 88t38 112.5t50 123t59.5 120t67 103t73 72t77 27q38 0 73.5 -15.5t65.5 -60.5l-2 -11q-16 24 -33 39.5t-34 23.5t-33.5 11t-32.5 3zM330 745q-26 0 -49.5 -43t-48 -114.5t-51 -164.5t-58.5 -193q21 21 45.5 54.5t49.5 73.5t47.5 85t40.5 89.5t28.5 86.5 t10.5 77v12t-1.5 16.5t-4.5 14.5t-9 6zM-40 -366h-43l149 541q-6 11 -12.5 30t-6.5 34q0 11 4 17.5t15 6.5q2 0 8.5 -5.5t8.5 -21.5l21.5 72l28 92t34 99t39.5 94q6 12 18 39t28 54t33 47.5t34 20.5q13 0 20 -5.5t10.5 -14.5t4.5 -19.5t1 -20.5q0 -54 -21 -119.5t-55 -132 t-77 -130t-87 -112.5l-15 -54q5 -10 14.5 -23t20.5 -24t21.5 -19t16.5 -8q18 0 35 12.5t33 30.5t29.5 38l24.5 35l6 -5l-23.5 -32.5t-31.5 -40.5t-35.5 -34.5t-35.5 -14.5q-12 0 -24.5 9t-24 20.5t-20 23t-11.5 16.5z" />
<glyph unicode="&#xfb03;" horiz-adv-x="858" d="M933 182q-29 -41 -59 -78t-57 -66t-49.5 -46t-35.5 -17t-22 8.5t-14.5 21t-8 27t-2.5 26.5q0 22 11.5 59t25.5 73.5l25.5 67t11.5 39.5q0 15 -11 15q-17 0 -44.5 -26t-59 -67.5t-63.5 -92t-59 -98.5l-12 -38h-51l225 741h52l-200 -656l53.5 88t57.5 82t55.5 61t47.5 24 q10 0 18.5 -7t13.5 -17t8 -21t3 -20q0 -33 -11.5 -73t-26 -77.5l-26 -67.5t-11.5 -42q0 -17 13 -17q11 0 34 18t50.5 46.5t57 64.5t53.5 71zM557 745q-26 0 -49.5 -43t-48 -114.5t-51 -164.5t-58.5 -193q21 21 45.5 54.5t49.5 73.5t47.5 85t40.5 89.5t28.5 86.5t10.5 77v12 t-1.5 16.5t-4.5 14.5t-9 6zM187 -366h-43l149 541q-6 11 -12.5 30t-6.5 34q0 11 4 17.5t15 6.5q2 0 8.5 -5.5t8.5 -21.5l21.5 72l28 92t34 99t39.5 94q6 12 18 39t28 54t33 47.5t34 20.5q13 0 20 -5.5t10.5 -14.5t4.5 -19.5t1 -20.5q0 -54 -21 -119.5t-55 -132t-77 -130 t-87 -112.5l-15 -54q5 -10 14.5 -23t20.5 -24t21.5 -19t16.5 -8q18 0 35 12.5t33 30.5t29.5 38l24.5 35l6 -5l-23.5 -32.5t-31.5 -40.5t-35.5 -34.5t-35.5 -14.5q-12 0 -24.5 9t-24 20.5t-20 23t-11.5 16.5zM330 745q-26 0 -49.5 -43t-48 -114.5t-51 -164.5t-58.5 -193 q21 21 45.5 54.5t49.5 73.5t47.5 85t40.5 89.5t28.5 86.5t10.5 77v12t-1.5 16.5t-4.5 14.5t-9 6zM-40 -366h-43l149 541q-6 11 -12.5 30t-6.5 34q0 11 4 17.5t15 6.5q2 0 8.5 -5.5t8.5 -21.5l21.5 72l28 92t34 99t39.5 94q6 12 18 39t28 54t33 47.5t34 20.5q13 0 20 -5.5 t10.5 -14.5t4.5 -19.5t1 -20.5q0 -54 -21 -119.5t-55 -132t-77 -130t-87 -112.5l-15 -54q5 -10 14.5 -23t20.5 -24t21.5 -19t16.5 -8q18 0 35 12.5t33 30.5t29.5 38l24.5 35l6 -5l-23.5 -32.5t-31.5 -40.5t-35.5 -34.5t-35.5 -14.5q-12 0 -24.5 9t-24 20.5t-20 23 t-11.5 16.5z" />
<glyph unicode="&#xfb04;" horiz-adv-x="660" d="M887 762q-35 0 -69 -30t-66.5 -79.5t-62 -113.5t-55.5 -132.5t-47 -135.5t-36 -123.5t-23 -96.5t-8 -53q0 -4 1.5 -7.5t9.5 -3.5q12 0 35.5 18.5t51.5 47.5t57.5 64.5t53.5 70.5l6 -5q-25 -36 -54.5 -73t-57 -67t-51 -49t-36.5 -19q-30 0 -40 29.5t-10 72.5 q0 13 8.5 49.5t24 88t38 112.5t50 123t59.5 120t67 103t73 72t77 27q38 0 73.5 -15.5t65.5 -60.5l-2 -11q-16 24 -33 39.5t-34 23.5t-33.5 11t-32.5 3zM557 745q-26 0 -49.5 -43t-48 -114.5t-51 -164.5t-58.5 -193q21 21 45.5 54.5t49.5 73.5t47.5 85t40.5 89.5t28.5 86.5 t10.5 77v12t-1.5 16.5t-4.5 14.5t-9 6zM187 -366h-43l149 541q-6 11 -12.5 30t-6.5 34q0 11 4 17.5t15 6.5q2 0 8.5 -5.5t8.5 -21.5l21.5 72l28 92t34 99t39.5 94q6 12 18 39t28 54t33 47.5t34 20.5q13 0 20 -5.5t10.5 -14.5t4.5 -19.5t1 -20.5q0 -54 -21 -119.5t-55 -132 t-77 -130t-87 -112.5l-15 -54q5 -10 14.5 -23t20.5 -24t21.5 -19t16.5 -8q18 0 35 12.5t33 30.5t29.5 38l24.5 35l6 -5l-23.5 -32.5t-31.5 -40.5t-35.5 -34.5t-35.5 -14.5q-12 0 -24.5 9t-24 20.5t-20 23t-11.5 16.5zM330 745q-26 0 -49.5 -43t-48 -114.5t-51 -164.5 t-58.5 -193q21 21 45.5 54.5t49.5 73.5t47.5 85t40.5 89.5t28.5 86.5t10.5 77v12t-1.5 16.5t-4.5 14.5t-9 6zM-40 -366h-43l149 541q-6 11 -12.5 30t-6.5 34q0 11 4 17.5t15 6.5q2 0 8.5 -5.5t8.5 -21.5l21.5 72l28 92t34 99t39.5 94q6 12 18 39t28 54t33 47.5t34 20.5 q13 0 20 -5.5t10.5 -14.5t4.5 -19.5t1 -20.5q0 -54 -21 -119.5t-55 -132t-77 -130t-87 -112.5l-15 -54q5 -10 14.5 -23t20.5 -24t21.5 -19t16.5 -8q18 0 35 12.5t33 30.5t29.5 38l24.5 35l6 -5l-23.5 -32.5t-31.5 -40.5t-35.5 -34.5t-35.5 -14.5q-12 0 -24.5 9t-24 20.5 t-20 23t-11.5 16.5z" />
</font>
</defs>
</svg>
